<svg width="24" height="24" viewBox="0 0 24 24" fill="none" xmlns="http://www.w3.org/2000/svg">
<path d="M19.1996 5.33296C16.7503 5.33296 14.5516 4.88896 12.5676 2.90096C12.4176 2.75114 12.2143 2.66699 12.0023 2.66699C11.7903 2.66699 11.587 2.75114 11.437 2.90096C9.44764 4.88896 7.24764 5.33296 4.80098 5.33296C4.5888 5.33296 4.38532 5.41724 4.23529 5.56727C4.08526 5.7173 4.00098 5.92078 4.00098 6.13296V10.9356C4.00098 16.085 6.62764 19.585 11.7476 21.293C11.9121 21.3479 12.0899 21.3479 12.2543 21.293C17.3756 19.5863 20.001 16.085 20.001 10.9356V6.13296C20.001 5.69162 19.641 5.33296 19.1996 5.33296ZM18.6663 10.9343C18.6663 15.4623 16.485 18.4196 11.9996 19.969C7.51431 18.4196 5.33298 15.4623 5.33298 10.9343V6.65962C7.43831 6.60762 9.80231 6.19429 12.001 4.20229C14.1956 6.19296 16.561 6.60629 18.6663 6.65962V10.9343ZM11.3316 13.057L14.8596 9.52895C14.9848 9.40377 15.1546 9.33345 15.3316 9.33345C15.5087 9.33345 15.6785 9.40377 15.8036 9.52895C15.9288 9.65414 15.9992 9.82392 15.9992 10.001C15.9992 10.178 15.9288 10.3478 15.8036 10.473L11.8036 14.473C11.7417 14.535 11.6681 14.5843 11.5872 14.6179C11.5062 14.6515 11.4193 14.6688 11.3316 14.6688C11.244 14.6688 11.1571 14.6515 11.0761 14.6179C10.9951 14.5843 10.9216 14.535 10.8596 14.473L8.85964 12.473C8.79766 12.411 8.74849 12.3374 8.71495 12.2564C8.6814 12.1754 8.66413 12.0886 8.66413 12.001C8.66413 11.9133 8.6814 11.8265 8.71495 11.7455C8.74849 11.6645 8.79766 11.5909 8.85964 11.529C8.98483 11.4038 9.15461 11.3334 9.33164 11.3334C9.4193 11.3334 9.5061 11.3507 9.58709 11.3843C9.66807 11.4178 9.74166 11.467 9.80364 11.529L11.3316 13.057Z" fill="#E60C0C"/>
</svg>
