<svg width="158" height="572" viewBox="0 0 158 572" fill="none" xmlns="http://www.w3.org/2000/svg">
<path d="M98.7451 477.556L252.489 540.581C259.93 543.636 263.1 552.342 259.552 559.553C235.423 608.616 199.418 655.084 148.63 693.651C143.341 697.659 135.867 697.183 131.005 692.666L13.7588 583.862C7.82917 578.36 7.82921 568.833 13.956 563.544C43.0293 538.429 65.8281 511.442 81.9088 483.551C85.3253 477.638 92.4376 474.977 98.7451 477.556Z" fill="black"/>
<path d="M90.0828 387.892L253.699 373.47C261.698 372.764 268.597 379.022 268.679 387.054C268.695 389.535 268.712 392.015 268.712 394.512C268.712 424.981 265.344 457.028 257.838 489.189C255.9 497.5 247.063 502.198 239.162 498.962L84.9416 435.658C79.3405 433.358 75.7104 427.675 76.4167 421.663C77.1887 415.06 77.5665 408.441 77.5665 401.87C77.5665 401.821 77.5665 401.788 77.5665 401.739C77.5665 394.561 82.9541 388.533 90.0993 387.892H90.0828Z" fill="#A16AFA"/>
<path d="M72.2861 338.408C69.0291 333.499 69.3447 327.071 73.1299 322.559L73.1475 322.541L73.1602 322.525L194.808 177.636C200.223 171.187 210.169 171.317 215.423 177.829L215.67 178.145C245.204 216.976 266.631 266.562 277.33 328.739C278.612 336.21 273.184 343.187 265.684 344.056L265.324 344.093L92.9707 359.254C87.501 359.731 82.2878 356.805 79.9043 351.865L79.9053 351.864C77.7876 347.443 75.4226 343.225 72.8115 339.209L72.2861 338.408Z" fill="black" stroke="white" stroke-width="0.881602"/>
<path d="M24.6797 142.109L143.286 -7.24272C148.025 -13.2101 156.88 -14.0502 162.528 -8.95641L162.675 -8.82318L162.696 -8.82555C218.79 41.8201 261.282 99.9952 282.834 165.017L283.34 166.556C285.828 174.225 281.318 182.369 273.442 183.983L80.9105 211.149L80.8968 211.15L80.8832 211.153L80.3926 211.245C75.4845 212.068 70.4622 210.126 67.5769 206.113L67.2951 205.705C63.2562 199.607 55.8582 191.204 47.9549 182.77C40.0459 174.33 31.6035 165.831 25.4665 159.543C20.8419 154.795 20.5544 147.304 24.6797 142.109Z" fill="#A16AFA" stroke="white" stroke-width="0.881602"/>
</svg>
