<svg width="60" height="60" viewBox="0 0 60 60" fill="none" xmlns="http://www.w3.org/2000/svg">
<rect width="60" height="60" rx="30" fill="#0CA63C" fill-opacity="0.1"/>
<path d="M23 27V24.8C23 24.36 23.36 24 23.8 24H40.2C40.64 24 41 24.36 41 24.8V33.2C41 33.64 40.64 34 40.2 34H38M20.8 27H37.2C37.4122 27 37.6157 27.0843 37.7657 27.2343C37.9157 27.3843 38 27.5878 38 27.8V36.2C38 36.4122 37.9157 36.6157 37.7657 36.7657C37.6157 36.9157 37.4122 37 37.2 37H20.8C20.5878 37 20.3843 36.9157 20.2343 36.7657C20.0843 36.6157 20 36.4122 20 36.2V27.8C20 27.5878 20.0843 27.3843 20.2343 27.2343C20.3843 27.0843 20.5878 27 20.8 27ZM30 32C30 32.2652 29.8946 32.5196 29.7071 32.7071C29.5196 32.8946 29.2652 33 29 33C28.7348 33 28.4804 32.8946 28.2929 32.7071C28.1054 32.5196 28 32.2652 28 32C28 31.7348 28.1054 31.4804 28.2929 31.2929C28.4804 31.1054 28.7348 31 29 31C29.2652 31 29.5196 31.1054 29.7071 31.2929C29.8946 31.4804 30 31.7348 30 32Z" stroke="#0CA63C" stroke-width="1.5" stroke-miterlimit="10" stroke-linejoin="round"/>
</svg>
