<svg width="16" height="16" viewBox="0 0 16 16" fill="none" xmlns="http://www.w3.org/2000/svg">
<path d="M14.3742 7.56758L7.62773 1.71222C7.57595 1.66758 7.50988 1.64258 7.44023 1.64258H5.85988C5.72773 1.64258 5.66702 1.80686 5.76702 1.89258L12.0206 7.32115H1.57059C1.49202 7.32115 1.42773 7.38544 1.42773 7.46401V8.53544C1.42773 8.61401 1.49202 8.67829 1.57059 8.67829H12.0188L5.76523 14.1069C5.66523 14.1944 5.72595 14.3569 5.85809 14.3569H7.49202C7.52595 14.3569 7.55988 14.3444 7.58488 14.3211L14.3742 8.43186C14.436 8.37811 14.4855 8.31171 14.5195 8.23716C14.5535 8.16261 14.5711 8.08164 14.5711 7.99972C14.5711 7.9178 14.5535 7.83683 14.5195 7.76228C14.4855 7.68773 14.436 7.62134 14.3742 7.56758Z" fill="#20113C"/>
</svg>
