<svg width="64" height="64" viewBox="0 0 64 64" fill="none" xmlns="http://www.w3.org/2000/svg">
<rect width="64" height="64" rx="32" fill="#3F53D8"/>
<path d="M22.3702 25.7301H37.5842C38.9622 25.7301 39.9572 27.0001 39.5792 28.2781L37.9252 33.8781C37.6702 34.7381 36.8562 35.3301 35.9302 35.3301H26.7722C25.8452 35.3301 25.0302 34.7371 24.7762 33.8781L22.3702 25.7301ZM22.3702 25.7301L21.6602 23.3301M35.1602 41.3301C35.558 41.3301 35.9395 41.172 36.2208 40.8907C36.5021 40.6094 36.6602 40.2279 36.6602 39.8301C36.6602 39.4323 36.5021 39.0507 36.2208 38.7694C35.9395 38.4881 35.558 38.3301 35.1602 38.3301C34.7623 38.3301 34.3808 38.4881 34.0995 38.7694C33.8182 39.0507 33.6602 39.4323 33.6602 39.8301C33.6602 40.2279 33.8182 40.6094 34.0995 40.8907C34.3808 41.172 34.7623 41.3301 35.1602 41.3301ZM27.1602 41.3301C27.558 41.3301 27.9395 41.172 28.2208 40.8907C28.5021 40.6094 28.6602 40.2279 28.6602 39.8301C28.6602 39.4323 28.5021 39.0507 28.2208 38.7694C27.9395 38.4881 27.558 38.3301 27.1602 38.3301C26.7623 38.3301 26.3808 38.4881 26.0995 38.7694C25.8182 39.0507 25.6602 39.4323 25.6602 39.8301C25.6602 40.2279 25.8182 40.6094 26.0995 40.8907C26.3808 41.172 26.7623 41.3301 27.1602 41.3301Z" stroke="white" stroke-width="1.5" stroke-linecap="round" stroke-linejoin="round"/>
</svg>
