<svg width="64" height="64" viewBox="0 0 64 64" fill="none" xmlns="http://www.w3.org/2000/svg">
<rect width="64" height="64" rx="32" fill="#013B43"/>
<path d="M41.3692 23.8251C39.4772 22.8841 37.1602 22.3301 34.6602 22.3301C32.1602 22.3301 29.8442 22.8841 27.9512 23.8251C27.0232 24.2871 26.5592 24.5181 26.1102 25.2441C25.6612 25.9701 25.6602 26.6731 25.6602 28.0781V31.5681C25.6602 37.2511 30.2022 40.4111 32.8332 41.7641C33.5672 42.1411 33.9332 42.3301 34.6602 42.3301C35.3872 42.3301 35.7532 42.1411 36.4872 41.7641C39.1172 40.4101 43.6602 37.2501 43.6602 31.5671V28.0781C43.6602 26.6731 43.6602 25.9701 43.2102 25.2441C42.7602 24.5181 42.2972 24.2871 41.3692 23.8251Z" stroke="white" stroke-width="1.5" stroke-linecap="round" stroke-linejoin="round"/>
<path d="M34.6602 29.3301V30.3301M33.6602 29.8301C33.6602 30.0953 33.7655 30.3496 33.953 30.5372C34.1406 30.7247 34.3949 30.8301 34.6602 30.8301C34.9254 30.8301 35.1797 30.7247 35.3673 30.5372C35.5548 30.3496 35.6602 30.0953 35.6602 29.8301C35.6602 29.5649 35.5548 29.3105 35.3673 29.123C35.1797 28.9354 34.9254 28.8301 34.6602 28.8301C34.3949 28.8301 34.1406 28.9354 33.953 29.123C33.7655 29.3105 33.6602 29.5649 33.6602 29.8301Z" stroke="white" stroke-width="1.5" stroke-linecap="round" stroke-linejoin="round"/>
<path d="M35.4102 34.3301H33.9102L34.6602 30.8301L35.4102 34.3301Z" stroke="white" stroke-width="1.5" stroke-linecap="round" stroke-linejoin="round"/>
</svg>
