<svg width="472" height="369" viewBox="0 0 472 369" fill="none" xmlns="http://www.w3.org/2000/svg">
<path d="M290.653 -53.6894L252.445 263.928C250.579 279.457 235.882 290.092 220.541 287.024C215.808 286.059 211.074 285.095 206.316 284.093C148.245 271.859 88.5216 252.574 30.2407 225.355C15.1787 218.324 9.77371 199.596 19.113 185.837L201.683 -82.6662C208.314 -92.4178 220.603 -97.0543 231.777 -93.2945C244.052 -89.1719 256.516 -85.7941 269.038 -83.1561C269.132 -83.1363 269.194 -83.1231 269.288 -83.1033C282.968 -80.2213 292.294 -67.5329 290.646 -53.6581L290.653 -53.6894Z" fill="#A16AFA"/>
<path d="M374.365 311.762L544.04 40.5586C552.337 27.3003 547.575 9.79505 533.708 2.55165C529.418 0.33045 525.128 -1.89084 520.795 -4.09806C467.916 -31.0349 409.323 -53.5219 346.871 -68.9269C330.733 -72.9108 314.768 -61.7274 313.399 -45.1551L286.923 278.457C285.963 290.211 292.617 301.535 303.674 305.624C315.817 310.122 327.639 315.318 339.041 321.127C339.127 321.17 339.184 321.199 339.269 321.243C351.727 327.589 366.952 323.568 374.38 311.734L374.365 311.762Z" fill="#A16AFA"/>
</svg>
