<svg width="42" height="42" viewBox="0 0 42 42" fill="none" xmlns="http://www.w3.org/2000/svg">
<path d="M13.4959 27.8761C9.78861 24.1617 6.93757 19.6821 5.14216 14.7508C4.1544 12.0548 5.05942 9.0932 7.0901 7.06252L8.34678 5.80756C8.68463 5.46903 9.08593 5.20045 9.5277 5.0172C9.96948 4.83395 10.4431 4.73962 10.9213 4.73962C11.3996 4.73962 11.8732 4.83395 12.315 5.0172C12.7567 5.20045 13.158 5.46903 13.4959 5.80756L16.4385 8.75015C16.777 9.088 17.0456 9.4893 17.2288 9.93108C17.4121 10.3729 17.5064 10.8464 17.5064 11.3247C17.5064 11.803 17.4121 12.2766 17.2288 12.7183C17.0456 13.1601 16.777 13.5614 16.4385 13.8993L15.7145 14.6233C15.4247 14.913 15.1948 15.257 15.0379 15.6356C14.8811 16.0142 14.8004 16.42 14.8004 16.8298C14.8004 17.2396 14.8811 17.6454 15.0379 18.024C15.1948 18.4026 15.4247 18.7466 15.7145 19.0363L22.334 25.6576C22.6238 25.9474 22.9677 26.1773 23.3463 26.3341C23.7249 26.4909 24.1307 26.5717 24.5405 26.5717C24.9503 26.5717 25.3561 26.4909 25.7347 26.3341C26.1133 26.1773 26.4573 25.9474 26.747 25.6576L27.4728 24.9336C27.8106 24.595 28.2119 24.3264 28.6537 24.1432C29.0955 23.9599 29.5691 23.8656 30.0473 23.8656C30.5256 23.8656 30.9992 23.9599 31.441 24.1432C31.8827 24.3264 32.284 24.595 32.6219 24.9336L35.5645 27.8761C35.903 28.214 36.1716 28.6153 36.3548 29.0571C36.5381 29.4988 36.6324 29.9724 36.6324 30.4507C36.6324 30.929 36.5381 31.4026 36.3548 31.8443C36.1716 32.2861 35.903 32.6874 35.5645 33.0253L34.3095 34.2802C32.2788 36.3126 29.3173 37.2176 26.6212 36.2299C21.6899 34.4345 17.2104 31.5834 13.4959 27.8761Z" stroke="white" stroke-width="2.58576" stroke-linejoin="round"/>
</svg>
