<svg width="35" height="28" viewBox="0 0 35 28" fill="none" xmlns="http://www.w3.org/2000/svg">
<path d="M0 3.44768C0 2.5333 0.363236 1.65637 1.0098 1.0098C1.65637 0.363236 2.5333 0 3.44768 0H31.0291C31.9435 0 32.8204 0.363236 33.467 1.0098C34.1135 1.65637 34.4768 2.5333 34.4768 3.44768V24.1337C34.4768 25.0481 34.1135 25.9251 33.467 26.5716C32.8204 27.2182 31.9435 27.5814 31.0291 27.5814H3.44768C2.5333 27.5814 1.65637 27.2182 1.0098 26.5716C0.363236 25.9251 0 25.0481 0 24.1337V3.44768ZM6.06619 3.44768L17.2384 13.2236L28.4106 3.44768H6.06619ZM31.0291 5.73866L18.3744 16.8126C18.06 17.088 17.6563 17.2399 17.2384 17.2399C16.8204 17.2399 16.4167 17.088 16.1024 16.8126L3.44768 5.73866V24.1337H31.0291V5.73866Z" fill="white"/>
</svg>
