<svg width="111" height="111" viewBox="0 0 111 111" fill="none" xmlns="http://www.w3.org/2000/svg">
<rect width="110.326" height="110.326" rx="55.1628" fill="#A16AFA"/>
<path d="M35.6147 45.3888C35.6147 44.4745 35.978 43.5975 36.6245 42.951C37.2711 42.3044 38.148 41.9412 39.0624 41.9412H66.6438C67.5582 41.9412 68.4352 42.3044 69.0817 42.951C69.7283 43.5975 70.0915 44.4745 70.0915 45.3888V66.0749C70.0915 66.9893 69.7283 67.8662 69.0817 68.5128C68.4352 69.1593 67.5582 69.5226 66.6438 69.5226H39.0624C38.148 69.5226 37.2711 69.1593 36.6245 68.5128C35.978 67.8662 35.6147 66.9893 35.6147 66.0749V45.3888ZM41.6809 45.3888L52.8531 55.1647L64.0253 45.3888H41.6809ZM66.6438 47.6798L53.9891 58.7538C53.6748 59.0292 53.2711 59.181 52.8531 59.181C52.4352 59.181 52.0315 59.0292 51.7171 58.7538L39.0624 47.6798V66.0749H66.6438V47.6798Z" fill="white"/>
</svg>
