<svg width="487" height="740" viewBox="0 0 487 740" fill="none" xmlns="http://www.w3.org/2000/svg">
<path d="M430.666 52.8391L486.071 681.418C488.785 712.15 464.742 738.654 433.885 738.969C424.356 739.032 414.827 739.095 405.235 739.095C288.177 739.095 165.061 726.159 41.5036 697.321C9.57294 689.874 -8.4747 655.924 3.9568 625.571L247.16 33.0876C255.994 11.5691 277.828 -2.37692 300.924 0.336554C326.292 3.30244 351.723 4.75391 376.965 4.75391C377.154 4.75391 377.28 4.75391 377.47 4.75391C405.046 4.75391 428.205 25.4521 430.666 52.9023V52.8391Z" fill="#A16AFA"/>
<path d="M111.528 528.051V498.96H131.131V504.031H117.679V510.963H130.122V516.034H117.679V522.98H131.188V528.051H111.528ZM141.804 515.438V528.051H135.753V506.233H141.52V510.083H141.776C142.259 508.814 143.068 507.81 144.205 507.071C145.341 506.323 146.719 505.949 148.338 505.949C149.853 505.949 151.174 506.28 152.301 506.943C153.428 507.606 154.304 508.553 154.929 509.784C155.554 511.006 155.867 512.464 155.867 514.159V528.051H149.815V515.239C149.825 513.904 149.484 512.862 148.793 512.114C148.101 511.356 147.15 510.977 145.938 510.977C145.123 510.977 144.404 511.153 143.779 511.503C143.163 511.853 142.68 512.365 142.33 513.037C141.989 513.7 141.814 514.5 141.804 515.438ZM172.087 506.233V510.779H158.948V506.233H172.087ZM161.931 501.006H167.982V521.347C167.982 521.905 168.067 522.341 168.237 522.654C168.408 522.957 168.645 523.17 168.948 523.293C169.26 523.416 169.62 523.477 170.027 523.477C170.311 523.477 170.595 523.454 170.88 523.406C171.164 523.35 171.381 523.307 171.533 523.279L172.485 527.781C172.182 527.876 171.755 527.985 171.206 528.108C170.657 528.241 169.989 528.321 169.203 528.35C167.745 528.406 166.467 528.212 165.368 527.767C164.279 527.322 163.432 526.631 162.826 525.693C162.219 524.756 161.921 523.572 161.931 522.142V501.006ZM185.583 528.477C183.339 528.477 181.407 528.023 179.788 527.114C178.178 526.195 176.938 524.898 176.066 523.222C175.195 521.536 174.76 519.543 174.76 517.242C174.76 514.997 175.195 513.028 176.066 511.333C176.938 509.637 178.164 508.316 179.745 507.369C181.336 506.422 183.202 505.949 185.342 505.949C186.781 505.949 188.121 506.181 189.362 506.645C190.612 507.1 191.701 507.786 192.629 508.705C193.566 509.623 194.296 510.779 194.816 512.171C195.337 513.553 195.598 515.172 195.598 517.029V518.69H177.174V514.94H189.902C189.902 514.069 189.712 513.297 189.333 512.625C188.955 511.953 188.429 511.427 187.757 511.048C187.094 510.66 186.322 510.466 185.441 510.466C184.523 510.466 183.708 510.679 182.998 511.105C182.297 511.522 181.748 512.085 181.351 512.796C180.953 513.496 180.749 514.278 180.74 515.139V518.705C180.74 519.784 180.939 520.717 181.336 521.503C181.743 522.289 182.316 522.895 183.055 523.321C183.794 523.747 184.67 523.96 185.683 523.96C186.355 523.96 186.971 523.866 187.529 523.676C188.088 523.487 188.566 523.203 188.964 522.824C189.362 522.445 189.665 521.981 189.873 521.432L195.47 521.801C195.186 523.146 194.603 524.32 193.723 525.324C192.851 526.318 191.725 527.095 190.342 527.654C188.969 528.203 187.383 528.477 185.583 528.477ZM199.393 528.051V506.233H205.259V510.04H205.486C205.884 508.686 206.552 507.663 207.489 506.972C208.427 506.271 209.506 505.921 210.728 505.921C211.031 505.921 211.357 505.94 211.708 505.977C212.058 506.015 212.366 506.067 212.631 506.134V511.503C212.347 511.418 211.954 511.342 211.452 511.276C210.95 511.209 210.491 511.176 210.074 511.176C209.184 511.176 208.389 511.37 207.688 511.759C206.997 512.137 206.447 512.668 206.04 513.35C205.643 514.031 205.444 514.817 205.444 515.708V528.051H199.393ZM215.606 536.233V506.233H221.572V509.898H221.842C222.107 509.311 222.49 508.714 222.992 508.108C223.503 507.493 224.166 506.981 224.981 506.574C225.805 506.157 226.827 505.949 228.049 505.949C229.64 505.949 231.108 506.366 232.452 507.199C233.797 508.023 234.872 509.268 235.677 510.935C236.482 512.592 236.884 514.671 236.884 517.171C236.884 519.604 236.491 521.659 235.705 523.335C234.929 525.002 233.868 526.266 232.523 527.128C231.188 527.98 229.692 528.406 228.035 528.406C226.86 528.406 225.861 528.212 225.038 527.824C224.223 527.436 223.556 526.948 223.035 526.361C222.514 525.764 222.116 525.163 221.842 524.557H221.657V536.233H215.606ZM221.529 517.142C221.529 518.44 221.709 519.571 222.069 520.537C222.429 521.503 222.949 522.256 223.631 522.796C224.313 523.326 225.142 523.591 226.117 523.591C227.102 523.591 227.935 523.321 228.617 522.781C229.299 522.232 229.815 521.475 230.165 520.509C230.525 519.533 230.705 518.411 230.705 517.142C230.705 515.883 230.53 514.775 230.18 513.818C229.829 512.862 229.313 512.114 228.631 511.574C227.949 511.034 227.111 510.764 226.117 510.764C225.132 510.764 224.299 511.025 223.617 511.546C222.945 512.066 222.429 512.805 222.069 513.761C221.709 514.718 221.529 515.845 221.529 517.142ZM240.764 528.051V506.233H246.631V510.04H246.858C247.256 508.686 247.923 507.663 248.861 506.972C249.798 506.271 250.878 505.921 252.099 505.921C252.402 505.921 252.729 505.94 253.08 505.977C253.43 506.015 253.738 506.067 254.003 506.134V511.503C253.719 511.418 253.326 511.342 252.824 511.276C252.322 511.209 251.863 511.176 251.446 511.176C250.556 511.176 249.76 511.37 249.06 511.759C248.368 512.137 247.819 512.668 247.412 513.35C247.014 514.031 246.815 514.817 246.815 515.708V528.051H240.764ZM256.977 528.051V506.233H263.029V528.051H256.977ZM260.017 503.421C259.118 503.421 258.346 503.122 257.702 502.526C257.067 501.92 256.75 501.195 256.75 500.352C256.75 499.519 257.067 498.804 257.702 498.208C258.346 497.601 259.118 497.298 260.017 497.298C260.917 497.298 261.684 497.601 262.318 498.208C262.962 498.804 263.284 499.519 263.284 500.352C263.284 501.195 262.962 501.92 262.318 502.526C261.684 503.122 260.917 503.421 260.017 503.421ZM285.875 512.455L280.335 512.796C280.241 512.322 280.037 511.896 279.725 511.517C279.412 511.129 279 510.821 278.489 510.594C277.987 510.357 277.386 510.239 276.685 510.239C275.747 510.239 274.957 510.438 274.313 510.835C273.669 511.224 273.347 511.744 273.347 512.398C273.347 512.919 273.555 513.359 273.972 513.719C274.389 514.079 275.103 514.368 276.117 514.585L280.066 515.381C282.187 515.816 283.768 516.517 284.81 517.483C285.852 518.449 286.372 519.718 286.372 521.29C286.372 522.72 285.951 523.975 285.108 525.054C284.275 526.134 283.129 526.976 281.671 527.583C280.222 528.179 278.55 528.477 276.657 528.477C273.768 528.477 271.467 527.876 269.753 526.673C268.049 525.461 267.049 523.814 266.756 521.73L272.708 521.418C272.888 522.298 273.323 522.971 274.014 523.435C274.706 523.889 275.591 524.117 276.671 524.117C277.731 524.117 278.584 523.913 279.228 523.506C279.881 523.089 280.212 522.554 280.222 521.901C280.212 521.351 279.98 520.902 279.526 520.551C279.071 520.191 278.371 519.917 277.424 519.727L273.645 518.975C271.514 518.548 269.928 517.81 268.887 516.759C267.854 515.708 267.338 514.368 267.338 512.739C267.338 511.337 267.717 510.13 268.475 509.117C269.242 508.103 270.317 507.322 271.699 506.773C273.091 506.224 274.72 505.949 276.585 505.949C279.341 505.949 281.51 506.531 283.091 507.696C284.682 508.861 285.61 510.447 285.875 512.455ZM299.972 528.477C297.728 528.477 295.796 528.023 294.176 527.114C292.567 526.195 291.326 524.898 290.455 523.222C289.584 521.536 289.148 519.543 289.148 517.242C289.148 514.997 289.584 513.028 290.455 511.333C291.326 509.637 292.552 508.316 294.134 507.369C295.725 506.422 297.59 505.949 299.73 505.949C301.17 505.949 302.51 506.181 303.75 506.645C305 507.1 306.089 507.786 307.017 508.705C307.955 509.623 308.684 510.779 309.205 512.171C309.726 513.553 309.986 515.172 309.986 517.029V518.69H291.563V514.94H304.29C304.29 514.069 304.101 513.297 303.722 512.625C303.343 511.953 302.818 511.427 302.145 511.048C301.482 510.66 300.711 510.466 299.83 510.466C298.911 510.466 298.097 510.679 297.387 511.105C296.686 511.522 296.137 512.085 295.739 512.796C295.341 513.496 295.138 514.278 295.128 515.139V518.705C295.128 519.784 295.327 520.717 295.725 521.503C296.132 522.289 296.705 522.895 297.444 523.321C298.182 523.747 299.058 523.96 300.071 523.96C300.744 523.96 301.359 523.866 301.918 523.676C302.477 523.487 302.955 523.203 303.353 522.824C303.75 522.445 304.053 521.981 304.262 521.432L309.858 521.801C309.574 523.146 308.992 524.32 308.111 525.324C307.24 526.318 306.113 527.095 304.73 527.654C303.357 528.203 301.771 528.477 299.972 528.477ZM331.934 512.455L326.395 512.796C326.3 512.322 326.096 511.896 325.784 511.517C325.471 511.129 325.059 510.821 324.548 510.594C324.046 510.357 323.445 510.239 322.744 510.239C321.807 510.239 321.016 510.438 320.372 510.835C319.728 511.224 319.406 511.744 319.406 512.398C319.406 512.919 319.614 513.359 320.031 513.719C320.448 514.079 321.163 514.368 322.176 514.585L326.125 515.381C328.246 515.816 329.827 516.517 330.869 517.483C331.911 518.449 332.432 519.718 332.432 521.29C332.432 522.72 332.01 523.975 331.167 525.054C330.334 526.134 329.188 526.976 327.73 527.583C326.281 528.179 324.61 528.477 322.716 528.477C319.827 528.477 317.526 527.876 315.812 526.673C314.108 525.461 313.109 523.814 312.815 521.73L318.767 521.418C318.947 522.298 319.382 522.971 320.074 523.435C320.765 523.889 321.65 524.117 322.73 524.117C323.79 524.117 324.643 523.913 325.287 523.506C325.94 523.089 326.272 522.554 326.281 521.901C326.272 521.351 326.04 520.902 325.585 520.551C325.13 520.191 324.43 519.917 323.483 519.727L319.704 518.975C317.574 518.548 315.987 517.81 314.946 516.759C313.914 515.708 313.398 514.368 313.398 512.739C313.398 511.337 313.776 510.13 314.534 509.117C315.301 508.103 316.376 507.322 317.758 506.773C319.15 506.224 320.779 505.949 322.645 505.949C325.4 505.949 327.569 506.531 329.15 507.696C330.741 508.861 331.669 510.447 331.934 512.455Z" fill="white"/>
<path d="M110.739 578.051V564.96H114.964C115.893 564.96 116.668 565.139 117.29 565.497C117.917 565.851 118.388 566.333 118.703 566.942C119.023 567.551 119.183 568.237 119.183 569C119.183 569.763 119.025 570.451 118.71 571.065C118.394 571.674 117.925 572.158 117.303 572.516C116.681 572.869 115.908 573.046 114.983 573.046H111.659V571.972H114.951C115.637 571.972 116.206 571.845 116.658 571.589C117.109 571.329 117.446 570.975 117.668 570.528C117.893 570.08 118.006 569.571 118.006 569C118.006 568.429 117.893 567.92 117.668 567.472C117.446 567.025 117.107 566.673 116.651 566.418C116.2 566.162 115.626 566.034 114.932 566.034H111.934V578.051H110.739ZM125.309 578.256C124.461 578.256 123.711 578.041 123.059 577.61C122.411 577.18 121.904 576.585 121.537 575.827C121.171 575.064 120.988 574.184 120.988 573.187C120.988 572.181 121.171 571.297 121.537 570.534C121.904 569.767 122.411 569.171 123.059 568.744C123.711 568.314 124.461 568.099 125.309 568.099C126.157 568.099 126.905 568.314 127.552 568.744C128.2 569.175 128.707 569.771 129.074 570.534C129.444 571.297 129.63 572.181 129.63 573.187C129.63 574.184 129.446 575.064 129.08 575.827C128.714 576.585 128.204 577.18 127.552 577.61C126.905 578.041 126.157 578.256 125.309 578.256ZM125.309 577.214C125.991 577.214 126.568 577.031 127.041 576.664C127.514 576.298 127.872 575.81 128.115 575.2C128.362 574.591 128.486 573.92 128.486 573.187C128.486 572.454 128.362 571.781 128.115 571.167C127.872 570.553 127.514 570.061 127.041 569.69C126.568 569.32 125.991 569.134 125.309 569.134C124.631 569.134 124.054 569.32 123.576 569.69C123.103 570.061 122.743 570.553 122.496 571.167C122.253 571.781 122.132 572.454 122.132 573.187C122.132 573.92 122.253 574.591 122.496 575.2C122.743 575.81 123.103 576.298 123.576 576.664C124.049 577.031 124.627 577.214 125.309 577.214ZM133.819 578.051L130.853 568.233H132.055L134.382 576.332H134.465L136.785 568.233H137.993L140.294 576.313H140.384L142.71 568.233H143.912L140.946 578.051H139.77L137.443 570.004H137.322L134.995 578.051H133.819ZM149.605 578.256C148.689 578.256 147.896 578.043 147.227 577.617C146.558 577.186 146.041 576.592 145.674 575.833C145.312 575.07 145.131 574.193 145.131 573.2C145.131 572.211 145.312 571.333 145.674 570.566C146.041 569.795 146.546 569.192 147.189 568.757C147.837 568.318 148.585 568.099 149.433 568.099C149.965 568.099 150.479 568.197 150.973 568.393C151.468 568.585 151.911 568.881 152.303 569.281C152.699 569.678 153.012 570.178 153.242 570.784C153.472 571.384 153.588 572.096 153.588 572.918V573.481H145.917V572.477H152.424C152.424 571.847 152.296 571.28 152.041 570.777C151.789 570.27 151.438 569.869 150.986 569.575C150.539 569.281 150.021 569.134 149.433 569.134C148.811 569.134 148.263 569.301 147.79 569.633C147.317 569.965 146.946 570.404 146.678 570.95C146.414 571.495 146.279 572.092 146.275 572.739V573.34C146.275 574.12 146.409 574.802 146.678 575.386C146.95 575.965 147.336 576.415 147.835 576.735C148.333 577.054 148.923 577.214 149.605 577.214C150.07 577.214 150.477 577.141 150.826 576.997C151.18 576.852 151.476 576.658 151.715 576.415C151.958 576.168 152.141 575.897 152.264 575.603L153.345 575.955C153.195 576.368 152.95 576.749 152.61 577.099C152.273 577.448 151.851 577.73 151.344 577.943C150.841 578.151 150.262 578.256 149.605 578.256ZM155.941 578.051V568.233H157.047V569.742H157.13C157.326 569.247 157.667 568.849 158.152 568.546C158.643 568.239 159.196 568.086 159.814 568.086C159.908 568.086 160.013 568.088 160.128 568.092C160.243 568.097 160.339 568.101 160.415 568.105V569.262C160.364 569.254 160.275 569.241 160.147 569.224C160.019 569.207 159.88 569.198 159.731 569.198C159.22 569.198 158.764 569.307 158.363 569.524C157.967 569.737 157.654 570.034 157.424 570.413C157.194 570.792 157.079 571.225 157.079 571.71V578.051H155.941ZM162.216 578.051V568.233H163.36V578.051H162.216ZM162.797 566.546C162.563 566.546 162.363 566.467 162.196 566.309C162.03 566.147 161.947 565.953 161.947 565.727C161.947 565.502 162.03 565.31 162.196 565.152C162.363 564.99 162.563 564.909 162.797 564.909C163.032 564.909 163.232 564.99 163.398 565.152C163.564 565.31 163.647 565.502 163.647 565.727C163.647 565.953 163.564 566.147 163.398 566.309C163.232 566.467 163.032 566.546 162.797 566.546ZM167.353 571.915V578.051H166.215V568.233H167.321V569.774H167.423C167.653 569.271 168.011 568.868 168.497 568.565C168.987 568.259 169.592 568.105 170.312 568.105C170.973 568.105 171.552 568.244 172.051 568.521C172.554 568.793 172.944 569.196 173.221 569.729C173.502 570.261 173.642 570.916 173.642 571.691V578.051H172.505V571.761C172.505 570.956 172.279 570.319 171.827 569.85C171.38 569.382 170.779 569.147 170.025 569.147C169.509 569.147 169.051 569.258 168.65 569.48C168.25 569.701 167.932 570.021 167.698 570.438C167.468 570.852 167.353 571.344 167.353 571.915ZM180.23 581.938C179.561 581.938 178.975 581.85 178.473 581.676C177.97 581.505 177.546 581.271 177.201 580.972C176.855 580.674 176.587 580.34 176.395 579.969L177.328 579.355C177.469 579.602 177.657 579.845 177.891 580.084C178.13 580.323 178.439 580.521 178.818 580.678C179.201 580.836 179.672 580.915 180.23 580.915C181.1 580.915 181.801 580.698 182.333 580.263C182.87 579.828 183.139 579.153 183.139 578.237V576.025H183.037C182.904 576.323 182.715 576.622 182.468 576.92C182.22 577.214 181.897 577.459 181.496 577.655C181.1 577.851 180.608 577.949 180.019 577.949C179.235 577.949 178.539 577.755 177.929 577.367C177.324 576.98 176.847 576.426 176.497 575.705C176.152 574.981 175.98 574.118 175.98 573.117C175.98 572.124 176.148 571.25 176.485 570.496C176.826 569.742 177.301 569.154 177.91 568.732C178.519 568.31 179.229 568.099 180.039 568.099C180.64 568.099 181.138 568.205 181.534 568.418C181.931 568.627 182.248 568.887 182.487 569.198C182.73 569.509 182.919 569.812 183.056 570.106H183.171V568.233H184.283V578.307C184.283 579.138 184.106 579.822 183.752 580.359C183.399 580.896 182.917 581.292 182.308 581.548C181.698 581.808 181.006 581.938 180.23 581.938ZM180.154 576.907C180.784 576.907 181.323 576.756 181.771 576.453C182.218 576.146 182.561 575.708 182.8 575.136C183.039 574.565 183.158 573.886 183.158 573.097C183.158 572.33 183.041 571.651 182.806 571.058C182.572 570.462 182.231 569.993 181.784 569.652C181.34 569.307 180.797 569.134 180.154 569.134C179.497 569.134 178.943 569.311 178.492 569.665C178.04 570.019 177.699 570.496 177.469 571.097C177.239 571.693 177.124 572.36 177.124 573.097C177.124 573.847 177.241 574.51 177.475 575.085C177.71 575.656 178.053 576.104 178.505 576.428C178.956 576.747 179.506 576.907 180.154 576.907ZM195.885 578.256C195.007 578.256 194.242 578.036 193.59 577.597C192.942 577.159 192.44 576.558 192.082 575.795C191.724 575.032 191.545 574.163 191.545 573.187C191.545 572.203 191.726 571.327 192.088 570.56C192.455 569.793 192.962 569.192 193.609 568.757C194.257 568.318 195.009 568.099 195.866 568.099C196.522 568.099 197.116 568.227 197.649 568.482C198.182 568.734 198.621 569.09 198.966 569.55C199.315 570.006 199.535 570.538 199.624 571.148H198.474C198.354 570.594 198.067 570.121 197.611 569.729C197.159 569.333 196.584 569.134 195.885 569.134C195.259 569.134 194.705 569.305 194.223 569.646C193.741 569.982 193.364 570.453 193.092 571.058C192.823 571.659 192.689 572.356 192.689 573.149C192.689 573.945 192.821 574.651 193.085 575.264C193.349 575.874 193.72 576.351 194.197 576.696C194.679 577.041 195.241 577.214 195.885 577.214C196.32 577.214 196.716 577.133 197.074 576.971C197.436 576.805 197.739 576.57 197.982 576.268C198.229 575.965 198.395 575.605 198.48 575.188H199.631C199.545 575.78 199.335 576.308 198.998 576.773C198.665 577.233 198.233 577.595 197.7 577.86C197.172 578.124 196.567 578.256 195.885 578.256ZM205.731 578.256C204.883 578.256 204.133 578.041 203.481 577.61C202.834 577.18 202.326 576.585 201.96 575.827C201.594 575.064 201.41 574.184 201.41 573.187C201.41 572.181 201.594 571.297 201.96 570.534C202.326 569.767 202.834 569.171 203.481 568.744C204.133 568.314 204.883 568.099 205.731 568.099C206.579 568.099 207.327 568.314 207.975 568.744C208.623 569.175 209.13 569.771 209.496 570.534C209.867 571.297 210.052 572.181 210.052 573.187C210.052 574.184 209.869 575.064 209.503 575.827C209.136 576.585 208.627 577.18 207.975 577.61C207.327 578.041 206.579 578.256 205.731 578.256ZM205.731 577.214C206.413 577.214 206.991 577.031 207.464 576.664C207.937 576.298 208.295 575.81 208.537 575.2C208.785 574.591 208.908 573.92 208.908 573.187C208.908 572.454 208.785 571.781 208.537 571.167C208.295 570.553 207.937 570.061 207.464 569.69C206.991 569.32 206.413 569.134 205.731 569.134C205.054 569.134 204.476 569.32 203.999 569.69C203.526 570.061 203.166 570.553 202.919 571.167C202.676 571.781 202.554 572.454 202.554 573.187C202.554 573.92 202.676 574.591 202.919 575.2C203.166 575.81 203.526 576.298 203.999 576.664C204.472 577.031 205.049 577.214 205.731 577.214ZM212.396 578.051V568.233H213.502V569.742H213.604C213.8 569.235 214.126 568.836 214.582 568.546C215.042 568.252 215.594 568.105 216.238 568.105C216.915 568.105 217.471 568.265 217.906 568.585C218.345 568.9 218.673 569.335 218.89 569.889H218.973C219.195 569.343 219.555 568.911 220.054 568.591C220.557 568.267 221.166 568.105 221.882 568.105C222.794 568.105 223.514 568.393 224.042 568.968C224.571 569.539 224.835 570.374 224.835 571.474V578.051H223.697V571.474C223.697 570.698 223.499 570.117 223.103 569.729C222.706 569.341 222.184 569.147 221.537 569.147C220.787 569.147 220.209 569.377 219.804 569.837C219.4 570.298 219.197 570.882 219.197 571.589V578.051H218.034V571.372C218.034 570.707 217.848 570.17 217.478 569.761C217.107 569.352 216.585 569.147 215.912 569.147C215.46 569.147 215.053 569.258 214.691 569.48C214.333 569.701 214.049 570.01 213.841 570.406C213.636 570.798 213.534 571.25 213.534 571.761V578.051H212.396ZM227.693 581.733V568.233H228.799V570.106H228.933C229.07 569.812 229.257 569.511 229.496 569.205C229.734 568.894 230.05 568.632 230.442 568.418C230.838 568.205 231.337 568.099 231.938 568.099C232.747 568.099 233.455 568.312 234.06 568.738C234.669 569.16 235.142 569.752 235.479 570.515C235.82 571.274 235.99 572.158 235.99 573.168C235.99 574.182 235.82 575.07 235.479 575.833C235.142 576.596 234.669 577.19 234.06 577.617C233.455 578.043 232.751 578.256 231.95 578.256C231.358 578.256 230.862 578.149 230.461 577.936C230.065 577.723 229.743 577.461 229.496 577.15C229.253 576.835 229.065 576.528 228.933 576.23H228.831V581.733H227.693ZM228.818 573.149C228.818 573.941 228.935 574.644 229.17 575.258C229.408 575.867 229.749 576.347 230.192 576.696C230.64 577.041 231.181 577.214 231.816 577.214C232.468 577.214 233.018 577.035 233.465 576.677C233.917 576.315 234.26 575.827 234.494 575.213C234.733 574.6 234.852 573.911 234.852 573.149C234.852 572.394 234.735 571.715 234.501 571.11C234.271 570.504 233.93 570.025 233.478 569.671C233.026 569.313 232.472 569.134 231.816 569.134C231.177 569.134 230.634 569.307 230.186 569.652C229.739 569.993 229.398 570.466 229.163 571.071C228.933 571.672 228.818 572.364 228.818 573.149ZM239.47 564.96V578.051H238.332V564.96H239.47ZM246.296 578.256C245.38 578.256 244.587 578.043 243.918 577.617C243.249 577.186 242.731 576.592 242.365 575.833C242.003 575.07 241.822 574.193 241.822 573.2C241.822 572.211 242.003 571.333 242.365 570.566C242.731 569.795 243.236 569.192 243.88 568.757C244.528 568.318 245.275 568.099 246.123 568.099C246.656 568.099 247.17 568.197 247.664 568.393C248.158 568.585 248.601 568.881 248.993 569.281C249.39 569.678 249.703 570.178 249.933 570.784C250.163 571.384 250.278 572.096 250.278 572.918V573.481H242.608V572.477H249.115C249.115 571.847 248.987 571.28 248.731 570.777C248.48 570.27 248.128 569.869 247.677 569.575C247.229 569.281 246.712 569.134 246.123 569.134C245.501 569.134 244.954 569.301 244.481 569.633C244.008 569.965 243.637 570.404 243.368 570.95C243.104 571.495 242.97 572.092 242.966 572.739V573.34C242.966 574.12 243.1 574.802 243.368 575.386C243.641 575.965 244.027 576.415 244.525 576.735C245.024 577.054 245.614 577.214 246.296 577.214C246.761 577.214 247.168 577.141 247.517 576.997C247.871 576.852 248.167 576.658 248.405 576.415C248.648 576.168 248.832 575.897 248.955 575.603L250.035 575.955C249.886 576.368 249.641 576.749 249.3 577.099C248.964 577.448 248.542 577.73 248.035 577.943C247.532 578.151 246.952 578.256 246.296 578.256ZM253.071 568.233L255.602 572.42L258.134 568.233H259.457L256.299 573.142L259.457 578.051H258.134L255.602 573.999L253.071 578.051H251.754L254.874 573.142L251.754 568.233H253.071ZM270.413 578.256C269.565 578.256 268.815 578.041 268.163 577.61C267.515 577.18 267.008 576.585 266.642 575.827C266.275 575.064 266.092 574.184 266.092 573.187C266.092 572.181 266.275 571.297 266.642 570.534C267.008 569.767 267.515 569.171 268.163 568.744C268.815 568.314 269.565 568.099 270.413 568.099C271.261 568.099 272.009 568.314 272.657 568.744C273.304 569.175 273.812 569.771 274.178 570.534C274.549 571.297 274.734 572.181 274.734 573.187C274.734 574.184 274.551 575.064 274.184 575.827C273.818 576.585 273.309 577.18 272.657 577.61C272.009 578.041 271.261 578.256 270.413 578.256ZM270.413 577.214C271.095 577.214 271.672 577.031 272.145 576.664C272.618 576.298 272.976 575.81 273.219 575.2C273.466 574.591 273.59 573.92 273.59 573.187C273.59 572.454 273.466 571.781 273.219 571.167C272.976 570.553 272.618 570.061 272.145 569.69C271.672 569.32 271.095 569.134 270.413 569.134C269.736 569.134 269.158 569.32 268.681 569.69C268.208 570.061 267.848 570.553 267.601 571.167C267.358 571.781 267.236 572.454 267.236 573.187C267.236 573.92 267.358 574.591 267.601 575.2C267.848 575.81 268.208 576.298 268.681 576.664C269.154 577.031 269.731 577.214 270.413 577.214ZM277.078 581.733V568.233H278.184V570.106H278.318C278.454 569.812 278.642 569.511 278.88 569.205C279.119 568.894 279.434 568.632 279.826 568.418C280.223 568.205 280.721 568.099 281.322 568.099C282.132 568.099 282.839 568.312 283.444 568.738C284.054 569.16 284.527 569.752 284.863 570.515C285.204 571.274 285.375 572.158 285.375 573.168C285.375 574.182 285.204 575.07 284.863 575.833C284.527 576.596 284.054 577.19 283.444 577.617C282.839 578.043 282.136 578.256 281.335 578.256C280.743 578.256 280.246 578.149 279.846 577.936C279.449 577.723 279.127 577.461 278.88 577.15C278.637 576.835 278.45 576.528 278.318 576.23H278.216V581.733H277.078ZM278.203 573.149C278.203 573.941 278.32 574.644 278.554 575.258C278.793 575.867 279.134 576.347 279.577 576.696C280.025 577.041 280.566 577.214 281.201 577.214C281.853 577.214 282.402 577.035 282.85 576.677C283.302 576.315 283.645 575.827 283.879 575.213C284.118 574.6 284.237 573.911 284.237 573.149C284.237 572.394 284.12 571.715 283.885 571.11C283.655 570.504 283.314 570.025 282.863 569.671C282.411 569.313 281.857 569.134 281.201 569.134C280.561 569.134 280.018 569.307 279.571 569.652C279.123 569.993 278.782 570.466 278.548 571.071C278.318 571.672 278.203 572.364 278.203 573.149ZM291.686 578.256C290.77 578.256 289.977 578.043 289.308 577.617C288.639 577.186 288.122 576.592 287.755 575.833C287.393 575.07 287.212 574.193 287.212 573.2C287.212 572.211 287.393 571.333 287.755 570.566C288.122 569.795 288.627 569.192 289.27 568.757C289.918 568.318 290.666 568.099 291.514 568.099C292.046 568.099 292.56 568.197 293.054 568.393C293.548 568.585 293.992 568.881 294.384 569.281C294.78 569.678 295.093 570.178 295.323 570.784C295.553 571.384 295.668 572.096 295.668 572.918V573.481H287.998V572.477H294.505C294.505 571.847 294.377 571.28 294.122 570.777C293.87 570.27 293.519 569.869 293.067 569.575C292.619 569.281 292.102 569.134 291.514 569.134C290.891 569.134 290.344 569.301 289.871 569.633C289.398 569.965 289.027 570.404 288.759 570.95C288.494 571.495 288.36 572.092 288.356 572.739V573.34C288.356 574.12 288.49 574.802 288.759 575.386C289.031 575.965 289.417 576.415 289.916 576.735C290.414 577.054 291.004 577.214 291.686 577.214C292.151 577.214 292.558 577.141 292.907 576.997C293.261 576.852 293.557 576.658 293.796 576.415C294.038 576.168 294.222 575.897 294.345 575.603L295.426 575.955C295.276 576.368 295.031 576.749 294.69 577.099C294.354 577.448 293.932 577.73 293.425 577.943C292.922 578.151 292.342 578.256 291.686 578.256ZM298.022 578.051V568.233H299.128V569.742H299.211C299.407 569.247 299.748 568.849 300.233 568.546C300.723 568.239 301.277 568.086 301.895 568.086C301.989 568.086 302.093 568.088 302.209 568.092C302.324 568.097 302.419 568.101 302.496 568.105V569.262C302.445 569.254 302.356 569.241 302.228 569.224C302.1 569.207 301.961 569.198 301.812 569.198C301.301 569.198 300.845 569.307 300.444 569.524C300.048 569.737 299.735 570.034 299.505 570.413C299.275 570.792 299.16 571.225 299.16 571.71V578.051H298.022ZM307.026 578.275C306.434 578.275 305.892 578.16 305.402 577.93C304.912 577.695 304.522 577.359 304.233 576.92C303.943 576.477 303.798 575.94 303.798 575.309C303.798 574.823 303.89 574.414 304.073 574.082C304.256 573.749 304.516 573.477 304.853 573.264C305.189 573.051 305.588 572.882 306.048 572.759C306.508 572.635 307.015 572.539 307.569 572.471C308.119 572.403 308.583 572.343 308.963 572.292C309.346 572.241 309.638 572.16 309.838 572.049C310.039 571.938 310.139 571.759 310.139 571.512V571.282C310.139 570.613 309.939 570.087 309.538 569.703C309.142 569.315 308.571 569.122 307.825 569.122C307.118 569.122 306.54 569.277 306.093 569.588C305.65 569.899 305.338 570.266 305.159 570.688L304.079 570.298C304.301 569.761 304.608 569.333 305 569.013C305.392 568.689 305.831 568.457 306.316 568.316C306.802 568.171 307.294 568.099 307.793 568.099C308.168 568.099 308.558 568.148 308.963 568.246C309.372 568.344 309.751 568.514 310.101 568.757C310.45 568.996 310.733 569.33 310.951 569.761C311.168 570.187 311.277 570.728 311.277 571.384V578.051H310.139V576.498H310.069C309.932 576.788 309.73 577.069 309.461 577.342C309.193 577.614 308.856 577.838 308.451 578.013C308.047 578.188 307.571 578.275 307.026 578.275ZM307.179 577.233C307.784 577.233 308.309 577.099 308.752 576.83C309.195 576.562 309.536 576.206 309.775 575.763C310.017 575.315 310.139 574.823 310.139 574.286V572.867C310.054 572.948 309.911 573.021 309.711 573.085C309.515 573.149 309.287 573.206 309.027 573.257C308.771 573.304 308.515 573.345 308.26 573.379C308.004 573.413 307.774 573.443 307.569 573.468C307.015 573.536 306.542 573.643 306.15 573.788C305.758 573.933 305.458 574.133 305.249 574.389C305.04 574.64 304.936 574.964 304.936 575.36C304.936 575.957 305.149 576.419 305.575 576.747C306.001 577.071 306.536 577.233 307.179 577.233ZM318.016 568.233V569.224H313.331V568.233H318.016ZM314.795 565.881H315.939V575.488C315.939 575.897 316.009 576.219 316.15 576.453C316.291 576.683 316.474 576.847 316.7 576.945C316.926 577.039 317.166 577.086 317.422 577.086C317.571 577.086 317.699 577.078 317.806 577.061C317.912 577.039 318.006 577.018 318.087 576.997L318.33 578.026C318.219 578.068 318.083 578.107 317.921 578.141C317.759 578.179 317.558 578.198 317.32 578.198C316.902 578.198 316.499 578.107 316.112 577.923C315.728 577.74 315.413 577.467 315.166 577.105C314.918 576.743 314.795 576.293 314.795 575.757V565.881ZM320.459 578.051V568.233H321.603V578.051H320.459ZM321.041 566.546C320.807 566.546 320.606 566.467 320.44 566.309C320.274 566.147 320.191 565.953 320.191 565.727C320.191 565.502 320.274 565.31 320.44 565.152C320.606 564.99 320.807 564.909 321.041 564.909C321.275 564.909 321.476 564.99 321.642 565.152C321.808 565.31 321.891 565.502 321.891 565.727C321.891 565.953 321.808 566.147 321.642 566.309C321.476 566.467 321.275 566.546 321.041 566.546ZM328.275 578.256C327.427 578.256 326.677 578.041 326.025 577.61C325.377 577.18 324.87 576.585 324.503 575.827C324.137 575.064 323.954 574.184 323.954 573.187C323.954 572.181 324.137 571.297 324.503 570.534C324.87 569.767 325.377 569.171 326.025 568.744C326.677 568.314 327.427 568.099 328.275 568.099C329.123 568.099 329.87 568.314 330.518 568.744C331.166 569.175 331.673 569.771 332.039 570.534C332.41 571.297 332.596 572.181 332.596 573.187C332.596 574.184 332.412 575.064 332.046 575.827C331.679 576.585 331.17 577.18 330.518 577.61C329.87 578.041 329.123 578.256 328.275 578.256ZM328.275 577.214C328.956 577.214 329.534 577.031 330.007 576.664C330.48 576.298 330.838 575.81 331.081 575.2C331.328 574.591 331.451 573.92 331.451 573.187C331.451 572.454 331.328 571.781 331.081 571.167C330.838 570.553 330.48 570.061 330.007 569.69C329.534 569.32 328.956 569.134 328.275 569.134C327.597 569.134 327.02 569.32 326.542 569.69C326.069 570.061 325.709 570.553 325.462 571.167C325.219 571.781 325.098 572.454 325.098 573.187C325.098 573.92 325.219 574.591 325.462 575.2C325.709 575.81 326.069 576.298 326.542 576.664C327.015 577.031 327.593 577.214 328.275 577.214ZM336.077 571.915V578.051H334.939V568.233H336.045V569.774H336.147C336.377 569.271 336.735 568.868 337.221 568.565C337.711 568.259 338.316 568.105 339.037 568.105C339.697 568.105 340.277 568.244 340.775 568.521C341.278 568.793 341.668 569.196 341.945 569.729C342.226 570.261 342.367 570.916 342.367 571.691V578.051H341.229V571.761C341.229 570.956 341.003 570.319 340.551 569.85C340.104 569.382 339.503 569.147 338.749 569.147C338.233 569.147 337.775 569.258 337.375 569.48C336.974 569.701 336.657 570.021 336.422 570.438C336.192 570.852 336.077 571.344 336.077 571.915ZM351.806 570.387L350.764 570.681C350.661 570.387 350.517 570.121 350.329 569.882C350.142 569.644 349.897 569.454 349.594 569.313C349.296 569.173 348.925 569.102 348.482 569.102C347.817 569.102 347.272 569.26 346.845 569.575C346.419 569.891 346.206 570.298 346.206 570.796C346.206 571.218 346.351 571.561 346.641 571.825C346.935 572.085 347.387 572.292 347.996 572.445L349.479 572.81C350.301 573.01 350.917 573.328 351.326 573.762C351.74 574.197 351.946 574.742 351.946 575.399C351.946 575.953 351.793 576.445 351.486 576.875C351.179 577.306 350.751 577.644 350.201 577.891C349.656 578.134 349.023 578.256 348.303 578.256C347.344 578.256 346.554 578.041 345.931 577.61C345.309 577.176 344.911 576.549 344.736 575.731L345.829 575.462C345.97 576.046 346.245 576.487 346.654 576.786C347.067 577.084 347.61 577.233 348.284 577.233C349.038 577.233 349.641 577.065 350.093 576.728C350.544 576.387 350.77 575.961 350.77 575.45C350.77 575.053 350.638 574.721 350.374 574.453C350.11 574.18 349.709 573.98 349.172 573.852L347.568 573.468C346.715 573.264 346.085 572.94 345.676 572.497C345.267 572.053 345.062 571.504 345.062 570.847C345.062 570.306 345.209 569.831 345.503 569.422C345.797 569.009 346.202 568.685 346.718 568.45C347.233 568.216 347.821 568.099 348.482 568.099C349.381 568.099 350.099 568.303 350.636 568.712C351.177 569.117 351.567 569.676 351.806 570.387ZM361.372 578.051L358.406 568.233H359.608L361.934 576.332H362.017L364.338 568.233H365.546L367.847 576.313H367.936L370.263 568.233H371.465L368.499 578.051H367.323L364.996 570.004H364.875L362.548 578.051H361.372ZM373.535 578.051V568.233H374.679V578.051H373.535ZM374.117 566.546C373.883 566.546 373.682 566.467 373.516 566.309C373.35 566.147 373.267 565.953 373.267 565.727C373.267 565.502 373.35 565.31 373.516 565.152C373.682 564.99 373.883 564.909 374.117 564.909C374.351 564.909 374.552 564.99 374.718 565.152C374.884 565.31 374.967 565.502 374.967 565.727C374.967 565.953 374.884 566.147 374.718 566.309C374.552 566.467 374.351 566.546 374.117 566.546ZM381.402 568.233V569.224H376.716V568.233H381.402ZM378.18 565.881H379.324V575.488C379.324 575.897 379.395 576.219 379.535 576.453C379.676 576.683 379.859 576.847 380.085 576.945C380.311 577.039 380.552 577.086 380.807 577.086C380.956 577.086 381.084 577.078 381.191 577.061C381.297 577.039 381.391 577.018 381.472 576.997L381.715 578.026C381.604 578.068 381.468 578.107 381.306 578.141C381.144 578.179 380.944 578.198 380.705 578.198C380.287 578.198 379.885 578.107 379.497 577.923C379.113 577.74 378.798 577.467 378.551 577.105C378.304 576.743 378.18 576.293 378.18 575.757V565.881ZM385.18 571.915V578.051H384.043V564.96H385.18V569.774H385.283C385.513 569.266 385.869 568.862 386.35 568.559C386.836 568.257 387.45 568.105 388.191 568.105C388.856 568.105 389.44 568.242 389.942 568.514C390.445 568.787 390.837 569.19 391.119 569.722C391.4 570.255 391.54 570.911 391.54 571.691V578.051H390.396V571.761C390.396 570.952 390.17 570.315 389.719 569.85C389.271 569.382 388.666 569.147 387.903 569.147C387.379 569.147 386.913 569.258 386.504 569.48C386.094 569.701 385.771 570.021 385.532 570.438C385.298 570.852 385.18 571.344 385.18 571.915ZM114.472 601.256C113.555 601.256 112.763 601.043 112.094 600.617C111.425 600.186 110.907 599.592 110.54 598.833C110.178 598.07 109.997 597.193 109.997 596.2C109.997 595.211 110.178 594.333 110.54 593.566C110.907 592.795 111.412 592.192 112.055 591.757C112.703 591.318 113.451 591.099 114.299 591.099C114.832 591.099 115.345 591.197 115.839 591.393C116.334 591.585 116.777 591.881 117.169 592.281C117.565 592.678 117.879 593.178 118.109 593.784C118.339 594.384 118.454 595.096 118.454 595.918V596.481H110.783V595.477H117.29C117.29 594.847 117.163 594.28 116.907 593.777C116.656 593.27 116.304 592.869 115.852 592.575C115.405 592.281 114.887 592.134 114.299 592.134C113.677 592.134 113.129 592.301 112.656 592.633C112.183 592.965 111.813 593.404 111.544 593.95C111.28 594.495 111.146 595.092 111.141 595.739V596.34C111.141 597.12 111.276 597.802 111.544 598.386C111.817 598.965 112.202 599.415 112.701 599.735C113.2 600.054 113.79 600.214 114.472 600.214C114.936 600.214 115.343 600.141 115.692 599.997C116.046 599.852 116.342 599.658 116.581 599.415C116.824 599.168 117.007 598.897 117.131 598.603L118.211 598.955C118.062 599.368 117.817 599.749 117.476 600.099C117.139 600.448 116.717 600.73 116.21 600.943C115.707 601.151 115.128 601.256 114.472 601.256ZM121.945 594.915V601.051H120.807V591.233H121.913V592.774H122.015C122.245 592.271 122.603 591.868 123.089 591.565C123.579 591.259 124.184 591.105 124.904 591.105C125.565 591.105 126.144 591.244 126.643 591.521C127.146 591.793 127.536 592.196 127.813 592.729C128.094 593.261 128.235 593.916 128.235 594.691V601.051H127.097V594.761C127.097 593.956 126.871 593.319 126.419 592.85C125.972 592.382 125.371 592.147 124.617 592.147C124.101 592.147 123.643 592.258 123.242 592.48C122.842 592.701 122.524 593.021 122.29 593.438C122.06 593.852 121.945 594.344 121.945 594.915ZM134.944 591.233V592.224H130.259V591.233H134.944ZM131.723 588.881H132.867V598.488C132.867 598.897 132.937 599.219 133.078 599.453C133.218 599.683 133.402 599.847 133.627 599.945C133.853 600.039 134.094 600.086 134.35 600.086C134.499 600.086 134.627 600.078 134.733 600.061C134.84 600.039 134.933 600.018 135.014 599.997L135.257 601.026C135.147 601.068 135.01 601.107 134.848 601.141C134.686 601.179 134.486 601.198 134.247 601.198C133.83 601.198 133.427 601.107 133.039 600.923C132.656 600.74 132.34 600.467 132.093 600.105C131.846 599.743 131.723 599.293 131.723 598.757V588.881ZM141.238 601.256C140.322 601.256 139.529 601.043 138.86 600.617C138.191 600.186 137.673 599.592 137.307 598.833C136.945 598.07 136.764 597.193 136.764 596.2C136.764 595.211 136.945 594.333 137.307 593.566C137.673 592.795 138.178 592.192 138.822 591.757C139.47 591.318 140.218 591.099 141.066 591.099C141.598 591.099 142.112 591.197 142.606 591.393C143.1 591.585 143.544 591.881 143.936 592.281C144.332 592.678 144.645 593.178 144.875 593.784C145.105 594.384 145.22 595.096 145.22 595.918V596.481H137.55V595.477H144.057C144.057 594.847 143.929 594.28 143.673 593.777C143.422 593.27 143.07 592.869 142.619 592.575C142.171 592.281 141.654 592.134 141.066 592.134C140.443 592.134 139.896 592.301 139.423 592.633C138.95 592.965 138.579 593.404 138.311 593.95C138.046 594.495 137.912 595.092 137.908 595.739V596.34C137.908 597.12 138.042 597.802 138.311 598.386C138.583 598.965 138.969 599.415 139.468 599.735C139.966 600.054 140.556 600.214 141.238 600.214C141.703 600.214 142.11 600.141 142.459 599.997C142.813 599.852 143.109 599.658 143.347 599.415C143.59 599.168 143.774 598.897 143.897 598.603L144.977 598.955C144.828 599.368 144.583 599.749 144.242 600.099C143.906 600.448 143.484 600.73 142.977 600.943C142.474 601.151 141.894 601.256 141.238 601.256ZM147.574 601.051V591.233H148.679V592.742H148.763C148.959 592.247 149.299 591.849 149.785 591.546C150.275 591.239 150.829 591.086 151.447 591.086C151.541 591.086 151.645 591.088 151.76 591.092C151.875 591.097 151.971 591.101 152.048 591.105V592.262C151.997 592.254 151.907 592.241 151.78 592.224C151.652 592.207 151.513 592.198 151.364 592.198C150.853 592.198 150.397 592.307 149.996 592.524C149.6 592.737 149.287 593.034 149.057 593.413C148.826 593.792 148.711 594.225 148.711 594.71V601.051H147.574ZM153.836 604.733V591.233H154.941V593.106H155.076C155.212 592.812 155.4 592.511 155.638 592.205C155.877 591.894 156.192 591.632 156.584 591.418C156.981 591.205 157.479 591.099 158.08 591.099C158.89 591.099 159.597 591.312 160.202 591.738C160.811 592.16 161.285 592.752 161.621 593.515C161.962 594.274 162.133 595.158 162.133 596.168C162.133 597.182 161.962 598.07 161.621 598.833C161.285 599.596 160.811 600.19 160.202 600.617C159.597 601.043 158.894 601.256 158.093 601.256C157.5 601.256 157.004 601.149 156.603 600.936C156.207 600.723 155.885 600.461 155.638 600.15C155.395 599.835 155.208 599.528 155.076 599.23H154.973V604.733H153.836ZM154.961 596.149C154.961 596.941 155.078 597.644 155.312 598.258C155.551 598.867 155.892 599.347 156.335 599.696C156.782 600.041 157.324 600.214 157.959 600.214C158.611 600.214 159.16 600.035 159.608 599.677C160.059 599.315 160.402 598.827 160.637 598.213C160.875 597.6 160.995 596.911 160.995 596.149C160.995 595.394 160.878 594.715 160.643 594.11C160.413 593.504 160.072 593.025 159.62 592.671C159.169 592.313 158.615 592.134 157.959 592.134C157.319 592.134 156.776 592.307 156.329 592.652C155.881 592.993 155.54 593.466 155.306 594.071C155.076 594.672 154.961 595.364 154.961 596.149ZM164.475 601.051V591.233H165.58V592.742H165.664C165.86 592.247 166.2 591.849 166.686 591.546C167.176 591.239 167.73 591.086 168.348 591.086C168.442 591.086 168.546 591.088 168.661 591.092C168.776 591.097 168.872 591.101 168.949 591.105V592.262C168.898 592.254 168.808 592.241 168.681 592.224C168.553 592.207 168.414 592.198 168.265 592.198C167.754 592.198 167.298 592.307 166.897 592.524C166.501 592.737 166.188 593.034 165.958 593.413C165.727 593.792 165.612 594.225 165.612 594.71V601.051H164.475ZM170.749 601.051V591.233H171.894V601.051H170.749ZM171.331 589.546C171.097 589.546 170.896 589.467 170.73 589.309C170.564 589.147 170.481 588.953 170.481 588.727C170.481 588.502 170.564 588.31 170.73 588.152C170.896 587.99 171.097 587.909 171.331 587.909C171.565 587.909 171.766 587.99 171.932 588.152C172.098 588.31 172.181 588.502 172.181 588.727C172.181 588.953 172.098 589.147 171.932 589.309C171.766 589.467 171.565 589.546 171.331 589.546ZM181.345 593.387L180.303 593.681C180.201 593.387 180.056 593.121 179.869 592.882C179.681 592.644 179.436 592.454 179.134 592.313C178.835 592.173 178.465 592.102 178.021 592.102C177.357 592.102 176.811 592.26 176.385 592.575C175.959 592.891 175.746 593.298 175.746 593.796C175.746 594.218 175.891 594.561 176.18 594.825C176.474 595.085 176.926 595.292 177.536 595.445L179.019 595.81C179.841 596.01 180.457 596.328 180.866 596.762C181.279 597.197 181.486 597.742 181.486 598.399C181.486 598.953 181.332 599.445 181.026 599.875C180.719 600.306 180.291 600.644 179.741 600.891C179.195 601.134 178.563 601.256 177.842 601.256C176.884 601.256 176.093 601.041 175.471 600.61C174.849 600.176 174.45 599.549 174.276 598.731L175.369 598.462C175.509 599.046 175.784 599.487 176.193 599.786C176.607 600.084 177.15 600.233 177.823 600.233C178.577 600.233 179.18 600.065 179.632 599.728C180.084 599.387 180.31 598.961 180.31 598.45C180.31 598.053 180.178 597.721 179.913 597.453C179.649 597.18 179.249 596.98 178.712 596.852L177.107 596.468C176.255 596.264 175.624 595.94 175.215 595.497C174.806 595.053 174.602 594.504 174.602 593.847C174.602 593.306 174.749 592.831 175.043 592.422C175.337 592.009 175.742 591.685 176.257 591.45C176.773 591.216 177.361 591.099 178.021 591.099C178.921 591.099 179.639 591.303 180.175 591.712C180.717 592.117 181.107 592.676 181.345 593.387ZM187.793 601.256C186.876 601.256 186.084 601.043 185.415 600.617C184.746 600.186 184.228 599.592 183.862 598.833C183.499 598.07 183.318 597.193 183.318 596.2C183.318 595.211 183.499 594.333 183.862 593.566C184.228 592.795 184.733 592.192 185.376 591.757C186.024 591.318 186.772 591.099 187.62 591.099C188.153 591.099 188.666 591.197 189.161 591.393C189.655 591.585 190.098 591.881 190.49 592.281C190.886 592.678 191.2 593.178 191.43 593.784C191.66 594.384 191.775 595.096 191.775 595.918V596.481H184.104V595.477H190.612C190.612 594.847 190.484 594.28 190.228 593.777C189.977 593.27 189.625 592.869 189.173 592.575C188.726 592.281 188.208 592.134 187.62 592.134C186.998 592.134 186.45 592.301 185.977 592.633C185.504 592.965 185.134 593.404 184.865 593.95C184.601 594.495 184.467 595.092 184.462 595.739V596.34C184.462 597.12 184.597 597.802 184.865 598.386C185.138 598.965 185.523 599.415 186.022 599.735C186.521 600.054 187.111 600.214 187.793 600.214C188.257 600.214 188.664 600.141 189.014 599.997C189.367 599.852 189.663 599.658 189.902 599.415C190.145 599.168 190.328 598.897 190.452 598.603L191.532 598.955C191.383 599.368 191.138 599.749 190.797 600.099C190.46 600.448 190.038 600.73 189.531 600.943C189.028 601.151 188.449 601.256 187.793 601.256ZM199.427 594.902V595.976H193.981V594.902H199.427ZM205.876 604.938C205.207 604.938 204.621 604.85 204.118 604.676C203.615 604.505 203.191 604.271 202.846 603.972C202.501 603.674 202.233 603.34 202.041 602.969L202.974 602.355C203.115 602.602 203.302 602.845 203.537 603.084C203.775 603.323 204.084 603.521 204.463 603.678C204.847 603.836 205.318 603.915 205.876 603.915C206.745 603.915 207.446 603.698 207.979 603.263C208.516 602.828 208.785 602.153 208.785 601.237V599.025H208.682C208.55 599.323 208.361 599.622 208.113 599.92C207.866 600.214 207.542 600.459 207.142 600.655C206.745 600.851 206.253 600.949 205.665 600.949C204.881 600.949 204.184 600.755 203.575 600.367C202.97 599.98 202.493 599.426 202.143 598.705C201.798 597.981 201.625 597.118 201.625 596.117C201.625 595.124 201.794 594.25 202.13 593.496C202.471 592.742 202.946 592.154 203.556 591.732C204.165 591.31 204.875 591.099 205.684 591.099C206.285 591.099 206.784 591.205 207.18 591.418C207.576 591.627 207.894 591.887 208.133 592.198C208.375 592.509 208.565 592.812 208.701 593.106H208.816V591.233H209.929V601.307C209.929 602.138 209.752 602.822 209.398 603.359C209.044 603.896 208.563 604.292 207.954 604.548C207.344 604.808 206.652 604.938 205.876 604.938ZM205.799 599.907C206.43 599.907 206.969 599.756 207.417 599.453C207.864 599.146 208.207 598.708 208.446 598.136C208.684 597.565 208.804 596.886 208.804 596.097C208.804 595.33 208.687 594.651 208.452 594.058C208.218 593.462 207.877 592.993 207.429 592.652C206.986 592.307 206.443 592.134 205.799 592.134C205.143 592.134 204.589 592.311 204.137 592.665C203.686 593.019 203.345 593.496 203.115 594.097C202.885 594.693 202.77 595.36 202.77 596.097C202.77 596.847 202.887 597.51 203.121 598.085C203.356 598.656 203.699 599.104 204.15 599.428C204.602 599.747 205.152 599.907 205.799 599.907ZM212.787 601.051V591.233H213.893V592.742H213.976C214.172 592.247 214.513 591.849 214.999 591.546C215.489 591.239 216.043 591.086 216.661 591.086C216.754 591.086 216.859 591.088 216.974 591.092C217.089 591.097 217.185 591.101 217.261 591.105V592.262C217.21 592.254 217.121 592.241 216.993 592.224C216.865 592.207 216.727 592.198 216.577 592.198C216.066 592.198 215.61 592.307 215.21 592.524C214.813 592.737 214.5 593.034 214.27 593.413C214.04 593.792 213.925 594.225 213.925 594.71V601.051H212.787ZM221.791 601.275C221.199 601.275 220.658 601.16 220.168 600.93C219.678 600.695 219.288 600.359 218.998 599.92C218.708 599.477 218.563 598.94 218.563 598.309C218.563 597.823 218.655 597.414 218.838 597.082C219.021 596.749 219.281 596.477 219.618 596.264C219.954 596.051 220.353 595.882 220.813 595.759C221.273 595.635 221.78 595.539 222.334 595.471C222.884 595.403 223.349 595.343 223.728 595.292C224.111 595.241 224.403 595.16 224.604 595.049C224.804 594.938 224.904 594.759 224.904 594.512V594.282C224.904 593.613 224.704 593.087 224.303 592.703C223.907 592.315 223.336 592.122 222.59 592.122C221.883 592.122 221.305 592.277 220.858 592.588C220.415 592.899 220.104 593.266 219.925 593.688L218.844 593.298C219.066 592.761 219.373 592.333 219.765 592.013C220.157 591.689 220.596 591.457 221.082 591.316C221.567 591.171 222.06 591.099 222.558 591.099C222.933 591.099 223.323 591.148 223.728 591.246C224.137 591.344 224.516 591.514 224.866 591.757C225.215 591.996 225.499 592.33 225.716 592.761C225.933 593.187 226.042 593.728 226.042 594.384V601.051H224.904V599.498H224.834C224.697 599.788 224.495 600.069 224.227 600.342C223.958 600.614 223.621 600.838 223.217 601.013C222.812 601.188 222.337 601.275 221.791 601.275ZM221.945 600.233C222.55 600.233 223.074 600.099 223.517 599.83C223.96 599.562 224.301 599.206 224.54 598.763C224.783 598.315 224.904 597.823 224.904 597.286V595.867C224.819 595.948 224.676 596.021 224.476 596.085C224.28 596.149 224.052 596.206 223.792 596.257C223.536 596.304 223.28 596.345 223.025 596.379C222.769 596.413 222.539 596.443 222.334 596.468C221.78 596.536 221.307 596.643 220.915 596.788C220.523 596.933 220.223 597.133 220.014 597.389C219.805 597.64 219.701 597.964 219.701 598.36C219.701 598.957 219.914 599.419 220.34 599.747C220.766 600.071 221.301 600.233 221.945 600.233ZM232.449 601.256C231.644 601.256 230.939 601.043 230.334 600.617C229.728 600.19 229.255 599.596 228.914 598.833C228.578 598.07 228.41 597.182 228.41 596.168C228.41 595.158 228.578 594.274 228.914 593.515C229.255 592.752 229.731 592.16 230.34 591.738C230.949 591.312 231.659 591.099 232.468 591.099C233.065 591.099 233.562 591.205 233.958 591.418C234.354 591.627 234.672 591.887 234.91 592.198C235.149 592.509 235.334 592.812 235.466 593.106H235.569V587.96H236.713V601.051H235.601V599.23H235.466C235.334 599.528 235.147 599.835 234.904 600.15C234.661 600.461 234.339 600.723 233.939 600.936C233.542 601.149 233.046 601.256 232.449 601.256ZM232.584 600.214C233.218 600.214 233.76 600.041 234.207 599.696C234.655 599.347 234.995 598.867 235.23 598.258C235.468 597.644 235.588 596.941 235.588 596.149C235.588 595.364 235.471 594.672 235.236 594.071C235.002 593.466 234.661 592.993 234.213 592.652C233.766 592.307 233.223 592.134 232.584 592.134C231.927 592.134 231.373 592.313 230.922 592.671C230.474 593.025 230.133 593.504 229.899 594.11C229.669 594.715 229.554 595.394 229.554 596.149C229.554 596.911 229.671 597.6 229.905 598.213C230.14 598.827 230.481 599.315 230.928 599.677C231.38 600.035 231.932 600.214 232.584 600.214ZM243.769 601.256C242.853 601.256 242.06 601.043 241.391 600.617C240.722 600.186 240.204 599.592 239.838 598.833C239.476 598.07 239.295 597.193 239.295 596.2C239.295 595.211 239.476 594.333 239.838 593.566C240.204 592.795 240.709 592.192 241.353 591.757C242.001 591.318 242.748 591.099 243.596 591.099C244.129 591.099 244.643 591.197 245.137 591.393C245.631 591.585 246.074 591.881 246.466 592.281C246.863 592.678 247.176 593.178 247.406 593.784C247.636 594.384 247.751 595.096 247.751 595.918V596.481H240.081V595.477H246.588C246.588 594.847 246.46 594.28 246.204 593.777C245.953 593.27 245.601 592.869 245.15 592.575C244.702 592.281 244.184 592.134 243.596 592.134C242.974 592.134 242.427 592.301 241.954 592.633C241.481 592.965 241.11 593.404 240.841 593.95C240.577 594.495 240.443 595.092 240.439 595.739V596.34C240.439 597.12 240.573 597.802 240.841 598.386C241.114 598.965 241.5 599.415 241.998 599.735C242.497 600.054 243.087 600.214 243.769 600.214C244.234 600.214 244.64 600.141 244.99 599.997C245.344 599.852 245.64 599.658 245.878 599.415C246.121 599.168 246.305 598.897 246.428 598.603L247.508 598.955C247.359 599.368 247.114 599.749 246.773 600.099C246.437 600.448 246.015 600.73 245.508 600.943C245.005 601.151 244.425 601.256 243.769 601.256ZM261.61 593.387L260.568 593.681C260.465 593.387 260.321 593.121 260.133 592.882C259.946 592.644 259.701 592.454 259.398 592.313C259.1 592.173 258.729 592.102 258.286 592.102C257.621 592.102 257.076 592.26 256.649 592.575C256.223 592.891 256.01 593.298 256.01 593.796C256.01 594.218 256.155 594.561 256.445 594.825C256.739 595.085 257.191 595.292 257.8 595.445L259.283 595.81C260.105 596.01 260.721 596.328 261.13 596.762C261.544 597.197 261.75 597.742 261.75 598.399C261.75 598.953 261.597 599.445 261.29 599.875C260.983 600.306 260.555 600.644 260.005 600.891C259.46 601.134 258.827 601.256 258.107 601.256C257.148 601.256 256.358 601.041 255.735 600.61C255.113 600.176 254.715 599.549 254.54 598.731L255.633 598.462C255.774 599.046 256.049 599.487 256.458 599.786C256.871 600.084 257.414 600.233 258.088 600.233C258.842 600.233 259.445 600.065 259.897 599.728C260.348 599.387 260.574 598.961 260.574 598.45C260.574 598.053 260.442 597.721 260.178 597.453C259.914 597.18 259.513 596.98 258.976 596.852L257.372 596.468C256.519 596.264 255.889 595.94 255.48 595.497C255.071 595.053 254.866 594.504 254.866 593.847C254.866 593.306 255.013 592.831 255.307 592.422C255.601 592.009 256.006 591.685 256.522 591.45C257.037 591.216 257.625 591.099 258.286 591.099C259.185 591.099 259.903 591.303 260.44 591.712C260.981 592.117 261.371 592.676 261.61 593.387ZM268.057 601.256C267.141 601.256 266.348 601.043 265.679 600.617C265.01 600.186 264.492 599.592 264.126 598.833C263.764 598.07 263.583 597.193 263.583 596.2C263.583 595.211 263.764 594.333 264.126 593.566C264.492 592.795 264.997 592.192 265.641 591.757C266.289 591.318 267.036 591.099 267.884 591.099C268.417 591.099 268.931 591.197 269.425 591.393C269.919 591.585 270.362 591.881 270.754 592.281C271.151 592.678 271.464 593.178 271.694 593.784C271.924 594.384 272.039 595.096 272.039 595.918V596.481H264.369V595.477H270.876C270.876 594.847 270.748 594.28 270.492 593.777C270.241 593.27 269.889 592.869 269.438 592.575C268.99 592.281 268.472 592.134 267.884 592.134C267.262 592.134 266.715 592.301 266.242 592.633C265.769 592.965 265.398 593.404 265.129 593.95C264.865 594.495 264.731 595.092 264.727 595.739V596.34C264.727 597.12 264.861 597.802 265.129 598.386C265.402 598.965 265.788 599.415 266.286 599.735C266.785 600.054 267.375 600.214 268.057 600.214C268.521 600.214 268.928 600.141 269.278 599.997C269.632 599.852 269.928 599.658 270.166 599.415C270.409 599.168 270.593 598.897 270.716 598.603L271.796 598.955C271.647 599.368 271.402 599.749 271.061 600.099C270.725 600.448 270.303 600.73 269.796 600.943C269.293 601.151 268.713 601.256 268.057 601.256ZM278.228 601.256C277.35 601.256 276.585 601.036 275.933 600.597C275.285 600.159 274.782 599.558 274.425 598.795C274.067 598.032 273.888 597.163 273.888 596.187C273.888 595.203 274.069 594.327 274.431 593.56C274.797 592.793 275.304 592.192 275.952 591.757C276.6 591.318 277.352 591.099 278.209 591.099C278.865 591.099 279.459 591.227 279.992 591.482C280.525 591.734 280.964 592.09 281.309 592.55C281.658 593.006 281.878 593.538 281.967 594.148H280.817C280.697 593.594 280.41 593.121 279.954 592.729C279.502 592.333 278.927 592.134 278.228 592.134C277.601 592.134 277.047 592.305 276.566 592.646C276.084 592.982 275.707 593.453 275.434 594.058C275.166 594.659 275.032 595.356 275.032 596.149C275.032 596.945 275.164 597.651 275.428 598.264C275.692 598.874 276.063 599.351 276.54 599.696C277.022 600.041 277.584 600.214 278.228 600.214C278.662 600.214 279.059 600.133 279.417 599.971C279.779 599.805 280.081 599.57 280.324 599.268C280.572 598.965 280.738 598.605 280.823 598.188H281.974C281.888 598.78 281.677 599.308 281.341 599.773C281.008 600.233 280.576 600.595 280.043 600.86C279.515 601.124 278.91 601.256 278.228 601.256ZM290.497 597.299V591.233H291.634V601.051H290.497V599.421H290.407C290.177 599.924 289.813 600.344 289.314 600.681C288.816 601.013 288.206 601.179 287.486 601.179C286.86 601.179 286.304 601.043 285.818 600.77C285.332 600.493 284.951 600.088 284.674 599.556C284.397 599.023 284.258 598.369 284.258 597.593V591.233H285.396V597.523C285.396 598.29 285.622 598.908 286.073 599.377C286.525 599.841 287.105 600.073 287.812 600.073C288.255 600.073 288.681 599.967 289.09 599.754C289.5 599.541 289.836 599.23 290.1 598.82C290.365 598.407 290.497 597.9 290.497 597.299ZM294.493 601.051V591.233H295.599V592.742H295.682C295.878 592.247 296.219 591.849 296.704 591.546C297.194 591.239 297.748 591.086 298.366 591.086C298.46 591.086 298.564 591.088 298.68 591.092C298.795 591.097 298.89 591.101 298.967 591.105V592.262C298.916 592.254 298.827 592.241 298.699 592.224C298.571 592.207 298.432 592.198 298.283 592.198C297.772 592.198 297.316 592.307 296.915 592.524C296.519 592.737 296.206 593.034 295.976 593.413C295.746 593.792 295.631 594.225 295.631 594.71V601.051H294.493ZM300.768 601.051V591.233H301.912V601.051H300.768ZM301.349 589.546C301.115 589.546 300.915 589.467 300.748 589.309C300.582 589.147 300.499 588.953 300.499 588.727C300.499 588.502 300.582 588.31 300.748 588.152C300.915 587.99 301.115 587.909 301.349 587.909C301.584 587.909 301.784 587.99 301.95 588.152C302.116 588.31 302.199 588.502 302.199 588.727C302.199 588.953 302.116 589.147 301.95 589.309C301.784 589.467 301.584 589.546 301.349 589.546ZM308.634 591.233V592.224H303.949V591.233H308.634ZM305.412 588.881H306.557V598.488C306.557 598.897 306.627 599.219 306.767 599.453C306.908 599.683 307.091 599.847 307.317 599.945C307.543 600.039 307.784 600.086 308.039 600.086C308.189 600.086 308.316 600.078 308.423 600.061C308.53 600.039 308.623 600.018 308.704 599.997L308.947 601.026C308.836 601.068 308.7 601.107 308.538 601.141C308.376 601.179 308.176 601.198 307.937 601.198C307.52 601.198 307.117 601.107 306.729 600.923C306.346 600.74 306.03 600.467 305.783 600.105C305.536 599.743 305.412 599.293 305.412 598.757V588.881ZM311.857 604.733C311.631 604.733 311.42 604.712 311.224 604.669C311.028 604.627 310.872 604.58 310.757 604.529L311.064 603.525C311.452 603.644 311.797 603.687 312.099 603.653C312.402 603.623 312.67 603.487 312.905 603.244C313.139 603.005 313.348 602.639 313.531 602.144L313.889 601.147L310.278 591.233H311.511L314.426 599.549H314.516L317.43 591.233H318.664L314.509 602.605C314.335 603.078 314.119 603.472 313.864 603.787C313.608 604.107 313.312 604.343 312.975 604.497C312.643 604.654 312.27 604.733 311.857 604.733ZM328.387 601.275C327.794 601.275 327.253 601.16 326.763 600.93C326.273 600.695 325.883 600.359 325.593 599.92C325.304 599.477 325.159 598.94 325.159 598.309C325.159 597.823 325.25 597.414 325.434 597.082C325.617 596.749 325.877 596.477 326.214 596.264C326.55 596.051 326.949 595.882 327.409 595.759C327.869 595.635 328.376 595.539 328.93 595.471C329.48 595.403 329.944 595.343 330.324 595.292C330.707 595.241 330.999 595.16 331.199 595.049C331.4 594.938 331.5 594.759 331.5 594.512V594.282C331.5 593.613 331.299 593.087 330.899 592.703C330.503 592.315 329.932 592.122 329.186 592.122C328.478 592.122 327.901 592.277 327.454 592.588C327.01 592.899 326.699 593.266 326.52 593.688L325.44 593.298C325.662 592.761 325.968 592.333 326.361 592.013C326.753 591.689 327.191 591.457 327.677 591.316C328.163 591.171 328.655 591.099 329.154 591.099C329.529 591.099 329.919 591.148 330.324 591.246C330.733 591.344 331.112 591.514 331.461 591.757C331.811 591.996 332.094 592.33 332.312 592.761C332.529 593.187 332.638 593.728 332.638 594.384V601.051H331.5V599.498H331.429C331.293 599.788 331.091 600.069 330.822 600.342C330.554 600.614 330.217 600.838 329.812 601.013C329.407 601.188 328.932 601.275 328.387 601.275ZM328.54 600.233C329.145 600.233 329.669 600.099 330.113 599.83C330.556 599.562 330.897 599.206 331.135 598.763C331.378 598.315 331.5 597.823 331.5 597.286V595.867C331.415 595.948 331.272 596.021 331.071 596.085C330.875 596.149 330.647 596.206 330.388 596.257C330.132 596.304 329.876 596.345 329.62 596.379C329.365 596.413 329.135 596.443 328.93 596.468C328.376 596.536 327.903 596.643 327.511 596.788C327.119 596.933 326.819 597.133 326.61 597.389C326.401 597.64 326.297 597.964 326.297 598.36C326.297 598.957 326.51 599.419 326.936 599.747C327.362 600.071 327.897 600.233 328.54 600.233ZM336.648 594.915V601.051H335.51V591.233H336.616V592.774H336.718C336.948 592.271 337.306 591.868 337.792 591.565C338.282 591.259 338.887 591.105 339.607 591.105C340.268 591.105 340.847 591.244 341.346 591.521C341.849 591.793 342.239 592.196 342.516 592.729C342.797 593.261 342.938 593.916 342.938 594.691V601.051H341.8V594.761C341.8 593.956 341.574 593.319 341.122 592.85C340.675 592.382 340.074 592.147 339.32 592.147C338.804 592.147 338.346 592.258 337.946 592.48C337.545 592.701 337.227 593.021 336.993 593.438C336.763 593.852 336.648 594.344 336.648 594.915ZM349.315 601.256C348.509 601.256 347.804 601.043 347.199 600.617C346.594 600.19 346.121 599.596 345.78 598.833C345.443 598.07 345.275 597.182 345.275 596.168C345.275 595.158 345.443 594.274 345.78 593.515C346.121 592.752 346.596 592.16 347.205 591.738C347.815 591.312 348.524 591.099 349.334 591.099C349.931 591.099 350.427 591.205 350.823 591.418C351.22 591.627 351.537 591.887 351.776 592.198C352.014 592.509 352.2 592.812 352.332 593.106H352.434V587.96H353.578V601.051H352.466V599.23H352.332C352.2 599.528 352.012 599.835 351.769 600.15C351.526 600.461 351.205 600.723 350.804 600.936C350.408 601.149 349.911 601.256 349.315 601.256ZM349.449 600.214C350.084 600.214 350.625 600.041 351.073 599.696C351.52 599.347 351.861 598.867 352.095 598.258C352.334 597.644 352.453 596.941 352.453 596.149C352.453 595.364 352.336 594.672 352.102 594.071C351.867 593.466 351.526 592.993 351.079 592.652C350.632 592.307 350.088 592.134 349.449 592.134C348.793 592.134 348.239 592.313 347.787 592.671C347.34 593.025 346.999 593.504 346.764 594.11C346.534 594.715 346.419 595.394 346.419 596.149C346.419 596.911 346.536 597.6 346.771 598.213C347.005 598.827 347.346 599.315 347.793 599.677C348.245 600.035 348.797 600.214 349.449 600.214ZM361.574 601.051V591.233H362.679V592.742H362.762C362.958 592.247 363.299 591.849 363.785 591.546C364.275 591.239 364.829 591.086 365.447 591.086C365.541 591.086 365.645 591.088 365.76 591.092C365.875 591.097 365.971 591.101 366.048 591.105V592.262C365.997 592.254 365.907 592.241 365.78 592.224C365.652 592.207 365.513 592.198 365.364 592.198C364.853 592.198 364.397 592.307 363.996 592.524C363.6 592.737 363.287 593.034 363.056 593.413C362.826 593.792 362.711 594.225 362.711 594.71V601.051H361.574ZM371.506 601.256C370.59 601.256 369.797 601.043 369.128 600.617C368.459 600.186 367.942 599.592 367.575 598.833C367.213 598.07 367.032 597.193 367.032 596.2C367.032 595.211 367.213 594.333 367.575 593.566C367.942 592.795 368.447 592.192 369.09 591.757C369.738 591.318 370.486 591.099 371.334 591.099C371.866 591.099 372.38 591.197 372.874 591.393C373.368 591.585 373.812 591.881 374.204 592.281C374.6 592.678 374.913 593.178 375.143 593.784C375.373 594.384 375.488 595.096 375.488 595.918V596.481H367.818V595.477H374.325C374.325 594.847 374.197 594.28 373.942 593.777C373.69 593.27 373.339 592.869 372.887 592.575C372.439 592.281 371.922 592.134 371.334 592.134C370.711 592.134 370.164 592.301 369.691 592.633C369.218 592.965 368.847 593.404 368.579 593.95C368.314 594.495 368.18 595.092 368.176 595.739V596.34C368.176 597.12 368.31 597.802 368.579 598.386C368.851 598.965 369.237 599.415 369.736 599.735C370.234 600.054 370.824 600.214 371.506 600.214C371.971 600.214 372.378 600.141 372.727 599.997C373.081 599.852 373.377 599.658 373.616 599.415C373.858 599.168 374.042 598.897 374.165 598.603L375.246 598.955C375.096 599.368 374.851 599.749 374.51 600.099C374.174 600.448 373.752 600.73 373.245 600.943C372.742 601.151 372.162 601.256 371.506 601.256ZM378.979 587.96V601.051H377.842V587.96H378.979ZM381.849 601.051V591.233H382.993V601.051H381.849ZM382.431 589.546C382.196 589.546 381.996 589.467 381.83 589.309C381.664 589.147 381.58 588.953 381.58 588.727C381.58 588.502 381.664 588.31 381.83 588.152C381.996 587.99 382.196 587.909 382.431 587.909C382.665 587.909 382.865 587.99 383.031 588.152C383.198 588.31 383.281 588.502 383.281 588.727C383.281 588.953 383.198 589.147 383.031 589.309C382.865 589.467 382.665 589.546 382.431 589.546ZM388.59 601.275C387.998 601.275 387.457 601.16 386.967 600.93C386.477 600.695 386.087 600.359 385.797 599.92C385.507 599.477 385.362 598.94 385.362 598.309C385.362 597.823 385.454 597.414 385.637 597.082C385.82 596.749 386.08 596.477 386.417 596.264C386.754 596.051 387.152 595.882 387.612 595.759C388.073 595.635 388.58 595.539 389.134 595.471C389.683 595.403 390.148 595.343 390.527 595.292C390.911 595.241 391.203 595.16 391.403 595.049C391.603 594.938 391.703 594.759 391.703 594.512V594.282C391.703 593.613 391.503 593.087 391.102 592.703C390.706 592.315 390.135 592.122 389.389 592.122C388.682 592.122 388.105 592.277 387.657 592.588C387.214 592.899 386.903 593.266 386.724 593.688L385.644 593.298C385.865 592.761 386.172 592.333 386.564 592.013C386.956 591.689 387.395 591.457 387.881 591.316C388.367 591.171 388.859 591.099 389.357 591.099C389.732 591.099 390.122 591.148 390.527 591.246C390.936 591.344 391.315 591.514 391.665 591.757C392.014 591.996 392.298 592.33 392.515 592.761C392.732 593.187 392.841 593.728 392.841 594.384V601.051H391.703V599.498H391.633C391.497 599.788 391.294 600.069 391.026 600.342C390.757 600.614 390.421 600.838 390.016 601.013C389.611 601.188 389.136 601.275 388.59 601.275ZM388.744 600.233C389.349 600.233 389.873 600.099 390.316 599.83C390.759 599.562 391.1 599.206 391.339 598.763C391.582 598.315 391.703 597.823 391.703 597.286V595.867C391.618 595.948 391.475 596.021 391.275 596.085C391.079 596.149 390.851 596.206 390.591 596.257C390.335 596.304 390.08 596.345 389.824 596.379C389.568 596.413 389.338 596.443 389.134 596.468C388.58 596.536 388.107 596.643 387.715 596.788C387.323 596.933 387.022 597.133 386.813 597.389C386.605 597.64 386.5 597.964 386.5 598.36C386.5 598.957 386.713 599.419 387.139 599.747C387.565 600.071 388.1 600.233 388.744 600.233ZM395.95 601.051V587.96H397.094V593.106H397.197C397.324 592.812 397.508 592.509 397.746 592.198C397.989 591.887 398.307 591.627 398.699 591.418C399.095 591.205 399.594 591.099 400.195 591.099C401 591.099 401.707 591.312 402.317 591.738C402.926 592.16 403.401 592.752 403.742 593.515C404.083 594.274 404.253 595.158 404.253 596.168C404.253 597.182 404.083 598.07 403.742 598.833C403.405 599.596 402.932 600.19 402.323 600.617C401.718 601.043 401.015 601.256 400.214 601.256C399.617 601.256 399.119 601.149 398.718 600.936C398.322 600.723 398.002 600.461 397.759 600.15C397.516 599.835 397.329 599.528 397.197 599.23H397.056V601.051H395.95ZM397.075 596.149C397.075 596.941 397.192 597.644 397.427 598.258C397.665 598.867 398.006 599.347 398.449 599.696C398.897 600.041 399.438 600.214 400.073 600.214C400.725 600.214 401.277 600.035 401.729 599.677C402.18 599.315 402.523 598.827 402.758 598.213C402.992 597.6 403.109 596.911 403.109 596.149C403.109 595.394 402.992 594.715 402.758 594.11C402.528 593.504 402.187 593.025 401.735 592.671C401.283 592.313 400.729 592.134 400.073 592.134C399.434 592.134 398.891 592.307 398.443 592.652C398 592.993 397.661 593.466 397.427 594.071C397.192 594.672 397.075 595.364 397.075 596.149ZM406.612 601.051V591.233H407.756V601.051H406.612ZM407.193 589.546C406.959 589.546 406.759 589.467 406.592 589.309C406.426 589.147 406.343 588.953 406.343 588.727C406.343 588.502 406.426 588.31 406.592 588.152C406.759 587.99 406.959 587.909 407.193 587.909C407.428 587.909 407.628 587.99 407.794 588.152C407.96 588.31 408.043 588.502 408.043 588.727C408.043 588.953 407.96 589.147 407.794 589.309C407.628 589.467 407.428 589.546 407.193 589.546ZM411.749 587.96V601.051H410.611V587.96H411.749ZM414.618 601.051V591.233H415.762V601.051H414.618ZM415.2 589.546C414.965 589.546 414.765 589.467 414.599 589.309C414.433 589.147 414.35 588.953 414.35 588.727C414.35 588.502 414.433 588.31 414.599 588.152C414.765 587.99 414.965 587.909 415.2 587.909C415.434 587.909 415.634 587.99 415.801 588.152C415.967 588.31 416.05 588.502 416.05 588.727C416.05 588.953 415.967 589.147 415.801 589.309C415.634 589.467 415.434 589.546 415.2 589.546ZM422.484 591.233V592.224H417.799V591.233H422.484ZM419.263 588.881H420.407V598.488C420.407 598.897 420.477 599.219 420.618 599.453C420.759 599.683 420.942 599.847 421.168 599.945C421.393 600.039 421.634 600.086 421.89 600.086C422.039 600.086 422.167 600.078 422.273 600.061C422.38 600.039 422.474 600.018 422.555 599.997L422.798 601.026C422.687 601.068 422.55 601.107 422.389 601.141C422.227 601.179 422.026 601.198 421.788 601.198C421.37 601.198 420.967 601.107 420.58 600.923C420.196 600.74 419.881 600.467 419.634 600.105C419.386 599.743 419.263 599.293 419.263 598.757V588.881ZM425.707 604.733C425.481 604.733 425.27 604.712 425.074 604.669C424.878 604.627 424.723 604.58 424.608 604.529L424.914 603.525C425.302 603.644 425.647 603.687 425.95 603.653C426.252 603.623 426.521 603.487 426.755 603.244C426.99 603.005 427.198 602.639 427.382 602.144L427.74 601.147L424.128 591.233H425.362L428.277 599.549H428.366L431.281 591.233H432.515L428.36 602.605C428.185 603.078 427.97 603.472 427.714 603.787C427.458 604.107 427.162 604.343 426.826 604.497C426.493 604.654 426.12 604.733 425.707 604.733ZM434.879 601.147C434.628 601.147 434.41 601.058 434.227 600.879C434.048 600.695 433.959 600.478 433.959 600.227C433.959 599.971 434.048 599.754 434.227 599.575C434.41 599.396 434.628 599.306 434.879 599.306C435.135 599.306 435.352 599.396 435.531 599.575C435.71 599.754 435.799 599.971 435.799 600.227C435.799 600.393 435.757 600.546 435.672 600.687C435.591 600.828 435.48 600.94 435.339 601.026C435.203 601.107 435.049 601.147 434.879 601.147Z" fill="white"/>
</svg>
