<svg width="1920" height="437" viewBox="0 0 1920 437" fill="none" xmlns="http://www.w3.org/2000/svg">
<g opacity="0.1">
<path d="M-67.8315 13.5176C-58.1885 3.12652 -41.5103 3.14401 -32.2651 13.8535C13.2149 66.5021 62.1007 107.805 112.642 136.945C122.853 142.845 127.507 155.003 123.353 165.892L123.148 166.409L9.13916 444.522C3.79233 457.544 -11.4486 463.106 -24.0894 456.887C-112.737 413.29 -196.697 348.236 -266.384 256.467C-273.393 247.217 -272.567 234.13 -264.652 225.61V225.609L-67.8325 13.5176H-67.8315Z" stroke="white" stroke-width="1.59477"/>
<path d="M228.114 200.206C232.149 190.378 242.106 184.041 252.598 185.273H252.599C264.575 186.674 276.58 187.359 288.496 187.359H288.733C301.315 187.359 311.866 196.8 312.987 209.304L312.989 209.303L339.075 505.245H339.076C340.312 519.252 329.354 531.332 315.289 531.476C310.802 531.505 306.319 531.535 301.807 531.535C246.747 531.535 188.838 525.45 130.722 511.886C116.153 508.488 107.937 493.007 113.599 479.182L228.114 200.206Z" stroke="white" stroke-width="1.59477"/>
<path d="M458.687 146.545C467.57 140.651 479.202 141.225 487.365 148.078L487.39 148.103L487.417 148.125L749.516 368.181C761.366 378.133 760.934 396.541 748.595 405.918V405.919C678.351 459.344 588.652 498.105 476.177 517.459C462.664 519.777 450.042 509.959 448.47 496.39L448.404 495.741L420.978 183.962C420.116 174.067 425.408 164.639 434.345 160.327C442.342 156.496 449.974 152.219 457.239 147.496L458.687 146.545Z" stroke="white" stroke-width="1.59477"/>
<path d="M590.027 -94.2021H935.025C948.81 -94.2021 959.961 -82.6045 959.099 -68.873L959.077 -68.5137L959.106 -68.4844C950.398 69.0264 915.307 195.567 846.38 299.713C838.315 311.869 821.697 314.641 810.55 305.291L555.485 63.1191L555.466 63.1025L555.447 63.0859C548.046 56.8946 544.896 46.8299 547.878 37.709L547.879 37.708C551.974 25.1268 555.554 5.19343 558.61 -15.4902C561.668 -36.1883 564.211 -57.7077 566.215 -73.4756C567.738 -85.3682 578.027 -94.2021 590.027 -94.2021Z" stroke="white" stroke-width="1.59477"/>
<path d="M1164.06 13.5176C1173.7 3.12652 1190.38 3.14401 1199.63 13.8535C1245.11 66.5021 1293.99 107.805 1344.54 136.945C1354.75 142.845 1359.4 155.003 1355.25 165.892L1355.04 166.409L1241.03 444.522C1235.69 457.544 1220.44 463.106 1207.8 456.887C1119.16 413.29 1035.2 348.236 965.509 256.467C958.5 247.217 959.327 234.13 967.241 225.61V225.609L1164.06 13.5176H1164.06Z" stroke="white" stroke-width="1.59477"/>
<path d="M1460.01 200.206C1464.04 190.378 1474 184.041 1484.49 185.273H1484.49C1496.47 186.674 1508.47 187.359 1520.39 187.359H1520.63C1533.21 187.359 1543.76 196.8 1544.88 209.304L1544.88 209.303L1570.97 505.245H1570.97C1572.21 519.252 1561.25 531.332 1547.18 531.476C1542.7 531.505 1538.21 531.535 1533.7 531.535C1478.64 531.535 1420.73 525.45 1362.62 511.886C1348.05 508.488 1339.83 493.007 1345.49 479.182L1460.01 200.206Z" stroke="white" stroke-width="1.59477"/>
<path d="M1690.58 146.545C1699.46 140.651 1711.1 141.225 1719.26 148.078L1719.28 148.103L1719.31 148.125L1981.41 368.181C1993.26 378.133 1992.83 396.541 1980.49 405.918V405.919C1910.24 459.344 1820.55 498.105 1708.07 517.459C1694.56 519.777 1681.94 509.959 1680.36 496.39L1680.3 495.741L1652.87 183.962C1652.01 174.067 1657.3 164.639 1666.24 160.327C1674.24 156.496 1681.87 152.219 1689.13 147.496L1690.58 146.545Z" stroke="white" stroke-width="1.59477"/>
<path d="M1821.92 -94.2021H2166.92C2180.7 -94.2021 2191.85 -82.6045 2190.99 -68.873L2190.97 -68.5137L2191 -68.4844C2182.29 69.0264 2147.2 195.567 2078.27 299.713C2070.21 311.869 2053.59 314.641 2042.44 305.291L1787.38 63.1191L1787.36 63.1025L1787.34 63.0859C1779.94 56.8946 1776.79 46.8299 1779.77 37.709L1779.77 37.708C1783.87 25.1268 1787.45 5.19343 1790.5 -15.4902C1793.56 -36.1883 1796.1 -57.7077 1798.11 -73.4756C1799.63 -85.3682 1809.92 -94.2021 1821.92 -94.2021Z" stroke="white" stroke-width="1.59477"/>
</g>
</svg>
