<svg width="960" height="437" viewBox="0 0 960 437" fill="none" xmlns="http://www.w3.org/2000/svg">
<path d="M-67.8315 13.5176C-58.1885 3.12652 -41.5103 3.14401 -32.2651 13.8535C13.2149 66.5021 62.1007 107.805 112.642 136.945C122.853 142.845 127.507 155.003 123.353 165.892L123.148 166.409L9.13916 444.522C3.79233 457.544 -11.4486 463.106 -24.0894 456.887C-112.737 413.29 -196.697 348.236 -266.384 256.467C-273.393 247.217 -272.567 234.13 -264.652 225.61V225.609L-67.8325 13.5176H-67.8315Z" stroke="white" stroke-width="1.59477"/>
<path d="M228.114 200.206C232.149 190.378 242.106 184.041 252.598 185.273H252.599C264.575 186.674 276.58 187.359 288.496 187.359H288.733C301.315 187.359 311.866 196.8 312.987 209.304L312.989 209.303L339.075 505.245H339.076C340.312 519.252 329.354 531.332 315.289 531.476C310.802 531.505 306.319 531.535 301.807 531.535C246.747 531.535 188.838 525.45 130.722 511.886C116.153 508.488 107.937 493.007 113.599 479.182L228.114 200.206Z" stroke="white" stroke-width="1.59477"/>
<path d="M458.687 146.545C467.57 140.651 479.202 141.225 487.365 148.078L487.39 148.103L487.417 148.125L749.516 368.181C761.366 378.133 760.934 396.541 748.595 405.918V405.919C678.351 459.344 588.652 498.105 476.177 517.459C462.664 519.777 450.042 509.959 448.47 496.39L448.404 495.741L420.978 183.962C420.116 174.067 425.408 164.639 434.345 160.327C442.342 156.496 449.974 152.219 457.239 147.496L458.687 146.545Z" stroke="white" stroke-width="1.59477"/>
<path d="M590.027 -94.2021H935.025C948.81 -94.2021 959.961 -82.6045 959.099 -68.873L959.077 -68.5137L959.106 -68.4844C950.398 69.0264 915.307 195.567 846.38 299.713C838.315 311.869 821.697 314.641 810.55 305.291L555.485 63.1191L555.466 63.1025L555.447 63.0859C548.046 56.8946 544.896 46.8299 547.878 37.709L547.879 37.708C551.974 25.1268 555.554 5.19343 558.61 -15.4902C561.668 -36.1883 564.211 -57.7077 566.215 -73.4756C567.738 -85.3682 578.027 -94.2021 590.027 -94.2021Z" stroke="white" stroke-width="1.59477"/>
</svg>
