<svg width="1920" height="74" viewBox="0 0 1920 74" fill="none" xmlns="http://www.w3.org/2000/svg">
<path d="M-21.377 17.8745C-19.7885 16.1631 -17.0414 16.1662 -15.5186 17.9302C-8.02716 26.6023 0.0255033 33.4056 8.35059 38.2056C10.0588 39.1928 10.8226 41.2435 10.0811 43.0581L-8.69824 88.8696C-9.57898 91.0144 -12.0898 91.9301 -14.1719 90.9058C-28.3176 83.9489 -41.739 73.6755 -53 59.2974L-54.083 57.8931C-55.2374 56.3695 -55.1015 54.2134 -53.7979 52.8101H-53.7969L-21.377 17.8745Z" stroke="white" stroke-width="0.262689"/>
<path d="M31.4033 46.1665C33.376 46.3971 35.3537 46.5103 37.3164 46.5103H37.3555C39.4279 46.5103 41.1659 48.0658 41.3506 50.1255V50.1245L45.6475 98.8726C45.851 101.18 44.0463 103.169 41.7295 103.193C40.9906 103.198 40.252 103.203 39.5088 103.203C30.4395 103.203 20.9008 102.201 11.3281 99.9663C8.92846 99.4067 7.57538 96.8569 8.50781 94.5796L27.3701 48.6265C27.9931 47.109 29.4736 46.0966 31.0801 46.1431L31.4033 46.1665Z" stroke="white" stroke-width="0.262689"/>
<path d="M65.3496 39.7866C66.8127 38.816 68.7288 38.9102 70.0732 40.0386V40.0396L70.082 40.0474L113.255 76.2944C115.207 77.9337 115.136 80.9657 113.104 82.5103C101.895 91.0353 87.6782 97.2935 69.957 100.575L68.2305 100.883C65.9694 101.271 63.8603 99.596 63.6562 97.3062L59.1387 45.9497C58.9967 44.3199 59.8687 42.7672 61.3408 42.0571C62.7458 41.3841 64.0818 40.6269 65.3496 39.7866Z" stroke="white" stroke-width="0.262689"/>
<path d="M86.9839 0.130859H143.812C146.083 0.130928 147.92 2.04189 147.778 4.30371L147.774 4.36328L147.778 4.36719C146.343 27.0179 140.564 47.8617 129.21 65.0166C127.882 67.0185 125.146 67.4753 123.31 65.9365L81.2944 26.0449L81.2876 26.04L81.0679 25.8418C80.008 24.8138 79.5808 23.268 80.0415 21.8594C80.7159 19.787 81.3057 16.5036 81.8091 13.0967C82.3128 9.68752 82.7319 6.14311 83.062 3.5459C83.3128 1.58699 85.0073 0.13091 86.9839 0.130859Z" stroke="white" stroke-width="0.262689"/>
<path d="M181.54 17.8745C183.128 16.1631 185.875 16.1662 187.398 17.9302C194.889 26.6023 202.942 33.4056 211.267 38.2056C212.975 39.1928 213.739 41.2435 212.998 43.0581L194.218 88.8696C193.338 91.0144 190.827 91.9301 188.745 90.9058C174.599 83.9489 161.177 73.6755 149.917 59.2974L148.833 57.8931C147.679 56.3695 147.815 54.2134 149.119 52.8101H149.12L181.54 17.8745Z" stroke="white" stroke-width="0.262689"/>
<path d="M234.32 46.1665C236.292 46.3971 238.27 46.5103 240.233 46.5103H240.272C242.344 46.5103 244.082 48.0658 244.267 50.1255V50.1245L248.564 98.8726C248.768 101.18 246.963 103.169 244.646 103.193C243.907 103.198 243.169 103.203 242.425 103.203C233.356 103.203 223.817 102.201 214.245 99.9663C211.845 99.4067 210.492 96.8569 211.424 94.5796L230.287 48.6265C230.91 47.109 232.39 46.0966 233.997 46.1431L234.32 46.1665Z" stroke="white" stroke-width="0.262689"/>
<path d="M268.266 39.7866C269.729 38.816 271.645 38.9102 272.99 40.0386V40.0396L272.999 40.0474L316.171 76.2944C318.123 77.9337 318.052 80.9657 316.02 82.5103C304.811 91.0353 290.595 97.2935 272.874 100.575L271.147 100.883C268.886 101.271 266.777 99.596 266.573 97.3062L262.055 45.9497C261.913 44.3199 262.785 42.7672 264.257 42.0571C265.662 41.3841 266.998 40.6269 268.266 39.7866Z" stroke="white" stroke-width="0.262689"/>
<path d="M289.9 0.130859H346.729C348.999 0.130928 350.836 2.04189 350.694 4.30371L350.69 4.36328L350.694 4.36719C349.26 27.0179 343.48 47.8617 332.127 65.0166C330.799 67.0185 328.063 67.4753 326.227 65.9365L284.211 26.0449L284.204 26.04L283.984 25.8418C282.924 24.8138 282.497 23.268 282.958 21.8594C283.632 19.787 284.222 16.5036 284.726 13.0967C285.229 9.68752 285.648 6.14311 285.979 3.5459C286.229 1.58699 287.924 0.13091 289.9 0.130859Z" stroke="white" stroke-width="0.262689"/>
<path d="M384.456 17.8745C386.044 16.1631 388.792 16.1662 390.314 17.9302C397.806 26.6023 405.859 33.4056 414.184 38.2056C415.892 39.1928 416.656 41.2435 415.914 43.0581L397.135 88.8696C396.254 91.0144 393.743 91.9301 391.661 90.9058C377.515 83.9489 364.094 73.6755 352.833 59.2974L351.75 57.8931C350.596 56.3695 350.732 54.2134 352.035 52.8101H352.036L384.456 17.8745Z" stroke="white" stroke-width="0.262689"/>
<path d="M437.236 46.1665C439.209 46.3971 441.187 46.5103 443.149 46.5103H443.188C445.261 46.5103 446.999 48.0658 447.184 50.1255V50.1245L451.48 98.8726C451.684 101.18 449.879 103.169 447.562 103.193C446.824 103.198 446.085 103.203 445.342 103.203C436.273 103.203 426.734 102.201 417.161 99.9663C414.761 99.4067 413.408 96.8569 414.341 94.5796L433.203 48.6265C433.826 47.109 435.307 46.0966 436.913 46.1431L437.236 46.1665Z" stroke="white" stroke-width="0.262689"/>
<path d="M471.183 39.7866C472.646 38.816 474.562 38.9102 475.906 40.0386V40.0396L475.915 40.0474L519.088 76.2944C521.04 77.9337 520.969 80.9657 518.937 82.5103C507.728 91.0353 493.511 97.2935 475.79 100.575L474.063 100.883C471.802 101.271 469.693 99.596 469.489 97.3062L464.972 45.9497C464.83 44.3199 465.702 42.7672 467.174 42.0571C468.579 41.3841 469.915 40.6269 471.183 39.7866Z" stroke="white" stroke-width="0.262689"/>
<path d="M492.817 0.130859H549.645C551.916 0.130928 553.753 2.04189 553.611 4.30371L553.607 4.36328L553.611 4.36719C552.176 27.0179 546.397 47.8617 535.043 65.0166C533.715 67.0185 530.979 67.4753 529.143 65.9365L487.127 26.0449L487.121 26.04L486.901 25.8418C485.841 24.8138 485.414 23.268 485.875 21.8594C486.549 19.787 487.139 16.5036 487.642 13.0967C488.146 9.68752 488.565 6.14311 488.895 3.5459C489.146 1.58699 490.84 0.13091 492.817 0.130859Z" stroke="white" stroke-width="0.262689"/>
<path d="M587.373 17.8745C588.961 16.1631 591.708 16.1662 593.231 17.9302C600.722 26.6023 608.775 33.4056 617.1 38.2056C618.808 39.1928 619.572 41.2435 618.831 43.0581L600.051 88.8696C599.171 91.0144 596.66 91.9301 594.578 90.9058C580.432 83.9489 567.01 73.6755 555.75 59.2974L554.667 57.8931C553.512 56.3695 553.648 54.2134 554.952 52.8101H554.953L587.373 17.8745Z" stroke="white" stroke-width="0.262689"/>
<path d="M640.153 46.1665C642.125 46.3971 644.103 46.5103 646.066 46.5103H646.105C648.177 46.5103 649.915 48.0658 650.1 50.1255V50.1245L654.397 98.8726C654.601 101.18 652.796 103.169 650.479 103.193C649.74 103.198 649.002 103.203 648.258 103.203C639.189 103.203 629.65 102.201 620.078 99.9663C617.678 99.4067 616.325 96.8569 617.257 94.5796L636.12 48.6265C636.743 47.109 638.223 46.0966 639.83 46.1431L640.153 46.1665Z" stroke="white" stroke-width="0.262689"/>
<path d="M674.099 39.7866C675.562 38.816 677.478 38.9102 678.823 40.0386V40.0396L678.832 40.0474L722.004 76.2944C723.956 77.9337 723.885 80.9657 721.853 82.5103C710.644 91.0353 696.428 97.2935 678.707 100.575L676.98 100.883C674.719 101.271 672.61 99.596 672.406 97.3062L667.888 45.9497C667.746 44.3199 668.618 42.7672 670.09 42.0571C671.495 41.3841 672.831 40.6269 674.099 39.7866Z" stroke="white" stroke-width="0.262689"/>
<path d="M695.733 0.130859H752.562C754.832 0.130928 756.669 2.04189 756.527 4.30371L756.523 4.36328L756.527 4.36719C755.093 27.0179 749.313 47.8617 737.96 65.0166C736.632 67.0185 733.896 67.4753 732.06 65.9365L690.044 26.0449L690.037 26.04L689.817 25.8418C688.757 24.8138 688.33 23.268 688.791 21.8594C689.465 19.787 690.055 16.5036 690.559 13.0967C691.062 9.68752 691.481 6.14311 691.812 3.5459C692.062 1.58699 693.757 0.13091 695.733 0.130859Z" stroke="white" stroke-width="0.262689"/>
<path d="M790.289 17.8745C791.877 16.1631 794.625 16.1662 796.147 17.9302C803.639 26.6023 811.692 33.4056 820.017 38.2056C821.725 39.1928 822.489 41.2435 821.747 43.0581L802.968 88.8696C802.087 91.0144 799.576 91.9301 797.494 90.9058C783.348 83.9489 769.927 73.6755 758.666 59.2974L757.583 57.8931C756.429 56.3695 756.565 54.2134 757.868 52.8101H757.869L790.289 17.8745Z" stroke="white" stroke-width="0.262689"/>
<path d="M843.069 46.1665C845.042 46.3971 847.02 46.5103 848.982 46.5103H849.021C851.094 46.5103 852.832 48.0658 853.017 50.1255V50.1245L857.313 98.8726C857.517 101.18 855.712 103.169 853.396 103.193C852.657 103.198 851.918 103.203 851.175 103.203C842.106 103.203 832.567 102.201 822.994 99.9663C820.594 99.4067 819.241 96.8569 820.174 94.5796L839.036 48.6265C839.659 47.109 841.14 46.0966 842.746 46.1431L843.069 46.1665Z" stroke="white" stroke-width="0.262689"/>
<path d="M877.016 39.7866C878.479 38.816 880.395 38.9102 881.739 40.0386V40.0396L881.748 40.0474L924.921 76.2944C926.873 77.9337 926.802 80.9657 924.77 82.5103C913.561 91.0353 899.344 97.2935 881.623 100.575L879.896 100.883C877.635 101.271 875.526 99.596 875.322 97.3062L870.805 45.9497C870.663 44.3199 871.535 42.7672 873.007 42.0571C874.412 41.3841 875.748 40.6269 877.016 39.7866Z" stroke="white" stroke-width="0.262689"/>
<path d="M898.65 0.130859H955.478C957.749 0.130928 959.586 2.04189 959.444 4.30371L959.44 4.36328L959.444 4.36719C958.009 27.0179 952.23 47.8617 940.876 65.0166C939.548 67.0185 936.812 67.4753 934.976 65.9365L892.96 26.0449L892.954 26.04L892.734 25.8418C891.674 24.8138 891.247 23.268 891.708 21.8594C892.382 19.787 892.972 16.5036 893.475 13.0967C893.979 9.68752 894.398 6.14311 894.728 3.5459C894.979 1.58699 896.673 0.13091 898.65 0.130859Z" stroke="white" stroke-width="0.262689"/>
<path d="M993.205 17.8745C994.793 16.1631 997.541 16.1662 999.063 17.9302C1006.55 26.6023 1014.61 33.4056 1022.93 38.2056C1024.64 39.1928 1025.4 41.2435 1024.66 43.0581L1005.88 88.8696C1005 91.0144 1002.49 91.9301 1000.41 90.9058C986.264 83.9489 972.843 73.6755 961.582 59.2974L960.499 57.8931C959.345 56.3695 959.481 54.2134 960.784 52.8101H960.785L993.205 17.8745Z" stroke="white" stroke-width="0.262689"/>
<path d="M1045.99 46.1665C1047.96 46.3971 1049.94 46.5103 1051.9 46.5103H1051.94C1054.01 46.5103 1055.75 48.0658 1055.93 50.1255V50.1245L1060.23 98.8726C1060.43 101.18 1058.63 103.169 1056.31 103.193C1055.57 103.198 1054.83 103.203 1054.09 103.203C1045.02 103.203 1035.48 102.201 1025.91 99.9663C1023.51 99.4067 1022.16 96.8569 1023.09 94.5796L1041.95 48.6265C1042.58 47.109 1044.06 46.0966 1045.66 46.1431L1045.99 46.1665Z" stroke="white" stroke-width="0.262689"/>
<path d="M1079.93 39.7866C1081.39 38.816 1083.31 38.9102 1084.66 40.0386V40.0396L1084.66 40.0474L1127.84 76.2944C1129.79 77.9337 1129.72 80.9657 1127.69 82.5103C1116.48 91.0353 1102.26 97.2935 1084.54 100.575L1082.81 100.883C1080.55 101.271 1078.44 99.596 1078.24 97.3062L1073.72 45.9497C1073.58 44.3199 1074.45 42.7672 1075.92 42.0571C1077.33 41.3841 1078.66 40.6269 1079.93 39.7866Z" stroke="white" stroke-width="0.262689"/>
<path d="M1101.57 0.130859H1158.39C1160.66 0.130928 1162.5 2.04189 1162.36 4.30371L1162.36 4.36328L1162.36 4.36719C1160.93 27.0179 1155.15 47.8617 1143.79 65.0166C1142.46 67.0185 1139.73 67.4753 1137.89 65.9365L1095.88 26.0449L1095.87 26.04L1095.65 25.8418C1094.59 24.8138 1094.16 23.268 1094.62 21.8594C1095.3 19.787 1095.89 16.5036 1096.39 13.0967C1096.89 9.68752 1097.31 6.14311 1097.64 3.5459C1097.89 1.58699 1099.59 0.13091 1101.57 0.130859Z" stroke="white" stroke-width="0.262689"/>
<path d="M1196.12 17.8745C1197.71 16.1631 1200.46 16.1662 1201.98 17.9302C1209.47 26.6023 1217.52 33.4056 1225.85 38.2056C1227.56 39.1928 1228.32 41.2435 1227.58 43.0581L1208.8 88.8696C1207.92 91.0144 1205.41 91.9301 1203.33 90.9058C1189.18 83.9489 1175.76 73.6755 1164.5 59.2974L1163.42 57.8931C1162.26 56.3695 1162.4 54.2134 1163.7 52.8101H1163.7L1196.12 17.8745Z" stroke="white" stroke-width="0.262689"/>
<path d="M1248.9 46.1665C1250.87 46.3971 1252.85 46.5103 1254.81 46.5103H1254.85C1256.93 46.5103 1258.66 48.0658 1258.85 50.1255V50.1245L1263.15 98.8726C1263.35 101.18 1261.54 103.169 1259.23 103.193C1258.49 103.198 1257.75 103.203 1257.01 103.203C1247.94 103.203 1238.4 102.201 1228.83 99.9663C1226.43 99.4067 1225.07 96.8569 1226.01 94.5796L1244.87 48.6265C1245.49 47.109 1246.97 46.0966 1248.58 46.1431L1248.9 46.1665Z" stroke="white" stroke-width="0.262689"/>
<path d="M1282.85 39.7866C1284.31 38.816 1286.23 38.9102 1287.57 40.0386V40.0396L1287.58 40.0474L1330.75 76.2944C1332.71 77.9337 1332.63 80.9657 1330.6 82.5103C1319.39 91.0353 1305.18 97.2935 1287.46 100.575L1285.73 100.883C1283.47 101.271 1281.36 99.596 1281.15 97.3062L1276.64 45.9497C1276.5 44.3199 1277.37 42.7672 1278.84 42.0571C1280.24 41.3841 1281.58 40.6269 1282.85 39.7866Z" stroke="white" stroke-width="0.262689"/>
<path d="M1304.48 0.130859H1361.31C1363.58 0.130928 1365.42 2.04189 1365.28 4.30371L1365.27 4.36328L1365.28 4.36719C1363.84 27.0179 1358.06 47.8617 1346.71 65.0166C1345.38 67.0185 1342.64 67.4753 1340.81 65.9365L1298.79 26.0449L1298.79 26.04L1298.57 25.8418C1297.51 24.8138 1297.08 23.268 1297.54 21.8594C1298.21 19.787 1298.8 16.5036 1299.31 13.0967C1299.81 9.68752 1300.23 6.14311 1300.56 3.5459C1300.81 1.58699 1302.51 0.13091 1304.48 0.130859Z" stroke="white" stroke-width="0.262689"/>
<path d="M1399.04 17.8745C1400.63 16.1631 1403.37 16.1662 1404.9 17.9302C1412.39 26.6023 1420.44 33.4056 1428.77 38.2056C1430.47 39.1928 1431.24 41.2435 1430.5 43.0581L1411.72 88.8696C1410.84 91.0144 1408.33 91.9301 1406.24 90.9058C1392.1 83.9489 1378.68 73.6755 1367.42 59.2974L1366.33 57.8931C1365.18 56.3695 1365.31 54.2134 1366.62 52.8101H1366.62L1399.04 17.8745Z" stroke="white" stroke-width="0.262689"/>
<path d="M1451.82 46.1665C1453.79 46.3971 1455.77 46.5103 1457.73 46.5103H1457.77C1459.84 46.5103 1461.58 48.0658 1461.77 50.1255V50.1245L1466.06 98.8726C1466.27 101.18 1464.46 103.169 1462.14 103.193C1461.41 103.198 1460.67 103.203 1459.92 103.203C1450.85 103.203 1441.32 102.201 1431.74 99.9663C1429.34 99.4067 1427.99 96.8569 1428.92 94.5796L1447.79 48.6265C1448.41 47.109 1449.89 46.0966 1451.5 46.1431L1451.82 46.1665Z" stroke="white" stroke-width="0.262689"/>
<path d="M1485.76 39.7866C1487.23 38.816 1489.14 38.9102 1490.49 40.0386V40.0396L1490.5 40.0474L1533.67 76.2944C1535.62 77.9337 1535.55 80.9657 1533.52 82.5103C1522.31 91.0353 1508.09 97.2935 1490.37 100.575L1488.65 100.883C1486.38 101.271 1484.28 99.596 1484.07 97.3062L1479.55 45.9497C1479.41 44.3199 1480.28 42.7672 1481.76 42.0571C1483.16 41.3841 1484.5 40.6269 1485.76 39.7866Z" stroke="white" stroke-width="0.262689"/>
<path d="M1507.4 0.130859H1564.23C1566.5 0.130928 1568.33 2.04189 1568.19 4.30371L1568.19 4.36328L1568.19 4.36719C1566.76 27.0179 1560.98 47.8617 1549.63 65.0166C1548.3 67.0185 1545.56 67.4753 1543.73 65.9365L1501.71 26.0449L1501.7 26.04L1501.48 25.8418C1500.42 24.8138 1500 23.268 1500.46 21.8594C1501.13 19.787 1501.72 16.5036 1502.22 13.0967C1502.73 9.68752 1503.15 6.14311 1503.48 3.5459C1503.73 1.58699 1505.42 0.13091 1507.4 0.130859Z" stroke="white" stroke-width="0.262689"/>
<path d="M1601.95 17.8745C1603.54 16.1631 1606.29 16.1662 1607.81 17.9302C1615.3 26.6023 1623.36 33.4056 1631.68 38.2056C1633.39 39.1928 1634.15 41.2435 1633.41 43.0581L1614.63 88.8696C1613.75 91.0144 1611.24 91.9301 1609.16 90.9058C1595.01 83.9489 1581.59 73.6755 1570.33 59.2974L1569.25 57.8931C1568.09 56.3695 1568.23 54.2134 1569.53 52.8101H1569.53L1601.95 17.8745Z" stroke="white" stroke-width="0.262689"/>
<path d="M1654.73 46.1665C1656.71 46.3971 1658.69 46.5103 1660.65 46.5103H1660.69C1662.76 46.5103 1664.5 48.0658 1664.68 50.1255V50.1245L1668.98 98.8726C1669.18 101.18 1667.38 103.169 1665.06 103.193C1664.32 103.198 1663.58 103.203 1662.84 103.203C1653.77 103.203 1644.23 102.201 1634.66 99.9663C1632.26 99.4067 1630.91 96.8569 1631.84 94.5796L1650.7 48.6265C1651.32 47.109 1652.81 46.0966 1654.41 46.1431L1654.73 46.1665Z" stroke="white" stroke-width="0.262689"/>
<path d="M1688.68 39.7866C1690.14 38.816 1692.06 38.9102 1693.4 40.0386V40.0396L1693.41 40.0474L1736.59 76.2944C1738.54 77.9337 1738.47 80.9657 1736.44 82.5103C1725.23 91.0353 1711.01 97.2935 1693.29 100.575L1691.56 100.883C1689.3 101.271 1687.19 99.596 1686.99 97.3062L1682.47 45.9497C1682.33 44.3199 1683.2 42.7672 1684.67 42.0571C1686.08 41.3841 1687.41 40.6269 1688.68 39.7866Z" stroke="white" stroke-width="0.262689"/>
<path d="M1710.32 0.130859H1767.14C1769.41 0.130928 1771.25 2.04189 1771.11 4.30371L1771.11 4.36328L1771.11 4.36719C1769.68 27.0179 1763.9 47.8617 1752.54 65.0166C1751.21 67.0185 1748.48 67.4753 1746.64 65.9365L1704.63 26.0449L1704.62 26.04L1704.4 25.8418C1703.34 24.8138 1702.91 23.268 1703.37 21.8594C1704.05 19.787 1704.64 16.5036 1705.14 13.0967C1705.64 9.68752 1706.06 6.14311 1706.39 3.5459C1706.64 1.58699 1708.34 0.13091 1710.32 0.130859Z" stroke="white" stroke-width="0.262689"/>
<path d="M1804.87 17.8745C1806.46 16.1631 1809.21 16.1662 1810.73 17.9302C1818.22 26.6023 1826.27 33.4056 1834.6 38.2056C1836.31 39.1928 1837.07 41.2435 1836.33 43.0581L1817.55 88.8696C1816.67 91.0144 1814.16 91.9301 1812.08 90.9058C1797.93 83.9489 1784.51 73.6755 1773.25 59.2974L1772.17 57.8931C1771.01 56.3695 1771.15 54.2134 1772.45 52.8101H1772.45L1804.87 17.8745Z" stroke="white" stroke-width="0.262689"/>
<path d="M1857.65 46.1665C1859.62 46.3971 1861.6 46.5103 1863.56 46.5103H1863.6C1865.68 46.5103 1867.41 48.0658 1867.6 50.1255V50.1245L1871.9 98.8726C1872.1 101.18 1870.29 103.169 1867.98 103.193C1867.24 103.198 1866.5 103.203 1865.76 103.203C1856.69 103.203 1847.15 102.201 1837.58 99.9663C1835.18 99.4067 1833.82 96.8569 1834.76 94.5796L1853.62 48.6265C1854.24 47.109 1855.72 46.0966 1857.33 46.1431L1857.65 46.1665Z" stroke="white" stroke-width="0.262689"/>
<path d="M1891.6 39.7866C1893.06 38.816 1894.98 38.9102 1896.32 40.0386V40.0396L1896.33 40.0474L1939.5 76.2944C1941.45 77.9337 1941.38 80.9657 1939.35 82.5103C1928.14 91.0353 1913.93 97.2935 1896.21 100.575L1894.48 100.883C1892.22 101.271 1890.11 99.596 1889.9 97.3062L1885.39 45.9497C1885.24 44.3199 1886.12 42.7672 1887.59 42.0571C1888.99 41.3841 1890.33 40.6269 1891.6 39.7866Z" stroke="white" stroke-width="0.262689"/>
<path d="M1913.23 0.130859H1970.06C1972.33 0.130928 1974.17 2.04189 1974.03 4.30371L1974.02 4.36328L1974.03 4.36719C1972.59 27.0179 1966.81 47.8617 1955.46 65.0166C1954.13 67.0185 1951.39 67.4753 1949.56 65.9365L1907.54 26.0449L1907.54 26.04L1907.32 25.8418C1906.26 24.8138 1905.83 23.268 1906.29 21.8594C1906.96 19.787 1907.55 16.5036 1908.06 13.0967C1908.56 9.68752 1908.98 6.14311 1909.31 3.5459C1909.56 1.58699 1911.26 0.13091 1913.23 0.130859Z" stroke="white" stroke-width="0.262689"/>
</svg>
