<svg width="487" height="740" viewBox="0 0 487 740" fill="none" xmlns="http://www.w3.org/2000/svg">
<path d="M430.666 52.8391L486.071 681.418C488.785 712.15 464.742 738.654 433.885 738.969C424.356 739.032 414.827 739.095 405.235 739.095C288.177 739.095 165.061 726.159 41.5036 697.321C9.57294 689.874 -8.4747 655.924 3.9568 625.571L247.16 33.0876C255.994 11.5691 277.828 -2.37692 300.924 0.336554C326.292 3.30244 351.723 4.75391 376.965 4.75391C377.154 4.75391 377.28 4.75391 377.47 4.75391C405.046 4.75391 428.205 25.4521 430.666 52.9023V52.8391Z" fill="#A16AFA"/>
<path d="M111.528 505.051V475.96H130.79V481.031H117.679V487.963H129.511V493.034H117.679V505.051H111.528ZM142.916 505.477C140.709 505.477 138.801 505.008 137.191 504.071C135.591 503.124 134.355 501.807 133.484 500.122C132.613 498.427 132.177 496.462 132.177 494.227C132.177 491.973 132.613 490.003 133.484 488.318C134.355 486.623 135.591 485.306 137.191 484.369C138.801 483.422 140.709 482.949 142.916 482.949C145.122 482.949 147.025 483.422 148.626 484.369C150.236 485.306 151.476 486.623 152.347 488.318C153.219 490.003 153.654 491.973 153.654 494.227C153.654 496.462 153.219 498.427 152.347 500.122C151.476 501.807 150.236 503.124 148.626 504.071C147.025 505.008 145.122 505.477 142.916 505.477ZM142.944 500.789C143.948 500.789 144.786 500.505 145.458 499.937C146.131 499.359 146.637 498.574 146.978 497.579C147.328 496.585 147.504 495.453 147.504 494.184C147.504 492.915 147.328 491.784 146.978 490.789C146.637 489.795 146.131 489.009 145.458 488.431C144.786 487.854 143.948 487.565 142.944 487.565C141.931 487.565 141.078 487.854 140.387 488.431C139.705 489.009 139.189 489.795 138.839 490.789C138.498 491.784 138.328 492.915 138.328 494.184C138.328 495.453 138.498 496.585 138.839 497.579C139.189 498.574 139.705 499.359 140.387 499.937C141.078 500.505 141.931 500.789 142.944 500.789ZM171.426 495.761V483.233H177.478V505.051H171.668V501.088H171.441C170.948 502.366 170.129 503.394 168.983 504.17C167.847 504.947 166.46 505.335 164.821 505.335C163.363 505.335 162.08 505.003 160.972 504.341C159.864 503.678 158.997 502.735 158.372 501.514C157.757 500.292 157.444 498.829 157.435 497.125V483.233H163.486V496.045C163.496 497.333 163.841 498.351 164.523 499.099C165.205 499.847 166.119 500.221 167.264 500.221C167.994 500.221 168.675 500.056 169.31 499.724C169.944 499.383 170.456 498.881 170.844 498.218C171.242 497.556 171.436 496.736 171.426 495.761ZM188.215 492.437V505.051H182.164V483.233H187.931V487.082H188.186C188.669 485.813 189.479 484.809 190.615 484.071C191.752 483.323 193.13 482.949 194.749 482.949C196.264 482.949 197.585 483.28 198.712 483.943C199.839 484.606 200.715 485.553 201.34 486.784C201.965 488.005 202.277 489.464 202.277 491.159V505.051H196.226V492.238C196.236 490.903 195.895 489.861 195.203 489.113C194.512 488.356 193.56 487.977 192.348 487.977C191.534 487.977 190.814 488.152 190.189 488.502C189.574 488.853 189.091 489.364 188.74 490.037C188.4 490.699 188.224 491.5 188.215 492.437ZM214.932 505.406C213.275 505.406 211.774 504.98 210.429 504.127C209.094 503.266 208.034 502.002 207.248 500.335C206.471 498.659 206.083 496.604 206.083 494.17C206.083 491.67 206.485 489.592 207.29 487.934C208.095 486.268 209.165 485.022 210.5 484.199C211.845 483.365 213.318 482.949 214.918 482.949C216.14 482.949 217.158 483.157 217.972 483.574C218.796 483.981 219.459 484.492 219.961 485.108C220.472 485.714 220.86 486.31 221.125 486.897H221.31V475.96H227.347V505.051H221.381V501.556H221.125C220.841 502.163 220.439 502.764 219.918 503.36C219.407 503.948 218.739 504.435 217.915 504.824C217.101 505.212 216.107 505.406 214.932 505.406ZM216.85 500.591C217.825 500.591 218.649 500.325 219.322 499.795C220.003 499.255 220.524 498.502 220.884 497.537C221.253 496.571 221.438 495.439 221.438 494.142C221.438 492.844 221.258 491.717 220.898 490.761C220.538 489.805 220.018 489.066 219.336 488.545C218.654 488.024 217.825 487.764 216.85 487.764C215.856 487.764 215.018 488.034 214.336 488.574C213.654 489.113 213.138 489.861 212.787 490.818C212.437 491.774 212.262 492.882 212.262 494.142C212.262 495.411 212.437 496.533 212.787 497.508C213.147 498.474 213.663 499.232 214.336 499.781C215.018 500.321 215.856 500.591 216.85 500.591ZM242.111 505.477C239.867 505.477 237.935 505.022 236.316 504.113C234.706 503.195 233.466 501.897 232.594 500.221C231.723 498.536 231.288 496.542 231.288 494.241C231.288 491.997 231.723 490.027 232.594 488.332C233.466 486.637 234.692 485.316 236.273 484.369C237.864 483.422 239.73 482.949 241.87 482.949C243.309 482.949 244.649 483.181 245.89 483.645C247.14 484.099 248.229 484.786 249.157 485.704C250.094 486.623 250.824 487.778 251.344 489.17C251.865 490.553 252.126 492.172 252.126 494.028V495.69H233.702V491.94H246.43C246.43 491.069 246.24 490.297 245.861 489.625C245.483 488.952 244.957 488.427 244.285 488.048C243.622 487.66 242.85 487.466 241.969 487.466C241.051 487.466 240.236 487.679 239.526 488.105C238.825 488.521 238.276 489.085 237.878 489.795C237.481 490.496 237.277 491.277 237.268 492.139V495.704C237.268 496.784 237.467 497.717 237.864 498.502C238.271 499.288 238.844 499.895 239.583 500.321C240.322 500.747 241.198 500.96 242.211 500.96C242.883 500.96 243.499 500.865 244.057 500.676C244.616 500.486 245.094 500.202 245.492 499.824C245.89 499.445 246.193 498.981 246.401 498.431L251.998 498.801C251.714 500.145 251.131 501.32 250.251 502.324C249.379 503.318 248.252 504.094 246.87 504.653C245.497 505.202 243.911 505.477 242.111 505.477ZM255.92 505.051V483.233H261.787V487.039H262.014C262.412 485.685 263.08 484.663 264.017 483.971C264.955 483.27 266.034 482.92 267.256 482.92C267.559 482.92 267.885 482.939 268.236 482.977C268.586 483.015 268.894 483.067 269.159 483.133V488.502C268.875 488.417 268.482 488.342 267.98 488.275C267.478 488.209 267.019 488.176 266.602 488.176C265.712 488.176 264.917 488.37 264.216 488.758C263.525 489.137 262.975 489.667 262.568 490.349C262.17 491.031 261.972 491.817 261.972 492.707V505.051H255.92ZM290.287 489.454L284.747 489.795C284.653 489.322 284.449 488.895 284.136 488.517C283.824 488.128 283.412 487.821 282.901 487.593C282.399 487.357 281.797 487.238 281.097 487.238C280.159 487.238 279.368 487.437 278.725 487.835C278.081 488.223 277.759 488.744 277.759 489.397C277.759 489.918 277.967 490.359 278.384 490.718C278.8 491.078 279.515 491.367 280.529 491.585L284.477 492.38C286.599 492.816 288.18 493.517 289.222 494.483C290.263 495.449 290.784 496.717 290.784 498.289C290.784 499.719 290.363 500.974 289.52 502.054C288.687 503.133 287.541 503.976 286.083 504.582C284.634 505.179 282.962 505.477 281.068 505.477C278.18 505.477 275.879 504.876 274.165 503.673C272.46 502.461 271.461 500.813 271.168 498.73L277.119 498.417C277.299 499.298 277.735 499.97 278.426 500.434C279.118 500.889 280.003 501.116 281.083 501.116C282.143 501.116 282.995 500.913 283.639 500.505C284.293 500.089 284.624 499.554 284.634 498.9C284.624 498.351 284.392 497.901 283.938 497.551C283.483 497.191 282.782 496.916 281.835 496.727L278.057 495.974C275.926 495.548 274.34 494.809 273.298 493.758C272.266 492.707 271.75 491.367 271.75 489.738C271.75 488.337 272.129 487.129 272.886 486.116C273.654 485.103 274.728 484.322 276.111 483.772C277.503 483.223 279.132 482.949 280.997 482.949C283.753 482.949 285.922 483.531 287.503 484.696C289.094 485.86 290.022 487.447 290.287 489.454Z" fill="white"/>
<path d="M110.739 555.051V541.96H111.934V553.977H118.173V555.051H110.739ZM123.215 555.275C122.623 555.275 122.082 555.159 121.592 554.929C121.102 554.695 120.712 554.358 120.422 553.919C120.132 553.476 119.987 552.939 119.987 552.309C119.987 551.823 120.079 551.414 120.262 551.081C120.445 550.749 120.705 550.476 121.042 550.263C121.379 550.05 121.777 549.882 122.237 549.758C122.698 549.635 123.205 549.539 123.759 549.471C124.308 549.402 124.773 549.343 125.152 549.292C125.536 549.24 125.828 549.159 126.028 549.049C126.228 548.938 126.328 548.759 126.328 548.512V548.282C126.328 547.613 126.128 547.086 125.727 546.703C125.331 546.315 124.76 546.121 124.014 546.121C123.307 546.121 122.73 546.277 122.282 546.588C121.839 546.899 121.528 547.265 121.349 547.687L120.269 547.297C120.49 546.76 120.797 546.332 121.189 546.012C121.581 545.689 122.02 545.456 122.506 545.316C122.992 545.171 123.484 545.098 123.982 545.098C124.357 545.098 124.747 545.147 125.152 545.245C125.561 545.343 125.94 545.514 126.29 545.757C126.639 545.995 126.923 546.33 127.14 546.76C127.357 547.186 127.466 547.728 127.466 548.384V555.051H126.328V553.498H126.258C126.122 553.787 125.919 554.069 125.651 554.341C125.382 554.614 125.046 554.838 124.641 555.012C124.236 555.187 123.761 555.275 123.215 555.275ZM123.369 554.233C123.974 554.233 124.498 554.098 124.941 553.83C125.384 553.561 125.725 553.206 125.964 552.762C126.207 552.315 126.328 551.823 126.328 551.286V549.867C126.243 549.948 126.1 550.02 125.9 550.084C125.704 550.148 125.476 550.206 125.216 550.257C124.96 550.304 124.705 550.344 124.449 550.378C124.193 550.412 123.963 550.442 123.759 550.468C123.205 550.536 122.732 550.642 122.34 550.787C121.948 550.932 121.647 551.132 121.438 551.388C121.23 551.64 121.125 551.963 121.125 552.36C121.125 552.956 121.338 553.419 121.764 553.747C122.19 554.071 122.725 554.233 123.369 554.233ZM136.577 551.299V545.233H137.715V555.051H136.577V553.421H136.488C136.258 553.924 135.893 554.343 135.395 554.68C134.896 555.012 134.287 555.179 133.567 555.179C132.94 555.179 132.384 555.042 131.898 554.77C131.413 554.493 131.031 554.088 130.754 553.555C130.477 553.022 130.339 552.368 130.339 551.593V545.233H131.476V551.522C131.476 552.289 131.702 552.907 132.154 553.376C132.606 553.841 133.185 554.073 133.893 554.073C134.336 554.073 134.762 553.966 135.171 553.753C135.58 553.54 135.917 553.229 136.181 552.82C136.445 552.407 136.577 551.9 136.577 551.299ZM141.711 548.914V555.051H140.573V545.233H141.679V546.773H141.781C142.012 546.27 142.369 545.868 142.855 545.565C143.345 545.258 143.95 545.105 144.671 545.105C145.331 545.105 145.911 545.243 146.409 545.52C146.912 545.793 147.302 546.196 147.579 546.728C147.86 547.261 148.001 547.915 148.001 548.691V555.051H146.863V548.761C146.863 547.956 146.637 547.319 146.186 546.85C145.738 546.381 145.137 546.147 144.383 546.147C143.867 546.147 143.409 546.257 143.009 546.479C142.608 546.701 142.291 547.02 142.056 547.438C141.826 547.851 141.711 548.343 141.711 548.914ZM154.678 555.255C153.801 555.255 153.036 555.036 152.384 554.597C151.736 554.158 151.233 553.557 150.875 552.794C150.517 552.032 150.338 551.162 150.338 550.186C150.338 549.202 150.519 548.326 150.882 547.559C151.248 546.792 151.755 546.191 152.403 545.757C153.051 545.318 153.803 545.098 154.659 545.098C155.315 545.098 155.91 545.226 156.443 545.482C156.975 545.733 157.414 546.089 157.759 546.549C158.109 547.005 158.328 547.538 158.418 548.147H157.267C157.148 547.593 156.86 547.12 156.404 546.728C155.953 546.332 155.377 546.134 154.678 546.134C154.052 546.134 153.498 546.304 153.016 546.645C152.535 546.982 152.158 547.453 151.885 548.058C151.617 548.659 151.482 549.355 151.482 550.148C151.482 550.945 151.614 551.65 151.879 552.264C152.143 552.873 152.514 553.35 152.991 553.696C153.472 554.041 154.035 554.213 154.678 554.213C155.113 554.213 155.509 554.132 155.867 553.971C156.23 553.804 156.532 553.57 156.775 553.267C157.022 552.965 157.188 552.605 157.274 552.187H158.424C158.339 552.779 158.128 553.308 157.791 553.772C157.459 554.233 157.026 554.595 156.494 554.859C155.965 555.123 155.36 555.255 154.678 555.255ZM161.846 548.914V555.051H160.709V541.96H161.846V546.773H161.949C162.179 546.266 162.535 545.861 163.016 545.559C163.502 545.256 164.116 545.105 164.857 545.105C165.522 545.105 166.106 545.241 166.609 545.514C167.111 545.787 167.503 546.189 167.785 546.722C168.066 547.255 168.207 547.911 168.207 548.691V555.051H167.062V548.761C167.062 547.951 166.837 547.314 166.385 546.85C165.937 546.381 165.332 546.147 164.569 546.147C164.045 546.147 163.579 546.257 163.17 546.479C162.761 546.701 162.437 547.02 162.198 547.438C161.964 547.851 161.846 548.343 161.846 548.914ZM179.997 545.233V546.223H175.171V545.233H179.997ZM176.68 555.051V543.794C176.68 543.266 176.801 542.821 177.044 542.458C177.291 542.096 177.613 541.821 178.009 541.634C178.405 541.446 178.825 541.353 179.268 541.353C179.567 541.353 179.814 541.378 180.01 541.429C180.21 541.476 180.368 541.523 180.483 541.57L180.151 542.567C180.065 542.542 179.961 542.512 179.837 542.478C179.714 542.444 179.558 542.426 179.371 542.426C178.876 542.426 178.495 542.565 178.227 542.842C177.958 543.119 177.824 543.515 177.824 544.031L177.817 555.051H176.68ZM184.592 555.275C184 555.275 183.459 555.159 182.969 554.929C182.479 554.695 182.089 554.358 181.799 553.919C181.509 553.476 181.364 552.939 181.364 552.309C181.364 551.823 181.456 551.414 181.639 551.081C181.823 550.749 182.082 550.476 182.419 550.263C182.756 550.05 183.154 549.882 183.614 549.758C184.075 549.635 184.582 549.539 185.136 549.471C185.685 549.402 186.15 549.343 186.529 549.292C186.913 549.24 187.205 549.159 187.405 549.049C187.605 548.938 187.705 548.759 187.705 548.512V548.282C187.705 547.613 187.505 547.086 187.104 546.703C186.708 546.315 186.137 546.121 185.391 546.121C184.684 546.121 184.107 546.277 183.659 546.588C183.216 546.899 182.905 547.265 182.726 547.687L181.646 547.297C181.867 546.76 182.174 546.332 182.566 546.012C182.958 545.689 183.397 545.456 183.883 545.316C184.369 545.171 184.861 545.098 185.359 545.098C185.734 545.098 186.124 545.147 186.529 545.245C186.938 545.343 187.318 545.514 187.667 545.757C188.016 545.995 188.3 546.33 188.517 546.76C188.734 547.186 188.843 547.728 188.843 548.384V555.051H187.705V553.498H187.635C187.499 553.787 187.296 554.069 187.028 554.341C186.759 554.614 186.423 554.838 186.018 555.012C185.613 555.187 185.138 555.275 184.592 555.275ZM184.746 554.233C185.351 554.233 185.875 554.098 186.318 553.83C186.761 553.561 187.102 553.206 187.341 552.762C187.584 552.315 187.705 551.823 187.705 551.286V549.867C187.62 549.948 187.477 550.02 187.277 550.084C187.081 550.148 186.853 550.206 186.593 550.257C186.337 550.304 186.082 550.344 185.826 550.378C185.57 550.412 185.34 550.442 185.136 550.468C184.582 550.536 184.109 550.642 183.717 550.787C183.325 550.932 183.024 551.132 182.815 551.388C182.607 551.64 182.502 551.963 182.502 552.36C182.502 552.956 182.715 553.419 183.141 553.747C183.568 554.071 184.102 554.233 184.746 554.233ZM198.312 547.387L197.27 547.681C197.168 547.387 197.023 547.12 196.836 546.882C196.648 546.643 196.403 546.453 196.101 546.313C195.802 546.172 195.432 546.102 194.988 546.102C194.324 546.102 193.778 546.26 193.352 546.575C192.926 546.89 192.713 547.297 192.713 547.796C192.713 548.218 192.858 548.561 193.148 548.825C193.442 549.085 193.893 549.292 194.503 549.445L195.986 549.809C196.808 550.01 197.424 550.327 197.833 550.762C198.246 551.196 198.453 551.742 198.453 552.398C198.453 552.952 198.3 553.444 197.993 553.875C197.686 554.305 197.258 554.644 196.708 554.891C196.162 555.134 195.53 555.255 194.809 555.255C193.851 555.255 193.06 555.04 192.438 554.61C191.816 554.175 191.417 553.549 191.243 552.73L192.336 552.462C192.476 553.046 192.751 553.487 193.16 553.785C193.574 554.083 194.117 554.233 194.79 554.233C195.545 554.233 196.148 554.064 196.599 553.728C197.051 553.387 197.277 552.961 197.277 552.449C197.277 552.053 197.145 551.721 196.881 551.452C196.616 551.179 196.216 550.979 195.679 550.851L194.074 550.468C193.222 550.263 192.591 549.939 192.182 549.496C191.773 549.053 191.569 548.503 191.569 547.847C191.569 547.306 191.716 546.831 192.01 546.422C192.304 546.008 192.709 545.684 193.224 545.45C193.74 545.216 194.328 545.098 194.988 545.098C195.888 545.098 196.606 545.303 197.143 545.712C197.684 546.117 198.074 546.675 198.312 547.387ZM204.657 545.233V546.223H199.972V545.233H204.657ZM201.436 542.88H202.58V552.488C202.58 552.897 202.65 553.218 202.791 553.453C202.932 553.683 203.115 553.847 203.341 553.945C203.567 554.039 203.807 554.086 204.063 554.086C204.212 554.086 204.34 554.077 204.447 554.06C204.553 554.039 204.647 554.017 204.728 553.996L204.971 555.025C204.86 555.068 204.723 555.106 204.562 555.14C204.4 555.179 204.199 555.198 203.961 555.198C203.543 555.198 203.14 555.106 202.753 554.923C202.369 554.74 202.054 554.467 201.807 554.105C201.559 553.743 201.436 553.293 201.436 552.756V542.88ZM208.979 553.261L208.864 553.945C208.792 554.405 208.69 554.912 208.558 555.466C208.425 556.02 208.289 556.547 208.149 557.045C208.008 557.544 207.886 557.944 207.784 558.247H206.908C206.964 557.957 207.034 557.588 207.119 557.141C207.209 556.694 207.3 556.197 207.394 555.652C207.488 555.11 207.573 554.552 207.65 553.977L207.739 553.261H208.979ZM224.346 545.233L220.76 555.051H219.546L215.96 545.233H217.194L220.108 553.549H220.198L223.113 545.233H224.346ZM228.862 555.275C228.269 555.275 227.728 555.159 227.238 554.929C226.748 554.695 226.358 554.358 226.068 553.919C225.779 553.476 225.634 552.939 225.634 552.309C225.634 551.823 225.725 551.414 225.909 551.081C226.092 550.749 226.352 550.476 226.688 550.263C227.025 550.05 227.424 549.882 227.884 549.758C228.344 549.635 228.851 549.539 229.405 549.471C229.955 549.402 230.419 549.343 230.799 549.292C231.182 549.24 231.474 549.159 231.674 549.049C231.875 548.938 231.975 548.759 231.975 548.512V548.282C231.975 547.613 231.774 547.086 231.374 546.703C230.978 546.315 230.407 546.121 229.661 546.121C228.953 546.121 228.376 546.277 227.929 546.588C227.485 546.899 227.174 547.265 226.995 547.687L225.915 547.297C226.137 546.76 226.443 546.332 226.835 546.012C227.228 545.689 227.666 545.456 228.152 545.316C228.638 545.171 229.13 545.098 229.629 545.098C230.004 545.098 230.394 545.147 230.799 545.245C231.208 545.343 231.587 545.514 231.936 545.757C232.286 545.995 232.569 546.33 232.786 546.76C233.004 547.186 233.112 547.728 233.112 548.384V555.051H231.975V553.498H231.904C231.768 553.787 231.566 554.069 231.297 554.341C231.029 554.614 230.692 554.838 230.287 555.012C229.882 555.187 229.407 555.275 228.862 555.275ZM229.015 554.233C229.62 554.233 230.144 554.098 230.588 553.83C231.031 553.561 231.372 553.206 231.61 552.762C231.853 552.315 231.975 551.823 231.975 551.286V549.867C231.889 549.948 231.747 550.02 231.546 550.084C231.35 550.148 231.122 550.206 230.862 550.257C230.607 550.304 230.351 550.344 230.095 550.378C229.84 550.412 229.61 550.442 229.405 550.468C228.851 550.536 228.378 550.642 227.986 550.787C227.594 550.932 227.294 551.132 227.085 551.388C226.876 551.64 226.772 551.963 226.772 552.36C226.772 552.956 226.985 553.419 227.411 553.747C227.837 554.071 228.372 554.233 229.015 554.233ZM237.123 541.96V555.051H235.985V541.96H237.123ZM239.992 555.051V545.233H241.136V555.051H239.992ZM240.574 543.545C240.34 543.545 240.139 543.466 239.973 543.309C239.807 543.147 239.724 542.953 239.724 542.727C239.724 542.501 239.807 542.309 239.973 542.152C240.139 541.99 240.34 541.909 240.574 541.909C240.808 541.909 241.009 541.99 241.175 542.152C241.341 542.309 241.424 542.501 241.424 542.727C241.424 542.953 241.341 543.147 241.175 543.309C241.009 543.466 240.808 543.545 240.574 543.545ZM247.526 555.255C246.721 555.255 246.016 555.042 245.411 554.616C244.805 554.19 244.332 553.596 243.992 552.833C243.655 552.07 243.487 551.181 243.487 550.167C243.487 549.157 243.655 548.273 243.992 547.515C244.332 546.752 244.808 546.159 245.417 545.738C246.026 545.311 246.736 545.098 247.546 545.098C248.142 545.098 248.639 545.205 249.035 545.418C249.431 545.627 249.749 545.887 249.987 546.198C250.226 546.509 250.411 546.811 250.543 547.105H250.646V541.96H251.79V555.051H250.678V553.229H250.543C250.411 553.527 250.224 553.834 249.981 554.15C249.738 554.461 249.416 554.723 249.016 554.936C248.619 555.149 248.123 555.255 247.526 555.255ZM247.661 554.213C248.296 554.213 248.837 554.041 249.284 553.696C249.732 553.346 250.073 552.867 250.307 552.257C250.546 551.644 250.665 550.941 250.665 550.148C250.665 549.364 250.548 548.672 250.313 548.071C250.079 547.466 249.738 546.993 249.291 546.652C248.843 546.306 248.3 546.134 247.661 546.134C247.004 546.134 246.45 546.313 245.999 546.671C245.551 547.025 245.21 547.504 244.976 548.109C244.746 548.714 244.631 549.394 244.631 550.148C244.631 550.911 244.748 551.599 244.982 552.213C245.217 552.826 245.558 553.314 246.005 553.676C246.457 554.034 247.009 554.213 247.661 554.213ZM257.619 555.275C257.026 555.275 256.485 555.159 255.995 554.929C255.505 554.695 255.115 554.358 254.825 553.919C254.536 553.476 254.391 552.939 254.391 552.309C254.391 551.823 254.482 551.414 254.666 551.081C254.849 550.749 255.109 550.476 255.446 550.263C255.782 550.05 256.181 549.882 256.641 549.758C257.101 549.635 257.608 549.539 258.162 549.471C258.712 549.402 259.176 549.343 259.556 549.292C259.939 549.24 260.231 549.159 260.431 549.049C260.632 548.938 260.732 548.759 260.732 548.512V548.282C260.732 547.613 260.531 547.086 260.131 546.703C259.735 546.315 259.164 546.121 258.418 546.121C257.71 546.121 257.133 546.277 256.686 546.588C256.242 546.899 255.931 547.265 255.752 547.687L254.672 547.297C254.894 546.76 255.2 546.332 255.593 546.012C255.985 545.689 256.423 545.456 256.909 545.316C257.395 545.171 257.887 545.098 258.386 545.098C258.761 545.098 259.151 545.147 259.556 545.245C259.965 545.343 260.344 545.514 260.693 545.757C261.043 545.995 261.326 546.33 261.544 546.76C261.761 547.186 261.87 547.728 261.87 548.384V555.051H260.732V553.498H260.661C260.525 553.787 260.323 554.069 260.054 554.341C259.786 554.614 259.449 554.838 259.044 555.012C258.639 555.187 258.164 555.275 257.619 555.275ZM257.772 554.233C258.377 554.233 258.901 554.098 259.345 553.83C259.788 553.561 260.129 553.206 260.367 552.762C260.61 552.315 260.732 551.823 260.732 551.286V549.867C260.646 549.948 260.504 550.02 260.303 550.084C260.107 550.148 259.879 550.206 259.62 550.257C259.364 550.304 259.108 550.344 258.852 550.378C258.597 550.412 258.367 550.442 258.162 550.468C257.608 550.536 257.135 550.642 256.743 550.787C256.351 550.932 256.051 551.132 255.842 551.388C255.633 551.64 255.529 551.963 255.529 552.36C255.529 552.956 255.742 553.419 256.168 553.747C256.594 554.071 257.129 554.233 257.772 554.233ZM268.609 545.233V546.223H263.924V545.233H268.609ZM265.388 542.88H266.532V552.488C266.532 552.897 266.602 553.218 266.743 553.453C266.883 553.683 267.067 553.847 267.293 553.945C267.518 554.039 267.759 554.086 268.015 554.086C268.164 554.086 268.292 554.077 268.398 554.06C268.505 554.039 268.599 554.017 268.68 553.996L268.923 555.025C268.812 555.068 268.675 555.106 268.513 555.14C268.352 555.179 268.151 555.198 267.913 555.198C267.495 555.198 267.092 555.106 266.705 554.923C266.321 554.74 266.006 554.467 265.758 554.105C265.511 553.743 265.388 553.293 265.388 552.756V542.88ZM274.903 555.255C273.987 555.255 273.195 555.042 272.525 554.616C271.856 554.186 271.339 553.591 270.972 552.833C270.61 552.07 270.429 551.192 270.429 550.199C270.429 549.211 270.61 548.333 270.972 547.566C271.339 546.794 271.844 546.191 272.487 545.757C273.135 545.318 273.883 545.098 274.731 545.098C275.263 545.098 275.777 545.196 276.271 545.392C276.766 545.584 277.209 545.88 277.601 546.281C277.997 546.677 278.31 547.178 278.54 547.783C278.77 548.384 278.886 549.096 278.886 549.918V550.48H271.215V549.477H277.722C277.722 548.846 277.594 548.279 277.339 547.777C277.087 547.27 276.736 546.869 276.284 546.575C275.837 546.281 275.319 546.134 274.731 546.134C274.109 546.134 273.561 546.3 273.088 546.632C272.615 546.965 272.244 547.404 271.976 547.949C271.712 548.495 271.577 549.091 271.573 549.739V550.34C271.573 551.12 271.707 551.801 271.976 552.385C272.248 552.965 272.634 553.414 273.133 553.734C273.631 554.054 274.221 554.213 274.903 554.213C275.368 554.213 275.775 554.141 276.124 553.996C276.478 553.851 276.774 553.657 277.013 553.414C277.256 553.167 277.439 552.897 277.562 552.603L278.643 552.954C278.494 553.368 278.248 553.749 277.908 554.098C277.571 554.448 277.149 554.729 276.642 554.942C276.139 555.151 275.56 555.255 274.903 555.255ZM290.117 555.255C289.201 555.255 288.408 555.042 287.739 554.616C287.07 554.186 286.552 553.591 286.186 552.833C285.823 552.07 285.642 551.192 285.642 550.199C285.642 549.211 285.823 548.333 286.186 547.566C286.552 546.794 287.057 546.191 287.701 545.757C288.348 545.318 289.096 545.098 289.944 545.098C290.477 545.098 290.99 545.196 291.485 545.392C291.979 545.584 292.422 545.88 292.814 546.281C293.211 546.677 293.524 547.178 293.754 547.783C293.984 548.384 294.099 549.096 294.099 549.918V550.48H286.429V549.477H292.936C292.936 548.846 292.808 548.279 292.552 547.777C292.301 547.27 291.949 546.869 291.497 546.575C291.05 546.281 290.532 546.134 289.944 546.134C289.322 546.134 288.774 546.3 288.301 546.632C287.828 546.965 287.458 547.404 287.189 547.949C286.925 548.495 286.791 549.091 286.787 549.739V550.34C286.787 551.12 286.921 551.801 287.189 552.385C287.462 552.965 287.848 553.414 288.346 553.734C288.845 554.054 289.435 554.213 290.117 554.213C290.581 554.213 290.988 554.141 291.338 553.996C291.691 553.851 291.988 553.657 292.226 553.414C292.469 553.167 292.652 552.897 292.776 552.603L293.856 552.954C293.707 553.368 293.462 553.749 293.121 554.098C292.784 554.448 292.363 554.729 291.855 554.942C291.353 555.151 290.773 555.255 290.117 555.255ZM299.194 555.275C298.602 555.275 298.061 555.159 297.571 554.929C297.081 554.695 296.691 554.358 296.401 553.919C296.111 553.476 295.967 552.939 295.967 552.309C295.967 551.823 296.058 551.414 296.241 551.081C296.425 550.749 296.685 550.476 297.021 550.263C297.358 550.05 297.756 549.882 298.217 549.758C298.677 549.635 299.184 549.539 299.738 549.471C300.288 549.402 300.752 549.343 301.131 549.292C301.515 549.24 301.807 549.159 302.007 549.049C302.207 548.938 302.307 548.759 302.307 548.512V548.282C302.307 547.613 302.107 547.086 301.707 546.703C301.31 546.315 300.739 546.121 299.994 546.121C299.286 546.121 298.709 546.277 298.261 546.588C297.818 546.899 297.507 547.265 297.328 547.687L296.248 547.297C296.469 546.76 296.776 546.332 297.168 546.012C297.56 545.689 297.999 545.456 298.485 545.316C298.971 545.171 299.463 545.098 299.962 545.098C300.337 545.098 300.726 545.147 301.131 545.245C301.54 545.343 301.92 545.514 302.269 545.757C302.619 545.995 302.902 546.33 303.119 546.76C303.337 547.186 303.445 547.728 303.445 548.384V555.051H302.307V553.498H302.237C302.101 553.787 301.898 554.069 301.63 554.341C301.361 554.614 301.025 554.838 300.62 555.012C300.215 555.187 299.74 555.275 299.194 555.275ZM299.348 554.233C299.953 554.233 300.477 554.098 300.92 553.83C301.364 553.561 301.704 553.206 301.943 552.762C302.186 552.315 302.307 551.823 302.307 551.286V549.867C302.222 549.948 302.079 550.02 301.879 550.084C301.683 550.148 301.455 550.206 301.195 550.257C300.94 550.304 300.684 550.344 300.428 550.378C300.172 550.412 299.942 550.442 299.738 550.468C299.184 550.536 298.711 550.642 298.319 550.787C297.927 550.932 297.626 551.132 297.418 551.388C297.209 551.64 297.104 551.963 297.104 552.36C297.104 552.956 297.317 553.419 297.744 553.747C298.17 554.071 298.704 554.233 299.348 554.233ZM306.318 555.051V545.233H307.424V546.741H307.507C307.703 546.247 308.044 545.848 308.529 545.546C309.02 545.239 309.574 545.086 310.191 545.086C310.285 545.086 310.39 545.088 310.505 545.092C310.62 545.096 310.716 545.1 310.792 545.105V546.262C310.741 546.253 310.652 546.24 310.524 546.223C310.396 546.206 310.257 546.198 310.108 546.198C309.597 546.198 309.141 546.306 308.74 546.524C308.344 546.737 308.031 547.033 307.801 547.412C307.571 547.792 307.456 548.224 307.456 548.71V555.051H306.318ZM313.718 541.96V555.051H312.58V541.96H313.718ZM317.367 558.733C317.141 558.733 316.93 558.711 316.734 558.669C316.538 558.626 316.383 558.579 316.267 558.528L316.574 557.525C316.962 557.644 317.307 557.686 317.61 557.652C317.912 557.623 318.181 557.486 318.415 557.243C318.65 557.005 318.858 556.638 319.042 556.144L319.4 555.147L315.788 545.233H317.022L319.937 553.549H320.026L322.941 545.233H324.174L320.02 556.604C319.845 557.077 319.63 557.471 319.374 557.787C319.118 558.106 318.822 558.343 318.486 558.496C318.153 558.654 317.78 558.733 317.367 558.733ZM327.523 553.261L327.408 553.945C327.336 554.405 327.234 554.912 327.101 555.466C326.969 556.02 326.833 556.547 326.692 557.045C326.552 557.544 326.43 557.944 326.328 558.247H325.452C325.508 557.957 325.578 557.588 325.663 557.141C325.753 556.694 325.844 556.197 325.938 555.652C326.032 555.11 326.117 554.552 326.194 553.977L326.283 553.261H327.523ZM338.032 555.275C337.44 555.275 336.899 555.159 336.409 554.929C335.919 554.695 335.529 554.358 335.239 553.919C334.949 553.476 334.804 552.939 334.804 552.309C334.804 551.823 334.896 551.414 335.079 551.081C335.262 550.749 335.522 550.476 335.859 550.263C336.196 550.05 336.594 549.882 337.054 549.758C337.514 549.635 338.022 549.539 338.576 549.471C339.125 549.402 339.59 549.343 339.969 549.292C340.353 549.24 340.644 549.159 340.845 549.049C341.045 548.938 341.145 548.759 341.145 548.512V548.282C341.145 547.613 340.945 547.086 340.544 546.703C340.148 546.315 339.577 546.121 338.831 546.121C338.124 546.121 337.546 546.277 337.099 546.588C336.656 546.899 336.345 547.265 336.166 547.687L335.085 547.297C335.307 546.76 335.614 546.332 336.006 546.012C336.398 545.689 336.837 545.456 337.323 545.316C337.808 545.171 338.301 545.098 338.799 545.098C339.174 545.098 339.564 545.147 339.969 545.245C340.378 545.343 340.757 545.514 341.107 545.757C341.456 545.995 341.74 546.33 341.957 546.76C342.174 547.186 342.283 547.728 342.283 548.384V555.051H341.145V553.498H341.075C340.938 553.787 340.736 554.069 340.468 554.341C340.199 554.614 339.862 554.838 339.458 555.012C339.053 555.187 338.578 555.275 338.032 555.275ZM338.186 554.233C338.791 554.233 339.315 554.098 339.758 553.83C340.201 553.561 340.542 553.206 340.781 552.762C341.024 552.315 341.145 551.823 341.145 551.286V549.867C341.06 549.948 340.917 550.02 340.717 550.084C340.521 550.148 340.293 550.206 340.033 550.257C339.777 550.304 339.522 550.344 339.266 550.378C339.01 550.412 338.78 550.442 338.576 550.468C338.022 550.536 337.549 550.642 337.157 550.787C336.764 550.932 336.464 551.132 336.255 551.388C336.046 551.64 335.942 551.963 335.942 552.36C335.942 552.956 336.155 553.419 336.581 553.747C337.007 554.071 337.542 554.233 338.186 554.233ZM346.293 548.914V555.051H345.156V545.233H346.261V546.773H346.364C346.594 546.27 346.952 545.868 347.438 545.565C347.928 545.258 348.533 545.105 349.253 545.105C349.913 545.105 350.493 545.243 350.992 545.52C351.494 545.793 351.884 546.196 352.161 546.728C352.443 547.261 352.583 547.915 352.583 548.691V555.051H351.445V548.761C351.445 547.956 351.219 547.319 350.768 546.85C350.32 546.381 349.719 546.147 348.965 546.147C348.45 546.147 347.992 546.257 347.591 546.479C347.19 546.701 346.873 547.02 346.639 547.438C346.408 547.851 346.293 548.343 346.293 548.914ZM358.96 555.255C358.155 555.255 357.45 555.042 356.844 554.616C356.239 554.19 355.766 553.596 355.425 552.833C355.089 552.07 354.92 551.181 354.92 550.167C354.92 549.157 355.089 548.273 355.425 547.515C355.766 546.752 356.241 546.159 356.851 545.738C357.46 545.311 358.17 545.098 358.979 545.098C359.576 545.098 360.072 545.205 360.469 545.418C360.865 545.627 361.182 545.887 361.421 546.198C361.66 546.509 361.845 546.811 361.977 547.105H362.08V541.96H363.224V555.051H362.111V553.229H361.977C361.845 553.527 361.658 553.834 361.415 554.15C361.172 554.461 360.85 554.723 360.45 554.936C360.053 555.149 359.557 555.255 358.96 555.255ZM359.094 554.213C359.729 554.213 360.271 554.041 360.718 553.696C361.165 553.346 361.506 552.867 361.741 552.257C361.979 551.644 362.099 550.941 362.099 550.148C362.099 549.364 361.982 548.672 361.747 548.071C361.513 547.466 361.172 546.993 360.724 546.652C360.277 546.306 359.734 546.134 359.094 546.134C358.438 546.134 357.884 546.313 357.432 546.671C356.985 547.025 356.644 547.504 356.41 548.109C356.18 548.714 356.065 549.394 356.065 550.148C356.065 550.911 356.182 551.599 356.416 552.213C356.651 552.826 356.991 553.314 357.439 553.676C357.891 554.034 358.442 554.213 359.094 554.213ZM377.816 547.387L376.774 547.681C376.671 547.387 376.526 547.12 376.339 546.882C376.151 546.643 375.906 546.453 375.604 546.313C375.306 546.172 374.935 546.102 374.492 546.102C373.827 546.102 373.281 546.26 372.855 546.575C372.429 546.89 372.216 547.297 372.216 547.796C372.216 548.218 372.361 548.561 372.651 548.825C372.945 549.085 373.397 549.292 374.006 549.445L375.489 549.809C376.311 550.01 376.927 550.327 377.336 550.762C377.749 551.196 377.956 551.742 377.956 552.398C377.956 552.952 377.803 553.444 377.496 553.875C377.189 554.305 376.761 554.644 376.211 554.891C375.666 555.134 375.033 555.255 374.313 555.255C373.354 555.255 372.563 555.04 371.941 554.61C371.319 554.175 370.921 553.549 370.746 552.73L371.839 552.462C371.98 553.046 372.254 553.487 372.664 553.785C373.077 554.083 373.62 554.233 374.294 554.233C375.048 554.233 375.651 554.064 376.102 553.728C376.554 553.387 376.78 552.961 376.78 552.449C376.78 552.053 376.648 551.721 376.384 551.452C376.12 551.179 375.719 550.979 375.182 550.851L373.578 550.468C372.725 550.263 372.095 549.939 371.686 549.496C371.276 549.053 371.072 548.503 371.072 547.847C371.072 547.306 371.219 546.831 371.513 546.422C371.807 546.008 372.212 545.684 372.727 545.45C373.243 545.216 373.831 545.098 374.492 545.098C375.391 545.098 376.109 545.303 376.646 545.712C377.187 546.117 377.577 546.675 377.816 547.387ZM384.129 555.255C383.251 555.255 382.486 555.036 381.834 554.597C381.186 554.158 380.683 553.557 380.325 552.794C379.967 552.032 379.789 551.162 379.789 550.186C379.789 549.202 379.97 548.326 380.332 547.559C380.698 546.792 381.205 546.191 381.853 545.757C382.501 545.318 383.253 545.098 384.11 545.098C384.766 545.098 385.36 545.226 385.893 545.482C386.426 545.733 386.865 546.089 387.21 546.549C387.559 547.005 387.779 547.538 387.868 548.147H386.717C386.598 547.593 386.311 547.12 385.855 546.728C385.403 546.332 384.828 546.134 384.129 546.134C383.502 546.134 382.948 546.304 382.467 546.645C381.985 546.982 381.608 547.453 381.335 548.058C381.067 548.659 380.933 549.355 380.933 550.148C380.933 550.945 381.065 551.65 381.329 552.264C381.593 552.873 381.964 553.35 382.441 553.696C382.923 554.041 383.485 554.213 384.129 554.213C384.563 554.213 384.96 554.132 385.318 553.971C385.68 553.804 385.982 553.57 386.225 553.267C386.472 552.965 386.639 552.605 386.724 552.187H387.874C387.789 552.779 387.578 553.308 387.242 553.772C386.909 554.233 386.477 554.595 385.944 554.859C385.416 555.123 384.811 555.255 384.129 555.255ZM392.901 555.275C392.309 555.275 391.768 555.159 391.278 554.929C390.788 554.695 390.398 554.358 390.108 553.919C389.818 553.476 389.673 552.939 389.673 552.309C389.673 551.823 389.765 551.414 389.948 551.081C390.131 550.749 390.391 550.476 390.728 550.263C391.065 550.05 391.463 549.882 391.923 549.758C392.383 549.635 392.891 549.539 393.445 549.471C393.994 549.402 394.459 549.343 394.838 549.292C395.221 549.24 395.513 549.159 395.714 549.049C395.914 548.938 396.014 548.759 396.014 548.512V548.282C396.014 547.613 395.814 547.086 395.413 546.703C395.017 546.315 394.446 546.121 393.7 546.121C392.993 546.121 392.415 546.277 391.968 546.588C391.525 546.899 391.214 547.265 391.035 547.687L389.954 547.297C390.176 546.76 390.483 546.332 390.875 546.012C391.267 545.689 391.706 545.456 392.192 545.316C392.677 545.171 393.17 545.098 393.668 545.098C394.043 545.098 394.433 545.147 394.838 545.245C395.247 545.343 395.626 545.514 395.976 545.757C396.325 545.995 396.609 546.33 396.826 546.76C397.043 547.186 397.152 547.728 397.152 548.384V555.051H396.014V553.498H395.944C395.807 553.787 395.605 554.069 395.337 554.341C395.068 554.614 394.731 554.838 394.327 555.012C393.922 555.187 393.447 555.275 392.901 555.275ZM393.055 554.233C393.66 554.233 394.184 554.098 394.627 553.83C395.07 553.561 395.411 553.206 395.65 552.762C395.893 552.315 396.014 551.823 396.014 551.286V549.867C395.929 549.948 395.786 550.02 395.586 550.084C395.39 550.148 395.162 550.206 394.902 550.257C394.646 550.304 394.391 550.344 394.135 550.378C393.879 550.412 393.649 550.442 393.445 550.468C392.891 550.536 392.418 550.642 392.025 550.787C391.633 550.932 391.333 551.132 391.124 551.388C390.915 551.64 390.811 551.963 390.811 552.36C390.811 552.956 391.024 553.419 391.45 553.747C391.876 554.071 392.411 554.233 393.055 554.233ZM401.162 541.96V555.051H400.025V541.96H401.162ZM407.988 555.255C407.072 555.255 406.28 555.042 405.611 554.616C404.942 554.186 404.424 553.591 404.057 552.833C403.695 552.07 403.514 551.192 403.514 550.199C403.514 549.211 403.695 548.333 404.057 547.566C404.424 546.794 404.929 546.191 405.572 545.757C406.22 545.318 406.968 545.098 407.816 545.098C408.349 545.098 408.862 545.196 409.356 545.392C409.851 545.584 410.294 545.88 410.686 546.281C411.082 546.677 411.395 547.178 411.626 547.783C411.856 548.384 411.971 549.096 411.971 549.918V550.48H404.3V549.477H410.807C410.807 548.846 410.679 548.279 410.424 547.777C410.172 547.27 409.821 546.869 409.369 546.575C408.922 546.281 408.404 546.134 407.816 546.134C407.194 546.134 406.646 546.3 406.173 546.632C405.7 546.965 405.329 547.404 405.061 547.949C404.797 548.495 404.662 549.091 404.658 549.739V550.34C404.658 551.12 404.792 551.801 405.061 552.385C405.334 552.965 405.719 553.414 406.218 553.734C406.716 554.054 407.307 554.213 407.988 554.213C408.453 554.213 408.86 554.141 409.209 553.996C409.563 553.851 409.859 553.657 410.098 553.414C410.341 553.167 410.524 552.897 410.648 552.603L411.728 552.954C411.579 553.368 411.334 553.749 410.993 554.098C410.656 554.448 410.234 554.729 409.727 554.942C409.224 555.151 408.645 555.255 407.988 555.255ZM112.682 578.051L109.716 568.233H110.918L113.244 576.331H113.327L115.648 568.233H116.856L119.157 576.312H119.246L121.573 568.233H122.775L119.809 578.051H118.633L116.306 570.003H116.185L113.858 578.051H112.682ZM124.845 578.051V568.233H125.989V578.051H124.845ZM125.427 566.545C125.193 566.545 124.992 566.466 124.826 566.309C124.66 566.147 124.577 565.953 124.577 565.727C124.577 565.501 124.66 565.309 124.826 565.152C124.992 564.99 125.193 564.909 125.427 564.909C125.661 564.909 125.862 564.99 126.028 565.152C126.194 565.309 126.277 565.501 126.277 565.727C126.277 565.953 126.194 566.147 126.028 566.309C125.862 566.466 125.661 566.545 125.427 566.545ZM132.712 568.233V569.223H128.026V568.233H132.712ZM129.49 565.88H130.634V575.488C130.634 575.897 130.705 576.218 130.845 576.453C130.986 576.683 131.169 576.847 131.395 576.945C131.621 577.039 131.862 577.086 132.117 577.086C132.266 577.086 132.394 577.077 132.501 577.06C132.607 577.039 132.701 577.017 132.782 576.996L133.025 578.025C132.914 578.068 132.778 578.106 132.616 578.14C132.454 578.179 132.254 578.198 132.015 578.198C131.597 578.198 131.195 578.106 130.807 577.923C130.423 577.74 130.108 577.467 129.861 577.105C129.614 576.743 129.49 576.293 129.49 575.756V565.88ZM136.49 571.914V578.051H135.353V564.96H136.49V569.773H136.593C136.823 569.266 137.179 568.861 137.66 568.559C138.146 568.256 138.76 568.105 139.501 568.105C140.166 568.105 140.75 568.241 141.252 568.514C141.755 568.787 142.147 569.189 142.429 569.722C142.71 570.255 142.851 570.911 142.851 571.691V578.051H141.706V571.761C141.706 570.951 141.48 570.314 141.029 569.85C140.581 569.381 139.976 569.147 139.213 569.147C138.689 569.147 138.223 569.257 137.814 569.479C137.404 569.701 137.081 570.02 136.842 570.438C136.608 570.851 136.49 571.343 136.49 571.914ZM149.509 578.255C148.661 578.255 147.911 578.04 147.259 577.61C146.611 577.179 146.104 576.585 145.738 575.826C145.371 575.064 145.188 574.184 145.188 573.186C145.188 572.181 145.371 571.297 145.738 570.534C146.104 569.767 146.611 569.17 147.259 568.744C147.911 568.314 148.661 568.098 149.509 568.098C150.357 568.098 151.105 568.314 151.752 568.744C152.4 569.174 152.907 569.771 153.274 570.534C153.644 571.297 153.83 572.181 153.83 573.186C153.83 574.184 153.647 575.064 153.28 575.826C152.914 576.585 152.404 577.179 151.752 577.61C151.105 578.04 150.357 578.255 149.509 578.255ZM149.509 577.213C150.191 577.213 150.768 577.03 151.241 576.664C151.714 576.297 152.072 575.809 152.315 575.2C152.562 574.591 152.686 573.919 152.686 573.186C152.686 572.453 152.562 571.78 152.315 571.167C152.072 570.553 151.714 570.061 151.241 569.69C150.768 569.319 150.191 569.134 149.509 569.134C148.831 569.134 148.254 569.319 147.777 569.69C147.304 570.061 146.943 570.553 146.696 571.167C146.453 571.78 146.332 572.453 146.332 573.186C146.332 573.919 146.453 574.591 146.696 575.2C146.943 575.809 147.304 576.297 147.777 576.664C148.25 577.03 148.827 577.213 149.509 577.213ZM162.412 574.299V568.233H163.55V578.051H162.412V576.421H162.323C162.093 576.924 161.728 577.343 161.23 577.68C160.731 578.012 160.122 578.179 159.402 578.179C158.775 578.179 158.219 578.042 157.733 577.77C157.247 577.493 156.866 577.088 156.589 576.555C156.312 576.022 156.174 575.368 156.174 574.593V568.233H157.311V574.522C157.311 575.289 157.537 575.907 157.989 576.376C158.441 576.841 159.02 577.073 159.728 577.073C160.171 577.073 160.597 576.966 161.006 576.753C161.415 576.54 161.752 576.229 162.016 575.82C162.28 575.407 162.412 574.9 162.412 574.299ZM170.275 568.233V569.223H165.59V568.233H170.275ZM167.054 565.88H168.198V575.488C168.198 575.897 168.268 576.218 168.409 576.453C168.55 576.683 168.733 576.847 168.959 576.945C169.184 577.039 169.425 577.086 169.681 577.086C169.83 577.086 169.958 577.077 170.064 577.06C170.171 577.039 170.265 577.017 170.346 576.996L170.589 578.025C170.478 578.068 170.341 578.106 170.18 578.14C170.018 578.179 169.817 578.198 169.579 578.198C169.161 578.198 168.758 578.106 168.371 577.923C167.987 577.74 167.672 577.467 167.425 577.105C167.177 576.743 167.054 576.293 167.054 575.756V565.88ZM179.794 578.051L176.828 568.233H178.029L180.356 576.331H180.439L182.759 568.233H183.968L186.269 576.312H186.358L188.685 568.233H189.887L186.921 578.051H185.745L183.418 570.003H183.296L180.97 578.051H179.794ZM195.426 578.255C194.578 578.255 193.828 578.04 193.176 577.61C192.529 577.179 192.021 576.585 191.655 575.826C191.289 575.064 191.105 574.184 191.105 573.186C191.105 572.181 191.289 571.297 191.655 570.534C192.021 569.767 192.529 569.17 193.176 568.744C193.828 568.314 194.578 568.098 195.426 568.098C196.274 568.098 197.022 568.314 197.67 568.744C198.318 569.174 198.825 569.771 199.191 570.534C199.562 571.297 199.747 572.181 199.747 573.186C199.747 574.184 199.564 575.064 199.198 575.826C198.831 576.585 198.322 577.179 197.67 577.61C197.022 578.04 196.274 578.255 195.426 578.255ZM195.426 577.213C196.108 577.213 196.686 577.03 197.159 576.664C197.632 576.297 197.99 575.809 198.232 575.2C198.48 574.591 198.603 573.919 198.603 573.186C198.603 572.453 198.48 571.78 198.232 571.167C197.99 570.553 197.632 570.061 197.159 569.69C196.686 569.319 196.108 569.134 195.426 569.134C194.749 569.134 194.171 569.319 193.694 569.69C193.221 570.061 192.861 570.553 192.614 571.167C192.371 571.78 192.249 572.453 192.249 573.186C192.249 573.919 192.371 574.591 192.614 575.2C192.861 575.809 193.221 576.297 193.694 576.664C194.167 577.03 194.745 577.213 195.426 577.213ZM202.091 578.051V568.233H203.197V569.741H203.28C203.476 569.247 203.817 568.848 204.303 568.546C204.793 568.239 205.347 568.086 205.965 568.086C206.058 568.086 206.163 568.088 206.278 568.092C206.393 568.096 206.489 568.1 206.565 568.105V569.262C206.514 569.253 206.425 569.24 206.297 569.223C206.169 569.206 206.031 569.198 205.882 569.198C205.37 569.198 204.914 569.306 204.514 569.524C204.117 569.737 203.804 570.033 203.574 570.412C203.344 570.792 203.229 571.224 203.229 571.71V578.051H202.091ZM208.353 578.051V568.233H209.459V569.741H209.542C209.738 569.247 210.079 568.848 210.565 568.546C211.055 568.239 211.609 568.086 212.227 568.086C212.32 568.086 212.425 568.088 212.54 568.092C212.655 568.096 212.751 568.1 212.827 568.105V569.262C212.776 569.253 212.687 569.24 212.559 569.223C212.431 569.206 212.293 569.198 212.144 569.198C211.632 569.198 211.176 569.306 210.776 569.524C210.379 569.737 210.066 570.033 209.836 570.412C209.606 570.792 209.491 571.224 209.491 571.71V578.051H208.353ZM215.707 581.733C215.481 581.733 215.27 581.711 215.074 581.669C214.878 581.626 214.722 581.579 214.607 581.528L214.914 580.525C215.302 580.644 215.647 580.686 215.949 580.652C216.252 580.623 216.52 580.486 216.755 580.243C216.989 580.005 217.198 579.638 217.381 579.144L217.739 578.147L214.128 568.233H215.361L218.276 576.549H218.366L221.28 568.233H222.514L218.359 579.604C218.184 580.077 217.969 580.471 217.714 580.787C217.458 581.106 217.162 581.343 216.825 581.496C216.493 581.654 216.12 581.733 215.707 581.733ZM224.599 578.051V568.233H225.743V578.051H224.599ZM225.181 566.545C224.946 566.545 224.746 566.466 224.58 566.309C224.413 566.147 224.33 565.953 224.33 565.727C224.33 565.501 224.413 565.309 224.58 565.152C224.746 564.99 224.946 564.909 225.181 564.909C225.415 564.909 225.615 564.99 225.781 565.152C225.948 565.309 226.031 565.501 226.031 565.727C226.031 565.953 225.948 566.147 225.781 566.309C225.615 566.466 225.415 566.545 225.181 566.545ZM229.736 571.914V578.051H228.598V568.233H229.704V569.773H229.806C230.036 569.27 230.394 568.868 230.88 568.565C231.37 568.258 231.975 568.105 232.695 568.105C233.356 568.105 233.935 568.243 234.434 568.52C234.937 568.793 235.327 569.196 235.604 569.728C235.885 570.261 236.026 570.915 236.026 571.691V578.051H234.888V571.761C234.888 570.956 234.662 570.319 234.21 569.85C233.763 569.381 233.162 569.147 232.408 569.147C231.892 569.147 231.434 569.257 231.033 569.479C230.633 569.701 230.315 570.02 230.081 570.438C229.851 570.851 229.736 571.343 229.736 571.914ZM242.614 581.937C241.945 581.937 241.359 581.85 240.856 581.675C240.353 581.505 239.929 581.27 239.584 580.972C239.239 580.674 238.97 580.339 238.778 579.968L239.712 579.355C239.852 579.602 240.04 579.845 240.274 580.083C240.513 580.322 240.822 580.52 241.201 580.678C241.585 580.836 242.055 580.914 242.614 580.914C243.483 580.914 244.184 580.697 244.717 580.262C245.254 579.828 245.522 579.152 245.522 578.236V576.025H245.42C245.288 576.323 245.098 576.621 244.851 576.919C244.604 577.213 244.28 577.458 243.879 577.654C243.483 577.85 242.991 577.949 242.403 577.949C241.619 577.949 240.922 577.755 240.313 577.367C239.707 576.979 239.23 576.425 238.881 575.705C238.536 574.98 238.363 574.118 238.363 573.116C238.363 572.123 238.531 571.25 238.868 570.495C239.209 569.741 239.684 569.153 240.293 568.731C240.903 568.309 241.612 568.098 242.422 568.098C243.023 568.098 243.521 568.205 243.918 568.418C244.314 568.627 244.631 568.887 244.87 569.198C245.113 569.509 245.303 569.811 245.439 570.105H245.554V568.233H246.666V578.306C246.666 579.137 246.489 579.821 246.136 580.358C245.782 580.895 245.3 581.292 244.691 581.547C244.082 581.807 243.389 581.937 242.614 581.937ZM242.537 576.907C243.168 576.907 243.707 576.755 244.154 576.453C244.602 576.146 244.945 575.707 245.183 575.136C245.422 574.565 245.541 573.885 245.541 573.097C245.541 572.33 245.424 571.65 245.19 571.058C244.955 570.461 244.614 569.993 244.167 569.652C243.724 569.306 243.18 569.134 242.537 569.134C241.881 569.134 241.327 569.311 240.875 569.664C240.423 570.018 240.082 570.495 239.852 571.096C239.622 571.693 239.507 572.36 239.507 573.097C239.507 573.847 239.624 574.51 239.859 575.085C240.093 575.656 240.436 576.103 240.888 576.427C241.34 576.747 241.889 576.907 242.537 576.907ZM257.175 578.275C256.583 578.275 256.042 578.159 255.552 577.929C255.062 577.695 254.672 577.358 254.382 576.919C254.092 576.476 253.947 575.939 253.947 575.309C253.947 574.823 254.039 574.414 254.222 574.081C254.405 573.749 254.665 573.476 255.002 573.263C255.339 573.05 255.737 572.882 256.197 572.758C256.657 572.635 257.164 572.539 257.718 572.471C258.268 572.402 258.733 572.343 259.112 572.292C259.495 572.24 259.787 572.159 259.988 572.049C260.188 571.938 260.288 571.759 260.288 571.512V571.282C260.288 570.613 260.088 570.086 259.687 569.703C259.291 569.315 258.72 569.121 257.974 569.121C257.267 569.121 256.689 569.277 256.242 569.588C255.799 569.899 255.488 570.265 255.309 570.687L254.228 570.297C254.45 569.76 254.757 569.332 255.149 569.012C255.541 568.689 255.98 568.456 256.466 568.316C256.951 568.171 257.444 568.098 257.942 568.098C258.317 568.098 258.707 568.147 259.112 568.245C259.521 568.343 259.9 568.514 260.25 568.757C260.599 568.995 260.883 569.33 261.1 569.76C261.317 570.186 261.426 570.728 261.426 571.384V578.051H260.288V576.498H260.218C260.081 576.787 259.879 577.069 259.611 577.341C259.342 577.614 259.005 577.838 258.601 578.012C258.196 578.187 257.721 578.275 257.175 578.275ZM257.329 577.233C257.934 577.233 258.458 577.098 258.901 576.83C259.344 576.561 259.685 576.206 259.924 575.762C260.167 575.315 260.288 574.823 260.288 574.286V572.867C260.203 572.948 260.06 573.02 259.86 573.084C259.664 573.148 259.436 573.206 259.176 573.257C258.92 573.304 258.664 573.344 258.409 573.378C258.153 573.412 257.923 573.442 257.718 573.468C257.164 573.536 256.691 573.642 256.299 573.787C255.907 573.932 255.607 574.132 255.398 574.388C255.189 574.64 255.085 574.963 255.085 575.36C255.085 575.956 255.298 576.419 255.724 576.747C256.15 577.071 256.685 577.233 257.329 577.233ZM264.535 578.051V564.96H265.679V570.105H265.781C265.909 569.811 266.093 569.509 266.331 569.198C266.574 568.887 266.892 568.627 267.284 568.418C267.68 568.205 268.178 568.098 268.779 568.098C269.585 568.098 270.292 568.311 270.901 568.738C271.511 569.159 271.986 569.752 272.327 570.515C272.668 571.273 272.838 572.157 272.838 573.167C272.838 574.181 272.668 575.07 272.327 575.833C271.99 576.596 271.517 577.19 270.908 577.616C270.303 578.042 269.6 578.255 268.798 578.255C268.202 578.255 267.703 578.149 267.303 577.936C266.906 577.723 266.587 577.461 266.344 577.15C266.101 576.834 265.914 576.527 265.781 576.229H265.641V578.051H264.535ZM265.66 573.148C265.66 573.941 265.777 574.644 266.012 575.257C266.25 575.867 266.591 576.346 267.034 576.696C267.482 577.041 268.023 577.213 268.658 577.213C269.31 577.213 269.862 577.034 270.313 576.676C270.765 576.314 271.108 575.826 271.343 575.213C271.577 574.599 271.694 573.911 271.694 573.148C271.694 572.394 271.577 571.714 271.343 571.109C271.112 570.504 270.771 570.025 270.32 569.671C269.868 569.313 269.314 569.134 268.658 569.134C268.019 569.134 267.475 569.306 267.028 569.652C266.585 569.993 266.246 570.466 266.012 571.071C265.777 571.672 265.66 572.364 265.66 573.148ZM279 578.255C278.152 578.255 277.402 578.04 276.75 577.61C276.102 577.179 275.595 576.585 275.228 575.826C274.862 575.064 274.679 574.184 274.679 573.186C274.679 572.181 274.862 571.297 275.228 570.534C275.595 569.767 276.102 569.17 276.75 568.744C277.402 568.314 278.152 568.098 279 568.098C279.848 568.098 280.595 568.314 281.243 568.744C281.891 569.174 282.398 569.771 282.765 570.534C283.135 571.297 283.321 572.181 283.321 573.186C283.321 574.184 283.137 575.064 282.771 575.826C282.404 576.585 281.895 577.179 281.243 577.61C280.595 578.04 279.848 578.255 279 578.255ZM279 577.213C279.681 577.213 280.259 577.03 280.732 576.664C281.205 576.297 281.563 575.809 281.806 575.2C282.053 574.591 282.176 573.919 282.176 573.186C282.176 572.453 282.053 571.78 281.806 571.167C281.563 570.553 281.205 570.061 280.732 569.69C280.259 569.319 279.681 569.134 279 569.134C278.322 569.134 277.745 569.319 277.267 569.69C276.794 570.061 276.434 570.553 276.187 571.167C275.944 571.78 275.823 572.453 275.823 573.186C275.823 573.919 275.944 574.591 276.187 575.2C276.434 575.809 276.794 576.297 277.267 576.664C277.74 577.03 278.318 577.213 279 577.213ZM291.903 574.299V568.233H293.041V578.051H291.903V576.421H291.813C291.583 576.924 291.219 577.343 290.72 577.68C290.222 578.012 289.612 578.179 288.892 578.179C288.266 578.179 287.71 578.042 287.224 577.77C286.738 577.493 286.357 577.088 286.08 576.555C285.803 576.022 285.664 575.368 285.664 574.593V568.233H286.802V574.522C286.802 575.289 287.028 575.907 287.48 576.376C287.931 576.841 288.511 577.073 289.218 577.073C289.661 577.073 290.088 576.966 290.497 576.753C290.906 576.54 291.242 576.229 291.507 575.82C291.771 575.407 291.903 574.9 291.903 574.299ZM299.766 568.233V569.223H295.081V568.233H299.766ZM296.545 565.88H297.689V575.488C297.689 575.897 297.759 576.218 297.9 576.453C298.04 576.683 298.224 576.847 298.449 576.945C298.675 577.039 298.916 577.086 299.172 577.086C299.321 577.086 299.449 577.077 299.555 577.06C299.662 577.039 299.756 577.017 299.836 576.996L300.079 578.025C299.969 578.068 299.832 578.106 299.67 578.14C299.508 578.179 299.308 578.198 299.069 578.198C298.652 578.198 298.249 578.106 297.861 577.923C297.478 577.74 297.162 577.467 296.915 577.105C296.668 576.743 296.545 576.293 296.545 575.756V565.88ZM307.117 578.051V568.233H308.262V578.051H307.117ZM307.699 566.545C307.465 566.545 307.264 566.466 307.098 566.309C306.932 566.147 306.849 565.953 306.849 565.727C306.849 565.501 306.932 565.309 307.098 565.152C307.264 564.99 307.465 564.909 307.699 564.909C307.933 564.909 308.134 564.99 308.3 565.152C308.466 565.309 308.549 565.501 308.549 565.727C308.549 565.953 308.466 566.147 308.3 566.309C308.134 566.466 307.933 566.545 307.699 566.545ZM312.254 571.914V578.051H311.117V568.233H312.223V569.773H312.325C312.555 569.27 312.913 568.868 313.399 568.565C313.889 568.258 314.494 568.105 315.214 568.105C315.874 568.105 316.454 568.243 316.953 568.52C317.455 568.793 317.845 569.196 318.122 569.728C318.404 570.261 318.544 570.915 318.544 571.691V578.051H317.406V571.761C317.406 570.956 317.181 570.319 316.729 569.85C316.281 569.381 315.681 569.147 314.926 569.147C314.411 569.147 313.953 569.257 313.552 569.479C313.151 569.701 312.834 570.02 312.6 570.438C312.37 570.851 312.254 571.343 312.254 571.914ZM325.426 568.233V569.223H320.6V568.233H325.426ZM322.109 578.051V566.794C322.109 566.266 322.23 565.821 322.473 565.458C322.72 565.096 323.042 564.821 323.438 564.634C323.835 564.446 324.254 564.353 324.698 564.353C324.996 564.353 325.243 564.378 325.439 564.429C325.639 564.476 325.797 564.523 325.912 564.57L325.58 565.567C325.494 565.542 325.39 565.512 325.266 565.478C325.143 565.444 324.987 565.426 324.8 565.426C324.306 565.426 323.924 565.565 323.656 565.842C323.387 566.119 323.253 566.515 323.253 567.031L323.247 578.051H322.109ZM327.543 578.051V568.233H328.649V569.741H328.732C328.928 569.247 329.269 568.848 329.755 568.546C330.245 568.239 330.799 568.086 331.417 568.086C331.51 568.086 331.615 568.088 331.73 568.092C331.845 568.096 331.941 568.1 332.017 568.105V569.262C331.966 569.253 331.877 569.24 331.749 569.223C331.621 569.206 331.483 569.198 331.334 569.198C330.822 569.198 330.366 569.306 329.966 569.524C329.569 569.737 329.256 570.033 329.026 570.412C328.796 570.792 328.681 571.224 328.681 571.71V578.051H327.543ZM336.547 578.275C335.955 578.275 335.414 578.159 334.924 577.929C334.434 577.695 334.044 577.358 333.754 576.919C333.464 576.476 333.319 575.939 333.319 575.309C333.319 574.823 333.411 574.414 333.594 574.081C333.777 573.749 334.037 573.476 334.374 573.263C334.711 573.05 335.109 572.882 335.569 572.758C336.029 572.635 336.537 572.539 337.091 572.471C337.64 572.402 338.105 572.343 338.484 572.292C338.868 572.24 339.159 572.159 339.36 572.049C339.56 571.938 339.66 571.759 339.66 571.512V571.282C339.66 570.613 339.46 570.086 339.059 569.703C338.663 569.315 338.092 569.121 337.346 569.121C336.639 569.121 336.061 569.277 335.614 569.588C335.171 569.899 334.86 570.265 334.681 570.687L333.601 570.297C333.822 569.76 334.129 569.332 334.521 569.012C334.913 568.689 335.352 568.456 335.838 568.316C336.324 568.171 336.816 568.098 337.314 568.098C337.689 568.098 338.079 568.147 338.484 568.245C338.893 568.343 339.272 568.514 339.622 568.757C339.971 568.995 340.255 569.33 340.472 569.76C340.689 570.186 340.798 570.728 340.798 571.384V578.051H339.66V576.498H339.59C339.454 576.787 339.251 577.069 338.983 577.341C338.714 577.614 338.378 577.838 337.973 578.012C337.568 578.187 337.093 578.275 336.547 578.275ZM336.701 577.233C337.306 577.233 337.83 577.098 338.273 576.83C338.716 576.561 339.057 576.206 339.296 575.762C339.539 575.315 339.66 574.823 339.66 574.286V572.867C339.575 572.948 339.432 573.02 339.232 573.084C339.036 573.148 338.808 573.206 338.548 573.257C338.292 573.304 338.037 573.344 337.781 573.378C337.525 573.412 337.295 573.442 337.091 573.468C336.537 573.536 336.064 573.642 335.672 573.787C335.279 573.932 334.979 574.132 334.77 574.388C334.561 574.64 334.457 574.963 334.457 575.36C334.457 575.956 334.67 576.419 335.096 576.747C335.522 577.071 336.057 577.233 336.701 577.233ZM350.267 570.387L349.225 570.681C349.123 570.387 348.978 570.12 348.791 569.882C348.603 569.643 348.358 569.453 348.056 569.313C347.757 569.172 347.387 569.102 346.943 569.102C346.279 569.102 345.733 569.26 345.307 569.575C344.881 569.89 344.668 570.297 344.668 570.796C344.668 571.218 344.813 571.561 345.102 571.825C345.396 572.085 345.848 572.292 346.458 572.445L347.94 572.809C348.763 573.01 349.379 573.327 349.788 573.762C350.201 574.196 350.408 574.742 350.408 575.398C350.408 575.952 350.254 576.444 349.948 576.875C349.641 577.305 349.213 577.644 348.663 577.891C348.117 578.134 347.485 578.255 346.764 578.255C345.806 578.255 345.015 578.04 344.393 577.61C343.771 577.175 343.372 576.549 343.198 575.73L344.291 575.462C344.431 576.046 344.706 576.487 345.115 576.785C345.529 577.083 346.072 577.233 346.745 577.233C347.499 577.233 348.102 577.064 348.554 576.728C349.006 576.387 349.232 575.961 349.232 575.449C349.232 575.053 349.1 574.721 348.835 574.452C348.571 574.179 348.171 573.979 347.634 573.851L346.029 573.468C345.177 573.263 344.546 572.939 344.137 572.496C343.728 572.053 343.524 571.503 343.524 570.847C343.524 570.306 343.671 569.831 343.965 569.422C344.259 569.008 344.664 568.684 345.179 568.45C345.695 568.216 346.283 568.098 346.943 568.098C347.842 568.098 348.561 568.303 349.097 568.712C349.639 569.117 350.029 569.675 350.267 570.387ZM356.612 568.233V569.223H351.927V568.233H356.612ZM353.391 565.88H354.535V575.488C354.535 575.897 354.605 576.218 354.746 576.453C354.886 576.683 355.07 576.847 355.296 576.945C355.521 577.039 355.762 577.086 356.018 577.086C356.167 577.086 356.295 577.077 356.401 577.06C356.508 577.039 356.602 577.017 356.683 576.996L356.926 578.025C356.815 578.068 356.678 578.106 356.516 578.14C356.354 578.179 356.154 578.198 355.916 578.198C355.498 578.198 355.095 578.106 354.707 577.923C354.324 577.74 354.009 577.467 353.761 577.105C353.514 576.743 353.391 576.293 353.391 575.756V565.88ZM359.042 578.051V568.233H360.148V569.741H360.231C360.427 569.247 360.768 568.848 361.254 568.546C361.744 568.239 362.298 568.086 362.916 568.086C363.01 568.086 363.114 568.088 363.229 568.092C363.344 568.096 363.44 568.1 363.517 568.105V569.262C363.466 569.253 363.376 569.24 363.248 569.223C363.12 569.206 362.982 569.198 362.833 569.198C362.321 569.198 361.865 569.306 361.465 569.524C361.069 569.737 360.755 570.033 360.525 570.412C360.295 570.792 360.18 571.224 360.18 571.71V578.051H359.042ZM371.543 574.299V568.233H372.681V578.051H371.543V576.421H371.453C371.223 576.924 370.859 577.343 370.36 577.68C369.862 578.012 369.252 578.179 368.532 578.179C367.906 578.179 367.35 578.042 366.864 577.77C366.378 577.493 365.997 577.088 365.72 576.555C365.443 576.022 365.304 575.368 365.304 574.593V568.233H366.442V574.522C366.442 575.289 366.668 575.907 367.12 576.376C367.571 576.841 368.151 577.073 368.858 577.073C369.301 577.073 369.728 576.966 370.137 576.753C370.546 576.54 370.882 576.229 371.147 575.82C371.411 575.407 371.543 574.9 371.543 574.299ZM379.374 578.255C378.496 578.255 377.731 578.036 377.079 577.597C376.432 577.158 375.929 576.557 375.571 575.794C375.213 575.032 375.034 574.162 375.034 573.186C375.034 572.202 375.215 571.326 375.577 570.559C375.944 569.792 376.451 569.191 377.099 568.757C377.746 568.318 378.498 568.098 379.355 568.098C380.011 568.098 380.606 568.226 381.138 568.482C381.671 568.733 382.11 569.089 382.455 569.549C382.805 570.005 383.024 570.538 383.114 571.147H381.963C381.844 570.593 381.556 570.12 381.1 569.728C380.648 569.332 380.073 569.134 379.374 569.134C378.748 569.134 378.194 569.304 377.712 569.645C377.231 569.982 376.854 570.453 376.581 571.058C376.312 571.659 376.178 572.355 376.178 573.148C376.178 573.945 376.31 574.65 376.574 575.264C376.839 575.873 377.209 576.35 377.687 576.696C378.168 577.041 378.731 577.213 379.374 577.213C379.809 577.213 380.205 577.132 380.563 576.971C380.925 576.804 381.228 576.57 381.471 576.267C381.718 575.965 381.884 575.605 381.969 575.187H383.12C383.035 575.779 382.824 576.308 382.487 576.772C382.155 577.233 381.722 577.595 381.19 577.859C380.661 578.123 380.056 578.255 379.374 578.255ZM389.272 568.233V569.223H384.586V568.233H389.272ZM386.05 565.88H387.194V575.488C387.194 575.897 387.265 576.218 387.405 576.453C387.546 576.683 387.729 576.847 387.955 576.945C388.181 577.039 388.422 577.086 388.677 577.086C388.826 577.086 388.954 577.077 389.061 577.06C389.167 577.039 389.261 577.017 389.342 576.996L389.585 578.025C389.474 578.068 389.338 578.106 389.176 578.14C389.014 578.179 388.814 578.198 388.575 578.198C388.157 578.198 387.755 578.106 387.367 577.923C386.983 577.74 386.668 577.467 386.421 577.105C386.174 576.743 386.05 576.293 386.05 575.756V565.88ZM397.94 574.299V568.233H399.078V578.051H397.94V576.421H397.851C397.621 576.924 397.256 577.343 396.758 577.68C396.259 578.012 395.65 578.179 394.93 578.179C394.303 578.179 393.747 578.042 393.261 577.77C392.776 577.493 392.394 577.088 392.117 576.555C391.84 576.022 391.702 575.368 391.702 574.593V568.233H392.839V574.522C392.839 575.289 393.065 575.907 393.517 576.376C393.969 576.841 394.548 577.073 395.256 577.073C395.699 577.073 396.125 576.966 396.534 576.753C396.943 576.54 397.28 576.229 397.544 575.82C397.808 575.407 397.94 574.9 397.94 574.299ZM401.936 578.051V568.233H403.042V569.741H403.125C403.321 569.247 403.662 568.848 404.148 568.546C404.638 568.239 405.192 568.086 405.81 568.086C405.904 568.086 406.008 568.088 406.123 568.092C406.238 568.096 406.334 568.1 406.411 568.105V569.262C406.36 569.253 406.27 569.24 406.142 569.223C406.014 569.206 405.876 569.198 405.727 569.198C405.215 569.198 404.759 569.306 404.359 569.524C403.963 569.737 403.649 570.033 403.419 570.412C403.189 570.792 403.074 571.224 403.074 571.71V578.051H401.936ZM411.869 578.255C410.953 578.255 410.16 578.042 409.491 577.616C408.822 577.186 408.304 576.591 407.938 575.833C407.576 575.07 407.395 574.192 407.395 573.199C407.395 572.211 407.576 571.333 407.938 570.566C408.304 569.794 408.809 569.191 409.453 568.757C410.101 568.318 410.848 568.098 411.696 568.098C412.229 568.098 412.743 568.196 413.237 568.392C413.731 568.584 414.174 568.88 414.566 569.281C414.963 569.677 415.276 570.178 415.506 570.783C415.736 571.384 415.851 572.096 415.851 572.918V573.48H408.181V572.477H414.688C414.688 571.846 414.56 571.279 414.304 570.777C414.053 570.27 413.701 569.869 413.25 569.575C412.802 569.281 412.284 569.134 411.696 569.134C411.074 569.134 410.527 569.3 410.054 569.632C409.581 569.965 409.21 570.404 408.941 570.949C408.677 571.495 408.543 572.091 408.539 572.739V573.34C408.539 574.12 408.673 574.801 408.941 575.385C409.214 575.965 409.6 576.414 410.098 576.734C410.597 577.054 411.187 577.213 411.869 577.213C412.333 577.213 412.74 577.141 413.09 576.996C413.444 576.851 413.74 576.657 413.978 576.414C414.221 576.167 414.405 575.897 414.528 575.603L415.608 575.954C415.459 576.368 415.214 576.749 414.873 577.098C414.537 577.448 414.115 577.729 413.608 577.942C413.105 578.151 412.525 578.255 411.869 578.255ZM419.112 578.147C418.861 578.147 418.643 578.057 418.46 577.878C418.281 577.695 418.192 577.478 418.192 577.226C418.192 576.971 418.281 576.753 418.46 576.574C418.643 576.395 418.861 576.306 419.112 576.306C419.368 576.306 419.585 576.395 419.764 576.574C419.943 576.753 420.033 576.971 420.033 577.226C420.033 577.392 419.99 577.546 419.905 577.686C419.824 577.827 419.713 577.94 419.572 578.025C419.436 578.106 419.283 578.147 419.112 578.147ZM110.739 601.051V587.96H115.156C116.008 587.96 116.717 588.109 117.284 588.407C117.855 588.706 118.283 589.113 118.569 589.628C118.854 590.144 118.997 590.73 118.997 591.386C118.997 591.931 118.906 592.398 118.722 592.786C118.539 593.174 118.29 593.487 117.974 593.725C117.659 593.964 117.308 594.137 116.92 594.243V594.346C117.342 594.375 117.751 594.525 118.147 594.793C118.543 595.057 118.869 595.428 119.125 595.905C119.381 596.382 119.509 596.953 119.509 597.618C119.509 598.279 119.362 598.869 119.067 599.389C118.773 599.904 118.322 600.311 117.712 600.61C117.107 600.904 116.336 601.051 115.398 601.051H110.739ZM111.934 599.977H115.398C116.408 599.977 117.154 599.753 117.636 599.306C118.121 598.858 118.364 598.296 118.364 597.618C118.364 597.12 118.243 596.668 118 596.263C117.761 595.854 117.423 595.53 116.984 595.292C116.549 595.053 116.038 594.934 115.45 594.934H111.934V599.977ZM111.934 593.873H115.264C115.78 593.873 116.232 593.766 116.619 593.553C117.007 593.34 117.31 593.046 117.527 592.671C117.744 592.296 117.853 591.868 117.853 591.386C117.853 590.691 117.627 590.127 117.175 589.692C116.724 589.253 116.05 589.034 115.156 589.034H111.934V593.873ZM128.241 597.299V591.233H129.379V601.051H128.241V599.421H128.152C127.921 599.924 127.557 600.343 127.059 600.68C126.56 601.012 125.951 601.179 125.23 601.179C124.604 601.179 124.048 601.042 123.562 600.77C123.076 600.493 122.695 600.088 122.418 599.555C122.141 599.022 122.002 598.368 122.002 597.593V591.233H123.14V597.522C123.14 598.289 123.366 598.907 123.818 599.376C124.269 599.841 124.849 600.073 125.556 600.073C126 600.073 126.426 599.966 126.835 599.753C127.244 599.54 127.581 599.229 127.845 598.82C128.109 598.407 128.241 597.9 128.241 597.299ZM132.25 601.051V591.233H133.394V601.051H132.25ZM132.832 589.545C132.597 589.545 132.397 589.466 132.231 589.309C132.065 589.147 131.981 588.953 131.981 588.727C131.981 588.501 132.065 588.309 132.231 588.152C132.397 587.99 132.597 587.909 132.832 587.909C133.066 587.909 133.266 587.99 133.432 588.152C133.599 588.309 133.682 588.501 133.682 588.727C133.682 588.953 133.599 589.147 133.432 589.309C133.266 589.466 133.066 589.545 132.832 589.545ZM137.387 587.96V601.051H136.249V587.96H137.387ZM144.111 591.233V592.223H139.425V591.233H144.111ZM140.889 588.88H142.033V598.488C142.033 598.897 142.104 599.218 142.244 599.453C142.385 599.683 142.568 599.847 142.794 599.945C143.02 600.039 143.261 600.086 143.516 600.086C143.665 600.086 143.793 600.077 143.9 600.06C144.006 600.039 144.1 600.017 144.181 599.996L144.424 601.025C144.313 601.068 144.177 601.106 144.015 601.14C143.853 601.179 143.653 601.198 143.414 601.198C142.996 601.198 142.594 601.106 142.206 600.923C141.822 600.74 141.507 600.467 141.26 600.105C141.013 599.743 140.889 599.293 140.889 598.756V588.88ZM155.316 591.233V592.223H150.631V591.233H155.316ZM152.095 588.88H153.239V598.488C153.239 598.897 153.309 599.218 153.45 599.453C153.591 599.683 153.774 599.847 154 599.945C154.226 600.039 154.466 600.086 154.722 600.086C154.871 600.086 154.999 600.077 155.105 600.06C155.212 600.039 155.306 600.017 155.387 599.996L155.63 601.025C155.519 601.068 155.382 601.106 155.221 601.14C155.059 601.179 154.858 601.198 154.62 601.198C154.202 601.198 153.799 601.106 153.412 600.923C153.028 600.74 152.713 600.467 152.466 600.105C152.218 599.743 152.095 599.293 152.095 598.756V588.88ZM161.457 601.255C160.609 601.255 159.859 601.04 159.207 600.61C158.559 600.179 158.052 599.585 157.686 598.826C157.319 598.064 157.136 597.184 157.136 596.186C157.136 595.181 157.319 594.297 157.686 593.534C158.052 592.767 158.559 592.17 159.207 591.744C159.859 591.314 160.609 591.098 161.457 591.098C162.305 591.098 163.053 591.314 163.701 591.744C164.348 592.174 164.855 592.771 165.222 593.534C165.593 594.297 165.778 595.181 165.778 596.186C165.778 597.184 165.595 598.064 165.228 598.826C164.862 599.585 164.353 600.179 163.701 600.61C163.053 601.04 162.305 601.255 161.457 601.255ZM161.457 600.213C162.139 600.213 162.716 600.03 163.189 599.664C163.662 599.297 164.02 598.809 164.263 598.2C164.51 597.591 164.634 596.919 164.634 596.186C164.634 595.453 164.51 594.78 164.263 594.167C164.02 593.553 163.662 593.061 163.189 592.69C162.716 592.319 162.139 592.134 161.457 592.134C160.779 592.134 160.202 592.319 159.725 592.69C159.252 593.061 158.892 593.553 158.644 594.167C158.402 594.78 158.28 595.453 158.28 596.186C158.28 596.919 158.402 597.591 158.644 598.2C158.892 598.809 159.252 599.297 159.725 599.664C160.198 600.03 160.775 600.213 161.457 600.213ZM174.168 594.914V601.051H173.03V587.96H174.168V592.773H174.27C174.5 592.266 174.856 591.861 175.338 591.559C175.824 591.256 176.437 591.105 177.179 591.105C177.843 591.105 178.427 591.241 178.93 591.514C179.433 591.787 179.825 592.189 180.106 592.722C180.387 593.255 180.528 593.911 180.528 594.691V601.051H179.384V594.761C179.384 593.951 179.158 593.314 178.706 592.85C178.259 592.381 177.654 592.147 176.891 592.147C176.367 592.147 175.9 592.257 175.491 592.479C175.082 592.701 174.758 593.02 174.52 593.438C174.285 593.851 174.168 594.343 174.168 594.914ZM187.34 601.255C186.424 601.255 185.631 601.042 184.962 600.616C184.293 600.186 183.775 599.591 183.409 598.833C183.046 598.07 182.865 597.192 182.865 596.199C182.865 595.211 183.046 594.333 183.409 593.566C183.775 592.794 184.28 592.191 184.924 591.757C185.571 591.318 186.319 591.098 187.167 591.098C187.7 591.098 188.213 591.196 188.708 591.392C189.202 591.584 189.645 591.88 190.037 592.281C190.434 592.677 190.747 593.178 190.977 593.783C191.207 594.384 191.322 595.096 191.322 595.918V596.48H183.652V595.477H190.159C190.159 594.846 190.031 594.279 189.775 593.777C189.524 593.27 189.172 592.869 188.72 592.575C188.273 592.281 187.755 592.134 187.167 592.134C186.545 592.134 185.997 592.3 185.524 592.632C185.051 592.965 184.681 593.404 184.412 593.949C184.148 594.495 184.014 595.091 184.01 595.739V596.34C184.01 597.12 184.144 597.801 184.412 598.385C184.685 598.965 185.071 599.414 185.569 599.734C186.068 600.054 186.658 600.213 187.34 600.213C187.804 600.213 188.211 600.141 188.561 599.996C188.914 599.851 189.211 599.657 189.449 599.414C189.692 599.167 189.875 598.897 189.999 598.603L191.079 598.954C190.93 599.368 190.685 599.749 190.344 600.098C190.007 600.448 189.586 600.729 189.078 600.942C188.576 601.151 187.996 601.255 187.34 601.255ZM194.813 587.96V601.051H193.675V587.96H194.813ZM197.67 604.733V591.233H198.776V593.105H198.91C199.046 592.811 199.234 592.511 199.472 592.204C199.711 591.893 200.026 591.631 200.418 591.418C200.815 591.205 201.313 591.098 201.914 591.098C202.724 591.098 203.431 591.311 204.036 591.738C204.646 592.159 205.119 592.752 205.455 593.515C205.796 594.273 205.967 595.157 205.967 596.167C205.967 597.181 205.796 598.07 205.455 598.833C205.119 599.596 204.646 600.19 204.036 600.616C203.431 601.042 202.728 601.255 201.927 601.255C201.335 601.255 200.838 601.149 200.438 600.936C200.041 600.723 199.719 600.461 199.472 600.15C199.229 599.834 199.042 599.527 198.91 599.229H198.808V604.733H197.67ZM198.795 596.148C198.795 596.941 198.912 597.644 199.146 598.257C199.385 598.867 199.726 599.346 200.169 599.696C200.616 600.041 201.158 600.213 201.793 600.213C202.445 600.213 202.994 600.034 203.442 599.676C203.893 599.314 204.237 598.826 204.471 598.213C204.71 597.599 204.829 596.911 204.829 596.148C204.829 595.394 204.712 594.714 204.477 594.109C204.247 593.504 203.906 593.025 203.455 592.671C203.003 592.313 202.449 592.134 201.793 592.134C201.153 592.134 200.61 592.306 200.163 592.652C199.715 592.993 199.374 593.466 199.14 594.071C198.91 594.672 198.795 595.364 198.795 596.148ZM214.01 604.733C213.784 604.733 213.573 604.711 213.377 604.669C213.181 604.626 213.025 604.579 212.91 604.528L213.217 603.525C213.605 603.644 213.95 603.686 214.253 603.652C214.555 603.623 214.824 603.486 215.058 603.243C215.293 603.005 215.501 602.638 215.685 602.144L216.043 601.147L212.431 591.233H213.665L216.579 599.549H216.669L219.584 591.233H220.817L216.663 602.604C216.488 603.077 216.273 603.471 216.017 603.787C215.761 604.106 215.465 604.343 215.128 604.496C214.796 604.654 214.423 604.733 214.01 604.733ZM226.354 601.255C225.506 601.255 224.756 601.04 224.104 600.61C223.456 600.179 222.949 599.585 222.583 598.826C222.216 598.064 222.033 597.184 222.033 596.186C222.033 595.181 222.216 594.297 222.583 593.534C222.949 592.767 223.456 592.17 224.104 591.744C224.756 591.314 225.506 591.098 226.354 591.098C227.202 591.098 227.95 591.314 228.597 591.744C229.245 592.174 229.752 592.771 230.119 593.534C230.49 594.297 230.675 595.181 230.675 596.186C230.675 597.184 230.492 598.064 230.125 598.826C229.759 599.585 229.249 600.179 228.597 600.61C227.95 601.04 227.202 601.255 226.354 601.255ZM226.354 600.213C227.036 600.213 227.613 600.03 228.086 599.664C228.559 599.297 228.917 598.809 229.16 598.2C229.407 597.591 229.531 596.919 229.531 596.186C229.531 595.453 229.407 594.78 229.16 594.167C228.917 593.553 228.559 593.061 228.086 592.69C227.613 592.319 227.036 592.134 226.354 592.134C225.676 592.134 225.099 592.319 224.622 592.69C224.149 593.061 223.789 593.553 223.541 594.167C223.298 594.78 223.177 595.453 223.177 596.186C223.177 596.919 223.298 597.591 223.541 598.2C223.789 598.809 224.149 599.297 224.622 599.664C225.095 600.03 225.672 600.213 226.354 600.213ZM239.257 597.299V591.233H240.395V601.051H239.257V599.421H239.168C238.938 599.924 238.573 600.343 238.075 600.68C237.576 601.012 236.967 601.179 236.247 601.179C235.62 601.179 235.064 601.042 234.578 600.77C234.092 600.493 233.711 600.088 233.434 599.555C233.157 599.022 233.019 598.368 233.019 597.593V591.233H234.156V597.522C234.156 598.289 234.382 598.907 234.834 599.376C235.286 599.841 235.865 600.073 236.573 600.073C237.016 600.073 237.442 599.966 237.851 599.753C238.26 599.54 238.597 599.229 238.861 598.82C239.125 598.407 239.257 597.9 239.257 597.299ZM248.162 601.051V591.233H249.268V592.741H249.37C249.566 592.234 249.892 591.836 250.348 591.546C250.808 591.252 251.36 591.105 252.003 591.105C252.681 591.105 253.237 591.265 253.672 591.584C254.111 591.9 254.439 592.334 254.656 592.888H254.739C254.961 592.343 255.321 591.91 255.819 591.591C256.322 591.267 256.932 591.105 257.648 591.105C258.559 591.105 259.28 591.392 259.808 591.968C260.336 592.539 260.601 593.374 260.601 594.473V601.051H259.463V594.473C259.463 593.698 259.265 593.116 258.868 592.728C258.472 592.341 257.95 592.147 257.302 592.147C256.552 592.147 255.975 592.377 255.57 592.837C255.165 593.297 254.963 593.881 254.963 594.588V601.051H253.8V594.371C253.8 593.706 253.614 593.169 253.243 592.76C252.873 592.351 252.351 592.147 251.677 592.147C251.226 592.147 250.819 592.257 250.457 592.479C250.099 592.701 249.815 593.01 249.606 593.406C249.402 593.798 249.3 594.25 249.3 594.761V601.051H248.162ZM267.275 601.255C266.427 601.255 265.677 601.04 265.025 600.61C264.377 600.179 263.87 599.585 263.504 598.826C263.137 598.064 262.954 597.184 262.954 596.186C262.954 595.181 263.137 594.297 263.504 593.534C263.87 592.767 264.377 592.17 265.025 591.744C265.677 591.314 266.427 591.098 267.275 591.098C268.123 591.098 268.871 591.314 269.519 591.744C270.166 592.174 270.673 592.771 271.04 593.534C271.411 594.297 271.596 595.181 271.596 596.186C271.596 597.184 271.413 598.064 271.046 598.826C270.68 599.585 270.171 600.179 269.519 600.61C268.871 601.04 268.123 601.255 267.275 601.255ZM267.275 600.213C267.957 600.213 268.534 600.03 269.007 599.664C269.48 599.297 269.838 598.809 270.081 598.2C270.328 597.591 270.452 596.919 270.452 596.186C270.452 595.453 270.328 594.78 270.081 594.167C269.838 593.553 269.48 593.061 269.007 592.69C268.534 592.319 267.957 592.134 267.275 592.134C266.597 592.134 266.02 592.319 265.543 592.69C265.07 593.061 264.71 593.553 264.462 594.167C264.22 594.78 264.098 595.453 264.098 596.186C264.098 596.919 264.22 597.591 264.462 598.2C264.71 598.809 265.07 599.297 265.543 599.664C266.016 600.03 266.593 600.213 267.275 600.213ZM281.188 591.233L277.602 601.051H276.388L272.802 591.233H274.036L276.95 599.549H277.04L279.955 591.233H281.188ZM286.878 601.255C285.962 601.255 285.169 601.042 284.5 600.616C283.831 600.186 283.314 599.591 282.947 598.833C282.585 598.07 282.404 597.192 282.404 596.199C282.404 595.211 282.585 594.333 282.947 593.566C283.314 592.794 283.819 592.191 284.462 591.757C285.11 591.318 285.858 591.098 286.706 591.098C287.238 591.098 287.752 591.196 288.246 591.392C288.74 591.584 289.184 591.88 289.576 592.281C289.972 592.677 290.285 593.178 290.515 593.783C290.745 594.384 290.86 595.096 290.86 595.918V596.48H283.19V595.477H289.697C289.697 594.846 289.569 594.279 289.314 593.777C289.062 593.27 288.711 592.869 288.259 592.575C287.811 592.281 287.294 592.134 286.706 592.134C286.083 592.134 285.536 592.3 285.063 592.632C284.59 592.965 284.219 593.404 283.951 593.949C283.686 594.495 283.552 595.091 283.548 595.739V596.34C283.548 597.12 283.682 597.801 283.951 598.385C284.223 598.965 284.609 599.414 285.108 599.734C285.606 600.054 286.196 600.213 286.878 600.213C287.343 600.213 287.75 600.141 288.099 599.996C288.453 599.851 288.749 599.657 288.988 599.414C289.23 599.167 289.414 598.897 289.537 598.603L290.618 598.954C290.468 599.368 290.223 599.749 289.882 600.098C289.546 600.448 289.124 600.729 288.617 600.942C288.114 601.151 287.534 601.255 286.878 601.255ZM302.162 591.233V592.223H297.336V591.233H302.162ZM298.845 601.051V589.794C298.845 589.266 298.966 588.821 299.209 588.458C299.456 588.096 299.778 587.821 300.174 587.634C300.57 587.446 300.99 587.353 301.433 587.353C301.732 587.353 301.979 587.378 302.175 587.429C302.375 587.476 302.533 587.523 302.648 587.57L302.315 588.567C302.23 588.542 302.126 588.512 302.002 588.478C301.879 588.444 301.723 588.426 301.536 588.426C301.041 588.426 300.66 588.565 300.391 588.842C300.123 589.119 299.989 589.515 299.989 590.031L299.982 601.051H298.845ZM304.279 601.051V591.233H305.385V592.741H305.468C305.664 592.247 306.005 591.848 306.49 591.546C306.98 591.239 307.534 591.086 308.152 591.086C308.246 591.086 308.351 591.088 308.466 591.092C308.581 591.096 308.677 591.1 308.753 591.105V592.262C308.702 592.253 308.613 592.24 308.485 592.223C308.357 592.206 308.218 592.198 308.069 592.198C307.558 592.198 307.102 592.306 306.701 592.524C306.305 592.737 305.992 593.033 305.762 593.412C305.532 593.792 305.417 594.224 305.417 594.71V601.051H304.279ZM314.058 601.255C313.21 601.255 312.46 601.04 311.808 600.61C311.16 600.179 310.653 599.585 310.287 598.826C309.92 598.064 309.737 597.184 309.737 596.186C309.737 595.181 309.92 594.297 310.287 593.534C310.653 592.767 311.16 592.17 311.808 591.744C312.46 591.314 313.21 591.098 314.058 591.098C314.906 591.098 315.654 591.314 316.302 591.744C316.949 592.174 317.456 592.771 317.823 593.534C318.194 594.297 318.379 595.181 318.379 596.186C318.379 597.184 318.196 598.064 317.829 598.826C317.463 599.585 316.954 600.179 316.302 600.61C315.654 601.04 314.906 601.255 314.058 601.255ZM314.058 600.213C314.74 600.213 315.317 600.03 315.79 599.664C316.263 599.297 316.621 598.809 316.864 598.2C317.111 597.591 317.235 596.919 317.235 596.186C317.235 595.453 317.111 594.78 316.864 594.167C316.621 593.553 316.263 593.061 315.79 592.69C315.317 592.319 314.74 592.134 314.058 592.134C313.38 592.134 312.803 592.319 312.326 592.69C311.853 593.061 311.493 593.553 311.246 594.167C311.003 594.78 310.881 595.453 310.881 596.186C310.881 596.919 311.003 597.591 311.246 598.2C311.493 598.809 311.853 599.297 312.326 599.664C312.799 600.03 313.376 600.213 314.058 600.213ZM320.723 601.051V591.233H321.829V592.741H321.931C322.127 592.234 322.453 591.836 322.909 591.546C323.369 591.252 323.921 591.105 324.564 591.105C325.242 591.105 325.798 591.265 326.233 591.584C326.672 591.9 327 592.334 327.217 592.888H327.3C327.522 592.343 327.882 591.91 328.38 591.591C328.883 591.267 329.493 591.105 330.209 591.105C331.12 591.105 331.841 591.392 332.369 591.968C332.897 592.539 333.162 593.374 333.162 594.473V601.051H332.024V594.473C332.024 593.698 331.826 593.116 331.429 592.728C331.033 592.341 330.511 592.147 329.863 592.147C329.113 592.147 328.536 592.377 328.131 592.837C327.726 593.297 327.524 593.881 327.524 594.588V601.051H326.361V594.371C326.361 593.706 326.175 593.169 325.804 592.76C325.434 592.351 324.912 592.147 324.238 592.147C323.787 592.147 323.38 592.257 323.017 592.479C322.66 592.701 322.376 593.01 322.167 593.406C321.963 593.798 321.861 594.25 321.861 594.761V601.051H320.723ZM340.941 601.051V591.233H342.085V601.051H340.941ZM341.523 589.545C341.289 589.545 341.088 589.466 340.922 589.309C340.756 589.147 340.673 588.953 340.673 588.727C340.673 588.501 340.756 588.309 340.922 588.152C341.088 587.99 341.289 587.909 341.523 587.909C341.757 587.909 341.958 587.99 342.124 588.152C342.29 588.309 342.373 588.501 342.373 588.727C342.373 588.953 342.29 589.147 342.124 589.309C341.958 589.466 341.757 589.545 341.523 589.545ZM348.475 601.255C347.67 601.255 346.965 601.042 346.359 600.616C345.754 600.19 345.281 599.596 344.94 598.833C344.604 598.07 344.435 597.181 344.435 596.167C344.435 595.157 344.604 594.273 344.94 593.515C345.281 592.752 345.756 592.159 346.366 591.738C346.975 591.311 347.685 591.098 348.494 591.098C349.091 591.098 349.587 591.205 349.984 591.418C350.38 591.627 350.698 591.887 350.936 592.198C351.175 592.509 351.36 592.811 351.492 593.105H351.595V587.96H352.739V601.051H351.627V599.229H351.492C351.36 599.527 351.173 599.834 350.93 600.15C350.687 600.461 350.365 600.723 349.965 600.936C349.568 601.149 349.072 601.255 348.475 601.255ZM348.609 600.213C349.244 600.213 349.786 600.041 350.233 599.696C350.68 599.346 351.021 598.867 351.256 598.257C351.494 597.644 351.614 596.941 351.614 596.148C351.614 595.364 351.497 594.672 351.262 594.071C351.028 593.466 350.687 592.993 350.239 592.652C349.792 592.306 349.249 592.134 348.609 592.134C347.953 592.134 347.399 592.313 346.948 592.671C346.5 593.025 346.159 593.504 345.925 594.109C345.695 594.714 345.58 595.394 345.58 596.148C345.58 596.911 345.697 597.599 345.931 598.213C346.166 598.826 346.506 599.314 346.954 599.676C347.406 600.034 347.957 600.213 348.609 600.213ZM359.795 601.255C358.879 601.255 358.086 601.042 357.417 600.616C356.748 600.186 356.23 599.591 355.864 598.833C355.502 598.07 355.321 597.192 355.321 596.199C355.321 595.211 355.502 594.333 355.864 593.566C356.23 592.794 356.735 592.191 357.379 591.757C358.026 591.318 358.774 591.098 359.622 591.098C360.155 591.098 360.669 591.196 361.163 591.392C361.657 591.584 362.1 591.88 362.492 592.281C362.889 592.677 363.202 593.178 363.432 593.783C363.662 594.384 363.777 595.096 363.777 595.918V596.48H356.107V595.477H362.614C362.614 594.846 362.486 594.279 362.23 593.777C361.979 593.27 361.627 592.869 361.176 592.575C360.728 592.281 360.21 592.134 359.622 592.134C359 592.134 358.453 592.3 357.98 592.632C357.507 592.965 357.136 593.404 356.867 593.949C356.603 594.495 356.469 595.091 356.465 595.739V596.34C356.465 597.12 356.599 597.801 356.867 598.385C357.14 598.965 357.526 599.414 358.024 599.734C358.523 600.054 359.113 600.213 359.795 600.213C360.259 600.213 360.666 600.141 361.016 599.996C361.37 599.851 361.666 599.657 361.904 599.414C362.147 599.167 362.33 598.897 362.454 598.603L363.534 598.954C363.385 599.368 363.14 599.749 362.799 600.098C362.463 600.448 362.041 600.729 361.534 600.942C361.031 601.151 360.451 601.255 359.795 601.255ZM368.873 601.275C368.28 601.275 367.739 601.159 367.249 600.929C366.759 600.695 366.369 600.358 366.079 599.919C365.79 599.476 365.645 598.939 365.645 598.309C365.645 597.823 365.736 597.414 365.92 597.081C366.103 596.749 366.363 596.476 366.699 596.263C367.036 596.05 367.434 595.882 367.895 595.758C368.355 595.635 368.862 595.539 369.416 595.471C369.966 595.402 370.43 595.343 370.809 595.292C371.193 595.24 371.485 595.159 371.685 595.049C371.885 594.938 371.986 594.759 371.986 594.512V594.282C371.986 593.613 371.785 593.086 371.385 592.703C370.988 592.315 370.417 592.121 369.672 592.121C368.964 592.121 368.387 592.277 367.939 592.588C367.496 592.899 367.185 593.265 367.006 593.687L365.926 593.297C366.148 592.76 366.454 592.332 366.846 592.012C367.238 591.689 367.677 591.456 368.163 591.316C368.649 591.171 369.141 591.098 369.64 591.098C370.015 591.098 370.405 591.147 370.809 591.245C371.219 591.343 371.598 591.514 371.947 591.757C372.297 591.995 372.58 592.33 372.797 592.76C373.015 593.186 373.123 593.728 373.123 594.384V601.051H371.986V599.498H371.915C371.779 599.787 371.576 600.069 371.308 600.341C371.04 600.614 370.703 600.838 370.298 601.012C369.893 601.187 369.418 601.275 368.873 601.275ZM369.026 600.233C369.631 600.233 370.155 600.098 370.599 599.83C371.042 599.561 371.383 599.206 371.621 598.762C371.864 598.315 371.986 597.823 371.986 597.286V595.867C371.9 595.948 371.758 596.02 371.557 596.084C371.361 596.148 371.133 596.206 370.873 596.257C370.618 596.304 370.362 596.344 370.106 596.378C369.851 596.412 369.621 596.442 369.416 596.468C368.862 596.536 368.389 596.642 367.997 596.787C367.605 596.932 367.304 597.132 367.096 597.388C366.887 597.64 366.782 597.963 366.782 598.36C366.782 598.956 366.996 599.419 367.422 599.747C367.848 600.071 368.383 600.233 369.026 600.233ZM384.772 591.233V592.223H380.086V591.233H384.772ZM381.55 588.88H382.694V598.488C382.694 598.897 382.765 599.218 382.905 599.453C383.046 599.683 383.229 599.847 383.455 599.945C383.681 600.039 383.922 600.086 384.177 600.086C384.326 600.086 384.454 600.077 384.561 600.06C384.667 600.039 384.761 600.017 384.842 599.996L385.085 601.025C384.974 601.068 384.838 601.106 384.676 601.14C384.514 601.179 384.314 601.198 384.075 601.198C383.657 601.198 383.255 601.106 382.867 600.923C382.483 600.74 382.168 600.467 381.921 600.105C381.674 599.743 381.55 599.293 381.55 598.756V588.88ZM390.912 601.255C390.064 601.255 389.314 601.04 388.662 600.61C388.015 600.179 387.507 599.585 387.141 598.826C386.774 598.064 386.591 597.184 386.591 596.186C386.591 595.181 386.774 594.297 387.141 593.534C387.507 592.767 388.015 592.17 388.662 591.744C389.314 591.314 390.064 591.098 390.912 591.098C391.76 591.098 392.508 591.314 393.156 591.744C393.804 592.174 394.311 592.771 394.677 593.534C395.048 594.297 395.233 595.181 395.233 596.186C395.233 597.184 395.05 598.064 394.684 598.826C394.317 599.585 393.808 600.179 393.156 600.61C392.508 601.04 391.76 601.255 390.912 601.255ZM390.912 600.213C391.594 600.213 392.172 600.03 392.645 599.664C393.118 599.297 393.475 598.809 393.718 598.2C393.966 597.591 394.089 596.919 394.089 596.186C394.089 595.453 393.966 594.78 393.718 594.167C393.475 593.553 393.118 593.061 392.645 592.69C392.172 592.319 391.594 592.134 390.912 592.134C390.235 592.134 389.657 592.319 389.18 592.69C388.707 593.061 388.347 593.553 388.1 594.167C387.857 594.78 387.735 595.453 387.735 596.186C387.735 596.919 387.857 597.591 388.1 598.2C388.347 598.809 388.707 599.297 389.18 599.664C389.653 600.03 390.23 600.213 390.912 600.213ZM402.722 587.96H404.103L408.852 599.363H408.967L413.716 587.96H415.097V601.051H413.972V590.485H413.87L409.453 601.051H408.366L403.949 590.485H403.847V601.051H402.722V587.96ZM418.443 587.96L422.534 599.498H422.649L426.74 587.96H427.992L423.23 601.051H421.952L417.19 587.96H418.443ZM430.082 601.051V587.96H434.307C435.236 587.96 436.012 588.139 436.634 588.497C437.26 588.85 437.731 589.332 438.046 589.941C438.366 590.551 438.526 591.237 438.526 592C438.526 592.762 438.368 593.451 438.053 594.064C437.737 594.674 437.269 595.157 436.647 595.515C436.024 595.869 435.251 596.046 434.326 596.046H431.002V594.972H434.294C434.98 594.972 435.549 594.844 436.001 594.588C436.453 594.328 436.789 593.975 437.011 593.527C437.237 593.08 437.35 592.571 437.35 592C437.35 591.429 437.237 590.919 437.011 590.472C436.789 590.025 436.451 589.673 435.995 589.417C435.543 589.162 434.97 589.034 434.275 589.034H431.277V601.051H430.082ZM110.515 624.051V614.233H111.659V624.051H110.515ZM111.097 612.545C110.862 612.545 110.662 612.466 110.496 612.309C110.33 612.147 110.246 611.953 110.246 611.727C110.246 611.501 110.33 611.309 110.496 611.152C110.662 610.99 110.862 610.909 111.097 610.909C111.331 610.909 111.531 610.99 111.697 611.152C111.864 611.309 111.947 611.501 111.947 611.727C111.947 611.953 111.864 612.147 111.697 612.309C111.531 612.466 111.331 612.545 111.097 612.545ZM115.652 617.914V624.051H114.514V614.233H115.62V615.773H115.722C115.952 615.27 116.31 614.868 116.796 614.565C117.286 614.258 117.891 614.105 118.611 614.105C119.272 614.105 119.852 614.243 120.35 614.52C120.853 614.793 121.243 615.196 121.52 615.728C121.801 616.261 121.942 616.915 121.942 617.691V624.051H120.804V617.761C120.804 616.956 120.578 616.319 120.126 615.85C119.679 615.381 119.078 615.147 118.324 615.147C117.808 615.147 117.35 615.257 116.95 615.479C116.549 615.701 116.231 616.02 115.997 616.438C115.767 616.851 115.652 617.343 115.652 617.914ZM131.872 624.051L128.906 614.233H130.108L132.435 622.331H132.518L134.838 614.233H136.046L138.347 622.312H138.437L140.763 614.233H141.965L138.999 624.051H137.823L135.496 616.003H135.375L133.048 624.051H131.872ZM147.658 624.255C146.742 624.255 145.95 624.042 145.28 623.616C144.611 623.186 144.094 622.591 143.727 621.833C143.365 621.07 143.184 620.192 143.184 619.199C143.184 618.211 143.365 617.333 143.727 616.566C144.094 615.794 144.599 615.191 145.242 614.757C145.89 614.318 146.638 614.098 147.486 614.098C148.018 614.098 148.532 614.196 149.026 614.392C149.521 614.584 149.964 614.88 150.356 615.281C150.752 615.677 151.065 616.178 151.295 616.783C151.526 617.384 151.641 618.096 151.641 618.918V619.48H143.97V618.477H150.477C150.477 617.846 150.349 617.279 150.094 616.777C149.842 616.27 149.491 615.869 149.039 615.575C148.592 615.281 148.074 615.134 147.486 615.134C146.864 615.134 146.316 615.3 145.843 615.632C145.37 615.965 144.999 616.404 144.731 616.949C144.467 617.495 144.332 618.091 144.328 618.739V619.34C144.328 620.12 144.462 620.801 144.731 621.385C145.003 621.965 145.389 622.414 145.888 622.734C146.386 623.054 146.977 623.213 147.658 623.213C148.123 623.213 148.53 623.141 148.879 622.996C149.233 622.851 149.529 622.657 149.768 622.414C150.011 622.167 150.194 621.897 150.317 621.603L151.398 621.954C151.249 622.368 151.003 622.749 150.663 623.098C150.326 623.448 149.904 623.729 149.397 623.942C148.894 624.151 148.315 624.255 147.658 624.255ZM157.963 624.255C157.047 624.255 156.255 624.042 155.585 623.616C154.916 623.186 154.399 622.591 154.032 621.833C153.67 621.07 153.489 620.192 153.489 619.199C153.489 618.211 153.67 617.333 154.032 616.566C154.399 615.794 154.904 615.191 155.547 614.757C156.195 614.318 156.943 614.098 157.791 614.098C158.323 614.098 158.837 614.196 159.331 614.392C159.826 614.584 160.269 614.88 160.661 615.281C161.057 615.677 161.37 616.178 161.6 616.783C161.83 617.384 161.946 618.096 161.946 618.918V619.48H154.275V618.477H160.782C160.782 617.846 160.654 617.279 160.399 616.777C160.147 616.27 159.796 615.869 159.344 615.575C158.897 615.281 158.379 615.134 157.791 615.134C157.169 615.134 156.621 615.3 156.148 615.632C155.675 615.965 155.304 616.404 155.036 616.949C154.772 617.495 154.637 618.091 154.633 618.739V619.34C154.633 620.12 154.767 620.801 155.036 621.385C155.308 621.965 155.694 622.414 156.193 622.734C156.691 623.054 157.281 623.213 157.963 623.213C158.428 623.213 158.835 623.141 159.184 622.996C159.538 622.851 159.834 622.657 160.073 622.414C160.316 622.167 160.499 621.897 160.622 621.603L161.703 621.954C161.554 622.368 161.308 622.749 160.968 623.098C160.631 623.448 160.209 623.729 159.702 623.942C159.199 624.151 158.62 624.255 157.963 624.255ZM165.334 620.343L165.322 618.854H165.577L170.18 614.233H171.618L167.073 618.784L166.971 618.803L165.334 620.343ZM164.299 624.051V610.96H165.437V624.051H164.299ZM170.416 624.051L166.427 619.007L167.246 618.221L171.873 624.051H170.416ZM180.198 616.387L179.157 616.681C179.054 616.387 178.909 616.12 178.722 615.882C178.534 615.643 178.289 615.453 177.987 615.313C177.689 615.172 177.318 615.102 176.875 615.102C176.21 615.102 175.664 615.26 175.238 615.575C174.812 615.89 174.599 616.297 174.599 616.796C174.599 617.218 174.744 617.561 175.034 617.825C175.328 618.085 175.779 618.292 176.389 618.445L177.872 618.809C178.694 619.01 179.31 619.327 179.719 619.762C180.132 620.196 180.339 620.742 180.339 621.398C180.339 621.952 180.186 622.444 179.879 622.875C179.572 623.305 179.144 623.644 178.594 623.891C178.049 624.134 177.416 624.255 176.696 624.255C175.737 624.255 174.946 624.04 174.324 623.61C173.702 623.175 173.304 622.549 173.129 621.73L174.222 621.462C174.363 622.046 174.637 622.487 175.046 622.785C175.46 623.083 176.003 623.233 176.676 623.233C177.431 623.233 178.034 623.064 178.485 622.728C178.937 622.387 179.163 621.961 179.163 621.449C179.163 621.053 179.031 620.721 178.767 620.452C178.502 620.179 178.102 619.979 177.565 619.851L175.961 619.468C175.108 619.263 174.478 618.939 174.068 618.496C173.659 618.053 173.455 617.503 173.455 616.847C173.455 616.306 173.602 615.831 173.896 615.422C174.19 615.008 174.595 614.684 175.11 614.45C175.626 614.216 176.214 614.098 176.875 614.098C177.774 614.098 178.492 614.303 179.029 614.712C179.57 615.117 179.96 615.675 180.198 616.387ZM183.584 624.147C183.333 624.147 183.115 624.057 182.932 623.878C182.753 623.695 182.664 623.478 182.664 623.226C182.664 622.971 182.753 622.753 182.932 622.574C183.115 622.395 183.333 622.306 183.584 622.306C183.84 622.306 184.057 622.395 184.236 622.574C184.415 622.753 184.505 622.971 184.505 623.226C184.505 623.392 184.462 623.546 184.377 623.686C184.296 623.827 184.185 623.94 184.044 624.025C183.908 624.106 183.755 624.147 183.584 624.147Z" fill="white"/>
</svg>
