<svg width="64" height="64" viewBox="0 0 64 64" fill="none" xmlns="http://www.w3.org/2000/svg">
<rect width="64" height="64" rx="32" fill="#251901"/>
<g clip-path="url(#clip0_3331_4407)">
<path d="M23.8642 24.3861L25.6972 22.5521C25.6972 22.5521 32.4192 24.7931 36.2902 27.0341L40.6002 22.7241C41.2432 22.0811 42.0612 21.6351 42.9632 21.5121C43.6512 21.4181 44.4952 21.3301 45.2532 21.3301L45.6602 21.7371C45.6602 22.4941 45.5722 23.3391 45.4782 24.0271C45.3552 24.9291 44.9092 25.7471 44.2662 26.3911L39.9562 30.7011C42.1972 34.5711 44.4382 41.2931 44.4382 41.2931L42.6042 43.1261C42.6042 43.1261 38.9382 37.8301 35.8822 34.7741C35.8822 34.7741 33.6182 36.2241 30.1792 39.6641C30.1792 39.6641 30.5862 41.2931 30.5862 42.9231L30.1792 43.3301C30.1792 43.3301 28.5492 41.2931 27.1232 39.8671C25.6972 38.4411 23.6602 36.8121 23.6602 36.8121L24.0672 36.4041C25.6972 36.4041 27.3272 36.8111 27.3272 36.8111C30.7662 33.3721 32.2162 31.1081 32.2162 31.1081C29.1602 28.0521 23.8642 24.3861 23.8642 24.3861Z" stroke="white"/>
</g>
<defs>
<clipPath id="clip0_3331_4407">
<rect width="24" height="24" fill="white" transform="translate(22.6602 20.3301)"/>
</clipPath>
</defs>
</svg>
