<svg width="20" height="20" viewBox="0 0 20 20" fill="none" xmlns="http://www.w3.org/2000/svg">
<path d="M10.0019 0.546875C7.4343 0.546875 7.11207 0.558102 6.10362 0.603996C5.09713 0.650087 4.41012 0.809436 3.80899 1.04324C3.18717 1.28472 2.6597 1.60775 2.13421 2.13347C1.60831 2.65898 1.28529 3.18647 1.04303 3.8081C0.80864 4.40945 0.649099 5.09668 0.603797 6.1028C0.558693 7.11128 0.546875 7.43372 0.546875 10.0014C0.546875 12.5691 0.558299 12.8904 0.603995 13.8989C0.650281 14.9054 0.809625 15.5924 1.04322 16.1936C1.2849 16.8154 1.60792 17.3429 2.13361 17.8684C2.65892 18.3943 3.18639 18.7181 3.80781 18.9596C4.40933 19.1934 5.09654 19.3528 6.10283 19.3988C7.11128 19.4447 7.43332 19.456 10.0007 19.456C12.5686 19.456 12.8898 19.4447 13.8983 19.3988C14.9047 19.3528 15.5925 19.1934 16.1941 18.9596C16.8157 18.7181 17.3424 18.3943 17.8677 17.8684C18.3936 17.3429 18.7166 16.8154 18.9588 16.1938C19.1913 15.5924 19.3508 14.9052 19.3981 13.8991C19.4434 12.8906 19.4552 12.5691 19.4552 10.0014C19.4552 7.43372 19.4434 7.11148 19.3981 6.103C19.3508 5.09648 19.1913 4.40945 18.9588 3.8083C18.7166 3.18647 18.3936 2.65898 17.8677 2.13347C17.3418 1.60756 16.8159 1.28453 16.1935 1.04324C15.5908 0.809436 14.9034 0.650087 13.8969 0.603996C12.8884 0.558102 12.5674 0.546875 9.99897 0.546875H10.0019ZM9.1538 2.25066C9.40552 2.25027 9.68639 2.25066 10.0019 2.25066C12.5262 2.25066 12.8254 2.25972 13.8222 2.30503C14.744 2.34718 15.2443 2.50121 15.5776 2.63062C16.0188 2.80198 16.3333 3.00683 16.664 3.33774C16.9949 3.66865 17.1998 3.9838 17.3715 4.42501C17.5009 4.75789 17.6551 5.25819 17.6971 6.18001C17.7424 7.17668 17.7522 7.47607 17.7522 9.99925C17.7522 12.5224 17.7424 12.8218 17.6971 13.8185C17.6549 14.7403 17.5009 15.2406 17.3715 15.5735C17.2002 16.0147 16.9949 16.3289 16.664 16.6596C16.3331 16.9905 16.019 17.1953 15.5776 17.3667C15.2447 17.4967 14.744 17.6503 13.8222 17.6925C12.8256 17.7378 12.5262 17.7476 10.0019 17.7476C7.47744 17.7476 7.17825 17.7378 6.18161 17.6925C5.25982 17.65 4.75954 17.4959 4.42608 17.3665C3.98488 17.1951 3.66973 16.9903 3.33884 16.6594C3.00794 16.3285 2.80309 16.0141 2.63134 15.5727C2.50194 15.2398 2.34771 14.7395 2.30576 13.8177C2.26046 12.821 2.2514 12.5216 2.2514 9.99689C2.2514 7.47213 2.26046 7.17431 2.30576 6.17765C2.34791 5.25583 2.50194 4.75553 2.63134 4.42225C2.8027 3.98104 3.00794 3.66589 3.33884 3.33498C3.66973 3.00407 3.98488 2.79922 4.42608 2.62747C4.75934 2.49747 5.25982 2.34383 6.18161 2.30148C7.05377 2.26209 7.39176 2.25027 9.1538 2.2483V2.25066ZM15.0485 3.82051C14.4222 3.82051 13.914 4.3281 13.914 4.95466C13.914 5.58103 14.4222 6.08921 15.0485 6.08921C15.6749 6.08921 16.183 5.58103 16.183 4.95466C16.183 4.3283 15.6749 3.82051 15.0485 3.82051ZM10.0019 5.14612C7.32065 5.14612 5.14677 7.32007 5.14677 10.0014C5.14677 12.6828 7.32065 14.8557 10.0019 14.8557C12.6832 14.8557 14.8563 12.6828 14.8563 10.0014C14.8563 7.32007 12.6832 5.14612 10.0019 5.14612ZM10.0019 6.84991C11.7423 6.84991 13.1533 8.2608 13.1533 10.0014C13.1533 11.7418 11.7423 13.1529 10.0019 13.1529C8.26135 13.1529 6.8505 11.7418 6.8505 10.0014C6.8505 8.2608 8.26135 6.84991 10.0019 6.84991Z" fill="white"/>
</svg>
