<svg width="73" height="96" viewBox="0 0 73 96" fill="none" xmlns="http://www.w3.org/2000/svg">
<path d="M42.9964 64.246C43.442 74.3311 38.3753 78.8049 30.5426 81.3684C28.625 69.3528 40.8912 62.7285 40.8912 62.7285L42.9964 64.246Z" fill="#A16AFA"/>
<path d="M18.1596 46.3438C8.45081 49.1093 5.80815 55.3304 5.85235 63.5717C17.8579 61.5925 20.2648 47.8612 20.2648 47.8612L18.1596 46.3438Z" fill="#A16AFA"/>
<path d="M19.7771 57.2734C19.7771 57.2734 7.41839 65.0691 13.1281 81.4811C13.1281 81.4811 15.1668 77.9697 20.0084 77.0721C27.1158 75.7546 30.6915 71.5983 31.8407 65.9694L19.7771 57.2734Z" fill="#A16AFA"/>
<path d="M70.7526 19.7378C72.7386 11.8187 72.877 6.67054 71.2456 0C63.3677 0.486239 59.5609 2.31976 52.6758 6.70732L61.7142 13.2226L70.7526 19.7378Z" fill="#D9C1FF"/>
<path d="M68.9455 24.0538L69.2058 23.2599L49.8231 9.28809L49.1521 9.78603C38.719 17.5278 26.877 30.5299 19.28 41.0689L17.7712 43.162L47.2016 64.3765L48.7104 62.2835C56.3074 51.7444 64.8989 36.3992 68.9455 24.0538Z" fill="#D9C1FF"/>
<path d="M32.3654 81.1612C32.3511 81.1612 32.3371 81.1573 32.3247 81.1498C32.3052 81.1379 32.2919 81.118 32.2883 81.0954C31.8487 78.341 32.1219 75.6422 33.1003 73.0738C33.8826 71.0204 35.1146 69.046 36.7623 67.2053C39.5657 64.0734 42.646 62.3913 42.6767 62.3747C42.7031 62.3604 42.7352 62.3625 42.7596 62.38L44.8648 63.8976C44.8841 63.9115 44.896 63.9335 44.8971 63.9574C45.1103 68.7844 44.0833 72.5246 41.7572 75.3918C39.7227 77.8996 36.7461 79.7317 32.3896 81.1574C32.3817 81.1599 32.3735 81.1612 32.3654 81.1612ZM42.7085 62.5357C42.3283 62.7494 39.4818 64.4002 36.8754 67.3131C34.3217 70.1672 31.4848 74.85 32.4282 80.9803C41.4394 78.0061 45.1259 72.9225 44.7428 64.002L42.7085 62.5357Z" fill="#363E44"/>
<path d="M7.67532 63.3647C7.65705 63.3647 7.63916 63.3582 7.62495 63.3462C7.60738 63.3315 7.59731 63.3099 7.59723 63.287C7.57263 58.7031 8.36973 55.3 10.1057 52.5771C12.0905 49.4639 15.3142 47.3071 19.9611 45.9834C19.9843 45.977 20.0086 45.9812 20.0281 45.9952L22.1333 47.5127C22.1576 47.5302 22.1697 47.56 22.1646 47.5895C22.1585 47.6239 21.5364 51.078 19.4513 54.7279C18.2259 56.8729 16.7422 58.666 15.0414 60.0573C12.9142 61.7975 10.44 62.9099 7.68797 63.3637C7.68383 63.3643 7.67953 63.3647 7.67532 63.3647ZM19.9675 46.144C11.383 48.6006 7.72545 53.704 7.75294 63.1944C13.8711 62.148 17.416 57.9758 19.3158 54.6503C21.2542 51.2571 21.9193 48.0384 22.0018 47.6103L19.9675 46.144Z" fill="#363E44"/>
<path d="M55.7617 41.0312C60.2854 36.5075 60.2854 29.1732 55.7617 24.6495C51.238 20.1258 43.9037 20.1258 39.38 24.6495C34.8564 29.1732 34.8564 36.5075 39.38 41.0312C43.9037 45.5548 51.238 45.5548 55.7617 41.0312Z" fill="#A16AFA"/>
<path d="M47.5547 41.2606C45.8027 41.2606 44.0994 40.7141 42.6502 39.6694C40.8262 38.3546 39.6233 36.4082 39.2633 34.1888C38.9032 31.9693 39.4291 29.7424 40.7439 27.9183C42.0588 26.0943 44.0052 24.8915 46.2246 24.5314C48.4441 24.1715 50.6709 24.6972 52.495 26.012C54.319 27.3268 55.5219 29.2733 55.8819 31.4928C56.2419 33.7123 55.7162 35.9391 54.4014 37.7631C53.0865 39.5871 51.14 40.79 48.9206 41.15C48.4645 41.224 48.0079 41.2606 47.5547 41.2606ZM47.5903 24.577C47.1453 24.577 46.6974 24.613 46.2497 24.6856C44.0714 25.039 42.161 26.2195 40.8706 28.0097C39.5802 29.7999 39.0641 31.9854 39.4175 34.1638C39.7709 36.3421 40.9514 38.2524 42.7415 39.5429C44.5317 40.8332 46.7171 41.3494 48.8956 40.9959C51.0739 40.6426 52.9843 39.462 54.2747 37.6718C55.5651 35.8817 56.0812 33.6961 55.7278 31.5178C55.3745 29.3395 54.1938 27.4292 52.4037 26.1388C50.9815 25.1135 49.3096 24.577 47.5903 24.577Z" fill="#363E44"/>
<path d="M70.3168 21.7969C70.3011 21.7969 70.285 21.7921 70.2712 21.7821L50.8885 7.81041C50.8535 7.78519 50.8456 7.73639 50.8708 7.7014C50.8958 7.66642 50.9446 7.65846 50.9798 7.68368L70.3625 21.6554C70.3975 21.6806 70.4054 21.7294 70.3802 21.7644C70.365 21.7856 70.3411 21.7969 70.3168 21.7969Z" fill="#363E44"/>
<path d="M36.3618 64.6991C36.3455 64.6991 36.3295 64.694 36.3161 64.6843L20.9204 53.5866C20.9037 53.5745 20.8924 53.5562 20.8891 53.5358C20.8858 53.5153 20.8907 53.4944 20.9028 53.4776L24.1077 49.0315C24.1329 48.9965 24.1816 48.9885 24.2167 49.0139L39.6123 60.1116C39.6473 60.1368 39.6552 60.1856 39.6301 60.2206L36.4252 64.6667C36.4131 64.6834 36.3948 64.6948 36.3744 64.698C36.3702 64.6987 36.366 64.6991 36.3618 64.6991ZM21.0751 53.5056L36.3441 64.512L39.4577 60.1926L24.1888 49.1862L21.0751 53.5056Z" fill="#363E44"/>
<path d="M14.9512 81.2731C14.9488 81.2731 14.9463 81.273 14.9437 81.2727C14.9134 81.2698 14.8874 81.2495 14.8774 81.2206C13.5711 77.4659 13.109 73.8521 13.5037 70.4796C13.8197 67.7801 14.6822 65.2288 16.0673 62.8967C18.4256 58.9261 21.5273 56.9408 21.5584 56.9212C21.5852 56.9042 21.6197 56.9053 21.6457 56.924L33.7094 65.62C33.7343 65.6379 33.7464 65.6688 33.7403 65.6989C32.4789 71.8774 28.477 75.6335 21.8457 76.8629C17.0978 77.743 15.0389 81.1995 15.0186 81.2343C15.0046 81.2584 14.9788 81.2731 14.9512 81.2731ZM21.598 57.082C21.2132 57.3379 18.3841 59.2988 16.198 62.9827C14.0541 66.5956 12.1104 72.6501 14.9725 81.017C15.4165 80.3528 17.5456 77.5012 21.8173 76.7093C28.3623 75.4959 32.3186 71.7979 33.5772 65.7171L21.598 57.082Z" fill="#363E44"/>
<path d="M14.5348 95.7999C14.519 95.7999 14.503 95.7952 14.4892 95.7852C14.4542 95.7599 14.4463 95.7111 14.4715 95.6761L26.081 79.5705C26.1061 79.5355 26.155 79.5276 26.19 79.5529C26.225 79.5781 26.2329 79.6269 26.2078 79.6619L14.5982 95.7675C14.583 95.7887 14.559 95.7999 14.5348 95.7999Z" fill="#363E44"/>
<path d="M23.4989 90.9114C23.4832 90.9114 23.4671 90.9066 23.4533 90.8966C23.4183 90.8714 23.4105 90.8226 23.4356 90.7876L27.9874 84.4729C28.0125 84.4379 28.0613 84.4299 28.0965 84.4553C28.1314 84.4805 28.1393 84.5293 28.1142 84.5643L23.5623 90.879C23.5471 90.9001 23.5231 90.9114 23.4989 90.9114Z" fill="#363E44"/>
<path d="M1.86489 77.2742C1.84911 77.2742 1.83311 77.2695 1.81929 77.2595C1.7843 77.2343 1.77642 77.1855 1.80157 77.1505L9.62792 66.2932C9.65307 66.2582 9.70195 66.2502 9.73693 66.2756C9.77191 66.3008 9.7798 66.3496 9.75466 66.3846L1.92829 77.2418C1.91307 77.263 1.88917 77.2742 1.86489 77.2742Z" fill="#363E44"/>
<path d="M4.10342 69.8221C4.08765 69.8221 4.07164 69.8173 4.05782 69.8073C4.02284 69.7821 4.01495 69.7333 4.04009 69.6983L7.19779 65.3176C7.22286 65.2826 7.27166 65.2746 7.3068 65.3C7.34178 65.3252 7.34967 65.374 7.32453 65.409L4.16683 69.7897C4.1516 69.8108 4.1277 69.8221 4.10342 69.8221Z" fill="#363E44"/>
<path d="M0.0780291 95.0835C0.0622558 95.0835 0.0462494 95.0788 0.0324283 95.0688C-0.00255405 95.0435 -0.0104447 94.9947 0.0146989 94.9598L10.4228 80.5207C10.4479 80.4857 10.4968 80.4778 10.5318 80.5031C10.5668 80.5283 10.5747 80.5771 10.5495 80.6121L0.141435 95.0511C0.126209 95.0723 0.102314 95.0835 0.0780291 95.0835Z" fill="#363E44"/>
<path d="M0.857076 89.2217C0.841302 89.2217 0.825296 89.217 0.811475 89.207C0.776492 89.1817 0.768611 89.1329 0.793755 89.098L6.20141 81.596C6.22648 81.561 6.27528 81.5529 6.31042 81.5783C6.3454 81.6035 6.35329 81.6523 6.32815 81.6873L0.920482 89.1893C0.905255 89.2105 0.881282 89.2217 0.857076 89.2217Z" fill="#363E44"/>
</svg>
