<svg width="73" height="96" viewBox="0 0 73 96" fill="none" xmlns="http://www.w3.org/2000/svg">
<path d="M42.9962 64.2462C43.4418 74.3312 38.3751 78.8051 30.5424 81.3685C28.6248 69.3529 40.891 62.7286 40.891 62.7286L42.9962 64.2462Z" fill="#A16AFA"/>
<path d="M18.1594 46.3436C8.45061 49.1092 5.80795 55.3303 5.85215 63.5716C17.8577 61.5923 20.2646 47.8611 20.2646 47.8611L18.1594 46.3436Z" fill="#A16AFA"/>
<path d="M19.7767 57.2734C19.7767 57.2734 7.41802 65.0691 13.1277 81.4811C13.1277 81.4811 15.1665 77.9697 20.008 77.0721C27.1154 75.7546 30.6911 71.5983 31.8404 65.9694L19.7767 57.2734Z" fill="#A16AFA"/>
<path d="M70.7526 19.7378C72.7386 11.8187 72.877 6.67054 71.2456 0C63.3677 0.486239 59.5609 2.31977 52.6758 6.70732L61.7142 13.2226L70.7526 19.7378Z" fill="#D9C1FF"/>
<path d="M68.9457 24.0538L69.206 23.2599L49.8234 9.28809L49.1524 9.78603C38.7193 17.5278 26.8772 30.5299 19.2803 41.0689L17.7715 43.162L47.2019 64.3765L48.7106 62.2835C56.3077 51.7444 64.8992 36.3992 68.9457 24.0538Z" fill="#D9C1FF"/>
<path d="M32.3656 81.1612C32.3514 81.1612 32.3373 81.1573 32.3249 81.1498C32.3055 81.1379 32.2921 81.118 32.2885 81.0954C31.8489 78.341 32.1221 75.6422 33.1005 73.0738C33.8828 71.0204 35.1148 69.046 36.7625 67.2053C39.5659 64.0734 42.6463 62.3913 42.677 62.3747C42.7034 62.3604 42.7354 62.3625 42.7598 62.38L44.865 63.8976C44.8844 63.9115 44.8962 63.9335 44.8973 63.9574C45.1106 68.7844 44.0835 72.5246 41.7574 75.3918C39.7229 77.8996 36.7464 79.7317 32.3899 81.1574C32.3819 81.1599 32.3737 81.1612 32.3656 81.1612ZM42.7087 62.5357C42.3285 62.7494 39.482 64.4002 36.8757 67.3131C34.322 70.1672 31.485 74.85 32.4285 80.9803C41.4397 78.0061 45.1261 72.9225 44.743 64.002L42.7087 62.5357Z" fill="#363E44"/>
<path d="M7.67532 63.3647C7.65705 63.3647 7.63916 63.3582 7.62495 63.3462C7.60738 63.3315 7.59731 63.3099 7.59723 63.287C7.57263 58.7031 8.36973 55.3 10.1057 52.5771C12.0905 49.4639 15.3142 47.3071 19.9611 45.9834C19.9843 45.977 20.0086 45.9812 20.0281 45.9952L22.1333 47.5127C22.1576 47.5302 22.1697 47.56 22.1646 47.5895C22.1585 47.6239 21.5364 51.078 19.4513 54.7279C18.2259 56.8729 16.7422 58.666 15.0414 60.0573C12.9142 61.7975 10.44 62.9099 7.68797 63.3637C7.68383 63.3643 7.67953 63.3647 7.67532 63.3647ZM19.9675 46.144C11.383 48.6006 7.72545 53.704 7.75294 63.1944C13.8711 62.148 17.416 57.9758 19.3158 54.6503C21.2542 51.2571 21.9193 48.0384 22.0018 47.6103L19.9675 46.144Z" fill="#363E44"/>
<path d="M55.7617 41.0308C60.2854 36.5071 60.2854 29.1728 55.7617 24.6491C51.2381 20.1255 43.9038 20.1255 39.3801 24.6491C34.8564 29.1728 34.8564 36.5071 39.3801 41.0308C43.9038 45.5545 51.2381 45.5545 55.7617 41.0308Z" fill="#A16AFA"/>
<path d="M47.5543 41.2605C45.8023 41.2605 44.099 40.7139 42.6497 39.6693C40.8257 38.3545 39.6229 36.4081 39.2628 34.1886C38.9028 31.9692 39.4286 29.7423 40.7434 27.9182C42.0583 26.0942 44.0047 24.8914 46.2242 24.5313C48.4436 24.1714 50.6704 24.6971 52.4945 26.0119C54.3185 27.3267 55.5214 29.2731 55.8814 31.4927C56.2415 33.7122 55.7157 35.939 54.4009 37.763C53.086 39.587 51.1396 40.7898 48.9202 41.1499C48.4641 41.2239 48.0075 41.2605 47.5543 41.2605ZM47.5898 24.5769C47.1449 24.5769 46.697 24.6128 46.2492 24.6855C44.071 25.0389 42.1606 26.2194 40.8701 28.0096C39.5797 29.7998 39.0636 31.9853 39.417 34.1637C39.7705 36.342 40.951 38.2523 42.7411 39.5427C44.5313 40.8331 46.7167 41.3492 48.8952 40.9958C51.0734 40.6425 52.9838 39.4619 54.2742 37.6717C55.5647 35.8815 56.0808 33.696 55.7273 31.5177C55.374 29.3394 54.1933 27.4291 52.4032 26.1386C50.9811 25.1134 49.3092 24.5769 47.5898 24.5769Z" fill="#363E44"/>
<path d="M70.3172 21.7969C70.3014 21.7969 70.2854 21.7921 70.2716 21.7821L50.8889 7.81041C50.8539 7.78519 50.846 7.73639 50.8711 7.7014C50.8962 7.66642 50.945 7.65846 50.9802 7.68368L70.3629 21.6554C70.3979 21.6806 70.4057 21.7294 70.3806 21.7644C70.3654 21.7856 70.3415 21.7969 70.3172 21.7969Z" fill="#363E44"/>
<path d="M36.3614 64.6991C36.3451 64.6991 36.3292 64.694 36.3157 64.6843L20.9201 53.5866C20.9033 53.5745 20.892 53.5562 20.8887 53.5358C20.8854 53.5153 20.8903 53.4944 20.9024 53.4776L24.1074 49.0315C24.1325 48.9965 24.1812 48.9885 24.2164 49.0139L39.612 60.1116C39.647 60.1368 39.6548 60.1856 39.6297 60.2206L36.4248 64.6667C36.4127 64.6834 36.3944 64.6948 36.374 64.698C36.3698 64.6987 36.3656 64.6991 36.3614 64.6991ZM21.0748 53.5056L36.3438 64.512L39.4574 60.1926L24.1884 49.1862L21.0748 53.5056Z" fill="#363E44"/>
<path d="M14.9512 81.2731C14.9488 81.2731 14.9463 81.273 14.9437 81.2727C14.9134 81.2698 14.8874 81.2495 14.8774 81.2206C13.5711 77.4659 13.109 73.8521 13.5037 70.4796C13.8197 67.7801 14.6822 65.2288 16.0673 62.8967C18.4256 58.9261 21.5273 56.9408 21.5584 56.9212C21.5852 56.9042 21.6197 56.9053 21.6457 56.924L33.7094 65.62C33.7343 65.6379 33.7464 65.6688 33.7403 65.6989C32.4789 71.8774 28.477 75.6335 21.8457 76.8629C17.0978 77.743 15.0389 81.1995 15.0186 81.2343C15.0046 81.2584 14.9788 81.2731 14.9512 81.2731ZM21.598 57.082C21.2132 57.3379 18.3841 59.2988 16.198 62.9827C14.0541 66.5956 12.1104 72.6501 14.9725 81.017C15.4165 80.3528 17.5456 77.5012 21.8173 76.7093C28.3623 75.4959 32.3186 71.7979 33.5772 65.7171L21.598 57.082Z" fill="#363E44"/>
<path d="M14.5351 95.7999C14.5193 95.7999 14.5033 95.7952 14.4895 95.7852C14.4545 95.7599 14.4466 95.7111 14.4717 95.6761L26.0813 79.5705C26.1063 79.5355 26.1552 79.5276 26.1903 79.5529C26.2253 79.5781 26.2331 79.6269 26.208 79.6619L14.5985 95.7675C14.5832 95.7887 14.5593 95.7999 14.5351 95.7999Z" fill="#363E44"/>
<path d="M23.4989 90.9115C23.4831 90.9115 23.4671 90.9067 23.4533 90.8967C23.4183 90.8715 23.4104 90.8227 23.4356 90.7877L27.9874 84.473C28.0125 84.438 28.0613 84.43 28.0964 84.4554C28.1314 84.4806 28.1393 84.5294 28.1141 84.5644L23.5623 90.8791C23.5471 90.9002 23.5231 90.9115 23.4989 90.9115Z" fill="#363E44"/>
<path d="M1.86513 77.2742C1.84936 77.2742 1.83335 77.2695 1.81953 77.2595C1.78455 77.2343 1.77667 77.1855 1.80181 77.1505L9.62817 66.2932C9.65331 66.2582 9.70219 66.2502 9.73718 66.2756C9.77216 66.3008 9.78005 66.3496 9.7549 66.3846L1.92854 77.2418C1.91331 77.263 1.88942 77.2742 1.86513 77.2742Z" fill="#363E44"/>
<path d="M4.10342 69.8221C4.08765 69.8221 4.07164 69.8173 4.05782 69.8073C4.02284 69.7821 4.01495 69.7333 4.04009 69.6983L7.19779 65.3176C7.22286 65.2826 7.27166 65.2746 7.3068 65.3C7.34178 65.3252 7.34967 65.374 7.32453 65.409L4.16683 69.7897C4.1516 69.8108 4.1277 69.8221 4.10342 69.8221Z" fill="#363E44"/>
<path d="M0.0780291 95.0836C0.0622558 95.0836 0.0462494 95.0789 0.0324283 95.0689C-0.00255405 95.0437 -0.0104447 94.9949 0.0146989 94.9599L10.4228 80.5208C10.4479 80.4859 10.4968 80.4779 10.5318 80.5032C10.5668 80.5284 10.5747 80.5772 10.5495 80.6122L0.141435 95.0512C0.126209 95.0724 0.102314 95.0836 0.0780291 95.0836Z" fill="#363E44"/>
<path d="M0.857084 89.2217C0.84131 89.2217 0.825304 89.217 0.811483 89.207C0.776501 89.1817 0.768619 89.1329 0.793763 89.098L6.20142 81.596C6.22649 81.561 6.27529 81.5529 6.31043 81.5783C6.34541 81.6035 6.3533 81.6523 6.32816 81.6873L0.92049 89.1893C0.905263 89.2105 0.88129 89.2217 0.857084 89.2217Z" fill="#363E44"/>
</svg>
