<svg width="20" height="20" viewBox="0 0 20 20" fill="none" xmlns="http://www.w3.org/2000/svg">
<g clip-path="url(#clip0_3318_9183)">
<mask id="mask0_3318_9183" style="mask-type:luminance" maskUnits="userSpaceOnUse" x="0" y="0" width="20" height="20">
<path d="M20 0.0078125H0.0200195V19.0364H20V0.0078125Z" fill="white"/>
</mask>
<g mask="url(#mask0_3318_9183)">
<path d="M16.7897 16.0881H13.8243V11.7089C13.8243 10.6647 13.8046 9.32036 12.2821 9.32036C10.7376 9.32036 10.5013 10.4581 10.5013 11.6328V16.0878H7.53591V7.08241H10.3826V8.31309H10.4225C10.7074 7.85374 11.1191 7.47586 11.6137 7.2197C12.1083 6.96353 12.6674 6.83867 13.2313 6.8584C16.2369 6.8584 16.791 8.72264 16.791 11.1479L16.7897 16.0881ZM4.18999 5.85143C3.84964 5.85149 3.51691 5.75637 3.23389 5.57811C2.95085 5.39984 2.73026 5.14644 2.59996 4.84995C2.46965 4.55344 2.4355 4.22717 2.50185 3.91237C2.56818 3.59758 2.73203 3.3084 2.97265 3.08142C3.21327 2.85443 3.51987 2.69982 3.85367 2.63715C4.18746 2.57448 4.53347 2.60656 4.84794 2.72933C5.1624 2.8521 5.4312 3.06004 5.62033 3.32687C5.80948 3.5937 5.91046 3.90743 5.91053 4.22838C5.91057 4.44149 5.86609 4.65251 5.77965 4.8494C5.6932 5.0463 5.56649 5.22522 5.40673 5.37592C5.24697 5.52664 5.05727 5.64621 4.8485 5.72779C4.63974 5.80938 4.41598 5.85139 4.18999 5.85143ZM5.67267 16.0881H2.70422V7.08241H5.67267V16.0881ZM18.2681 0.00909829H1.21413C0.827047 0.0049791 0.454052 0.145943 0.177134 0.401014C-0.0997841 0.656085 -0.257971 1.0044 -0.262695 1.3694V17.518C-0.258133 17.8833 -0.100038 18.2318 0.17687 18.4871C0.453779 18.7425 0.826855 18.8837 1.21413 18.8798H18.2681C18.6562 18.8843 19.0303 18.7435 19.3083 18.4883C19.5863 18.2329 19.7454 17.8839 19.7508 17.518V1.36824C19.7453 1.0025 19.586 0.6538 19.308 0.398735C19.03 0.143671 18.656 0.00310908 18.2681 0.00793267" fill="white"/>
</g>
</g>
<defs>
<clipPath id="clip0_3318_9183">
<rect width="20" height="20" fill="white"/>
</clipPath>
</defs>
</svg>
