<svg width="319" height="276" viewBox="0 0 319 276" fill="none" xmlns="http://www.w3.org/2000/svg">
<path d="M212.622 70.4544L184.672 302.802C183.307 314.162 172.556 321.943 161.333 319.698C157.871 318.992 154.408 318.287 150.927 317.553C108.446 308.604 64.7565 294.497 22.122 274.585C11.1037 269.441 7.14972 255.741 13.9817 245.676L147.537 49.2569C152.389 42.1233 161.378 38.7315 169.553 41.482C178.532 44.4978 187.65 46.9688 196.81 48.8986C196.879 48.9131 196.925 48.9227 196.993 48.9372C207.001 51.0455 213.823 60.3275 212.617 70.4774L212.622 70.4544Z" fill="white"/>
<path d="M273.861 337.795L397.983 139.4C404.053 129.701 400.57 116.895 390.426 111.597C387.287 109.972 384.149 108.347 380.979 106.732C342.296 87.027 299.433 70.577 253.748 59.3077C241.942 56.3933 230.263 64.5744 229.262 76.6976L209.894 313.431C209.191 322.029 214.059 330.313 222.148 333.304C231.03 336.595 239.679 340.396 248.02 344.645C248.083 344.677 248.124 344.698 248.187 344.73C257.3 349.372 268.437 346.431 273.872 337.774L273.861 337.795Z" fill="white"/>
</svg>
