<svg width="29" height="28" viewBox="0 0 29 28" fill="none" xmlns="http://www.w3.org/2000/svg">
<g clip-path="url(#clip0_3318_8927)">
<path d="M16.4016 3.9098L18.5117 27.8487C18.615 29.0191 17.6994 30.0285 16.5242 30.0405C16.1613 30.0429 15.7984 30.0453 15.4331 30.0453C10.975 30.0453 6.28623 29.5527 1.58063 28.4544C0.364578 28.1708 -0.322752 26.8778 0.150692 25.7219L9.41289 3.15757C9.74934 2.33806 10.5809 1.80694 11.4605 1.91028C12.4266 2.02323 13.3951 2.07851 14.3564 2.07851C14.3636 2.07851 14.3684 2.07851 14.3756 2.07851C15.4259 2.07851 16.3079 2.86678 16.4016 3.9122V3.9098Z" fill="#A16AFA"/>
<path d="M27.5515 29.5054L35.824 6.94236C36.2286 5.83929 35.6075 4.62626 34.476 4.30857C34.1262 4.21172 33.7765 4.11488 33.4238 4.01973C29.1196 2.85857 24.4643 2.11297 19.6351 1.94771C18.3872 1.90477 17.3868 2.97407 17.5428 4.21346L20.6081 28.4114C20.7195 29.2902 21.384 30.0196 22.2601 30.1489C23.2223 30.2915 24.1718 30.4904 25.0999 30.7408C25.1069 30.7427 25.1115 30.7439 25.1185 30.7458C26.1325 31.0194 27.1893 30.488 27.5521 29.5031L27.5515 29.5054Z" fill="#A16AFA"/>
</g>
<defs>
<clipPath id="clip0_3318_8927">
<rect width="29" height="28" fill="white"/>
</clipPath>
</defs>
</svg>
