<svg width="111" height="111" viewBox="0 0 111 111" fill="none" xmlns="http://www.w3.org/2000/svg">
<rect width="110.326" height="110.326" rx="55.1628" fill="#A16AFA"/>
<path d="M45.6629 62.9219C41.9556 59.2074 39.1046 54.7279 37.3092 49.7966C36.3214 47.1005 37.2264 44.139 39.2571 42.1083L40.5138 40.8533C40.8516 40.5148 41.2529 40.2462 41.6947 40.063C42.1365 39.8797 42.6101 39.7854 43.0883 39.7854C43.5666 39.7854 44.0402 39.8797 44.482 40.063C44.9237 40.2462 45.325 40.5148 45.6629 40.8533L48.6055 43.7959C48.944 44.1338 49.2126 44.5351 49.3958 44.9769C49.5791 45.4186 49.6734 45.8922 49.6734 46.3705C49.6734 46.8488 49.5791 47.3223 49.3958 47.7641C49.2126 48.2059 48.944 48.6072 48.6055 48.945L47.8815 49.669C47.5917 49.9588 47.3618 50.3028 47.2049 50.6814C47.0481 51.06 46.9674 51.4658 46.9674 51.8756C46.9674 52.2854 47.0481 52.6911 47.2049 53.0697C47.3618 53.4483 47.5917 53.7923 47.8815 54.0821L54.501 60.7033C54.7907 60.9931 55.1347 61.223 55.5133 61.3799C55.8919 61.5367 56.2977 61.6174 56.7075 61.6174C57.1173 61.6174 57.5231 61.5367 57.9017 61.3799C58.2803 61.223 58.6243 60.9931 58.914 60.7033L59.6398 59.9793C59.9776 59.6408 60.3789 59.3722 60.8207 59.189C61.2625 59.0057 61.736 58.9114 62.2143 58.9114C62.6926 58.9114 63.1662 59.0057 63.6079 59.189C64.0497 59.3722 64.451 59.6408 64.7889 59.9793L67.7315 62.9219C68.07 63.2598 68.3386 63.6611 68.5218 64.1028C68.7051 64.5446 68.7994 65.0182 68.7994 65.4965C68.7994 65.9747 68.7051 66.4483 68.5218 66.8901C68.3386 67.3319 68.07 67.7332 67.7315 68.071L66.4765 69.326C64.4458 71.3584 61.4843 72.2634 58.7882 71.2756C53.8569 69.4802 49.3774 66.6292 45.6629 62.9219Z" stroke="white" stroke-width="2.58576" stroke-linejoin="round"/>
</svg>
