<svg width="69" height="79" viewBox="0 0 69 79" fill="none" xmlns="http://www.w3.org/2000/svg">
<path d="M45.0558 64.7075C45.0558 64.7075 51.1267 77.477 47.2895 78.7891C44.7392 79.6612 37.37 70.0504 37.37 70.0504L45.0558 64.7075Z" fill="#E1CFFF"/>
<path d="M10.67 64.7075C10.67 64.7075 4.59918 77.477 8.43634 78.7891C10.9867 79.6612 18.3559 70.0504 18.3559 70.0504L10.67 64.7075Z" fill="#E1CFFF"/>
<path d="M11.412 35.7915C6.67801 29.2941 0.514821 29.1635 0 29.1845C1.54857 39.2799 4.74233 41.9726 4.74233 41.9726C6.40384 39.1659 11.412 35.7915 11.412 35.7915Z" fill="#E1CFFF"/>
<path d="M62.7226 44.7292L62.6647 44.1514C63.8623 44.0313 64.5403 43.3513 64.8987 42.8003C64.7968 42.7461 64.7 42.6888 64.6089 42.6292C63.8065 42.1051 63.3663 41.3818 63.4876 40.7866C63.5458 40.5006 63.7901 39.9947 64.7719 39.8193C65.1351 39.7543 65.4569 39.8711 65.6783 40.148C66.079 40.6487 66.0893 41.6007 65.7041 42.5173C66.5602 42.8057 67.6529 42.8131 68.6559 42.1053L68.9906 42.5798C67.7763 43.4366 66.4523 43.4046 65.4356 43.0381C65.0244 43.7064 64.2102 44.5801 62.7226 44.7292ZM64.9655 40.3822C64.9369 40.3822 64.9064 40.3852 64.8739 40.3909C64.5975 40.4403 64.1237 40.5725 64.0565 40.9024C63.9855 41.2518 64.3431 41.762 64.9264 42.143C65.0033 42.1932 65.0849 42.2416 65.1708 42.2875C65.4998 41.5008 65.4446 40.7854 65.2249 40.5108C65.1551 40.4236 65.0731 40.3822 64.9655 40.3822Z" fill="#A16AFA"/>
<path d="M64.3712 50.5456C64.3712 64.6065 50.9149 74.551 33.2256 74.551C15.5363 74.551 1.19629 64.6065 1.19629 50.5456C1.19629 36.4846 15.5363 25.0859 33.2256 25.0859C50.9149 25.0859 64.3712 36.4846 64.3712 50.5456Z" fill="#E1CFFF"/>
<path d="M33.2254 74.6967C24.5172 74.6967 16.4435 72.2968 10.4913 67.9388C4.40349 63.4815 1.05078 57.3047 1.05078 50.5461C1.05078 46.4468 2.23108 42.5307 4.55886 38.9065C6.77675 35.4534 10.0142 32.3941 13.9211 30.0591L14.07 30.3083C5.9806 35.1429 1.3411 42.5193 1.3411 50.546C1.3411 57.2096 4.65165 63.3033 10.6629 67.7045C16.5656 72.0262 24.5784 74.4063 33.2253 74.4063C47.0588 74.4063 58.6094 68.1595 62.652 58.4919L62.9198 58.6039C60.9108 63.4083 57.0808 67.4559 51.8439 70.3091C46.5755 73.1796 40.1374 74.6967 33.2254 74.6967Z" fill="black"/>
<path d="M13.9283 59.9742C17.7365 59.9742 20.8237 57.437 20.8237 54.3072C20.8237 51.1774 17.7365 48.6401 13.9283 48.6401C10.12 48.6401 7.03284 51.1774 7.03284 54.3072C7.03284 57.437 10.12 59.9742 13.9283 59.9742Z" fill="#A16AFA"/>
<path d="M8.48663 57.996C7.45568 56.9606 6.88788 55.6505 6.88788 54.3069C6.88788 51.102 10.0463 48.4946 13.9285 48.4946C14.8119 48.4946 15.6734 48.6279 16.4891 48.8907L16.4 49.1671C15.6131 48.9135 14.7816 48.785 13.9285 48.785C10.2064 48.785 7.17828 51.2621 7.17828 54.3068C7.17828 55.5731 7.71597 56.8106 8.69245 57.7911L8.48663 57.996Z" fill="#A16AFA"/>
<path d="M8.43645 47.9193C9.14915 47.9193 9.7269 47.3415 9.7269 46.6288C9.7269 45.9161 9.14915 45.3384 8.43645 45.3384C7.72375 45.3384 7.146 45.9161 7.146 46.6288C7.146 47.3415 7.72375 47.9193 8.43645 47.9193Z" fill="#A16AFA"/>
<path d="M19.6462 47.9193C20.3589 47.9193 20.9366 47.3415 20.9366 46.6288C20.9366 45.9161 20.3589 45.3384 19.6462 45.3384C18.9335 45.3384 18.3557 45.9161 18.3557 46.6288C18.3557 47.3415 18.9335 47.9193 19.6462 47.9193Z" fill="#A16AFA"/>
<path d="M11.9349 54.8328C12.2247 54.543 12.2247 54.0732 11.9349 53.7834C11.6451 53.4936 11.1753 53.4936 10.8855 53.7834C10.5957 54.0732 10.5957 54.543 10.8855 54.8328C11.1753 55.1226 11.6451 55.1226 11.9349 54.8328Z" fill="#A16AFA"/>
<path d="M17.1646 54.489C17.2588 54.0902 17.0118 53.6905 16.613 53.5964C16.2142 53.5022 15.8145 53.7491 15.7203 54.148C15.6261 54.5468 15.8731 54.9465 16.2719 55.0406C16.6708 55.1348 17.0704 54.8878 17.1646 54.489Z" fill="#A16AFA"/>
<path d="M29.8935 45.3043L29.7689 45.0421C29.7866 45.0336 31.5611 44.1692 32.8432 41.9816C34.0202 39.9732 35.011 36.4062 33.0771 30.7964C32.6675 30.8309 31.131 31.0043 29.2373 31.7598C27.2036 32.5711 24.3285 34.24 22.1808 37.583L21.9365 37.426C24.1285 34.014 27.0641 32.3124 29.1406 31.4858C31.3917 30.5896 33.0994 30.5019 33.1709 30.4986L33.2789 30.4937L33.3147 30.5958C35.3375 36.381 34.3061 40.0688 33.0846 42.1437C31.7557 44.4013 29.9689 45.2685 29.8935 45.3043Z" fill="black"/>
<path d="M21.8608 64.7075C21.8608 64.7075 15.7899 77.477 19.6271 78.7891C22.1774 79.6612 29.5466 70.0504 29.5466 70.0504L21.8608 64.7075Z" fill="#E1CFFF"/>
<path d="M56.247 64.7075C56.247 64.7075 62.3178 77.477 58.4807 78.7891C55.9303 79.6612 48.5612 70.0504 48.5612 70.0504L56.247 64.7075Z" fill="#E1CFFF"/>
<path d="M46.9406 78.9889C45.9603 78.989 44.4662 78.0171 42.4881 76.0908L42.6907 75.8828C45.408 78.529 46.6661 78.8495 47.2427 78.6522C48.8812 78.0919 48.4974 75.1366 47.8869 72.7562L48.1682 72.6841C49.1004 76.3191 48.8206 78.4195 47.3367 78.927C47.2156 78.9683 47.0835 78.9889 46.9406 78.9889Z" fill="black"/>
<path d="M19.5655 78.9207C18.8499 78.5836 18.4282 77.9489 18.2763 76.9804C18.0933 75.8138 18.3053 74.1957 18.9244 72.0337L19.2035 72.1136C18.1313 75.8583 18.2902 77.999 19.6893 78.658L19.5655 78.9207Z" fill="black"/>
<path d="M8.7455 78.9992C8.37732 78.9992 8.05531 78.8642 7.78621 78.5966C7.08913 77.9036 6.95296 76.5249 7.03152 75.7675L7.32035 75.7974C7.25035 76.4727 7.37046 77.7738 7.99098 78.3907C8.23652 78.6349 8.53827 78.7392 8.8883 78.7009C11.9059 78.3703 17.0187 71.4879 17.0699 71.4185L17.3036 71.5909C17.091 71.8788 12.0628 78.6452 8.91989 78.9894C8.86063 78.996 8.80249 78.9992 8.7455 78.9992Z" fill="black"/>
<path d="M58.2549 78.95C56.6497 78.9501 54.0071 76.4067 53.8947 76.2977L54.0968 76.0893C54.1235 76.1151 56.7666 78.6595 58.2534 78.6596C58.2616 78.6596 58.2697 78.6596 58.2779 78.6594C58.5216 78.6548 58.7101 78.5792 58.854 78.4287C60.2444 76.9745 59.622 73.2606 56.8361 66.3869L57.1052 66.2778C59.9782 73.3664 60.564 77.0603 59.064 78.6293C58.8665 78.8357 58.604 78.9435 58.2834 78.9496C58.2739 78.9499 58.2643 78.95 58.2549 78.95Z" fill="black"/>
<path d="M32.0959 0.463619C37.7455 -1.03868 43.7768 1.18889 47.0937 6.00288C52.196 13.4082 49.2548 23.2294 41.4654 26.8167C34.4236 30.0595 26.0865 26.9799 22.8437 19.9383C19.2566 12.149 23.4055 2.77447 32.0959 0.463619Z" fill="white"/>
<path d="M47.0606 8.78522C49.977 15.1182 47.2074 22.6164 40.8744 25.5329C34.5413 28.4494 27.0432 25.6798 24.1266 19.3467C21.2102 13.0137 23.9798 5.51552 30.3129 2.59898C36.6458 -0.317378 44.144 2.45225 47.0606 8.78522Z" fill="#1A1A1A"/>
<path d="M35.9023 10.1253C35.4824 9.64028 35.0139 9.29811 34.2912 9.31645C34.3163 9.41342 34.3244 9.48997 34.3548 9.55622C34.7663 10.4539 35.1872 11.3473 35.5902 12.2486C35.6785 12.4461 35.7822 12.4856 36.0103 12.4529C36.5419 12.3769 37.0786 12.3217 37.6125 12.3015C39.4878 12.2306 40.6312 13.2258 41.132 14.8039C41.7354 16.7051 41.1548 18.2275 39.4276 19.4999C39.1124 19.7321 39.0765 19.9169 39.2463 20.2055C39.37 20.4157 39.4552 20.6478 39.5678 20.8923C39.1502 21.0846 38.7564 21.2659 38.325 21.4647C38.1631 21.1132 38.0031 20.7658 37.8462 20.4252C34.9484 21.2664 33.2977 19.8283 32.5618 18.529C33.2621 18.1154 33.9634 17.7012 34.6827 17.2764C35.2409 17.9335 35.9072 18.3598 36.9256 18.4395C36.6958 17.9406 36.4981 17.5109 36.3001 17.0813C36.0296 16.4942 35.7483 15.9116 35.4937 15.3176C35.3999 15.0986 35.2826 15.0263 35.0238 15.0629C34.1985 15.1799 33.3781 15.1947 32.5928 14.9423C31.0022 14.431 30.2305 13.251 30.0334 11.7429C29.8494 10.3348 30.5373 9.18752 31.7756 8.32704C31.8583 8.26961 31.9418 8.21339 32.0232 8.15421C32.0533 8.1323 32.078 8.1035 32.1294 8.05479C32.0026 7.77922 31.8718 7.49545 31.7296 7.18654C32.1523 6.99189 32.5466 6.81033 32.9915 6.60547C33.0867 6.81199 33.1988 7.01607 33.2756 7.23316C33.357 7.46298 33.4907 7.48672 33.7285 7.41855C34.7894 7.11401 35.8088 7.14185 36.7451 7.67701C37.24 7.95973 37.6374 8.33821 37.9687 8.84448C37.2753 9.27419 36.6055 9.68942 35.9023 10.1253ZM36.7993 14.8099C37.2857 15.8662 37.7584 16.8927 38.2317 17.9205C38.9691 17.497 39.2956 16.5774 39.008 15.7638C38.7267 14.9678 37.8871 14.5893 36.7993 14.8099ZM32.9576 9.90318C32.3718 10.5017 32.2007 11.2826 32.4987 11.8331C32.8278 12.4409 33.5608 12.7855 34.2233 12.652C33.8084 11.7508 33.3924 10.8475 32.9576 9.90318Z" fill="white"/>
<path d="M30.608 3.24071C30.5089 3.28637 30.4091 3.33394 30.3114 3.38221C28.5156 4.26922 27.0008 5.57172 25.8708 7.17275C25.8387 7.21814 25.8493 7.28116 25.8941 7.31398L25.9068 7.32332C25.9529 7.3571 26.0172 7.3461 26.0501 7.2994C27.1366 5.74962 28.6062 4.44589 30.3993 3.56019C30.4954 3.5127 30.5935 3.46592 30.691 3.42096C36.5609 0.717759 43.5357 3.29405 46.239 9.16395C46.5444 9.82699 46.7808 10.5063 46.9523 11.1933C46.9663 11.2497 47.0243 11.283 47.08 11.2664C47.1322 11.2507 47.1633 11.1965 47.1499 11.1436C46.9715 10.4417 46.7281 9.75139 46.4193 9.08085C43.6702 3.11161 36.5773 0.491684 30.608 3.24071Z" fill="black"/>
<path d="M49.6259 14.7883C49.5765 14.7857 49.5347 14.8236 49.532 14.873C49.266 19.7202 46.4571 24.246 41.7724 26.5598C41.6576 26.6165 41.5403 26.6725 41.4238 26.7261C34.4431 29.9408 26.1485 26.8771 22.9337 19.8964C20.1826 13.9224 21.9399 7.09651 26.8726 3.18219C26.9114 3.15138 26.9181 3.09517 26.8874 3.05632L26.8792 3.04603C26.8483 3.00692 26.7912 3.0002 26.7522 3.03127C24.7149 4.65849 23.1631 6.82565 22.271 9.33936C21.0312 12.8329 21.2025 16.6116 22.7535 19.9795C24.3329 23.4092 27.1534 26.0186 30.6955 27.3269C34.2375 28.6353 38.077 28.4859 41.5068 26.9065C41.625 26.8521 41.7439 26.7954 41.8603 26.7378C45.1728 25.1017 47.6786 22.2802 48.9162 18.7932C49.3692 17.5167 49.6337 16.2022 49.7115 14.8836C49.7144 14.8336 49.6758 14.7908 49.6259 14.7883Z" fill="black"/>
<path d="M46.649 18.0274H46.6466C46.605 18.028 46.5682 18.0542 46.5538 18.0933C45.5568 20.8084 43.5592 23.1612 40.7674 24.5401C40.0015 24.9183 39.2137 25.204 38.4168 25.4025C38.3759 25.4127 38.3457 25.4471 38.3411 25.4891C38.3336 25.5586 38.3976 25.615 38.4654 25.598C39.2819 25.393 40.0825 25.0997 40.8553 24.718C43.61 23.3574 45.6915 21.0365 46.7453 18.1624C46.7695 18.0964 46.7194 18.0264 46.649 18.0274Z" fill="black"/>
</svg>
