<svg width="115" height="44" viewBox="0 0 115 44" fill="none" xmlns="http://www.w3.org/2000/svg">
<path d="M42.6482 26.1289C42.6482 27.8507 42.0408 29.2025 40.825 30.1852C39.6102 31.1678 38.0495 31.6591 36.1466 31.6591C33.554 31.6591 31.5289 30.8992 30.0705 29.3801C29.8885 29.1982 29.7863 29.0457 29.7664 28.9244C29.7456 28.803 29.827 28.6202 30.009 28.3776L31.1935 27.0405C31.4162 26.8585 31.5783 26.7771 31.6797 26.7979C31.781 26.8187 31.9431 26.9192 32.1658 27.102C32.6926 27.5682 33.32 27.9426 34.0496 28.2259C34.7784 28.5101 35.4473 28.6514 36.0548 28.6514C37.1076 28.6514 37.8927 28.4391 38.4092 28.0136C38.9256 27.5882 39.1838 27.011 39.1838 26.2823C39.1838 25.5535 38.8598 24.9409 38.2116 24.505C37.5634 24.07 36.5712 23.6194 35.2342 23.1532C33.7758 22.6671 32.5956 22.0242 31.6944 21.2243C30.7932 20.4245 30.3426 19.3058 30.3426 17.8674C30.3426 16.247 30.9093 14.9506 32.0436 13.9784C33.1779 13.0061 34.5756 12.52 36.2359 12.52C38.3424 12.52 40.1041 12.9862 41.5226 13.9177C41.8467 14.1404 41.877 14.4645 41.6136 14.89L40.8233 16.3484C40.6413 16.6724 40.3372 16.7435 39.9117 16.5607C38.5747 15.8518 37.41 15.4974 36.4179 15.4974C34.6354 15.4974 33.7446 16.2773 33.7446 17.8371C33.7446 18.3033 33.9517 18.7235 34.3676 19.0979C34.7827 19.4731 35.1371 19.7209 35.4309 19.8422C35.7246 19.9635 36.2255 20.1568 36.9352 20.4193C37.6839 20.6828 38.2263 20.8855 38.5608 21.0268C38.8953 21.1689 39.3814 21.4115 40.0192 21.7555C40.6569 22.1004 41.1283 22.4444 41.4316 22.7884C41.7358 23.1333 42.0139 23.5986 42.267 24.1862C42.52 24.7737 42.6465 25.4218 42.6465 26.1307L42.6482 26.1289Z" fill="#17499E"/>
<path d="M56.7133 28.1656L56.8346 30.961V31.052C56.8346 31.3562 56.6726 31.5078 56.3485 31.5078H54.0392C53.7151 31.5078 53.5427 31.3458 53.5227 31.0217L53.3711 28.1959C53.2697 26.4542 52.4898 25.5833 51.0315 25.5833C49.4518 25.5833 48.6615 26.4845 48.6615 28.2869V31.0815C48.6615 31.3657 48.5099 31.507 48.2057 31.507H45.7447C45.4813 31.507 45.3496 31.3657 45.3496 31.0815V12.6399C45.3496 12.3159 45.5013 12.1538 45.8054 12.1538H48.1754C48.4795 12.1538 48.6312 12.3055 48.6312 12.6096V22.2099C48.6312 22.372 48.6771 22.4638 48.7681 22.4837C48.8591 22.5045 48.9449 22.4733 49.0263 22.3928L52.5808 18.3521C52.7628 18.1701 53.0262 18.0783 53.3711 18.0783H56.3182C56.5002 18.0783 56.6171 18.139 56.6674 18.2603C56.7177 18.3816 56.683 18.4934 56.5608 18.5947C54.8997 20.4587 53.6441 21.846 52.7931 22.7567C52.7325 22.878 52.7021 22.9491 52.7021 22.969C52.7021 23.0704 52.7628 23.1206 52.8841 23.1206C55.2939 23.242 56.5703 24.9239 56.7125 28.1639L56.7133 28.1656Z" fill="#17499E"/>
<path d="M70.8423 18.7156L65.131 36.3972C64.9689 36.8227 64.6752 37.035 64.2497 37.035H62.2749C61.7679 37.035 61.6163 36.7716 61.8191 36.2447L63.1258 32.0221C63.2272 31.6772 63.1457 31.5057 62.8832 31.5057H62.5487C62.1639 31.5057 61.9109 31.2934 61.7887 30.8679L58.2645 18.6246C58.1432 18.1792 58.2949 17.9565 58.7203 17.9565H61.151C61.495 17.9565 61.7385 18.1489 61.8797 18.5337L63.2774 24.2146L64.1587 27.8905C64.1786 27.9919 64.2142 28.0577 64.2653 28.088C64.3155 28.1184 64.3667 28.1184 64.4169 28.088C64.4672 28.0577 64.5131 27.9919 64.5538 27.8905L65.6171 24.245L67.3796 18.5943C67.5009 18.1688 67.7643 17.9565 68.1699 17.9565H70.357C70.5598 17.9565 70.7114 18.0276 70.8128 18.1688C70.9142 18.311 70.9237 18.4929 70.8431 18.7156H70.8423Z" fill="#17499E"/>
<path d="M85.3322 20.206C85.3322 20.368 85.3019 20.4798 85.2412 20.5404C85.1805 20.6011 85.0592 20.6219 84.8764 20.6011C84.3296 20.5604 83.8331 20.5812 83.3877 20.6618C83.165 20.7025 83.0939 20.8238 83.1754 21.0266C83.4379 21.6141 83.5705 22.2215 83.5705 22.8498C83.5705 24.3081 83.0134 25.523 81.8999 26.4953C80.7855 27.4675 79.4285 27.9536 77.8289 27.9536H77.0993C76.7145 27.9744 76.3748 28.1261 76.082 28.4094C75.7882 28.6936 75.5698 29.0377 75.4286 29.4423C75.4078 29.5437 75.4182 29.6148 75.4589 29.6546C75.4996 29.6954 75.5499 29.7058 75.6106 29.685C76.6027 29.4831 77.6053 29.3808 78.6183 29.3808C79.7725 29.3808 80.8002 29.5021 81.7023 29.7456C82.6035 29.9882 83.373 30.4345 84.0116 31.0827C84.6494 31.7308 84.9691 32.5506 84.9691 33.5436C84.9691 34.3339 84.6806 35.1086 84.1034 35.8677C83.5263 36.6268 82.8426 37.1891 82.0532 37.5539C81.5463 37.7558 81.2127 37.7463 81.0507 37.5236L80.1087 36.0956C79.906 35.8321 80.0073 35.5687 80.4129 35.3053C80.6962 35.1433 80.9753 34.905 81.2482 34.5913C81.522 34.2767 81.6581 33.9578 81.6581 33.6346C81.6581 33.067 81.3539 32.6676 80.7465 32.4345C80.1391 32.2014 79.4502 32.0853 78.6807 32.0853C77.7084 32.0853 76.088 32.2473 73.8194 32.5714C73.394 32.632 73.0699 32.5203 72.8472 32.2369C72.4416 31.6901 72.2397 30.9302 72.2397 29.9588C72.2397 29.4727 72.3966 28.9562 72.7103 28.4094C73.024 27.8626 73.4243 27.4372 73.9104 27.133C74.1331 26.9918 74.1539 26.8393 73.9711 26.6772C72.8567 25.7656 72.3004 24.4901 72.3004 22.8489C72.3004 21.4512 72.8524 20.2614 73.9563 19.2788C75.0603 18.297 76.3514 17.8057 77.8297 17.8057C79.146 17.8057 80.321 18.1505 81.3539 18.8386C81.5558 18.9807 81.7387 18.9807 81.9007 18.8386C82.8322 18.1705 83.8045 17.836 84.8175 17.836C85.1615 17.836 85.3339 18.0084 85.3339 18.3524V20.206H85.3322ZM79.6209 24.5655C80.0463 24.1504 80.2586 23.6288 80.2586 23.0005C80.2586 22.3723 80.0455 21.8411 79.6209 21.4052C79.1954 20.9702 78.6486 20.7519 77.9805 20.7519C77.2509 20.7519 76.6634 20.9746 76.218 21.42C75.7726 21.8654 75.5499 22.3922 75.5499 22.9997C75.5499 23.6071 75.757 24.1236 76.1729 24.549C76.588 24.9745 77.14 25.1868 77.8289 25.1868C78.5984 25.1868 79.1963 24.9797 79.6209 24.5638V24.5655Z" fill="#17499E"/>
<path d="M95.3881 18.5637L94.8716 20.6902C94.8309 20.9129 94.7703 21.0498 94.6897 21.1001C94.6082 21.1512 94.4774 21.1659 94.2945 21.146C93.889 21.0446 93.5554 20.9943 93.2919 20.9943C91.5095 20.9943 90.6187 22.0784 90.6187 24.2456V31.0201C90.6187 31.3442 90.4463 31.5062 90.1022 31.5062H87.7635C87.4394 31.5062 87.2773 31.3546 87.2773 31.0505V18.5031C87.2773 18.179 87.4394 18.0169 87.7635 18.0169H89.8293C90.1525 18.0169 90.3154 18.1686 90.3154 18.4727V19.4147C90.3154 19.536 90.3501 19.6122 90.422 19.6425C90.493 19.6729 90.5684 19.6382 90.6499 19.536C91.5008 18.3618 92.5944 17.7734 93.9314 17.7734C94.3968 17.7734 94.7616 17.8246 95.025 17.9251C95.369 18.0265 95.4903 18.2396 95.3898 18.5628L95.3881 18.5637Z" fill="#17499E"/>
<path d="M100.614 14.3721C100.614 14.879 100.421 15.3244 100.037 15.7092C99.6518 16.0939 99.196 16.2863 98.6692 16.2863C98.1423 16.2863 97.6562 16.0991 97.2714 15.7239C96.8867 15.3496 96.6943 14.899 96.6943 14.3721C96.6943 13.8453 96.8815 13.3999 97.2567 13.0351C97.6311 12.6703 98.0921 12.4883 98.6388 12.4883C99.1856 12.4883 99.6509 12.6703 100.037 13.0351C100.421 13.3999 100.614 13.8453 100.614 14.3721ZM96.9682 31.0511V18.5038C96.9682 18.1797 97.1198 18.0176 97.424 18.0176H99.7939C100.117 18.0176 100.28 18.1797 100.28 18.5038V31.0208C100.28 31.3449 100.128 31.5069 99.8243 31.5069H97.4543C97.1302 31.5069 96.9682 31.3553 96.9682 31.0511Z" fill="#17499E"/>
<path d="M111.702 30.5946C111.763 30.9594 111.581 31.2228 111.155 31.3848C110.669 31.5469 109.798 31.6483 108.543 31.689C105.849 31.689 104.502 30.3727 104.502 27.7393V21.0558C104.502 20.8331 104.381 20.7213 104.137 20.7213H103.014C102.669 20.7213 102.497 20.5697 102.497 20.2655V18.5038C102.497 18.1798 102.659 18.0177 102.983 18.0177H104.046C104.33 18.0177 104.472 17.8765 104.472 17.5922V15.3133C104.472 14.9892 104.634 14.7864 104.958 14.7058L107.176 14.2197C107.581 14.1391 107.784 14.2804 107.784 14.6452V17.6226C107.784 17.886 107.925 18.0177 108.209 18.0177H110.61C110.934 18.0177 111.096 18.1798 111.096 18.5038V20.2352C111.096 20.5593 110.934 20.7213 110.61 20.7213H108.149C107.905 20.7213 107.784 20.8227 107.784 21.0254V27.1622C107.784 28.1752 108.219 28.6813 109.091 28.6813C109.556 28.6813 110.012 28.6206 110.458 28.4993C111.005 28.3979 111.318 28.56 111.4 28.9854L111.703 30.5954L111.702 30.5946Z" fill="#17499E"/>
<path d="M22.9266 34.7798L19.6061 20.0019C19.5757 19.8676 19.4085 19.82 19.3123 19.9188L2.71994 37.0042C2.5735 37.1558 2.77194 37.3889 2.94351 37.2676C6.79958 34.5285 15.6651 29.4844 22.6528 34.9557C22.7802 35.0554 22.9622 34.9384 22.9266 34.7807V34.7798Z" fill="#0B897B"/>
<path d="M9.54759 8.15098L12.8681 22.9288C12.8985 23.0631 13.0657 23.1108 13.1619 23.012L29.7551 5.92659C29.9016 5.77495 29.7031 5.54185 29.5316 5.66317C25.6755 8.40228 16.81 13.4464 9.82228 7.97508C9.6949 7.87542 9.51293 7.99241 9.54846 8.15012L9.54759 8.15098Z" fill="#17499E"/>
</svg>
