<svg width="506" height="763" viewBox="0 0 506 763" fill="none" xmlns="http://www.w3.org/2000/svg">
<path d="M273.56 727.872L490.775 135.421C501.4 106.457 485.09 74.6057 455.38 66.2636C446.196 63.7208 437.013 61.1779 427.752 58.6795C314.735 28.1901 192.499 8.6126 65.6943 4.27332C32.9263 3.1458 6.65883 31.2231 10.7553 63.7665L91.2429 699.145C94.1677 722.222 111.616 741.374 134.621 744.77C159.886 748.514 184.817 753.736 209.187 760.311C209.37 760.36 209.492 760.393 209.675 760.442C236.3 767.625 264.05 753.673 273.576 727.811L273.56 727.872Z" fill="#A16AFA"/>
<path d="M109.76 145.486C109.631 144.186 109.078 143.177 108.101 142.458C107.124 141.738 105.798 141.379 104.123 141.379C102.985 141.379 102.024 141.54 101.24 141.862C100.456 142.173 99.8552 142.608 99.4365 143.166C99.0284 143.725 98.8244 144.358 98.8244 145.067C98.803 145.657 98.9264 146.173 99.1949 146.613C99.474 147.053 99.8552 147.434 100.338 147.756C100.822 148.068 101.38 148.342 102.013 148.578C102.647 148.803 103.323 148.997 104.043 149.158L107.006 149.866C108.445 150.188 109.766 150.618 110.968 151.155C112.171 151.692 113.212 152.352 114.093 153.136C114.973 153.919 115.655 154.843 116.138 155.906C116.632 156.969 116.884 158.187 116.895 159.562C116.884 161.58 116.369 163.331 115.349 164.812C114.34 166.283 112.879 167.427 110.968 168.243C109.068 169.048 106.775 169.451 104.091 169.451C101.428 169.451 99.109 169.043 97.1333 168.227C95.1685 167.411 93.6331 166.203 92.5271 164.603C91.432 162.992 90.8575 161.001 90.8038 158.628H97.5521C97.6273 159.734 97.944 160.657 98.5023 161.398C99.0714 162.128 99.8284 162.681 100.773 163.057C101.729 163.422 102.808 163.604 104.01 163.604C105.192 163.604 106.217 163.433 107.087 163.089C107.967 162.745 108.649 162.268 109.132 161.656C109.615 161.044 109.857 160.34 109.857 159.546C109.857 158.805 109.637 158.182 109.196 157.677C108.767 157.173 108.134 156.743 107.296 156.389C106.469 156.035 105.455 155.713 104.252 155.423L100.66 154.521C97.8796 153.844 95.6838 152.787 94.0733 151.348C92.4627 149.909 91.6628 147.971 91.6735 145.534C91.6628 143.537 92.1943 141.792 93.268 140.299C94.3524 138.807 95.8395 137.642 97.7293 136.805C99.619 135.967 101.766 135.548 104.172 135.548C106.62 135.548 108.756 135.967 110.582 136.805C112.418 137.642 113.846 138.807 114.866 140.299C115.886 141.792 116.412 143.521 116.444 145.486H109.76ZM121.411 135.999H130.012L139.095 158.161H139.482L148.565 135.999H157.166V168.984H150.401V147.515H150.127L141.592 168.823H136.985L128.449 147.434H128.176V168.984H121.411V135.999ZM162.737 168.984V135.999H184.963V141.749H169.71V149.609H183.819V155.358H169.71V163.234H185.027V168.984H162.737ZM210.786 151.3L204.505 151.686C204.398 151.149 204.167 150.666 203.813 150.237C203.458 149.796 202.991 149.447 202.412 149.19C201.842 148.921 201.161 148.787 200.366 148.787C199.303 148.787 198.407 149.013 197.676 149.464C196.946 149.904 196.581 150.494 196.581 151.235C196.581 151.826 196.817 152.325 197.29 152.733C197.762 153.141 198.573 153.469 199.722 153.715L204.199 154.617C206.604 155.111 208.397 155.906 209.579 157.001C210.76 158.096 211.35 159.535 211.35 161.317C211.35 162.939 210.872 164.361 209.917 165.585C208.972 166.809 207.673 167.765 206.019 168.452C204.376 169.129 202.481 169.467 200.334 169.467C197.059 169.467 194.45 168.785 192.507 167.421C190.574 166.047 189.441 164.179 189.108 161.817L195.857 161.462C196.061 162.461 196.554 163.223 197.338 163.749C198.122 164.265 199.126 164.522 200.35 164.522C201.553 164.522 202.519 164.292 203.249 163.83C203.99 163.357 204.366 162.751 204.376 162.01C204.366 161.387 204.103 160.877 203.587 160.48C203.072 160.072 202.277 159.76 201.204 159.546L196.919 158.692C194.504 158.209 192.705 157.371 191.524 156.18C190.354 154.988 189.769 153.469 189.769 151.622C189.769 150.033 190.198 148.664 191.057 147.515C191.927 146.366 193.145 145.48 194.713 144.857C196.291 144.235 198.138 143.923 200.253 143.923C203.378 143.923 205.837 144.584 207.63 145.904C209.434 147.225 210.486 149.023 210.786 151.3Z" fill="white"/>
<path d="M90.7386 223.597V210.506H94.9638C95.8928 210.506 96.6683 210.675 97.2905 211.011C97.9169 211.344 98.3878 211.806 98.7031 212.398C99.0227 212.986 99.1825 213.662 99.1825 214.425C99.1825 215.187 99.0227 215.861 98.7031 216.444C98.3878 217.028 97.919 217.484 97.2969 217.812C96.6747 218.14 95.9034 218.305 94.983 218.305H91.3842V217.212H94.951C95.6328 217.212 96.1996 217.099 96.6513 216.873C97.1072 216.647 97.446 216.325 97.6676 215.908C97.8935 215.49 98.0064 214.996 98.0064 214.425C98.0064 213.854 97.8935 213.355 97.6676 212.929C97.4418 212.498 97.1009 212.166 96.6449 211.932C96.1932 211.697 95.6222 211.58 94.9318 211.58H91.9339V223.597H90.7386ZM96.5107 217.691L99.7322 223.597H98.3516L95.1619 217.691H96.5107ZM105.547 223.802C104.631 223.802 103.838 223.589 103.169 223.163C102.5 222.732 101.982 222.138 101.616 221.379C101.254 220.616 101.073 219.739 101.073 218.746C101.073 217.757 101.254 216.879 101.616 216.112C101.982 215.341 102.487 214.738 103.131 214.303C103.779 213.864 104.526 213.645 105.374 213.645C105.907 213.645 106.421 213.743 106.915 213.939C107.409 214.131 107.852 214.427 108.244 214.827C108.641 215.224 108.954 215.724 109.184 216.329C109.414 216.93 109.529 217.642 109.529 218.464V219.027H101.859V218.023H108.366C108.366 217.393 108.238 216.826 107.982 216.323C107.731 215.816 107.379 215.415 106.928 215.121C106.48 214.827 105.962 214.68 105.374 214.68C104.752 214.68 104.205 214.846 103.732 215.179C103.259 215.511 102.888 215.95 102.619 216.496C102.355 217.041 102.221 217.638 102.217 218.285V218.886C102.217 219.666 102.351 220.348 102.619 220.932C102.892 221.511 103.278 221.961 103.776 222.28C104.275 222.6 104.865 222.76 105.547 222.76C106.011 222.76 106.418 222.687 106.768 222.542C107.122 222.398 107.418 222.204 107.656 221.961C107.899 221.714 108.082 221.443 108.206 221.149L109.286 221.501C109.137 221.914 108.892 222.295 108.551 222.645C108.215 222.994 107.793 223.275 107.286 223.489C106.783 223.697 106.203 223.802 105.547 223.802ZM113 210.506V223.597H111.862V210.506H113ZM115.849 223.597V213.779H116.993V223.597H115.849ZM116.43 212.091C116.196 212.091 115.996 212.013 115.829 211.855C115.663 211.693 115.58 211.499 115.58 211.273C115.58 211.047 115.663 210.856 115.829 210.698C115.996 210.536 116.196 210.455 116.43 210.455C116.665 210.455 116.865 210.536 117.031 210.698C117.197 210.856 117.28 211.047 117.28 211.273C117.28 211.499 117.197 211.693 117.031 211.855C116.865 212.013 116.665 212.091 116.43 212.091ZM122.569 223.821C121.977 223.821 121.436 223.706 120.946 223.476C120.456 223.241 120.066 222.905 119.776 222.466C119.486 222.023 119.341 221.486 119.341 220.855C119.341 220.369 119.433 219.96 119.616 219.628C119.799 219.295 120.059 219.023 120.396 218.81C120.733 218.596 121.131 218.428 121.591 218.305C122.052 218.181 122.559 218.085 123.113 218.017C123.662 217.949 124.127 217.889 124.506 217.838C124.89 217.787 125.182 217.706 125.382 217.595C125.582 217.484 125.682 217.305 125.682 217.058V216.828C125.682 216.159 125.482 215.633 125.081 215.249C124.685 214.861 124.114 214.667 123.368 214.667C122.661 214.667 122.084 214.823 121.636 215.134C121.193 215.445 120.882 215.812 120.703 216.234L119.623 215.844C119.844 215.307 120.151 214.878 120.543 214.559C120.935 214.235 121.374 214.003 121.86 213.862C122.346 213.717 122.838 213.645 123.336 213.645C123.711 213.645 124.101 213.694 124.506 213.792C124.915 213.89 125.294 214.06 125.644 214.303C125.993 214.542 126.277 214.876 126.494 215.307C126.711 215.733 126.82 216.274 126.82 216.93V223.597H125.682V222.044H125.612C125.476 222.334 125.273 222.615 125.005 222.888C124.736 223.16 124.4 223.384 123.995 223.559C123.59 223.734 123.115 223.821 122.569 223.821ZM122.723 222.779C123.328 222.779 123.852 222.645 124.295 222.376C124.738 222.108 125.079 221.752 125.318 221.309C125.561 220.861 125.682 220.369 125.682 219.832V218.413C125.597 218.494 125.454 218.567 125.254 218.631C125.058 218.694 124.83 218.752 124.57 218.803C124.314 218.85 124.059 218.89 123.803 218.925C123.547 218.959 123.317 218.989 123.113 219.014C122.559 219.082 122.086 219.189 121.694 219.334C121.302 219.479 121.001 219.679 120.792 219.935C120.584 220.186 120.479 220.51 120.479 220.906C120.479 221.503 120.692 221.965 121.118 222.293C121.544 222.617 122.079 222.779 122.723 222.779ZM129.909 223.597V210.506H131.053V215.652H131.155C131.283 215.358 131.466 215.055 131.705 214.744C131.948 214.433 132.265 214.173 132.657 213.964C133.053 213.751 133.552 213.645 134.153 213.645C134.958 213.645 135.666 213.858 136.275 214.284C136.884 214.706 137.36 215.298 137.7 216.061C138.041 216.819 138.212 217.704 138.212 218.714C138.212 219.728 138.041 220.616 137.7 221.379C137.364 222.142 136.891 222.736 136.281 223.163C135.676 223.589 134.973 223.802 134.172 223.802C133.575 223.802 133.077 223.695 132.676 223.482C132.28 223.269 131.96 223.007 131.717 222.696C131.475 222.381 131.287 222.074 131.155 221.775H131.014V223.597H129.909ZM131.034 218.694C131.034 219.487 131.151 220.19 131.385 220.804C131.624 221.413 131.965 221.893 132.408 222.242C132.855 222.587 133.396 222.76 134.031 222.76C134.683 222.76 135.235 222.581 135.687 222.223C136.139 221.861 136.482 221.373 136.716 220.759C136.95 220.145 137.068 219.457 137.068 218.694C137.068 217.94 136.95 217.261 136.716 216.655C136.486 216.05 136.145 215.571 135.693 215.217C135.242 214.859 134.688 214.68 134.031 214.68C133.392 214.68 132.849 214.853 132.401 215.198C131.958 215.539 131.619 216.012 131.385 216.617C131.151 217.218 131.034 217.91 131.034 218.694ZM141.674 210.506V223.597H140.536V210.506H141.674ZM148.48 223.802C147.564 223.802 146.771 223.589 146.102 223.163C145.433 222.732 144.915 222.138 144.549 221.379C144.186 220.616 144.005 219.739 144.005 218.746C144.005 217.757 144.186 216.879 144.549 216.112C144.915 215.341 145.42 214.738 146.064 214.303C146.711 213.864 147.459 213.645 148.307 213.645C148.84 213.645 149.353 213.743 149.848 213.939C150.342 214.131 150.785 214.427 151.177 214.827C151.574 215.224 151.887 215.724 152.117 216.329C152.347 216.93 152.462 217.642 152.462 218.464V219.027H144.792V218.023H151.299C151.299 217.393 151.171 216.826 150.915 216.323C150.664 215.816 150.312 215.415 149.86 215.121C149.413 214.827 148.895 214.68 148.307 214.68C147.685 214.68 147.137 214.846 146.664 215.179C146.191 215.511 145.821 215.95 145.552 216.496C145.288 217.041 145.154 217.638 145.15 218.285V218.886C145.15 219.666 145.284 220.348 145.552 220.932C145.825 221.511 146.211 221.961 146.709 222.28C147.208 222.6 147.798 222.76 148.48 222.76C148.944 222.76 149.351 222.687 149.701 222.542C150.054 222.398 150.351 222.204 150.589 221.961C150.832 221.714 151.015 221.443 151.139 221.149L152.219 221.501C152.07 221.914 151.825 222.295 151.484 222.645C151.147 222.994 150.726 223.275 150.218 223.489C149.716 223.697 149.136 223.802 148.48 223.802ZM156.687 221.807L156.572 222.491C156.499 222.952 156.397 223.459 156.265 224.013C156.133 224.567 155.996 225.093 155.856 225.591C155.715 226.09 155.594 226.491 155.491 226.793H154.616C154.671 226.503 154.741 226.135 154.827 225.687C154.916 225.24 155.008 224.743 155.102 224.198C155.195 223.657 155.28 223.099 155.357 222.523L155.447 221.807H156.687ZM168.247 223.802C167.37 223.802 166.605 223.582 165.953 223.143C165.305 222.704 164.802 222.104 164.444 221.341C164.086 220.578 163.907 219.709 163.907 218.733C163.907 217.748 164.088 216.873 164.451 216.106C164.817 215.339 165.324 214.738 165.972 214.303C166.62 213.864 167.372 213.645 168.228 213.645C168.885 213.645 169.479 213.773 170.012 214.028C170.544 214.28 170.983 214.636 171.328 215.096C171.678 215.552 171.897 216.084 171.987 216.694H170.836C170.717 216.14 170.429 215.667 169.973 215.275C169.522 214.878 168.946 214.68 168.247 214.68C167.621 214.68 167.067 214.851 166.586 215.192C166.104 215.528 165.727 215.999 165.454 216.604C165.186 217.205 165.051 217.902 165.051 218.694C165.051 219.491 165.184 220.197 165.448 220.81C165.712 221.42 166.083 221.897 166.56 222.242C167.042 222.587 167.604 222.76 168.247 222.76C168.682 222.76 169.078 222.679 169.436 222.517C169.799 222.351 170.101 222.116 170.344 221.814C170.591 221.511 170.757 221.151 170.843 220.734H171.993C171.908 221.326 171.697 221.854 171.36 222.319C171.028 222.779 170.596 223.141 170.063 223.405C169.534 223.67 168.929 223.802 168.247 223.802ZM178.073 223.802C177.225 223.802 176.475 223.587 175.823 223.156C175.176 222.726 174.668 222.131 174.302 221.373C173.935 220.61 173.752 219.73 173.752 218.733C173.752 217.727 173.935 216.843 174.302 216.08C174.668 215.313 175.176 214.716 175.823 214.29C176.475 213.86 177.225 213.645 178.073 213.645C178.921 213.645 179.669 213.86 180.317 214.29C180.965 214.721 181.472 215.317 181.838 216.08C182.209 216.843 182.394 217.727 182.394 218.733C182.394 219.73 182.211 220.61 181.845 221.373C181.478 222.131 180.969 222.726 180.317 223.156C179.669 223.587 178.921 223.802 178.073 223.802ZM178.073 222.76C178.755 222.76 179.332 222.577 179.805 222.21C180.278 221.844 180.636 221.356 180.879 220.746C181.127 220.137 181.25 219.466 181.25 218.733C181.25 218 181.127 217.327 180.879 216.713C180.636 216.099 180.278 215.607 179.805 215.236C179.332 214.866 178.755 214.68 178.073 214.68C177.396 214.68 176.818 214.866 176.341 215.236C175.868 215.607 175.508 216.099 175.261 216.713C175.018 217.327 174.896 218 174.896 218.733C174.896 219.466 175.018 220.137 175.261 220.746C175.508 221.356 175.868 221.844 176.341 222.21C176.814 222.577 177.391 222.76 178.073 222.76ZM191.314 215.933L190.272 216.227C190.17 215.933 190.025 215.667 189.837 215.428C189.65 215.189 189.405 215 189.102 214.859C188.804 214.719 188.433 214.648 187.99 214.648C187.325 214.648 186.78 214.806 186.354 215.121C185.928 215.437 185.715 215.844 185.715 216.342C185.715 216.764 185.859 217.107 186.149 217.371C186.443 217.631 186.895 217.838 187.504 217.991L188.987 218.356C189.81 218.556 190.425 218.873 190.835 219.308C191.248 219.743 191.455 220.288 191.455 220.944C191.455 221.498 191.301 221.991 190.994 222.421C190.688 222.851 190.259 223.19 189.71 223.437C189.164 223.68 188.531 223.802 187.811 223.802C186.852 223.802 186.062 223.587 185.44 223.156C184.817 222.721 184.419 222.095 184.244 221.277L185.337 221.008C185.478 221.592 185.753 222.033 186.162 222.332C186.575 222.63 187.119 222.779 187.792 222.779C188.546 222.779 189.149 222.611 189.601 222.274C190.053 221.933 190.278 221.507 190.278 220.996C190.278 220.599 190.146 220.267 189.882 219.998C189.618 219.726 189.217 219.525 188.68 219.398L187.076 219.014C186.224 218.81 185.593 218.486 185.184 218.042C184.775 217.599 184.57 217.05 184.57 216.393C184.57 215.852 184.717 215.377 185.011 214.968C185.305 214.555 185.71 214.231 186.226 213.996C186.741 213.762 187.33 213.645 187.99 213.645C188.889 213.645 189.607 213.849 190.144 214.258C190.685 214.663 191.075 215.221 191.314 215.933ZM197.638 213.779V214.77H192.953V213.779H197.638ZM194.417 211.427H195.561V221.034C195.561 221.443 195.631 221.765 195.772 221.999C195.913 222.229 196.096 222.393 196.322 222.491C196.548 222.585 196.788 222.632 197.044 222.632C197.193 222.632 197.321 222.623 197.428 222.606C197.534 222.585 197.628 222.564 197.709 222.542L197.952 223.572C197.841 223.614 197.704 223.653 197.543 223.687C197.381 223.725 197.18 223.744 196.942 223.744C196.524 223.744 196.121 223.653 195.734 223.469C195.35 223.286 195.035 223.013 194.788 222.651C194.54 222.289 194.417 221.839 194.417 221.302V211.427ZM204.995 217.448V218.522H199.549V217.448H204.995ZM211.647 223.802C210.731 223.802 209.939 223.589 209.27 223.163C208.6 222.732 208.083 222.138 207.716 221.379C207.354 220.616 207.173 219.739 207.173 218.746C207.173 217.757 207.354 216.879 207.716 216.112C208.083 215.341 208.588 214.738 209.231 214.303C209.879 213.864 210.627 213.645 211.475 213.645C212.007 213.645 212.521 213.743 213.015 213.939C213.51 214.131 213.953 214.427 214.345 214.827C214.741 215.224 215.054 215.724 215.284 216.329C215.515 216.93 215.63 217.642 215.63 218.464V219.027H207.959V218.023H214.466C214.466 217.393 214.338 216.826 214.083 216.323C213.831 215.816 213.48 215.415 213.028 215.121C212.581 214.827 212.063 214.68 211.475 214.68C210.853 214.68 210.305 214.846 209.832 215.179C209.359 215.511 208.988 215.95 208.72 216.496C208.456 217.041 208.321 217.638 208.317 218.285V218.886C208.317 219.666 208.451 220.348 208.72 220.932C208.993 221.511 209.378 221.961 209.877 222.28C210.375 222.6 210.966 222.76 211.647 222.76C212.112 222.76 212.519 222.687 212.868 222.542C213.222 222.398 213.518 222.204 213.757 221.961C214 221.714 214.183 221.443 214.306 221.149L215.387 221.501C215.238 221.914 214.993 222.295 214.652 222.645C214.315 222.994 213.893 223.275 213.386 223.489C212.883 223.697 212.304 223.802 211.647 223.802ZM222.002 213.779V214.77H217.176V213.779H222.002ZM218.685 223.597V212.341C218.685 211.812 218.806 211.367 219.049 211.005C219.296 210.643 219.618 210.368 220.014 210.18C220.41 209.993 220.83 209.899 221.273 209.899C221.572 209.899 221.819 209.925 222.015 209.976C222.215 210.023 222.373 210.069 222.488 210.116L222.155 211.114C222.07 211.088 221.966 211.058 221.842 211.024C221.719 210.99 221.563 210.973 221.376 210.973C220.881 210.973 220.5 211.111 220.231 211.388C219.963 211.665 219.829 212.062 219.829 212.577L219.822 223.597H218.685ZM228.138 213.779V214.77H223.312V213.779H228.138ZM224.821 223.597V212.341C224.821 211.812 224.942 211.367 225.185 211.005C225.432 210.643 225.754 210.368 226.15 210.18C226.546 209.993 226.966 209.899 227.409 209.899C227.708 209.899 227.955 209.925 228.151 209.976C228.351 210.023 228.509 210.069 228.624 210.116L228.291 211.114C228.206 211.088 228.102 211.058 227.978 211.024C227.855 210.99 227.699 210.973 227.512 210.973C227.017 210.973 226.636 211.111 226.367 211.388C226.099 211.665 225.965 212.062 225.965 212.577L225.958 223.597H224.821ZM230.247 223.597V213.779H231.391V223.597H230.247ZM230.829 212.091C230.594 212.091 230.394 212.013 230.228 211.855C230.062 211.693 229.978 211.499 229.978 211.273C229.978 211.047 230.062 210.856 230.228 210.698C230.394 210.536 230.594 210.455 230.829 210.455C231.063 210.455 231.263 210.536 231.429 210.698C231.596 210.856 231.679 211.047 231.679 211.273C231.679 211.499 231.596 211.693 231.429 211.855C231.263 212.013 231.063 212.091 230.829 212.091ZM238.061 223.802C237.183 223.802 236.418 223.582 235.766 223.143C235.118 222.704 234.615 222.104 234.257 221.341C233.9 220.578 233.721 219.709 233.721 218.733C233.721 217.748 233.902 216.873 234.264 216.106C234.63 215.339 235.137 214.738 235.785 214.303C236.433 213.864 237.185 213.645 238.042 213.645C238.698 213.645 239.292 213.773 239.825 214.028C240.358 214.28 240.797 214.636 241.142 215.096C241.491 215.552 241.711 216.084 241.8 216.694H240.65C240.53 216.14 240.243 215.667 239.787 215.275C239.335 214.878 238.76 214.68 238.061 214.68C237.434 214.68 236.88 214.851 236.399 215.192C235.917 215.528 235.54 215.999 235.267 216.604C234.999 217.205 234.865 217.902 234.865 218.694C234.865 219.491 234.997 220.197 235.261 220.81C235.525 221.42 235.896 221.897 236.373 222.242C236.855 222.587 237.417 222.76 238.061 222.76C238.495 222.76 238.892 222.679 239.25 222.517C239.612 222.351 239.914 222.116 240.157 221.814C240.405 221.511 240.571 221.151 240.656 220.734H241.807C241.721 221.326 241.51 221.854 241.174 222.319C240.841 222.779 240.409 223.141 239.876 223.405C239.348 223.67 238.743 223.802 238.061 223.802ZM244.083 223.597V213.779H245.227V223.597H244.083ZM244.665 212.091C244.431 212.091 244.23 212.013 244.064 211.855C243.898 211.693 243.815 211.499 243.815 211.273C243.815 211.047 243.898 210.856 244.064 210.698C244.23 210.536 244.431 210.455 244.665 210.455C244.899 210.455 245.1 210.536 245.266 210.698C245.432 210.856 245.515 211.047 245.515 211.273C245.515 211.499 245.432 211.693 245.266 211.855C245.1 212.013 244.899 212.091 244.665 212.091ZM252.031 223.802C251.115 223.802 250.323 223.589 249.653 223.163C248.984 222.732 248.467 222.138 248.1 221.379C247.738 220.616 247.557 219.739 247.557 218.746C247.557 217.757 247.738 216.879 248.1 216.112C248.467 215.341 248.972 214.738 249.615 214.303C250.263 213.864 251.011 213.645 251.859 213.645C252.391 213.645 252.905 213.743 253.399 213.939C253.894 214.131 254.337 214.427 254.729 214.827C255.125 215.224 255.438 215.724 255.668 216.329C255.899 216.93 256.014 217.642 256.014 218.464V219.027H248.343V218.023H254.85C254.85 217.393 254.722 216.826 254.467 216.323C254.215 215.816 253.864 215.415 253.412 215.121C252.965 214.827 252.447 214.68 251.859 214.68C251.237 214.68 250.689 214.846 250.216 215.179C249.743 215.511 249.372 215.95 249.104 216.496C248.84 217.041 248.705 217.638 248.701 218.285V218.886C248.701 219.666 248.835 220.348 249.104 220.932C249.376 221.511 249.762 221.961 250.261 222.28C250.759 222.6 251.35 222.76 252.031 222.76C252.496 222.76 252.903 222.687 253.252 222.542C253.606 222.398 253.902 222.204 254.141 221.961C254.384 221.714 254.567 221.443 254.69 221.149L255.771 221.501C255.622 221.914 255.376 222.295 255.036 222.645C254.699 222.994 254.277 223.275 253.77 223.489C253.267 223.697 252.688 223.802 252.031 223.802ZM259.484 217.461V223.597H258.346V213.779H259.452V215.319H259.554C259.784 214.817 260.142 214.414 260.628 214.111C261.118 213.805 261.723 213.651 262.444 213.651C263.104 213.651 263.684 213.79 264.182 214.067C264.685 214.339 265.075 214.742 265.352 215.275C265.633 215.807 265.774 216.462 265.774 217.237V223.597H264.636V217.307C264.636 216.502 264.41 215.865 263.958 215.396C263.511 214.927 262.91 214.693 262.156 214.693C261.64 214.693 261.182 214.804 260.782 215.025C260.381 215.247 260.064 215.567 259.829 215.984C259.599 216.398 259.484 216.89 259.484 217.461ZM272.463 213.779V214.77H267.777V213.779H272.463ZM269.241 211.427H270.385V221.034C270.385 221.443 270.456 221.765 270.596 221.999C270.737 222.229 270.92 222.393 271.146 222.491C271.372 222.585 271.612 222.632 271.868 222.632C272.017 222.632 272.145 222.623 272.252 222.606C272.358 222.585 272.452 222.564 272.533 222.542L272.776 223.572C272.665 223.614 272.529 223.653 272.367 223.687C272.205 223.725 272.005 223.744 271.766 223.744C271.348 223.744 270.946 223.653 270.558 223.469C270.174 223.286 269.859 223.013 269.612 222.651C269.365 222.289 269.241 221.839 269.241 221.302V211.427ZM283.595 223.802C282.717 223.802 281.952 223.582 281.3 223.143C280.653 222.704 280.15 222.104 279.792 221.341C279.434 220.578 279.255 219.709 279.255 218.733C279.255 217.748 279.436 216.873 279.798 216.106C280.165 215.339 280.672 214.738 281.32 214.303C281.967 213.864 282.719 213.645 283.576 213.645C284.232 213.645 284.827 213.773 285.359 214.028C285.892 214.28 286.331 214.636 286.676 215.096C287.026 215.552 287.245 216.084 287.334 216.694H286.184C286.065 216.14 285.777 215.667 285.321 215.275C284.869 214.878 284.294 214.68 283.595 214.68C282.969 214.68 282.415 214.851 281.933 215.192C281.452 215.528 281.075 215.999 280.802 216.604C280.533 217.205 280.399 217.902 280.399 218.694C280.399 219.491 280.531 220.197 280.795 220.81C281.06 221.42 281.43 221.897 281.908 222.242C282.389 222.587 282.952 222.76 283.595 222.76C284.03 222.76 284.426 222.679 284.784 222.517C285.146 222.351 285.449 222.116 285.692 221.814C285.939 221.511 286.105 221.151 286.19 220.734H287.341C287.256 221.326 287.045 221.854 286.708 222.319C286.376 222.779 285.943 223.141 285.41 223.405C284.882 223.67 284.277 223.802 283.595 223.802ZM290.743 210.506V223.597H289.605V210.506H290.743ZM297.395 223.802C296.547 223.802 295.797 223.587 295.145 223.156C294.497 222.726 293.99 222.131 293.623 221.373C293.257 220.61 293.074 219.73 293.074 218.733C293.074 217.727 293.257 216.843 293.623 216.08C293.99 215.313 294.497 214.716 295.145 214.29C295.797 213.86 296.547 213.645 297.395 213.645C298.243 213.645 298.991 213.86 299.638 214.29C300.286 214.721 300.793 215.317 301.16 216.08C301.53 216.843 301.716 217.727 301.716 218.733C301.716 219.73 301.532 220.61 301.166 221.373C300.8 222.131 300.29 222.726 299.638 223.156C298.991 223.587 298.243 223.802 297.395 223.802ZM297.395 222.76C298.077 222.76 298.654 222.577 299.127 222.21C299.6 221.844 299.958 221.356 300.201 220.746C300.448 220.137 300.572 219.466 300.572 218.733C300.572 218 300.448 217.327 300.201 216.713C299.958 216.099 299.6 215.607 299.127 215.236C298.654 214.866 298.077 214.68 297.395 214.68C296.717 214.68 296.14 214.866 295.662 215.236C295.189 215.607 294.829 216.099 294.582 216.713C294.339 217.327 294.218 218 294.218 218.733C294.218 219.466 294.339 220.137 294.582 220.746C294.829 221.356 295.189 221.844 295.662 222.21C296.135 222.577 296.713 222.76 297.395 222.76ZM310.277 219.845V213.779H311.415V223.597H310.277V221.967H310.188C309.958 222.47 309.594 222.89 309.095 223.226C308.596 223.559 307.987 223.725 307.267 223.725C306.64 223.725 306.084 223.589 305.598 223.316C305.113 223.039 304.731 222.634 304.454 222.101C304.177 221.569 304.039 220.915 304.039 220.139V213.779H305.177V220.069C305.177 220.836 305.402 221.454 305.854 221.922C306.306 222.387 306.885 222.619 307.593 222.619C308.036 222.619 308.462 222.513 308.871 222.3C309.28 222.087 309.617 221.775 309.881 221.366C310.145 220.953 310.277 220.446 310.277 219.845ZM317.788 223.802C316.982 223.802 316.277 223.589 315.672 223.163C315.067 222.736 314.594 222.142 314.253 221.379C313.916 220.616 313.748 219.728 313.748 218.714C313.748 217.704 313.916 216.819 314.253 216.061C314.594 215.298 315.069 214.706 315.678 214.284C316.288 213.858 316.997 213.645 317.807 213.645C318.403 213.645 318.9 213.751 319.296 213.964C319.692 214.173 320.01 214.433 320.249 214.744C320.487 215.055 320.673 215.358 320.805 215.652H320.907V210.506H322.051V223.597H320.939V221.775H320.805C320.673 222.074 320.485 222.381 320.242 222.696C319.999 223.007 319.678 223.269 319.277 223.482C318.881 223.695 318.384 223.802 317.788 223.802ZM317.922 222.76C318.557 222.76 319.098 222.587 319.545 222.242C319.993 221.893 320.334 221.413 320.568 220.804C320.807 220.19 320.926 219.487 320.926 218.694C320.926 217.91 320.809 217.218 320.575 216.617C320.34 216.012 319.999 215.539 319.552 215.198C319.104 214.853 318.561 214.68 317.922 214.68C317.266 214.68 316.712 214.859 316.26 215.217C315.813 215.571 315.472 216.05 315.237 216.655C315.007 217.261 314.892 217.94 314.892 218.694C314.892 219.457 315.009 220.145 315.244 220.759C315.478 221.373 315.819 221.861 316.266 222.223C316.718 222.581 317.27 222.76 317.922 222.76ZM90.5149 246.597V236.779H91.6591V246.597H90.5149ZM91.0966 235.091C90.8622 235.091 90.6619 235.013 90.4957 234.855C90.3295 234.693 90.2464 234.499 90.2464 234.273C90.2464 234.047 90.3295 233.856 90.4957 233.698C90.6619 233.536 90.8622 233.455 91.0966 233.455C91.331 233.455 91.5313 233.536 91.6974 233.698C91.8636 233.856 91.9467 234.047 91.9467 234.273C91.9467 234.499 91.8636 234.693 91.6974 234.855C91.5313 235.013 91.331 235.091 91.0966 235.091ZM95.6313 240.461V246.597H94.4935V236.779H95.5994V238.319H95.7016C95.9317 237.817 96.2897 237.414 96.7755 237.111C97.2656 236.805 97.8707 236.651 98.5908 236.651C99.2513 236.651 99.8309 236.79 100.329 237.067C100.832 237.339 101.222 237.742 101.499 238.275C101.78 238.807 101.921 239.462 101.921 240.237V246.597H100.783V240.307C100.783 239.502 100.557 238.865 100.106 238.396C99.6583 237.927 99.0575 237.693 98.3032 237.693C97.7876 237.693 97.3295 237.804 96.9289 238.025C96.5283 238.247 96.2109 238.567 95.9765 238.984C95.7464 239.398 95.6313 239.89 95.6313 240.461ZM108.783 236.779V237.77H103.957V236.779H108.783ZM105.465 246.597V235.341C105.465 234.812 105.587 234.367 105.829 234.005C106.077 233.643 106.398 233.368 106.795 233.18C107.191 232.993 107.611 232.899 108.054 232.899C108.352 232.899 108.599 232.925 108.795 232.976C108.996 233.023 109.153 233.069 109.268 233.116L108.936 234.114C108.851 234.088 108.746 234.058 108.623 234.024C108.499 233.99 108.344 233.973 108.156 233.973C107.662 233.973 107.28 234.111 107.012 234.388C106.743 234.665 106.609 235.062 106.609 235.577L106.603 246.597H105.465ZM110.879 246.597V236.779H111.985V238.288H112.068C112.264 237.793 112.605 237.395 113.09 237.092C113.58 236.785 114.134 236.632 114.752 236.632C114.846 236.632 114.95 236.634 115.065 236.638C115.181 236.643 115.276 236.647 115.353 236.651V237.808C115.302 237.8 115.212 237.787 115.085 237.77C114.957 237.753 114.818 237.744 114.669 237.744C114.158 237.744 113.702 237.853 113.301 238.07C112.905 238.283 112.592 238.579 112.362 238.959C112.132 239.338 112.016 239.77 112.016 240.256V246.597H110.879ZM119.862 246.821C119.27 246.821 118.729 246.706 118.239 246.476C117.749 246.241 117.359 245.905 117.069 245.466C116.779 245.023 116.634 244.486 116.634 243.855C116.634 243.369 116.726 242.96 116.909 242.628C117.092 242.295 117.352 242.023 117.689 241.81C118.026 241.596 118.424 241.428 118.884 241.305C119.345 241.181 119.852 241.085 120.406 241.017C120.955 240.949 121.42 240.889 121.799 240.838C122.183 240.787 122.474 240.706 122.675 240.595C122.875 240.484 122.975 240.305 122.975 240.058V239.828C122.975 239.159 122.775 238.633 122.374 238.249C121.978 237.861 121.407 237.667 120.661 237.667C119.954 237.667 119.376 237.823 118.929 238.134C118.486 238.445 118.175 238.812 117.996 239.234L116.916 238.844C117.137 238.307 117.444 237.878 117.836 237.559C118.228 237.235 118.667 237.003 119.153 236.862C119.639 236.717 120.131 236.645 120.629 236.645C121.004 236.645 121.394 236.694 121.799 236.792C122.208 236.89 122.587 237.06 122.937 237.303C123.286 237.542 123.57 237.876 123.787 238.307C124.004 238.733 124.113 239.274 124.113 239.93V246.597H122.975V245.044H122.905C122.769 245.334 122.566 245.615 122.298 245.888C122.029 246.16 121.693 246.384 121.288 246.559C120.883 246.734 120.408 246.821 119.862 246.821ZM120.016 245.779C120.621 245.779 121.145 245.645 121.588 245.376C122.031 245.108 122.372 244.752 122.611 244.309C122.854 243.861 122.975 243.369 122.975 242.832V241.413C122.89 241.494 122.747 241.567 122.547 241.631C122.351 241.694 122.123 241.752 121.863 241.803C121.607 241.85 121.352 241.89 121.096 241.925C120.84 241.959 120.61 241.989 120.406 242.014C119.852 242.082 119.379 242.189 118.987 242.334C118.595 242.479 118.294 242.679 118.085 242.935C117.876 243.186 117.772 243.51 117.772 243.906C117.772 244.503 117.985 244.965 118.411 245.293C118.837 245.617 119.372 245.779 120.016 245.779ZM133.562 238.933L132.52 239.227C132.417 238.933 132.273 238.667 132.085 238.428C131.898 238.189 131.653 238 131.35 237.859C131.052 237.719 130.681 237.648 130.238 237.648C129.573 237.648 129.028 237.806 128.601 238.121C128.175 238.437 127.962 238.844 127.962 239.342C127.962 239.764 128.107 240.107 128.397 240.371C128.691 240.631 129.143 240.838 129.752 240.991L131.235 241.356C132.057 241.556 132.673 241.873 133.082 242.308C133.496 242.743 133.702 243.288 133.702 243.944C133.702 244.498 133.549 244.991 133.242 245.421C132.935 245.851 132.507 246.19 131.957 246.437C131.412 246.68 130.779 246.802 130.059 246.802C129.1 246.802 128.309 246.587 127.687 246.156C127.065 245.721 126.667 245.095 126.492 244.277L127.585 244.008C127.726 244.592 128.001 245.033 128.41 245.332C128.823 245.63 129.366 245.779 130.04 245.779C130.794 245.779 131.397 245.611 131.849 245.274C132.3 244.933 132.526 244.507 132.526 243.996C132.526 243.599 132.394 243.267 132.13 242.998C131.866 242.726 131.465 242.525 130.928 242.398L129.324 242.014C128.471 241.81 127.841 241.486 127.432 241.042C127.023 240.599 126.818 240.05 126.818 239.393C126.818 238.852 126.965 238.377 127.259 237.968C127.553 237.555 127.958 237.231 128.474 236.996C128.989 236.762 129.577 236.645 130.238 236.645C131.137 236.645 131.855 236.849 132.392 237.258C132.933 237.663 133.323 238.221 133.562 238.933ZM139.886 236.779V237.77H135.201V236.779H139.886ZM136.665 234.427H137.809V244.034C137.809 244.443 137.879 244.765 138.02 244.999C138.16 245.229 138.343 245.393 138.569 245.491C138.795 245.585 139.036 245.632 139.292 245.632C139.441 245.632 139.569 245.623 139.675 245.606C139.782 245.585 139.875 245.564 139.956 245.542L140.199 246.572C140.089 246.614 139.952 246.653 139.79 246.687C139.628 246.725 139.428 246.744 139.189 246.744C138.772 246.744 138.369 246.653 137.981 246.469C137.598 246.286 137.282 246.013 137.035 245.651C136.788 245.289 136.665 244.839 136.665 244.302V234.427ZM142.295 246.597V236.779H143.401V238.288H143.484C143.68 237.793 144.021 237.395 144.507 237.092C144.997 236.785 145.551 236.632 146.169 236.632C146.263 236.632 146.367 236.634 146.482 236.638C146.597 236.643 146.693 236.647 146.77 236.651V237.808C146.719 237.8 146.629 237.787 146.501 237.77C146.374 237.753 146.235 237.744 146.086 237.744C145.575 237.744 145.119 237.853 144.718 238.07C144.322 238.283 144.009 238.579 143.778 238.959C143.548 239.338 143.433 239.77 143.433 240.256V246.597H142.295ZM154.776 242.845V236.779H155.913V246.597H154.776V244.967H154.686C154.456 245.47 154.092 245.89 153.593 246.226C153.094 246.559 152.485 246.725 151.765 246.725C151.138 246.725 150.582 246.589 150.097 246.316C149.611 246.039 149.229 245.634 148.952 245.101C148.675 244.569 148.537 243.915 148.537 243.139V236.779H149.675V243.069C149.675 243.836 149.901 244.454 150.352 244.922C150.804 245.387 151.383 245.619 152.091 245.619C152.534 245.619 152.96 245.513 153.369 245.3C153.778 245.087 154.115 244.775 154.379 244.366C154.643 243.953 154.776 243.446 154.776 242.845ZM162.586 246.802C161.708 246.802 160.943 246.582 160.291 246.143C159.644 245.704 159.141 245.104 158.783 244.341C158.425 243.578 158.246 242.709 158.246 241.733C158.246 240.748 158.427 239.873 158.789 239.106C159.156 238.339 159.663 237.738 160.311 237.303C160.958 236.864 161.71 236.645 162.567 236.645C163.223 236.645 163.818 236.773 164.35 237.028C164.883 237.28 165.322 237.636 165.667 238.096C166.017 238.552 166.236 239.084 166.326 239.694H165.175C165.056 239.14 164.768 238.667 164.312 238.275C163.86 237.878 163.285 237.68 162.586 237.68C161.96 237.68 161.406 237.851 160.924 238.192C160.443 238.528 160.066 238.999 159.793 239.604C159.524 240.205 159.39 240.902 159.39 241.694C159.39 242.491 159.522 243.197 159.786 243.81C160.051 244.42 160.421 244.897 160.899 245.242C161.38 245.587 161.943 245.76 162.586 245.76C163.021 245.76 163.417 245.679 163.775 245.517C164.137 245.351 164.44 245.116 164.683 244.814C164.93 244.511 165.096 244.151 165.181 243.734H166.332C166.247 244.326 166.036 244.854 165.699 245.319C165.367 245.779 164.934 246.141 164.402 246.405C163.873 246.67 163.268 246.802 162.586 246.802ZM172.463 236.779V237.77H167.778V236.779H172.463ZM169.241 234.427H170.386V244.034C170.386 244.443 170.456 244.765 170.597 244.999C170.737 245.229 170.92 245.393 171.146 245.491C171.372 245.585 171.613 245.632 171.869 245.632C172.018 245.632 172.146 245.623 172.252 245.606C172.359 245.585 172.452 245.564 172.533 245.542L172.776 246.572C172.665 246.614 172.529 246.653 172.367 246.687C172.205 246.725 172.005 246.744 171.766 246.744C171.349 246.744 170.946 246.653 170.558 246.469C170.175 246.286 169.859 246.013 169.612 245.651C169.365 245.289 169.241 244.839 169.241 244.302V234.427ZM181.111 242.845V236.779H182.249V246.597H181.111V244.967H181.022C180.791 245.47 180.427 245.89 179.929 246.226C179.43 246.559 178.821 246.725 178.1 246.725C177.474 246.725 176.918 246.589 176.432 246.316C175.946 246.039 175.565 245.634 175.288 245.101C175.011 244.569 174.872 243.915 174.872 243.139V236.779H176.01V243.069C176.01 243.836 176.236 244.454 176.688 244.922C177.139 245.387 177.719 245.619 178.426 245.619C178.87 245.619 179.296 245.513 179.705 245.3C180.114 245.087 180.451 244.775 180.715 244.366C180.979 243.953 181.111 243.446 181.111 242.845ZM185.086 246.597V236.779H186.192V238.288H186.275C186.471 237.793 186.812 237.395 187.298 237.092C187.788 236.785 188.342 236.632 188.96 236.632C189.054 236.632 189.158 236.634 189.273 236.638C189.388 236.643 189.484 236.647 189.561 236.651V237.808C189.51 237.8 189.42 237.787 189.292 237.77C189.165 237.753 189.026 237.744 188.877 237.744C188.366 237.744 187.91 237.853 187.509 238.07C187.113 238.283 186.8 238.579 186.569 238.959C186.339 239.338 186.224 239.77 186.224 240.256V246.597H185.086ZM194.999 246.802C194.082 246.802 193.29 246.589 192.621 246.163C191.952 245.732 191.434 245.138 191.067 244.379C190.705 243.616 190.524 242.739 190.524 241.746C190.524 240.757 190.705 239.879 191.067 239.112C191.434 238.341 191.939 237.738 192.582 237.303C193.23 236.864 193.978 236.645 194.826 236.645C195.359 236.645 195.872 236.743 196.366 236.939C196.861 237.131 197.304 237.427 197.696 237.827C198.092 238.224 198.405 238.724 198.636 239.329C198.866 239.93 198.981 240.642 198.981 241.464V242.027H191.31V241.023H197.817C197.817 240.393 197.69 239.826 197.434 239.323C197.182 238.816 196.831 238.415 196.379 238.121C195.932 237.827 195.414 237.68 194.826 237.68C194.204 237.68 193.656 237.846 193.183 238.179C192.71 238.511 192.339 238.95 192.071 239.496C191.807 240.041 191.673 240.638 191.668 241.285V241.886C191.668 242.666 191.803 243.348 192.071 243.932C192.344 244.511 192.729 244.961 193.228 245.28C193.727 245.6 194.317 245.76 194.999 245.76C195.463 245.76 195.87 245.687 196.219 245.542C196.573 245.398 196.869 245.204 197.108 244.961C197.351 244.714 197.534 244.443 197.658 244.149L198.738 244.501C198.589 244.914 198.344 245.295 198.003 245.645C197.666 245.994 197.244 246.275 196.737 246.489C196.234 246.697 195.655 246.802 194.999 246.802ZM210.069 236.779V237.77H205.383V236.779H210.069ZM206.847 234.427H207.991V244.034C207.991 244.443 208.061 244.765 208.202 244.999C208.343 245.229 208.526 245.393 208.752 245.491C208.978 245.585 209.218 245.632 209.474 245.632C209.623 245.632 209.751 245.623 209.858 245.606C209.964 245.585 210.058 245.564 210.139 245.542L210.382 246.572C210.271 246.614 210.135 246.653 209.973 246.687C209.811 246.725 209.61 246.744 209.372 246.744C208.954 246.744 208.551 246.653 208.164 246.469C207.78 246.286 207.465 246.013 207.218 245.651C206.971 245.289 206.847 244.839 206.847 244.302V234.427ZM213.827 240.461V246.597H212.689V233.506H213.827V238.319H213.929C214.159 237.812 214.515 237.408 214.996 237.105C215.482 236.802 216.096 236.651 216.837 236.651C217.502 236.651 218.086 236.788 218.589 237.06C219.092 237.333 219.484 237.736 219.765 238.268C220.046 238.801 220.187 239.457 220.187 240.237V246.597H219.043V240.307C219.043 239.498 218.817 238.861 218.365 238.396C217.918 237.927 217.312 237.693 216.55 237.693C216.025 237.693 215.559 237.804 215.15 238.025C214.741 238.247 214.417 238.567 214.178 238.984C213.944 239.398 213.827 239.89 213.827 240.461ZM225.751 246.821C225.158 246.821 224.617 246.706 224.127 246.476C223.637 246.241 223.247 245.905 222.957 245.466C222.667 245.023 222.523 244.486 222.523 243.855C222.523 243.369 222.614 242.96 222.797 242.628C222.981 242.295 223.241 242.023 223.577 241.81C223.914 241.596 224.312 241.428 224.773 241.305C225.233 241.181 225.74 241.085 226.294 241.017C226.844 240.949 227.308 240.889 227.687 240.838C228.071 240.787 228.363 240.706 228.563 240.595C228.763 240.484 228.863 240.305 228.863 240.058V239.828C228.863 239.159 228.663 238.633 228.263 238.249C227.866 237.861 227.295 237.667 226.55 237.667C225.842 237.667 225.265 237.823 224.817 238.134C224.374 238.445 224.063 238.812 223.884 239.234L222.804 238.844C223.025 238.307 223.332 237.878 223.724 237.559C224.116 237.235 224.555 237.003 225.041 236.862C225.527 236.717 226.019 236.645 226.518 236.645C226.893 236.645 227.283 236.694 227.687 236.792C228.096 236.89 228.476 237.06 228.825 237.303C229.175 237.542 229.458 237.876 229.675 238.307C229.893 238.733 230.001 239.274 230.001 239.93V246.597H228.863V245.044H228.793C228.657 245.334 228.454 245.615 228.186 245.888C227.917 246.16 227.581 246.384 227.176 246.559C226.771 246.734 226.296 246.821 225.751 246.821ZM225.904 245.779C226.509 245.779 227.033 245.645 227.476 245.376C227.92 245.108 228.26 244.752 228.499 244.309C228.742 243.861 228.863 243.369 228.863 242.832V241.413C228.778 241.494 228.635 241.567 228.435 241.631C228.239 241.694 228.011 241.752 227.751 241.803C227.496 241.85 227.24 241.89 226.984 241.925C226.729 241.959 226.498 241.989 226.294 242.014C225.74 242.082 225.267 242.189 224.875 242.334C224.483 242.479 224.182 242.679 223.974 242.935C223.765 243.186 223.66 243.51 223.66 243.906C223.66 244.503 223.873 244.965 224.3 245.293C224.726 245.617 225.26 245.779 225.904 245.779ZM236.72 236.779V237.77H232.035V236.779H236.72ZM233.499 234.427H234.643V244.034C234.643 244.443 234.713 244.765 234.854 244.999C234.995 245.229 235.178 245.393 235.404 245.491C235.63 245.585 235.87 245.632 236.126 245.632C236.275 245.632 236.403 245.623 236.51 245.606C236.616 245.585 236.71 245.564 236.791 245.542L237.034 246.572C236.923 246.614 236.787 246.653 236.625 246.687C236.463 246.725 236.262 246.744 236.024 246.744C235.606 246.744 235.203 246.653 234.816 246.469C234.432 246.286 234.117 246.013 233.87 245.651C233.622 245.289 233.499 244.839 233.499 244.302V234.427ZM247.763 250.484C247.094 250.484 246.508 250.396 246.006 250.221C245.503 250.051 245.079 249.817 244.734 249.518C244.388 249.22 244.12 248.886 243.928 248.515L244.861 247.901C245.002 248.148 245.19 248.391 245.424 248.63C245.663 248.868 245.972 249.067 246.351 249.224C246.734 249.382 247.205 249.461 247.763 249.461C248.633 249.461 249.334 249.243 249.866 248.809C250.403 248.374 250.672 247.699 250.672 246.783V244.571H250.57C250.437 244.869 250.248 245.167 250.001 245.466C249.754 245.76 249.43 246.005 249.029 246.201C248.633 246.397 248.141 246.495 247.553 246.495C246.768 246.495 246.072 246.301 245.462 245.913C244.857 245.525 244.38 244.971 244.031 244.251C243.685 243.527 243.513 242.664 243.513 241.663C243.513 240.67 243.681 239.796 244.018 239.042C244.359 238.288 244.834 237.699 245.443 237.278C246.053 236.856 246.762 236.645 247.572 236.645C248.173 236.645 248.671 236.751 249.067 236.964C249.464 237.173 249.781 237.433 250.02 237.744C250.263 238.055 250.452 238.358 250.589 238.652H250.704V236.779H251.816V246.853C251.816 247.684 251.639 248.368 251.285 248.905C250.932 249.442 250.45 249.838 249.841 250.094C249.232 250.354 248.539 250.484 247.763 250.484ZM247.687 245.453C248.317 245.453 248.857 245.302 249.304 244.999C249.751 244.692 250.094 244.253 250.333 243.682C250.572 243.111 250.691 242.432 250.691 241.643C250.691 240.876 250.574 240.197 250.339 239.604C250.105 239.008 249.764 238.539 249.317 238.198C248.874 237.853 248.33 237.68 247.687 237.68C247.031 237.68 246.477 237.857 246.025 238.211C245.573 238.564 245.232 239.042 245.002 239.643C244.772 240.239 244.657 240.906 244.657 241.643C244.657 242.393 244.774 243.056 245.008 243.631C245.243 244.202 245.586 244.65 246.038 244.974C246.489 245.293 247.039 245.453 247.687 245.453ZM254.654 246.597V236.779H255.759V238.288H255.843C256.039 237.793 256.38 237.395 256.865 237.092C257.355 236.785 257.909 236.632 258.527 236.632C258.621 236.632 258.725 236.634 258.84 236.638C258.956 236.643 259.051 236.647 259.128 236.651V237.808C259.077 237.8 258.987 237.787 258.86 237.77C258.732 237.753 258.593 237.744 258.444 237.744C257.933 237.744 257.477 237.853 257.076 238.07C256.68 238.283 256.367 238.579 256.137 238.959C255.907 239.338 255.791 239.77 255.791 240.256V246.597H254.654ZM264.412 246.802C263.564 246.802 262.814 246.587 262.162 246.156C261.515 245.726 261.007 245.131 260.641 244.373C260.274 243.61 260.091 242.73 260.091 241.733C260.091 240.727 260.274 239.843 260.641 239.08C261.007 238.313 261.515 237.716 262.162 237.29C262.814 236.86 263.564 236.645 264.412 236.645C265.26 236.645 266.008 236.86 266.656 237.29C267.304 237.721 267.811 238.317 268.177 239.08C268.548 239.843 268.733 240.727 268.733 241.733C268.733 242.73 268.55 243.61 268.184 244.373C267.817 245.131 267.308 245.726 266.656 246.156C266.008 246.587 265.26 246.802 264.412 246.802ZM264.412 245.76C265.094 245.76 265.672 245.577 266.145 245.21C266.618 244.844 266.975 244.356 267.218 243.746C267.466 243.137 267.589 242.466 267.589 241.733C267.589 241 267.466 240.327 267.218 239.713C266.975 239.099 266.618 238.607 266.145 238.236C265.672 237.866 265.094 237.68 264.412 237.68C263.735 237.68 263.157 237.866 262.68 238.236C262.207 238.607 261.847 239.099 261.6 239.713C261.357 240.327 261.235 241 261.235 241.733C261.235 242.466 261.357 243.137 261.6 243.746C261.847 244.356 262.207 244.844 262.68 245.21C263.153 245.577 263.73 245.76 264.412 245.76ZM272.902 246.597L269.936 236.779H271.138L273.465 244.878H273.548L275.868 236.779H277.076L279.377 244.859H279.467L281.793 236.779H282.995L280.029 246.597H278.853L276.526 238.55H276.405L274.078 246.597H272.902ZM291.629 238.933L290.587 239.227C290.485 238.933 290.34 238.667 290.152 238.428C289.965 238.189 289.72 238 289.417 237.859C289.119 237.719 288.748 237.648 288.305 237.648C287.64 237.648 287.095 237.806 286.669 238.121C286.242 238.437 286.029 238.844 286.029 239.342C286.029 239.764 286.174 240.107 286.464 240.371C286.758 240.631 287.21 240.838 287.819 240.991L289.302 241.356C290.125 241.556 290.74 241.873 291.149 242.308C291.563 242.743 291.769 243.288 291.769 243.944C291.769 244.498 291.616 244.991 291.309 245.421C291.002 245.851 290.574 246.19 290.024 246.437C289.479 246.68 288.846 246.802 288.126 246.802C287.167 246.802 286.377 246.587 285.754 246.156C285.132 245.721 284.734 245.095 284.559 244.277L285.652 244.008C285.793 244.592 286.068 245.033 286.477 245.332C286.89 245.63 287.433 245.779 288.107 245.779C288.861 245.779 289.464 245.611 289.916 245.274C290.367 244.933 290.593 244.507 290.593 243.996C290.593 243.599 290.461 243.267 290.197 242.998C289.933 242.726 289.532 242.525 288.995 242.398L287.391 242.014C286.539 241.81 285.908 241.486 285.499 241.042C285.09 240.599 284.885 240.05 284.885 239.393C284.885 238.852 285.032 238.377 285.326 237.968C285.62 237.555 286.025 237.231 286.541 236.996C287.056 236.762 287.644 236.645 288.305 236.645C289.204 236.645 289.922 236.849 290.459 237.258C291 237.663 291.39 238.221 291.629 238.933ZM301.154 246.597L298.188 236.779H299.389L301.716 244.878H301.799L304.12 236.779H305.328L307.629 244.859H307.718L310.045 236.779H311.247L308.281 246.597H307.105L304.778 238.55H304.656L302.33 246.597H301.154ZM313.297 246.597V236.779H314.441V246.597H313.297ZM313.878 235.091C313.644 235.091 313.444 235.013 313.277 234.855C313.111 234.693 313.028 234.499 313.028 234.273C313.028 234.047 313.111 233.856 313.277 233.698C313.444 233.536 313.644 233.455 313.878 233.455C314.113 233.455 314.313 233.536 314.479 233.698C314.645 233.856 314.728 234.047 314.728 234.273C314.728 234.499 314.645 234.693 314.479 234.855C314.313 235.013 314.113 235.091 313.878 235.091ZM321.142 236.779V237.77H316.457V236.779H321.142ZM317.921 234.427H319.065V244.034C319.065 244.443 319.135 244.765 319.276 244.999C319.416 245.229 319.6 245.393 319.826 245.491C320.051 245.585 320.292 245.632 320.548 245.632C320.697 245.632 320.825 245.623 320.931 245.606C321.038 245.585 321.132 245.564 321.213 245.542L321.456 246.572C321.345 246.614 321.208 246.653 321.046 246.687C320.885 246.725 320.684 246.744 320.446 246.744C320.028 246.744 319.625 246.653 319.237 246.469C318.854 246.286 318.539 246.013 318.291 245.651C318.044 245.289 317.921 244.839 317.921 244.302V234.427ZM324.9 240.461V246.597H323.763V233.506H324.9V238.319H325.003C325.233 237.812 325.589 237.408 326.07 237.105C326.556 236.802 327.17 236.651 327.911 236.651C328.576 236.651 329.16 236.788 329.662 237.06C330.165 237.333 330.557 237.736 330.839 238.268C331.12 238.801 331.26 239.457 331.26 240.237V246.597H330.116V240.307C330.116 239.498 329.89 238.861 329.439 238.396C328.991 237.927 328.386 237.693 327.623 237.693C327.099 237.693 326.633 237.804 326.224 238.025C325.814 238.247 325.491 238.567 325.252 238.984C325.018 239.398 324.9 239.89 324.9 240.461ZM91.2947 273.279C91.0689 273.279 90.858 273.258 90.6619 273.215C90.4659 273.172 90.3104 273.126 90.1953 273.074L90.5021 272.071C90.8899 272.19 91.2351 272.233 91.5376 272.199C91.8402 272.169 92.1087 272.033 92.343 271.79C92.5774 271.551 92.7862 271.185 92.9695 270.69L93.3274 269.693L89.7159 259.779H90.9496L93.8643 268.095H93.9538L96.8686 259.779H98.1023L93.9474 271.15C93.7727 271.623 93.5575 272.018 93.3018 272.333C93.0462 272.653 92.75 272.889 92.4134 273.042C92.081 273.2 91.7081 273.279 91.2947 273.279ZM103.618 269.802C102.77 269.802 102.02 269.587 101.368 269.156C100.72 268.726 100.213 268.131 99.8469 267.373C99.4804 266.61 99.2972 265.73 99.2972 264.733C99.2972 263.727 99.4804 262.843 99.8469 262.08C100.213 261.313 100.72 260.716 101.368 260.29C102.02 259.86 102.77 259.645 103.618 259.645C104.466 259.645 105.214 259.86 105.862 260.29C106.51 260.721 107.017 261.317 107.383 262.08C107.754 262.843 107.939 263.727 107.939 264.733C107.939 265.73 107.756 266.61 107.389 267.373C107.023 268.131 106.514 268.726 105.862 269.156C105.214 269.587 104.466 269.802 103.618 269.802ZM103.618 268.76C104.3 268.76 104.877 268.577 105.35 268.21C105.823 267.844 106.181 267.356 106.424 266.746C106.671 266.137 106.795 265.466 106.795 264.733C106.795 264 106.671 263.327 106.424 262.713C106.181 262.099 105.823 261.607 105.35 261.236C104.877 260.866 104.3 260.68 103.618 260.68C102.941 260.68 102.363 260.866 101.886 261.236C101.413 261.607 101.053 262.099 100.806 262.713C100.563 263.327 100.441 264 100.441 264.733C100.441 265.466 100.563 266.137 100.806 266.746C101.053 267.356 101.413 267.844 101.886 268.21C102.359 268.577 102.936 268.76 103.618 268.76ZM116.501 265.845V259.779H117.639V269.597H116.501V267.967H116.411C116.181 268.47 115.817 268.89 115.318 269.226C114.82 269.559 114.21 269.725 113.49 269.725C112.864 269.725 112.308 269.589 111.822 269.316C111.336 269.039 110.955 268.634 110.678 268.101C110.401 267.569 110.262 266.915 110.262 266.139V259.779H111.4V266.069C111.4 266.836 111.626 267.454 112.078 267.922C112.529 268.387 113.109 268.619 113.816 268.619C114.259 268.619 114.686 268.513 115.095 268.3C115.504 268.087 115.84 267.775 116.105 267.366C116.369 266.953 116.501 266.446 116.501 265.845ZM120.476 269.597V259.779H121.582V261.288H121.665C121.861 260.793 122.202 260.395 122.688 260.092C123.178 259.785 123.732 259.632 124.35 259.632C124.444 259.632 124.548 259.634 124.663 259.638C124.778 259.643 124.874 259.647 124.951 259.651V260.808C124.9 260.8 124.81 260.787 124.682 260.77C124.554 260.753 124.416 260.744 124.267 260.744C123.755 260.744 123.299 260.853 122.899 261.07C122.503 261.283 122.189 261.579 121.959 261.959C121.729 262.338 121.614 262.77 121.614 263.256V269.597H120.476ZM131.842 269.597V256.506H132.986V261.652H133.089C133.216 261.358 133.4 261.055 133.638 260.744C133.881 260.433 134.199 260.173 134.591 259.964C134.987 259.751 135.486 259.645 136.086 259.645C136.892 259.645 137.599 259.858 138.209 260.284C138.818 260.706 139.293 261.298 139.634 262.061C139.975 262.819 140.145 263.704 140.145 264.714C140.145 265.728 139.975 266.616 139.634 267.379C139.297 268.142 138.824 268.736 138.215 269.163C137.61 269.589 136.907 269.802 136.106 269.802C135.509 269.802 135.01 269.695 134.61 269.482C134.214 269.269 133.894 269.007 133.651 268.696C133.408 268.381 133.221 268.074 133.089 267.775H132.948V269.597H131.842ZM132.967 264.694C132.967 265.487 133.084 266.19 133.319 266.804C133.557 267.413 133.898 267.893 134.341 268.242C134.789 268.587 135.33 268.76 135.965 268.76C136.617 268.76 137.169 268.581 137.621 268.223C138.072 267.861 138.415 267.373 138.65 266.759C138.884 266.145 139.001 265.457 139.001 264.694C139.001 263.94 138.884 263.261 138.65 262.655C138.42 262.05 138.079 261.571 137.627 261.217C137.175 260.859 136.621 260.68 135.965 260.68C135.326 260.68 134.782 260.853 134.335 261.198C133.892 261.539 133.553 262.012 133.319 262.617C133.084 263.218 132.967 263.91 132.967 264.694ZM148.709 265.845V259.779H149.847V269.597H148.709V267.967H148.619C148.389 268.47 148.025 268.89 147.526 269.226C147.028 269.559 146.418 269.725 145.698 269.725C145.072 269.725 144.516 269.589 144.03 269.316C143.544 269.039 143.163 268.634 142.886 268.101C142.609 267.569 142.47 266.915 142.47 266.139V259.779H143.608V266.069C143.608 266.836 143.834 267.454 144.285 267.922C144.737 268.387 145.317 268.619 146.024 268.619C146.467 268.619 146.893 268.513 147.302 268.3C147.712 268.087 148.048 267.775 148.312 267.366C148.577 266.953 148.709 266.446 148.709 265.845ZM159.281 261.933L158.239 262.227C158.137 261.933 157.992 261.667 157.804 261.428C157.617 261.189 157.372 261 157.069 260.859C156.771 260.719 156.4 260.648 155.957 260.648C155.292 260.648 154.747 260.806 154.321 261.121C153.894 261.437 153.681 261.844 153.681 262.342C153.681 262.764 153.826 263.107 154.116 263.371C154.41 263.631 154.862 263.838 155.471 263.991L156.954 264.356C157.776 264.556 158.392 264.873 158.801 265.308C159.215 265.743 159.421 266.288 159.421 266.944C159.421 267.498 159.268 267.991 158.961 268.421C158.654 268.851 158.226 269.19 157.676 269.437C157.131 269.68 156.498 269.802 155.778 269.802C154.819 269.802 154.029 269.587 153.406 269.156C152.784 268.721 152.386 268.095 152.211 267.277L153.304 267.008C153.445 267.592 153.72 268.033 154.129 268.332C154.542 268.63 155.085 268.779 155.759 268.779C156.513 268.779 157.116 268.611 157.568 268.274C158.019 267.933 158.245 267.507 158.245 266.996C158.245 266.599 158.113 266.267 157.849 265.998C157.585 265.726 157.184 265.525 156.647 265.398L155.043 265.014C154.191 264.81 153.56 264.486 153.151 264.042C152.742 263.599 152.537 263.05 152.537 262.393C152.537 261.852 152.684 261.377 152.978 260.968C153.272 260.555 153.677 260.231 154.193 259.996C154.708 259.762 155.296 259.645 155.957 259.645C156.856 259.645 157.574 259.849 158.111 260.258C158.652 260.663 159.042 261.221 159.281 261.933ZM161.751 269.597V259.779H162.895V269.597H161.751ZM162.333 258.091C162.098 258.091 161.898 258.013 161.732 257.855C161.565 257.693 161.482 257.499 161.482 257.273C161.482 257.047 161.565 256.856 161.732 256.698C161.898 256.536 162.098 256.455 162.333 256.455C162.567 256.455 162.767 256.536 162.933 256.698C163.1 256.856 163.183 257.047 163.183 257.273C163.183 257.499 163.1 257.693 162.933 257.855C162.767 258.013 162.567 258.091 162.333 258.091ZM166.867 263.461V269.597H165.729V259.779H166.835V261.319H166.938C167.168 260.817 167.526 260.414 168.011 260.111C168.501 259.805 169.107 259.651 169.827 259.651C170.487 259.651 171.067 259.79 171.565 260.067C172.068 260.339 172.458 260.742 172.735 261.275C173.016 261.807 173.157 262.462 173.157 263.237V269.597H172.019V263.307C172.019 262.502 171.793 261.865 171.342 261.396C170.894 260.927 170.293 260.693 169.539 260.693C169.023 260.693 168.565 260.804 168.165 261.025C167.764 261.247 167.447 261.567 167.212 261.984C166.982 262.398 166.867 262.89 166.867 263.461ZM179.948 269.802C179.032 269.802 178.239 269.589 177.57 269.163C176.901 268.732 176.384 268.138 176.017 267.379C175.655 266.616 175.474 265.739 175.474 264.746C175.474 263.757 175.655 262.879 176.017 262.112C176.384 261.341 176.888 260.738 177.532 260.303C178.18 259.864 178.928 259.645 179.776 259.645C180.308 259.645 180.822 259.743 181.316 259.939C181.81 260.131 182.254 260.427 182.646 260.827C183.042 261.224 183.355 261.724 183.585 262.329C183.815 262.93 183.93 263.642 183.93 264.464V265.027H176.26V264.023H182.767C182.767 263.393 182.639 262.826 182.384 262.323C182.132 261.816 181.781 261.415 181.329 261.121C180.881 260.827 180.364 260.68 179.776 260.68C179.153 260.68 178.606 260.846 178.133 261.179C177.66 261.511 177.289 261.95 177.021 262.496C176.756 263.041 176.622 263.638 176.618 264.285V264.886C176.618 265.666 176.752 266.348 177.021 266.932C177.293 267.511 177.679 267.961 178.178 268.28C178.676 268.6 179.266 268.76 179.948 268.76C180.413 268.76 180.82 268.687 181.169 268.542C181.523 268.398 181.819 268.204 182.058 267.961C182.3 267.714 182.484 267.443 182.607 267.149L183.687 267.501C183.538 267.914 183.293 268.295 182.952 268.645C182.616 268.994 182.194 269.275 181.687 269.489C181.184 269.697 180.604 269.802 179.948 269.802ZM192.86 261.933L191.818 262.227C191.715 261.933 191.571 261.667 191.383 261.428C191.196 261.189 190.951 261 190.648 260.859C190.35 260.719 189.979 260.648 189.536 260.648C188.871 260.648 188.326 260.806 187.899 261.121C187.473 261.437 187.26 261.844 187.26 262.342C187.26 262.764 187.405 263.107 187.695 263.371C187.989 263.631 188.441 263.838 189.05 263.991L190.533 264.356C191.355 264.556 191.971 264.873 192.38 265.308C192.794 265.743 193 266.288 193 266.944C193 267.498 192.847 267.991 192.54 268.421C192.233 268.851 191.805 269.19 191.255 269.437C190.71 269.68 190.077 269.802 189.357 269.802C188.398 269.802 187.608 269.587 186.985 269.156C186.363 268.721 185.965 268.095 185.79 267.277L186.883 267.008C187.024 267.592 187.299 268.033 187.708 268.332C188.121 268.63 188.664 268.779 189.338 268.779C190.092 268.779 190.695 268.611 191.147 268.274C191.598 267.933 191.824 267.507 191.824 266.996C191.824 266.599 191.692 266.267 191.428 265.998C191.164 265.726 190.763 265.525 190.226 265.398L188.622 265.014C187.769 264.81 187.139 264.486 186.73 264.042C186.321 263.599 186.116 263.05 186.116 262.393C186.116 261.852 186.263 261.377 186.557 260.968C186.851 260.555 187.256 260.231 187.772 259.996C188.287 259.762 188.875 259.645 189.536 259.645C190.435 259.645 191.153 259.849 191.69 260.258C192.231 260.663 192.621 261.221 192.86 261.933ZM201.914 261.933L200.872 262.227C200.769 261.933 200.624 261.667 200.437 261.428C200.249 261.189 200.004 261 199.702 260.859C199.404 260.719 199.033 260.648 198.59 260.648C197.925 260.648 197.379 260.806 196.953 261.121C196.527 261.437 196.314 261.844 196.314 262.342C196.314 262.764 196.459 263.107 196.749 263.371C197.043 263.631 197.495 263.838 198.104 263.991L199.587 264.356C200.409 264.556 201.025 264.873 201.434 265.308C201.847 265.743 202.054 266.288 202.054 266.944C202.054 267.498 201.901 267.991 201.594 268.421C201.287 268.851 200.859 269.19 200.309 269.437C199.764 269.68 199.131 269.802 198.411 269.802C197.452 269.802 196.661 269.587 196.039 269.156C195.417 268.721 195.019 268.095 194.844 267.277L195.937 267.008C196.078 267.592 196.352 268.033 196.762 268.332C197.175 268.63 197.718 268.779 198.392 268.779C199.146 268.779 199.749 268.611 200.2 268.274C200.652 267.933 200.878 267.507 200.878 266.996C200.878 266.599 200.746 266.267 200.482 265.998C200.218 265.726 199.817 265.525 199.28 265.398L197.676 265.014C196.823 264.81 196.193 264.486 195.784 264.042C195.374 263.599 195.17 263.05 195.17 262.393C195.17 261.852 195.317 261.377 195.611 260.968C195.905 260.555 196.31 260.231 196.825 259.996C197.341 259.762 197.929 259.645 198.59 259.645C199.489 259.645 200.207 259.849 200.744 260.258C201.285 260.663 201.675 261.221 201.914 261.933ZM215.855 261.933L214.813 262.227C214.711 261.933 214.566 261.667 214.379 261.428C214.191 261.189 213.946 261 213.644 260.859C213.345 260.719 212.975 260.648 212.531 260.648C211.867 260.648 211.321 260.806 210.895 261.121C210.469 261.437 210.256 261.844 210.256 262.342C210.256 262.764 210.401 263.107 210.691 263.371C210.985 263.631 211.436 263.838 212.046 263.991L213.529 264.356C214.351 264.556 214.967 264.873 215.376 265.308C215.789 265.743 215.996 266.288 215.996 266.944C215.996 267.498 215.843 267.991 215.536 268.421C215.229 268.851 214.801 269.19 214.251 269.437C213.705 269.68 213.073 269.802 212.353 269.802C211.394 269.802 210.603 269.587 209.981 269.156C209.359 268.721 208.96 268.095 208.786 267.277L209.879 267.008C210.019 267.592 210.294 268.033 210.703 268.332C211.117 268.63 211.66 268.779 212.333 268.779C213.088 268.779 213.691 268.611 214.142 268.274C214.594 267.933 214.82 267.507 214.82 266.996C214.82 266.599 214.688 266.267 214.424 265.998C214.159 265.726 213.759 265.525 213.222 265.398L211.617 265.014C210.765 264.81 210.134 264.486 209.725 264.042C209.316 263.599 209.112 263.05 209.112 262.393C209.112 261.852 209.259 261.377 209.553 260.968C209.847 260.555 210.252 260.231 210.767 259.996C211.283 259.762 211.871 259.645 212.531 259.645C213.431 259.645 214.149 259.849 214.686 260.258C215.227 260.663 215.617 261.221 215.855 261.933ZM222.129 269.802C221.281 269.802 220.531 269.587 219.879 269.156C219.231 268.726 218.724 268.131 218.357 267.373C217.991 266.61 217.808 265.73 217.808 264.733C217.808 263.727 217.991 262.843 218.357 262.08C218.724 261.313 219.231 260.716 219.879 260.29C220.531 259.86 221.281 259.645 222.129 259.645C222.977 259.645 223.725 259.86 224.372 260.29C225.02 260.721 225.527 261.317 225.894 262.08C226.264 262.843 226.45 263.727 226.45 264.733C226.45 265.73 226.266 266.61 225.9 267.373C225.534 268.131 225.024 268.726 224.372 269.156C223.725 269.587 222.977 269.802 222.129 269.802ZM222.129 268.76C222.811 268.76 223.388 268.577 223.861 268.21C224.334 267.844 224.692 267.356 224.935 266.746C225.182 266.137 225.306 265.466 225.306 264.733C225.306 264 225.182 263.327 224.935 262.713C224.692 262.099 224.334 261.607 223.861 261.236C223.388 260.866 222.811 260.68 222.129 260.68C221.451 260.68 220.874 260.866 220.396 261.236C219.923 261.607 219.563 262.099 219.316 262.713C219.073 263.327 218.952 264 218.952 264.733C218.952 265.466 219.073 266.137 219.316 266.746C219.563 267.356 219.923 267.844 220.396 268.21C220.869 268.577 221.447 268.76 222.129 268.76ZM234.453 273.279C234.227 273.279 234.017 273.258 233.821 273.215C233.624 273.172 233.469 273.126 233.354 273.074L233.661 272.071C234.048 272.19 234.394 272.233 234.696 272.199C234.999 272.169 235.267 272.033 235.502 271.79C235.736 271.551 235.945 271.185 236.128 270.69L236.486 269.693L232.874 259.779H234.108L237.023 268.095H237.112L240.027 259.779H241.261L237.106 271.15C236.931 271.623 236.716 272.018 236.46 272.333C236.205 272.653 235.909 272.889 235.572 273.042C235.24 273.2 234.867 273.279 234.453 273.279ZM246.777 269.802C245.929 269.802 245.179 269.587 244.527 269.156C243.879 268.726 243.372 268.131 243.005 267.373C242.639 266.61 242.456 265.73 242.456 264.733C242.456 263.727 242.639 262.843 243.005 262.08C243.372 261.313 243.879 260.716 244.527 260.29C245.179 259.86 245.929 259.645 246.777 259.645C247.625 259.645 248.373 259.86 249.02 260.29C249.668 260.721 250.175 261.317 250.542 262.08C250.912 262.843 251.098 263.727 251.098 264.733C251.098 265.73 250.915 266.61 250.548 267.373C250.182 268.131 249.672 268.726 249.02 269.156C248.373 269.587 247.625 269.802 246.777 269.802ZM246.777 268.76C247.459 268.76 248.036 268.577 248.509 268.21C248.982 267.844 249.34 267.356 249.583 266.746C249.83 266.137 249.954 265.466 249.954 264.733C249.954 264 249.83 263.327 249.583 262.713C249.34 262.099 248.982 261.607 248.509 261.236C248.036 260.866 247.459 260.68 246.777 260.68C246.099 260.68 245.522 260.866 245.045 261.236C244.571 261.607 244.211 262.099 243.964 262.713C243.721 263.327 243.6 264 243.6 264.733C243.6 265.466 243.721 266.137 243.964 266.746C244.211 267.356 244.571 267.844 245.045 268.21C245.518 268.577 246.095 268.76 246.777 268.76ZM259.659 265.845V259.779H260.797V269.597H259.659V267.967H259.57C259.34 268.47 258.976 268.89 258.477 269.226C257.978 269.559 257.369 269.725 256.649 269.725C256.022 269.725 255.466 269.589 254.981 269.316C254.495 269.039 254.113 268.634 253.836 268.101C253.559 267.569 253.421 266.915 253.421 266.139V259.779H254.559V266.069C254.559 266.836 254.784 267.454 255.236 267.922C255.688 268.387 256.267 268.619 256.975 268.619C257.418 268.619 257.844 268.513 258.253 268.3C258.662 268.087 258.999 267.775 259.263 267.366C259.527 266.953 259.659 266.446 259.659 265.845ZM272.358 269.802C271.48 269.802 270.715 269.582 270.063 269.143C269.416 268.704 268.913 268.104 268.555 267.341C268.197 266.578 268.018 265.709 268.018 264.733C268.018 263.748 268.199 262.873 268.561 262.106C268.928 261.339 269.435 260.738 270.082 260.303C270.73 259.864 271.482 259.645 272.339 259.645C272.995 259.645 273.59 259.773 274.122 260.028C274.655 260.28 275.094 260.636 275.439 261.096C275.788 261.552 276.008 262.084 276.097 262.694H274.947C274.827 262.14 274.54 261.667 274.084 261.275C273.632 260.878 273.057 260.68 272.358 260.68C271.732 260.68 271.178 260.851 270.696 261.192C270.215 261.528 269.837 261.999 269.565 262.604C269.296 263.205 269.162 263.902 269.162 264.694C269.162 265.491 269.294 266.197 269.558 266.81C269.823 267.42 270.193 267.897 270.671 268.242C271.152 268.587 271.715 268.76 272.358 268.76C272.793 268.76 273.189 268.679 273.547 268.517C273.909 268.351 274.212 268.116 274.455 267.814C274.702 267.511 274.868 267.151 274.953 266.734H276.104C276.019 267.326 275.808 267.854 275.471 268.319C275.139 268.779 274.706 269.141 274.173 269.405C273.645 269.67 273.04 269.802 272.358 269.802ZM281.11 269.821C280.518 269.821 279.976 269.706 279.486 269.476C278.996 269.241 278.606 268.905 278.317 268.466C278.027 268.023 277.882 267.486 277.882 266.855C277.882 266.369 277.974 265.96 278.157 265.628C278.34 265.295 278.6 265.023 278.937 264.81C279.273 264.596 279.672 264.428 280.132 264.305C280.592 264.181 281.099 264.085 281.653 264.017C282.203 263.949 282.667 263.889 283.047 263.838C283.43 263.787 283.722 263.706 283.922 263.595C284.123 263.484 284.223 263.305 284.223 263.058V262.828C284.223 262.159 284.023 261.633 283.622 261.249C283.226 260.861 282.655 260.667 281.909 260.667C281.202 260.667 280.624 260.823 280.177 261.134C279.733 261.445 279.422 261.812 279.243 262.234L278.163 261.844C278.385 261.307 278.692 260.878 279.084 260.559C279.476 260.235 279.915 260.003 280.4 259.862C280.886 259.717 281.378 259.645 281.877 259.645C282.252 259.645 282.642 259.694 283.047 259.792C283.456 259.89 283.835 260.06 284.184 260.303C284.534 260.542 284.817 260.876 285.035 261.307C285.252 261.733 285.361 262.274 285.361 262.93V269.597H284.223V268.044H284.153C284.016 268.334 283.814 268.615 283.545 268.888C283.277 269.16 282.94 269.384 282.535 269.559C282.131 269.734 281.655 269.821 281.11 269.821ZM281.263 268.779C281.868 268.779 282.393 268.645 282.836 268.376C283.279 268.108 283.62 267.752 283.858 267.309C284.101 266.861 284.223 266.369 284.223 265.832V264.413C284.138 264.494 283.995 264.567 283.795 264.631C283.599 264.694 283.371 264.752 283.111 264.803C282.855 264.85 282.599 264.89 282.344 264.925C282.088 264.959 281.858 264.989 281.653 265.014C281.099 265.082 280.626 265.189 280.234 265.334C279.842 265.479 279.542 265.679 279.333 265.935C279.124 266.186 279.02 266.51 279.02 266.906C279.02 267.503 279.233 267.965 279.659 268.293C280.085 268.617 280.62 268.779 281.263 268.779ZM289.35 263.461V269.597H288.213V259.779H289.318V261.319H289.421C289.651 260.817 290.009 260.414 290.495 260.111C290.985 259.805 291.59 259.651 292.31 259.651C292.97 259.651 293.55 259.79 294.049 260.067C294.551 260.339 294.941 260.742 295.218 261.275C295.5 261.807 295.64 262.462 295.64 263.237V269.597H294.502V263.307C294.502 262.502 294.277 261.865 293.825 261.396C293.377 260.927 292.777 260.693 292.022 260.693C291.507 260.693 291.049 260.804 290.648 261.025C290.247 261.247 289.93 261.567 289.696 261.984C289.465 262.398 289.35 262.89 289.35 263.461ZM94.5419 282.779V283.77H89.7159V282.779H94.5419ZM91.2244 292.597V281.341C91.2244 280.812 91.3459 280.367 91.5888 280.005C91.8359 279.643 92.1577 279.368 92.554 279.18C92.9503 278.993 93.37 278.899 93.8132 278.899C94.1115 278.899 94.3587 278.925 94.5547 278.976C94.755 279.023 94.9126 279.069 95.0277 279.116L94.6953 280.114C94.6101 280.088 94.5057 280.058 94.3821 280.024C94.2585 279.99 94.103 279.973 93.9155 279.973C93.4212 279.973 93.0398 280.111 92.7713 280.388C92.5028 280.665 92.3686 281.062 92.3686 281.577L92.3622 292.597H91.2244ZM100.05 292.802C99.2018 292.802 98.4518 292.587 97.7998 292.156C97.1521 291.726 96.645 291.131 96.2785 290.373C95.912 289.61 95.7288 288.73 95.7288 287.733C95.7288 286.727 95.912 285.843 96.2785 285.08C96.645 284.313 97.1521 283.716 97.7998 283.29C98.4518 282.86 99.2018 282.645 100.05 282.645C100.898 282.645 101.646 282.86 102.293 283.29C102.941 283.721 103.448 284.317 103.815 285.08C104.185 285.843 104.371 286.727 104.371 287.733C104.371 288.73 104.188 289.61 103.821 290.373C103.455 291.131 102.945 291.726 102.293 292.156C101.646 292.587 100.898 292.802 100.05 292.802ZM100.05 291.76C100.732 291.76 101.309 291.577 101.782 291.21C102.255 290.844 102.613 290.356 102.856 289.746C103.103 289.137 103.227 288.466 103.227 287.733C103.227 287 103.103 286.327 102.856 285.713C102.613 285.099 102.255 284.607 101.782 284.236C101.309 283.866 100.732 283.68 100.05 283.68C99.3723 283.68 98.7948 283.866 98.3176 284.236C97.8446 284.607 97.4845 285.099 97.2373 285.713C96.9944 286.327 96.873 287 96.873 287.733C96.873 288.466 96.9944 289.137 97.2373 289.746C97.4845 290.356 97.8446 290.844 98.3176 291.21C98.7906 291.577 99.368 291.76 100.05 291.76ZM110.529 292.802C109.651 292.802 108.886 292.582 108.234 292.143C107.587 291.704 107.084 291.104 106.726 290.341C106.368 289.578 106.189 288.709 106.189 287.733C106.189 286.748 106.37 285.873 106.732 285.106C107.099 284.339 107.606 283.738 108.254 283.303C108.901 282.864 109.653 282.645 110.51 282.645C111.166 282.645 111.761 282.773 112.293 283.028C112.826 283.28 113.265 283.636 113.61 284.096C113.96 284.552 114.179 285.084 114.268 285.694H113.118C112.999 285.14 112.711 284.667 112.255 284.275C111.803 283.878 111.228 283.68 110.529 283.68C109.903 283.68 109.349 283.851 108.867 284.192C108.386 284.528 108.009 284.999 107.736 285.604C107.467 286.205 107.333 286.902 107.333 287.694C107.333 288.491 107.465 289.197 107.729 289.81C107.994 290.42 108.364 290.897 108.842 291.242C109.323 291.587 109.886 291.76 110.529 291.76C110.964 291.76 111.36 291.679 111.718 291.517C112.08 291.351 112.383 291.116 112.626 290.814C112.873 290.511 113.039 290.151 113.124 289.734H114.275C114.19 290.326 113.979 290.854 113.642 291.319C113.31 291.779 112.877 292.141 112.344 292.405C111.816 292.67 111.211 292.802 110.529 292.802ZM122.777 288.845V282.779H123.915V292.597H122.777V290.967H122.688C122.458 291.47 122.094 291.89 121.595 292.226C121.096 292.559 120.487 292.725 119.767 292.725C119.14 292.725 118.584 292.589 118.099 292.316C117.613 292.039 117.231 291.634 116.954 291.101C116.677 290.569 116.539 289.915 116.539 289.139V282.779H117.677V289.069C117.677 289.836 117.902 290.454 118.354 290.922C118.806 291.387 119.385 291.619 120.093 291.619C120.536 291.619 120.962 291.513 121.371 291.3C121.78 291.087 122.117 290.775 122.381 290.366C122.645 289.953 122.777 289.446 122.777 288.845ZM133.349 284.933L132.308 285.227C132.205 284.933 132.06 284.667 131.873 284.428C131.685 284.189 131.44 284 131.138 283.859C130.84 283.719 130.469 283.648 130.026 283.648C129.361 283.648 128.815 283.806 128.389 284.121C127.963 284.437 127.75 284.844 127.75 285.342C127.75 285.764 127.895 286.107 128.185 286.371C128.479 286.631 128.93 286.838 129.54 286.991L131.023 287.356C131.845 287.556 132.461 287.873 132.87 288.308C133.283 288.743 133.49 289.288 133.49 289.944C133.49 290.498 133.337 290.991 133.03 291.421C132.723 291.851 132.295 292.19 131.745 292.437C131.2 292.68 130.567 292.802 129.847 292.802C128.888 292.802 128.097 292.587 127.475 292.156C126.853 291.721 126.455 291.095 126.28 290.277L127.373 290.008C127.514 290.592 127.788 291.033 128.198 291.332C128.611 291.63 129.154 291.779 129.827 291.779C130.582 291.779 131.185 291.611 131.636 291.274C132.088 290.933 132.314 290.507 132.314 289.996C132.314 289.599 132.182 289.267 131.918 288.998C131.653 288.726 131.253 288.525 130.716 288.398L129.112 288.014C128.259 287.81 127.629 287.486 127.22 287.042C126.81 286.599 126.606 286.05 126.606 285.393C126.606 284.852 126.753 284.377 127.047 283.968C127.341 283.555 127.746 283.231 128.261 282.996C128.777 282.762 129.365 282.645 130.026 282.645C130.925 282.645 131.643 282.849 132.18 283.258C132.721 283.663 133.111 284.221 133.349 284.933ZM144.511 292.802C143.663 292.802 142.913 292.587 142.261 292.156C141.613 291.726 141.106 291.131 140.739 290.373C140.373 289.61 140.19 288.73 140.19 287.733C140.19 286.727 140.373 285.843 140.739 285.08C141.106 284.313 141.613 283.716 142.261 283.29C142.913 282.86 143.663 282.645 144.511 282.645C145.359 282.645 146.107 282.86 146.754 283.29C147.402 283.721 147.909 284.317 148.276 285.08C148.646 285.843 148.832 286.727 148.832 287.733C148.832 288.73 148.649 289.61 148.282 290.373C147.916 291.131 147.406 291.726 146.754 292.156C146.107 292.587 145.359 292.802 144.511 292.802ZM144.511 291.76C145.193 291.76 145.77 291.577 146.243 291.21C146.716 290.844 147.074 290.356 147.317 289.746C147.564 289.137 147.688 288.466 147.688 287.733C147.688 287 147.564 286.327 147.317 285.713C147.074 285.099 146.716 284.607 146.243 284.236C145.77 283.866 145.193 283.68 144.511 283.68C143.833 283.68 143.256 283.866 142.779 284.236C142.305 284.607 141.945 285.099 141.698 285.713C141.455 286.327 141.334 287 141.334 287.733C141.334 288.466 141.455 289.137 141.698 289.746C141.945 290.356 142.305 290.844 142.779 291.21C143.252 291.577 143.829 291.76 144.511 291.76ZM152.293 286.461V292.597H151.155V282.779H152.261V284.319H152.363C152.593 283.817 152.951 283.414 153.437 283.111C153.927 282.805 154.532 282.651 155.252 282.651C155.913 282.651 156.492 282.79 156.991 283.067C157.494 283.339 157.884 283.742 158.161 284.275C158.442 284.807 158.582 285.462 158.582 286.237V292.597H157.445V286.307C157.445 285.502 157.219 284.865 156.767 284.396C156.32 283.927 155.719 283.693 154.965 283.693C154.449 283.693 153.991 283.804 153.59 284.025C153.19 284.247 152.872 284.567 152.638 284.984C152.408 285.398 152.293 285.89 152.293 286.461ZM170.127 292.802C169.249 292.802 168.484 292.582 167.832 292.143C167.185 291.704 166.682 291.104 166.324 290.341C165.966 289.578 165.787 288.709 165.787 287.733C165.787 286.748 165.968 285.873 166.33 285.106C166.697 284.339 167.204 283.738 167.852 283.303C168.499 282.864 169.251 282.645 170.108 282.645C170.764 282.645 171.359 282.773 171.891 283.028C172.424 283.28 172.863 283.636 173.208 284.096C173.558 284.552 173.777 285.084 173.867 285.694H172.716C172.597 285.14 172.309 284.667 171.853 284.275C171.401 283.878 170.826 283.68 170.127 283.68C169.501 283.68 168.947 283.851 168.465 284.192C167.984 284.528 167.607 284.999 167.334 285.604C167.065 286.205 166.931 286.902 166.931 287.694C166.931 288.491 167.063 289.197 167.327 289.81C167.592 290.42 167.962 290.897 168.44 291.242C168.921 291.587 169.484 291.76 170.127 291.76C170.562 291.76 170.958 291.679 171.316 291.517C171.678 291.351 171.981 291.116 172.224 290.814C172.471 290.511 172.637 290.151 172.722 289.734H173.873C173.788 290.326 173.577 290.854 173.24 291.319C172.908 291.779 172.475 292.141 171.943 292.405C171.414 292.67 170.809 292.802 170.127 292.802ZM182.376 288.845V282.779H183.513V292.597H182.376V290.967H182.286C182.056 291.47 181.692 291.89 181.193 292.226C180.694 292.559 180.085 292.725 179.365 292.725C178.738 292.725 178.182 292.589 177.697 292.316C177.211 292.039 176.829 291.634 176.552 291.101C176.275 290.569 176.137 289.915 176.137 289.139V282.779H177.275V289.069C177.275 289.836 177.501 290.454 177.952 290.922C178.404 291.387 178.983 291.619 179.691 291.619C180.134 291.619 180.56 291.513 180.969 291.3C181.378 291.087 181.715 290.775 181.979 290.366C182.243 289.953 182.376 289.446 182.376 288.845ZM192.948 284.933L191.906 285.227C191.803 284.933 191.658 284.667 191.471 284.428C191.283 284.189 191.038 284 190.736 283.859C190.438 283.719 190.067 283.648 189.624 283.648C188.959 283.648 188.413 283.806 187.987 284.121C187.561 284.437 187.348 284.844 187.348 285.342C187.348 285.764 187.493 286.107 187.783 286.371C188.077 286.631 188.528 286.838 189.138 286.991L190.621 287.356C191.443 287.556 192.059 287.873 192.468 288.308C192.881 288.743 193.088 289.288 193.088 289.944C193.088 290.498 192.935 290.991 192.628 291.421C192.321 291.851 191.893 292.19 191.343 292.437C190.798 292.68 190.165 292.802 189.445 292.802C188.486 292.802 187.695 292.587 187.073 292.156C186.451 291.721 186.053 291.095 185.878 290.277L186.971 290.008C187.112 290.592 187.386 291.033 187.796 291.332C188.209 291.63 188.752 291.779 189.426 291.779C190.18 291.779 190.783 291.611 191.234 291.274C191.686 290.933 191.912 290.507 191.912 289.996C191.912 289.599 191.78 289.267 191.516 288.998C191.252 288.726 190.851 288.525 190.314 288.398L188.71 288.014C187.857 287.81 187.227 287.486 186.818 287.042C186.408 286.599 186.204 286.05 186.204 285.393C186.204 284.852 186.351 284.377 186.645 283.968C186.939 283.555 187.344 283.231 187.859 282.996C188.375 282.762 188.963 282.645 189.624 282.645C190.523 282.645 191.241 282.849 191.778 283.258C192.319 283.663 192.709 284.221 192.948 284.933ZM199.272 282.779V283.77H194.587V282.779H199.272ZM196.05 280.427H197.195V290.034C197.195 290.443 197.265 290.765 197.406 290.999C197.546 291.229 197.729 291.393 197.955 291.491C198.181 291.585 198.422 291.632 198.678 291.632C198.827 291.632 198.955 291.623 199.061 291.606C199.168 291.585 199.261 291.564 199.342 291.542L199.585 292.572C199.474 292.614 199.338 292.653 199.176 292.687C199.014 292.725 198.814 292.744 198.575 292.744C198.158 292.744 197.755 292.653 197.367 292.469C196.984 292.286 196.668 292.013 196.421 291.651C196.174 291.289 196.05 290.839 196.05 290.302V280.427ZM205.392 292.802C204.544 292.802 203.794 292.587 203.142 292.156C202.494 291.726 201.987 291.131 201.621 290.373C201.254 289.61 201.071 288.73 201.071 287.733C201.071 286.727 201.254 285.843 201.621 285.08C201.987 284.313 202.494 283.716 203.142 283.29C203.794 282.86 204.544 282.645 205.392 282.645C206.24 282.645 206.988 282.86 207.636 283.29C208.283 283.721 208.79 284.317 209.157 285.08C209.528 285.843 209.713 286.727 209.713 287.733C209.713 288.73 209.53 289.61 209.163 290.373C208.797 291.131 208.288 291.726 207.636 292.156C206.988 292.587 206.24 292.802 205.392 292.802ZM205.392 291.76C206.074 291.76 206.651 291.577 207.124 291.21C207.597 290.844 207.955 290.356 208.198 289.746C208.445 289.137 208.569 288.466 208.569 287.733C208.569 287 208.445 286.327 208.198 285.713C207.955 285.099 207.597 284.607 207.124 284.236C206.651 283.866 206.074 283.68 205.392 283.68C204.714 283.68 204.137 283.866 203.66 284.236C203.187 284.607 202.827 285.099 202.579 285.713C202.337 286.327 202.215 287 202.215 287.733C202.215 288.466 202.337 289.137 202.579 289.746C202.827 290.356 203.187 290.844 203.66 291.21C204.133 291.577 204.71 291.76 205.392 291.76ZM212.036 292.597V282.779H213.142V284.288H213.244C213.44 283.78 213.766 283.382 214.222 283.092C214.682 282.798 215.234 282.651 215.878 282.651C216.555 282.651 217.111 282.811 217.546 283.131C217.985 283.446 218.313 283.881 218.53 284.435H218.614C218.835 283.889 219.195 283.457 219.694 283.137C220.197 282.813 220.806 282.651 221.522 282.651C222.434 282.651 223.154 282.939 223.682 283.514C224.211 284.085 224.475 284.92 224.475 286.02V292.597H223.337V286.02C223.337 285.244 223.139 284.663 222.743 284.275C222.346 283.887 221.824 283.693 221.177 283.693C220.427 283.693 219.849 283.923 219.444 284.383C219.04 284.844 218.837 285.427 218.837 286.135V292.597H217.674V285.917C217.674 285.253 217.489 284.716 217.118 284.307C216.747 283.898 216.225 283.693 215.552 283.693C215.1 283.693 214.693 283.804 214.331 284.025C213.973 284.247 213.69 284.556 213.481 284.952C213.276 285.344 213.174 285.796 213.174 286.307V292.597H212.036ZM231.282 292.802C230.366 292.802 229.573 292.589 228.904 292.163C228.235 291.732 227.717 291.138 227.351 290.379C226.989 289.616 226.808 288.739 226.808 287.746C226.808 286.757 226.989 285.879 227.351 285.112C227.717 284.341 228.222 283.738 228.866 283.303C229.514 282.864 230.262 282.645 231.11 282.645C231.642 282.645 232.156 282.743 232.65 282.939C233.144 283.131 233.588 283.427 233.98 283.827C234.376 284.224 234.689 284.724 234.919 285.329C235.149 285.93 235.264 286.642 235.264 287.464V288.027H227.594V287.023H234.101C234.101 286.393 233.973 285.826 233.717 285.323C233.466 284.816 233.114 284.415 232.663 284.121C232.215 283.827 231.698 283.68 231.11 283.68C230.487 283.68 229.94 283.846 229.467 284.179C228.994 284.511 228.623 284.95 228.355 285.496C228.09 286.041 227.956 286.638 227.952 287.285V287.886C227.952 288.666 228.086 289.348 228.355 289.932C228.627 290.511 229.013 290.961 229.512 291.28C230.01 291.6 230.6 291.76 231.282 291.76C231.747 291.76 232.154 291.687 232.503 291.542C232.857 291.398 233.153 291.204 233.391 290.961C233.634 290.714 233.818 290.443 233.941 290.149L235.021 290.501C234.872 290.914 234.627 291.295 234.286 291.645C233.95 291.994 233.528 292.275 233.021 292.489C232.518 292.697 231.938 292.802 231.282 292.802ZM237.597 292.597V282.779H238.703V284.288H238.786C238.982 283.793 239.323 283.395 239.809 283.092C240.299 282.785 240.853 282.632 241.471 282.632C241.564 282.632 241.669 282.634 241.784 282.638C241.899 282.643 241.995 282.647 242.071 282.651V283.808C242.02 283.8 241.931 283.787 241.803 283.77C241.675 283.753 241.537 283.744 241.388 283.744C240.876 283.744 240.42 283.853 240.02 284.07C239.623 284.283 239.31 284.579 239.08 284.959C238.85 285.338 238.735 285.77 238.735 286.256V292.597H237.597ZM250.435 284.933L249.393 285.227C249.291 284.933 249.146 284.667 248.958 284.428C248.771 284.189 248.526 284 248.223 283.859C247.925 283.719 247.554 283.648 247.111 283.648C246.446 283.648 245.901 283.806 245.475 284.121C245.049 284.437 244.836 284.844 244.836 285.342C244.836 285.764 244.98 286.107 245.27 286.371C245.564 286.631 246.016 286.838 246.625 286.991L248.108 287.356C248.931 287.556 249.547 287.873 249.956 288.308C250.369 288.743 250.576 289.288 250.576 289.944C250.576 290.498 250.422 290.991 250.115 291.421C249.809 291.851 249.38 292.19 248.831 292.437C248.285 292.68 247.652 292.802 246.932 292.802C245.973 292.802 245.183 292.587 244.561 292.156C243.939 291.721 243.54 291.095 243.365 290.277L244.458 290.008C244.599 290.592 244.874 291.033 245.283 291.332C245.696 291.63 246.24 291.779 246.913 291.779C247.667 291.779 248.27 291.611 248.722 291.274C249.174 290.933 249.4 290.507 249.4 289.996C249.4 289.599 249.267 289.267 249.003 288.998C248.739 288.726 248.338 288.525 247.802 288.398L246.197 288.014C245.345 287.81 244.714 287.486 244.305 287.042C243.896 286.599 243.691 286.05 243.691 285.393C243.691 284.852 243.838 284.377 244.132 283.968C244.427 283.555 244.831 283.231 245.347 282.996C245.863 282.762 246.451 282.645 247.111 282.645C248.01 282.645 248.728 282.849 249.265 283.258C249.806 283.663 250.196 284.221 250.435 284.933ZM254.784 290.807L254.669 291.491C254.597 291.952 254.495 292.459 254.363 293.013C254.23 293.567 254.094 294.093 253.953 294.591C253.813 295.09 253.691 295.491 253.589 295.793H252.713C252.769 295.503 252.839 295.135 252.924 294.687C253.014 294.24 253.105 293.743 253.199 293.198C253.293 292.657 253.378 292.099 253.455 291.523L253.544 290.807H254.784ZM263.648 286.461V292.597H262.51V282.779H263.616V284.319H263.718C263.948 283.817 264.306 283.414 264.792 283.111C265.282 282.805 265.887 282.651 266.607 282.651C267.268 282.651 267.847 282.79 268.346 283.067C268.849 283.339 269.239 283.742 269.516 284.275C269.797 284.807 269.937 285.462 269.937 286.237V292.597H268.8V286.307C268.8 285.502 268.574 284.865 268.122 284.396C267.675 283.927 267.074 283.693 266.32 283.693C265.804 283.693 265.346 283.804 264.945 284.025C264.545 284.247 264.227 284.567 263.993 284.984C263.763 285.398 263.648 285.89 263.648 286.461ZM276.575 292.802C275.727 292.802 274.977 292.587 274.325 292.156C273.677 291.726 273.17 291.131 272.804 290.373C272.437 289.61 272.254 288.73 272.254 287.733C272.254 286.727 272.437 285.843 272.804 285.08C273.17 284.313 273.677 283.716 274.325 283.29C274.977 282.86 275.727 282.645 276.575 282.645C277.423 282.645 278.171 282.86 278.819 283.29C279.467 283.721 279.974 284.317 280.34 285.08C280.711 285.843 280.896 286.727 280.896 287.733C280.896 288.73 280.713 289.61 280.346 290.373C279.98 291.131 279.471 291.726 278.819 292.156C278.171 292.587 277.423 292.802 276.575 292.802ZM276.575 291.76C277.257 291.76 277.834 291.577 278.307 291.21C278.78 290.844 279.138 290.356 279.381 289.746C279.628 289.137 279.752 288.466 279.752 287.733C279.752 287 279.628 286.327 279.381 285.713C279.138 285.099 278.78 284.607 278.307 284.236C277.834 283.866 277.257 283.68 276.575 283.68C275.898 283.68 275.32 283.866 274.843 284.236C274.37 284.607 274.01 285.099 273.763 285.713C273.52 286.327 273.398 287 273.398 287.733C273.398 288.466 273.52 289.137 273.763 289.746C274.01 290.356 274.37 290.844 274.843 291.21C275.316 291.577 275.893 291.76 276.575 291.76ZM287.086 282.779V283.77H282.401V282.779H287.086ZM283.865 280.427H285.009V290.034C285.009 290.443 285.079 290.765 285.22 290.999C285.361 291.229 285.544 291.393 285.77 291.491C285.996 291.585 286.236 291.632 286.492 291.632C286.641 291.632 286.769 291.623 286.876 291.606C286.982 291.585 287.076 291.564 287.157 291.542L287.4 292.572C287.289 292.614 287.153 292.653 286.991 292.687C286.829 292.725 286.628 292.744 286.39 292.744C285.972 292.744 285.569 292.653 285.182 292.469C284.798 292.286 284.483 292.013 284.236 291.651C283.988 291.289 283.865 290.839 283.865 290.302V280.427ZM97.0987 307.933L96.0568 308.227C95.9545 307.933 95.8097 307.667 95.6222 307.428C95.4347 307.189 95.1896 307 94.8871 306.859C94.5888 306.719 94.218 306.648 93.7749 306.648C93.1101 306.648 92.5646 306.806 92.1385 307.121C91.7124 307.437 91.4993 307.844 91.4993 308.342C91.4993 308.764 91.6442 309.107 91.9339 309.371C92.228 309.631 92.6797 309.838 93.2891 309.991L94.772 310.356C95.5945 310.556 96.2102 310.873 96.6193 311.308C97.0327 311.743 97.2393 312.288 97.2393 312.944C97.2393 313.498 97.0859 313.991 96.7791 314.421C96.4723 314.851 96.044 315.19 95.4943 315.437C94.9489 315.68 94.3161 315.802 93.5959 315.802C92.6371 315.802 91.8466 315.587 91.2244 315.156C90.6023 314.721 90.2038 314.095 90.0291 313.277L91.1222 313.008C91.2628 313.592 91.5376 314.033 91.9467 314.332C92.3601 314.63 92.9034 314.779 93.5767 314.779C94.331 314.779 94.9339 314.611 95.3857 314.274C95.8374 313.933 96.0632 313.507 96.0632 312.996C96.0632 312.599 95.9311 312.267 95.6669 311.998C95.4027 311.726 95.0021 311.525 94.4652 311.398L92.8608 311.014C92.0085 310.81 91.3778 310.486 90.9688 310.042C90.5597 309.599 90.3551 309.05 90.3551 308.393C90.3551 307.852 90.5021 307.377 90.7962 306.968C91.0902 306.555 91.495 306.231 92.0107 305.996C92.5263 305.762 93.1143 305.645 93.7749 305.645C94.674 305.645 95.392 305.849 95.929 306.258C96.4702 306.663 96.8601 307.221 97.0987 307.933ZM103.525 315.802C102.609 315.802 101.817 315.589 101.148 315.163C100.479 314.732 99.9609 314.138 99.5944 313.379C99.2322 312.616 99.0511 311.739 99.0511 310.746C99.0511 309.757 99.2322 308.879 99.5944 308.112C99.9609 307.341 100.466 306.738 101.109 306.303C101.757 305.864 102.505 305.645 103.353 305.645C103.886 305.645 104.399 305.743 104.893 305.939C105.388 306.131 105.831 306.427 106.223 306.827C106.619 307.224 106.932 307.724 107.163 308.329C107.393 308.93 107.508 309.642 107.508 310.464V311.027H99.8373V310.023H106.344C106.344 309.393 106.217 308.826 105.961 308.323C105.709 307.816 105.358 307.415 104.906 307.121C104.459 306.827 103.941 306.68 103.353 306.68C102.731 306.68 102.183 306.846 101.71 307.179C101.237 307.511 100.866 307.95 100.598 308.496C100.334 309.041 100.2 309.638 100.195 310.285V310.886C100.195 311.666 100.329 312.348 100.598 312.932C100.871 313.511 101.256 313.961 101.755 314.28C102.253 314.6 102.844 314.76 103.525 314.76C103.99 314.76 104.397 314.687 104.746 314.542C105.1 314.398 105.396 314.204 105.635 313.961C105.878 313.714 106.061 313.443 106.185 313.149L107.265 313.501C107.116 313.914 106.871 314.295 106.53 314.645C106.193 314.994 105.771 315.275 105.264 315.489C104.761 315.697 104.182 315.802 103.525 315.802ZM109.84 315.597V305.779H110.946V307.288H111.029C111.225 306.793 111.566 306.395 112.052 306.092C112.542 305.785 113.096 305.632 113.714 305.632C113.808 305.632 113.912 305.634 114.027 305.638C114.142 305.643 114.238 305.647 114.315 305.651V306.808C114.264 306.8 114.174 306.787 114.046 306.77C113.919 306.753 113.78 306.744 113.631 306.744C113.12 306.744 112.664 306.853 112.263 307.07C111.867 307.283 111.553 307.579 111.323 307.959C111.093 308.338 110.978 308.77 110.978 309.256V315.597H109.84ZM123.981 305.779L120.395 315.597H119.18L115.594 305.779H116.828L119.743 314.095H119.832L122.747 305.779H123.981ZM129.65 315.802C128.734 315.802 127.941 315.589 127.272 315.163C126.603 314.732 126.085 314.138 125.719 313.379C125.357 312.616 125.176 311.739 125.176 310.746C125.176 309.757 125.357 308.879 125.719 308.112C126.085 307.341 126.59 306.738 127.234 306.303C127.882 305.864 128.63 305.645 129.478 305.645C130.01 305.645 130.524 305.743 131.018 305.939C131.512 306.131 131.955 306.427 132.348 306.827C132.744 307.224 133.057 307.724 133.287 308.329C133.517 308.93 133.632 309.642 133.632 310.464V311.027H125.962V310.023H132.469C132.469 309.393 132.341 308.826 132.085 308.323C131.834 307.816 131.482 307.415 131.031 307.121C130.583 306.827 130.066 306.68 129.478 306.68C128.855 306.68 128.308 306.846 127.835 307.179C127.362 307.511 126.991 307.95 126.723 308.496C126.458 309.041 126.324 309.638 126.32 310.285V310.886C126.32 311.666 126.454 312.348 126.723 312.932C126.995 313.511 127.381 313.961 127.88 314.28C128.378 314.6 128.968 314.76 129.65 314.76C130.115 314.76 130.522 314.687 130.871 314.542C131.225 314.398 131.521 314.204 131.759 313.961C132.002 313.714 132.186 313.443 132.309 313.149L133.389 313.501C133.24 313.914 132.995 314.295 132.654 314.645C132.318 314.994 131.896 315.275 131.389 315.489C130.886 315.697 130.306 315.802 129.65 315.802ZM135.965 315.597V305.779H137.071V307.288H137.154C137.35 306.793 137.691 306.395 138.177 306.092C138.667 305.785 139.221 305.632 139.839 305.632C139.932 305.632 140.037 305.634 140.152 305.638C140.267 305.643 140.363 305.647 140.439 305.651V306.808C140.388 306.8 140.299 306.787 140.171 306.77C140.043 306.753 139.905 306.744 139.755 306.744C139.244 306.744 138.788 306.853 138.388 307.07C137.991 307.283 137.678 307.579 137.448 307.959C137.218 308.338 137.103 308.77 137.103 309.256V315.597H135.965ZM148.803 307.933L147.761 308.227C147.659 307.933 147.514 307.667 147.326 307.428C147.139 307.189 146.894 307 146.591 306.859C146.293 306.719 145.922 306.648 145.479 306.648C144.814 306.648 144.269 306.806 143.843 307.121C143.417 307.437 143.204 307.844 143.204 308.342C143.204 308.764 143.348 309.107 143.638 309.371C143.932 309.631 144.384 309.838 144.993 309.991L146.476 310.356C147.299 310.556 147.915 310.873 148.324 311.308C148.737 311.743 148.944 312.288 148.944 312.944C148.944 313.498 148.79 313.991 148.483 314.421C148.177 314.851 147.748 315.19 147.199 315.437C146.653 315.68 146.02 315.802 145.3 315.802C144.341 315.802 143.551 315.587 142.929 315.156C142.307 314.721 141.908 314.095 141.733 313.277L142.826 313.008C142.967 313.592 143.242 314.033 143.651 314.332C144.064 314.63 144.608 314.779 145.281 314.779C146.035 314.779 146.638 314.611 147.09 314.274C147.542 313.933 147.767 313.507 147.767 312.996C147.767 312.599 147.635 312.267 147.371 311.998C147.107 311.726 146.706 311.525 146.169 311.398L144.565 311.014C143.713 310.81 143.082 310.486 142.673 310.042C142.264 309.599 142.059 309.05 142.059 308.393C142.059 307.852 142.206 307.377 142.5 306.968C142.794 306.555 143.199 306.231 143.715 305.996C144.231 305.762 144.819 305.645 145.479 305.645C146.378 305.645 147.096 305.849 147.633 306.258C148.174 306.663 148.564 307.221 148.803 307.933ZM152.168 315.693C151.917 315.693 151.699 315.604 151.516 315.425C151.337 315.241 151.248 315.024 151.248 314.773C151.248 314.517 151.337 314.3 151.516 314.121C151.699 313.942 151.917 313.852 152.168 313.852C152.424 313.852 152.641 313.942 152.82 314.121C152.999 314.3 153.088 314.517 153.088 314.773C153.088 314.939 153.046 315.092 152.961 315.233C152.88 315.373 152.769 315.486 152.628 315.572C152.492 315.653 152.338 315.693 152.168 315.693Z" fill="white"/>
</svg>
