<svg width="708" height="611" viewBox="0 0 708 611" fill="none" xmlns="http://www.w3.org/2000/svg">
<path d="M313.028 75.1653L353.299 532.045C355.271 554.383 337.796 573.647 315.367 573.876C308.441 573.922 301.515 573.968 294.544 573.968C209.46 573.968 119.974 564.565 30.1667 543.604C6.95805 538.192 -6.1598 513.515 2.87598 491.453L179.647 60.809C186.068 45.1684 201.938 35.0318 218.726 37.004C237.164 39.1598 255.648 40.2148 273.995 40.2148C274.133 40.2148 274.225 40.2148 274.362 40.2148C294.406 40.2148 311.239 55.2591 313.028 75.2112V75.1653Z" fill="#A16AFA"/>
<path d="M538.48 563.118L696.362 132.497C704.084 111.445 692.229 88.2939 670.634 82.2306C663.96 80.3824 657.285 78.534 650.554 76.7181C568.407 54.557 479.561 40.3272 387.393 37.1732C363.576 36.3537 344.484 56.7615 347.461 80.4155L405.963 542.238C408.089 559.011 420.771 572.932 437.493 575.4C455.856 578.121 473.977 581.917 491.691 586.696C491.824 586.732 491.912 586.756 492.045 586.791C511.397 592.012 531.568 581.871 538.492 563.074L538.48 563.118Z" fill="#A16AFA"/>
</svg>
