<svg width="320" height="207" viewBox="0 0 320 207" fill="none" xmlns="http://www.w3.org/2000/svg">
<path d="M279.319 165.723C279.155 165.628 279.389 165.49 279.229 165.392C279.11 165.317 278.936 165.449 278.864 165.257C278.766 165.003 278.507 164.892 278.339 164.701C278.322 164.68 278.274 164.656 278.267 164.664C278.049 164.845 277.97 164.602 277.868 164.512C277.751 164.409 277.622 164.321 277.486 164.247C277.276 164.131 277.077 163.999 276.869 163.883C276.63 163.748 276.437 163.564 276.229 163.388C275.676 162.918 275.03 162.578 274.414 162.203C273.939 161.915 273.517 161.522 272.963 161.367C272.926 161.357 272.895 161.303 272.875 161.262C272.649 160.837 272.241 160.614 271.845 160.421C270.79 159.916 269.641 159.805 268.491 159.75C267.914 159.724 267.336 159.773 266.77 159.895C266.686 159.913 266.504 160.004 266.596 159.76C266.837 159.12 266.517 158.546 266.378 157.953C266.356 157.9 266.323 157.853 266.281 157.815C265.961 157.452 265.567 157.162 265.124 156.965C264.092 156.49 263.032 156.091 261.907 155.89C261.646 155.844 261.377 155.812 261.058 155.659C261.871 155.493 262.546 155.216 263.056 154.618C263.228 154.416 263.276 154.181 263.046 154.044C262.898 153.957 262.785 153.84 262.648 153.746C261.825 153.176 260.95 152.694 260.088 152.189C259.373 151.769 258.608 151.442 257.879 151.046C257.472 150.828 257.081 150.574 256.643 150.416C255.972 150.175 255.377 149.794 254.746 149.479C254.524 149.368 254.347 149.135 254.051 149.272C254.019 149.288 253.964 149.247 253.918 149.236C253.671 149.167 253.072 149.481 252.993 149.716C252.99 149.726 252.988 149.735 252.987 149.744C252.974 149.962 252.851 150.134 252.741 150.31L252.75 150.366C252.87 150.469 252.939 150.618 253.102 150.686C254.094 151.102 255.032 151.629 256.003 152.09C256.36 152.259 256.717 152.422 257.047 152.646C257.66 153.071 258.316 153.434 259.002 153.728C259.34 153.871 259.684 154.042 259.955 154.35C259.573 154.486 259.217 154.61 258.864 154.737C258.676 154.804 258.518 154.928 258.294 154.923C257.756 154.911 257.318 155.137 256.986 155.563C256.938 155.625 256.863 155.613 256.804 155.619C256.503 155.649 256.404 155.801 256.48 156.094C256.499 156.173 256.499 156.291 256.414 156.355C256.224 156.496 256.359 156.577 256.472 156.641C256.649 156.743 256.856 156.734 257.051 156.739C258.655 156.776 260.231 156.949 261.764 157.465C262.766 157.803 263.781 158.1 264.754 158.521C264.92 158.592 265.08 158.67 265.167 158.845C265.309 159.131 265.246 159.352 264.914 159.661C264.281 160.254 263.465 160.567 262.759 161.047C262.602 161.152 262.299 161.119 262.348 161.442C262.355 161.485 262.31 161.494 262.268 161.498C262.071 161.523 261.95 161.655 261.806 161.781C261.62 161.943 261.753 162 261.854 162.019C262.031 162.054 262.072 162.132 262.04 162.292C262.026 162.366 262.085 162.415 262.139 162.454C262.313 162.578 262.48 162.689 262.723 162.679C262.951 162.668 263.168 162.61 263.39 162.575C263.793 162.512 264.165 162.35 264.538 162.185C264.674 162.125 264.588 162.073 264.534 162.005C264.677 162.122 264.834 162.087 264.985 162.052C265.26 161.99 265.529 161.9 265.803 161.841C266.141 161.771 266.458 161.632 266.786 161.543C267.21 161.428 267.657 161.402 268.1 161.38C268.543 161.36 268.967 161.31 269.398 161.473C269.872 161.655 270.392 161.738 270.842 161.962C271.485 162.279 272.148 162.557 272.729 163.02C273.166 163.357 273.629 163.663 274.112 163.933C274.654 164.25 275.179 164.599 275.683 164.976C276.287 165.419 277.011 165.668 277.553 166.209C277.787 166.443 278.087 166.599 278.413 166.656C278.747 166.715 278.956 167.068 279.395 166.963C279.669 166.896 279.902 166.924 279.971 166.595C279.977 166.579 279.986 166.563 280 166.55C280.011 166.537 280.027 166.527 280.045 166.521C280.218 166.477 280.112 166.407 280.062 166.346C279.85 166.099 279.6 165.889 279.319 165.723Z" stroke="#3361E9" stroke-width="1.19396" stroke-dasharray="87.29 87.29"/>
<path d="M317.248 37.0474C316.928 37.2324 317.385 37.5015 317.073 37.6947C316.839 37.8402 316.498 37.5812 316.358 37.9563C316.168 38.4549 315.662 38.6705 315.333 39.045C315.299 39.0836 315.207 39.13 315.194 39.1167C314.767 38.7612 314.613 39.2385 314.413 39.4118C314.184 39.6122 313.933 39.7863 313.666 39.9305C313.258 40.1557 312.868 40.4151 312.461 40.6417C311.994 40.9061 311.617 41.2653 311.212 41.608C310.132 42.5252 308.87 43.1904 307.666 43.9222C306.738 44.4856 305.916 45.2519 304.833 45.5552C304.761 45.5755 304.7 45.6817 304.661 45.7598C304.219 46.5902 303.422 47.0278 302.648 47.4015C300.589 48.39 298.344 48.6072 296.098 48.7143C294.969 48.765 293.84 48.6701 292.737 48.4317C292.57 48.3966 292.216 48.22 292.395 48.6942C292.867 49.9448 292.24 51.0665 291.968 52.2244C291.926 52.3274 291.863 52.4195 291.78 52.4943C291.155 53.2034 290.385 53.7694 289.521 54.1538C287.506 55.0836 285.433 55.8608 283.236 56.2531C282.726 56.3445 282.2 56.4063 281.578 56.7049C283.167 57.0304 284.485 57.5709 285.48 58.7389C285.816 59.1343 285.908 59.5925 285.462 59.8601C285.172 60.0295 284.951 60.2569 284.683 60.4412C283.076 61.554 281.367 62.4978 279.683 63.4829C278.285 64.3034 276.794 64.943 275.368 65.714C274.573 66.143 273.809 66.64 272.954 66.9472C271.644 67.4172 270.481 68.1621 269.249 68.778C268.816 68.9936 268.47 69.4489 267.89 69.1798C267.828 69.151 267.719 69.2296 267.632 69.2519C267.15 69.3857 265.977 68.7735 265.825 68.3124C265.819 68.2952 265.815 68.2771 265.813 68.2589C265.788 67.8333 265.548 67.4979 265.332 67.1541L265.348 67.0444C265.585 66.8439 265.718 66.5524 266.036 66.4187C267.974 65.606 269.808 64.577 271.704 63.6768C272.401 63.345 273.1 63.0278 273.742 62.5897C274.942 61.7596 276.221 61.0518 277.561 60.4767C278.223 60.1978 278.894 59.8639 279.423 59.2619C278.677 58.9972 277.982 58.7539 277.293 58.5069C276.926 58.3757 276.616 58.1338 276.18 58.1424C275.128 58.1648 274.272 57.7243 273.624 56.8926C273.531 56.7712 273.384 56.7945 273.269 56.7833C272.682 56.7255 272.488 56.4277 272.635 55.8536C272.673 55.7012 272.673 55.4707 272.506 55.3458C272.135 55.0699 272.399 54.9133 272.62 54.7869C272.967 54.5881 273.371 54.605 273.753 54.596C276.883 54.5225 279.962 54.1858 282.956 53.1769C284.914 52.5167 286.897 51.9369 288.798 51.1151C289.123 50.9746 289.434 50.8233 289.604 50.481C289.881 49.924 289.758 49.4933 289.111 48.8888C287.873 47.7302 286.281 47.1177 284.9 46.1816C284.594 45.9756 284.003 46.0418 284.098 45.4081C284.112 45.3258 284.023 45.3075 283.941 45.2982C283.556 45.2505 283.321 44.9946 283.038 44.747C282.674 44.4306 282.937 44.3198 283.131 44.2816C283.479 44.2155 283.559 44.0605 283.497 43.7472C283.467 43.6034 283.585 43.507 283.689 43.4322C284.029 43.1898 284.355 42.9743 284.829 42.993C285.276 43.0144 285.699 43.1288 286.133 43.1965C286.919 43.319 287.647 43.6361 288.374 43.9575C288.64 44.0755 288.472 44.1773 288.367 44.3093C288.649 44.0812 288.954 44.1502 289.249 44.2165C289.785 44.3384 290.309 44.5157 290.847 44.6288C291.507 44.7676 292.124 45.0383 292.765 45.2125C293.595 45.4374 294.469 45.4884 295.335 45.5289C296.199 45.5694 297.028 45.6673 297.868 45.3475C298.796 44.9932 299.809 44.8309 300.69 44.3951C301.947 43.774 303.24 43.2294 304.376 42.3275C305.23 41.6676 306.133 41.0716 307.076 40.5445C308.137 39.9228 309.161 39.242 310.146 38.5056C311.324 37.6397 312.739 37.1545 313.797 36.0989C314.254 35.6417 314.841 35.3361 315.477 35.2234C316.13 35.1105 316.54 34.419 317.397 34.6235C317.932 34.7543 318.384 34.7013 318.521 35.3418C318.532 35.3755 318.552 35.4061 318.575 35.4314C318.601 35.4566 318.632 35.4759 318.665 35.488C319.004 35.5734 318.798 35.7121 318.697 35.8303C318.285 36.3132 317.795 36.7244 317.248 37.0474Z" stroke="#FFCA28" stroke-width="1.19396" stroke-dasharray="170.52 170.52"/>
<path d="M209.792 204.064C210.772 203.661 211.471 202.19 210.954 201.1C210.395 199.936 209.275 199.308 208.477 198.37C206.561 196.112 204.831 193.674 202.436 191.86C200.826 190.64 199.773 188.891 198.287 187.527C197.456 186.764 196.793 185.689 195.887 184.973C194.061 183.535 192.756 181.622 191.106 180.028C189.905 178.869 188.822 177.572 187.65 176.367C186.611 175.3 185.351 174.497 184.352 173.398C182.838 171.732 181.177 170.215 179.71 168.503C178.356 166.923 176.488 165.85 174.883 164.514C174.517 164.213 174.117 164.048 173.733 164.355C173.185 164.794 172.189 164.118 171.904 165.125C170.8 164.533 170.835 165.638 170.665 166.087C170.036 167.744 170.25 169.559 170.054 171.3C169.98 171.951 169.672 172.431 169.48 172.987C169.397 173.226 169.156 173.284 168.977 172.97C168.214 171.64 167.251 170.388 166.704 168.975C165.609 166.144 164.023 163.565 162.747 160.829C160.878 156.821 158.678 152.967 156.473 149.127C156.097 148.474 155.639 148.37 155.012 148.564C154.319 148.784 154.137 149.372 153.77 149.94C152.942 151.227 153.071 152.39 153.487 153.676C154.105 155.578 155.156 157.292 155.761 159.213C156.228 160.708 156.929 162.121 157.839 163.397C158.984 165.014 159.436 167.051 160.375 168.833C161.475 170.926 162.333 173.148 163.37 175.276C164.286 177.162 165.228 179.052 166.221 180.909C167.215 182.766 168.194 184.546 169.282 186.303C169.696 186.974 170.257 187.606 170.871 187.874C172.244 188.27 173.507 188.047 173.945 187C174.306 186.133 175.134 185.441 175.144 184.504C175.16 183.061 176.131 181.726 175.589 180.23C175.575 180.192 175.674 180.088 175.739 180.049C176.167 179.788 176.148 179.322 176.225 178.925C176.408 177.98 176.866 177.079 176.645 176.062C176.603 175.848 176.703 175.209 177.144 175.647C177.821 176.321 178.728 176.647 179.392 177.293C181.234 179.087 183.071 180.89 184.852 182.744C187.102 185.089 189.25 187.53 191.524 189.852C193.695 192.056 195.635 194.467 197.68 196.776C199.143 198.433 200.568 200.124 202.013 201.804C202.891 202.823 204.126 203.406 205.078 204.349C206.187 205.457 206.789 205.537 207.864 204.965C208.489 204.631 209.134 204.33 209.792 204.064Z" stroke="#F47079" stroke-width="1.19396"/>
<path d="M149.498 50.4483C152.783 48.6498 155.355 47.2502 157.902 45.8503C164.202 42.3868 205.489 21.3849 211.799 17.9329C212.893 17.3348 213.987 16.8388 213.621 16.2172C213.53 16.0408 213.939 15.7261 214.114 15.4763C214.635 14.7411 214.165 13.5312 213.303 13.7495C212.372 13.9796 212.179 13.7737 212.378 13.309C212.648 12.671 212.103 12.8316 211.268 13.2535C210.187 13.8039 209.097 14.338 208.031 14.9156C203.526 17.3547 164.035 37.3271 159.54 39.7804C156.808 41.2717 154.096 42.792 151.354 44.2716C148.52 45.8015 145.966 47.6103 143.06 49.0657C142.933 49.1221 142.81 49.1895 142.698 49.2639C142.586 49.3383 142.487 49.4182 142.405 49.4988C142.325 49.5794 142.266 49.6589 142.23 49.7325C142.194 49.8063 142.183 49.8727 142.199 49.9277C142.204 50.4518 142.067 51.0075 140.815 51.7289C140.429 51.9518 140.358 52.1651 140.254 52.3892C139.946 53.0819 140.13 53.4023 141.043 53.5264C141.958 53.6505 142.83 53.6076 144.052 52.972C146.085 51.9132 148.216 51.1996 149.498 50.4483Z" stroke="#F47079" stroke-width="1.19396" stroke-dasharray="171.94 171.94"/>
<path d="M97.2093 20.7925C96.9027 21.6448 95.9807 21.623 95.7772 22.5749C95.6309 23.2963 95.5555 24.0787 95.4508 24.8271C95.1569 26.8536 95.2548 29.1954 95.0191 31.2806C94.8085 33.1698 93.2238 49.892 94.7849 52.9369C94.6069 53.9951 95.6487 54.5879 95.9905 54.8842C96.9109 55.681 98.1603 57.1349 98.504 55.5891C98.5217 55.5154 98.6261 55.5187 98.7163 55.4666C99.1956 55.5275 99.1934 54.9236 99.2712 54.4329C99.6381 52.1381 100.338 34.3914 100.568 31.9851C100.687 30.7825 100.669 29.4899 100.816 28.3128C101.016 26.726 100.414 24.78 99.4769 22.7957C99.0996 22.0071 97.3225 20.4757 97.2093 20.7925Z" stroke="#3361E9" stroke-width="1.19396" stroke-dasharray="75.3 75.3"/>
<path d="M39.1344 165.111C39.9126 164.93 40.57 165.475 41.3381 165.193C41.9143 164.974 42.4786 164.689 43.0421 164.436C44.5757 163.755 46.029 162.714 47.5583 161.975C48.9417 161.304 60.9832 155.198 61.8283 153.014C62.6469 152.673 62.274 151.82 62.2179 151.498C62.0661 150.63 62.1026 149.294 60.8458 149.744C60.7849 149.766 60.711 149.704 60.6113 149.672C60.3018 149.369 59.9103 149.625 59.5341 149.786C57.7729 150.537 45.7085 157.585 43.9749 158.462C43.1053 158.899 42.2764 159.452 41.4032 159.862C40.2246 160.412 39.3958 161.578 38.7867 162.955C38.548 163.505 38.8457 165.179 39.1344 165.111Z" stroke="#3361E9" stroke-width="1.19396" stroke-dasharray="59.28 59.28"/>
<path d="M2.29094 12.8959C4.25942 14.7994 5.84445 17.4633 7.79872 19.1841C9.2658 20.4648 10.7102 21.6107 12.1493 22.8021C16.0646 26.0587 33.2077 40.8998 37.1189 44.0557C40.6573 46.9064 44.8735 51.4696 47.2331 50.5191C49.3206 52.2911 48.4822 49.9534 48.3777 49.3066C48.0948 47.5645 48.3351 45.6404 45.1384 42.8075C44.9836 42.6689 44.8056 42.3682 44.5594 42.0431C43.8185 40.717 42.8098 40.0085 41.8501 39.2006C37.3569 35.4139 19.5894 19.8635 15.1512 16.3463C12.9253 14.5756 10.7887 13.0966 8.55681 11.2751C5.54469 8.81397 3.33948 8.26501 1.66111 8.65125C1.0023 8.81837 1.56062 12.1909 2.29094 12.8959Z" stroke="#F47079" stroke-width="1.19396"/>
<path d="M109.658 146.563C109.529 147.385 108.827 147.961 108.789 148.79C108.767 149.413 108.805 150.035 108.818 150.651C108.843 152.325 110.242 162.873 110.319 164.554C110.391 166.074 109.859 167.798 111.418 169.027C111.412 169.917 112.276 169.682 112.572 169.68C113.368 169.672 114.495 169.935 114.566 168.581C114.57 168.516 114.65 168.451 114.712 168.356C115.084 168.092 115.008 167.65 115.007 167.24C115.003 165.323 113.701 154.522 113.58 152.611C113.523 151.652 113.351 150.716 113.318 149.758C113.275 148.466 112.579 147.426 111.624 146.574C111.241 146.238 109.704 146.258 109.658 146.563Z" stroke="#FFCA28" stroke-width="1.19396"/>
</svg>
