<svg width="60" height="60" viewBox="0 0 60 60" fill="none" xmlns="http://www.w3.org/2000/svg">
<rect width="60" height="60" rx="30" fill="#E60C0C" fill-opacity="0.1"/>
<path d="M37.1996 23.333C34.7503 23.333 32.5516 22.889 30.5676 20.901C30.4176 20.7511 30.2143 20.667 30.0023 20.667C29.7903 20.667 29.587 20.7511 29.437 20.901C27.4476 22.889 25.2476 23.333 22.801 23.333C22.5888 23.333 22.3853 23.4172 22.2353 23.5673C22.0853 23.7173 22.001 23.9208 22.001 24.133V28.9356C22.001 34.085 24.6276 37.585 29.7476 39.293C29.9121 39.3479 30.0899 39.3479 30.2543 39.293C35.3756 37.5863 38.001 34.085 38.001 28.9356V24.133C38.001 23.6916 37.641 23.333 37.1996 23.333ZM36.6663 28.9343C36.6663 33.4623 34.485 36.4196 29.9996 37.969C25.5143 36.4196 23.333 33.4623 23.333 28.9343V24.6596C25.4383 24.6076 27.8023 24.1943 30.001 22.2023C32.1956 24.193 34.561 24.6063 36.6663 24.6596V28.9343ZM29.3316 31.057L32.8596 27.529C32.9848 27.4038 33.1546 27.3334 33.3316 27.3334C33.5087 27.3334 33.6785 27.4038 33.8036 27.529C33.9288 27.6541 33.9992 27.8239 33.9992 28.001C33.9992 28.178 33.9288 28.3478 33.8036 28.473L29.8036 32.473C29.7417 32.535 29.6681 32.5843 29.5872 32.6179C29.5062 32.6515 29.4193 32.6688 29.3316 32.6688C29.244 32.6688 29.1571 32.6515 29.0761 32.6179C28.9951 32.5843 28.9216 32.535 28.8596 32.473L26.8596 30.473C26.7977 30.411 26.7485 30.3374 26.7149 30.2564C26.6814 30.1754 26.6641 30.0886 26.6641 30.001C26.6641 29.9133 26.6814 29.8265 26.7149 29.7455C26.7485 29.6645 26.7977 29.5909 26.8596 29.529C26.9848 29.4038 27.1546 29.3334 27.3316 29.3334C27.4193 29.3334 27.5061 29.3507 27.5871 29.3843C27.6681 29.4178 27.7417 29.467 27.8036 29.529L29.3316 31.057Z" fill="#E60C0C"/>
</svg>
