<svg width="22" height="22" viewBox="0 0 22 22" fill="none" xmlns="http://www.w3.org/2000/svg">
<g clip-path="url(#clip0_3318_8932)">
<g clip-path="url(#clip1_3318_8932)">
<g clip-path="url(#clip2_3318_8932)">
<path d="M13.7946 -0.0078125H8.05549C3.82932 -0.0078125 0.40332 3.41818 0.40332 7.64436V13.3835C0.40332 17.6097 3.82932 21.0357 8.05549 21.0357H13.7946C18.0208 21.0357 21.4468 17.6097 21.4468 13.3835V7.64436C21.4468 3.41818 18.0208 -0.0078125 13.7946 -0.0078125Z" fill="#EEF2FD"/>
<path d="M10.9225 10.5168C12.3058 10.5168 13.4271 9.39548 13.4271 8.01229C13.4271 6.62911 12.3058 5.50781 10.9225 5.50781C9.5393 5.50781 8.41797 6.62911 8.41797 8.01229C8.41797 9.39548 9.5393 10.5168 10.9225 10.5168Z" fill="#687296"/>
<path d="M15.9328 15.5245C15.9328 14.8667 15.8033 14.2155 15.5515 13.6078C15.2998 13 14.9308 12.4478 14.4657 11.9827C14.0005 11.5176 13.4483 11.1487 12.8406 10.8969C12.2329 10.6451 11.5815 10.5156 10.9237 10.5156C10.2659 10.5156 9.61448 10.6451 9.00678 10.8969C8.39904 11.1487 7.84683 11.5176 7.38169 11.9827C6.91656 12.4478 6.54759 13 6.29585 13.6078C6.04412 14.2155 5.91455 14.8667 5.91455 15.5245H15.9328Z" fill="#687296"/>
</g>
</g>
</g>
<defs>
<clipPath id="clip0_3318_8932">
<rect width="22" height="21.03" fill="white"/>
</clipPath>
<clipPath id="clip1_3318_8932">
<rect width="22" height="21.03" fill="white"/>
</clipPath>
<clipPath id="clip2_3318_8932">
<rect width="22" height="21.0435" fill="white" transform="translate(0 -0.0078125)"/>
</clipPath>
</defs>
</svg>
