<svg width="46" height="58" viewBox="0 0 46 58" fill="none" xmlns="http://www.w3.org/2000/svg">
<path d="M1.27611 2.92174C6.19694 1.77105 28.8871 -2.99791 44.4984 2.85929C44.9696 3.03606 45.3061 3.45455 45.3692 3.95375C46.1103 9.82858 49.6599 46.4737 24.6451 57.8181C24.3285 57.9617 23.9669 57.974 23.6403 57.8551C19.8948 56.4919 -2.56499 46.5183 0.242027 4.14754C0.281241 3.55518 0.69807 3.05681 1.27611 2.92174Z" fill="#D8BFFF"/>
<path d="M45.3694 3.95362C45.3063 3.45422 44.9698 3.03594 44.4986 2.85916C34.3549 -0.946665 21.2244 -0.265918 11.9199 0.993285C21.1302 -0.160103 33.5909 -0.631917 43.3093 3.01415C43.7805 3.19092 44.1171 3.60921 44.1801 4.10861C44.919 9.96539 48.4457 46.402 23.6814 57.8653C23.9974 57.9691 24.3418 57.9556 24.6454 57.8178C49.6599 46.4734 46.1105 9.82825 45.3694 3.95362Z" fill="#A16AFA"/>
<path d="M6.03576 7.19553C9.35566 6.36788 28.2871 2.02468 41.0768 7.16938C41.3144 7.26483 41.4791 7.48372 41.5115 7.73767C42.0188 11.7136 45.363 43.3197 24.9068 52.915C24.7072 53.0086 24.4738 53.003 24.2787 52.9007C21.662 51.5278 3.72421 40.882 5.50025 7.84536C5.51705 7.53517 5.73429 7.27084 6.03576 7.19553Z" fill="#A16AFA"/>
<path d="M6.99951 7.7124C10.2296 6.89472 28.2707 2.70091 40.4758 7.68626C40.7119 7.78274 40.8752 8.0008 40.9067 8.25372C41.3955 12.1589 44.5719 42.8483 25.0446 52.1864C24.8408 52.2839 24.6022 52.276 24.4032 52.1694C21.8236 50.7853 4.77801 40.3979 6.46649 8.36203C6.48288 8.05267 6.69908 7.78855 6.99951 7.7124Z" fill="#A16AFA"/>
<path d="M39.2885 31.9697C36.5087 34.1426 33.8917 36.5164 31.4065 39.0195C28.7437 41.7014 26.2261 44.5269 23.7959 47.4202C23.016 48.3487 22.2547 49.2942 21.5022 50.2461C22.4871 51.0061 23.3112 51.5368 23.8797 51.8723C24.5501 51.0866 25.2211 50.3013 25.8902 49.5143C28.296 46.6851 30.7683 43.9117 33.3894 41.2792C34.953 39.7087 36.568 38.1858 38.2434 36.7335C38.8704 35.0435 39.3777 33.3146 39.7894 31.584C39.6221 31.7114 39.4551 31.8394 39.2885 31.9697Z" fill="#A16AFA"/>
<path d="M8.38943 29.2604C9.07142 28.2136 9.70714 27.1279 10.3688 26.0737C11.1929 24.7603 12.0591 23.4735 12.9652 22.2153C13.885 20.9383 14.5126 20.1264 15.5332 18.8958C19.4384 14.1879 24.1103 9.75693 28.8433 6.37499C29.2861 6.05858 29.7338 5.74881 30.1839 5.44256C26.5712 5.16205 22.9262 5.28467 19.6135 5.58863C19.1712 5.97226 18.7315 6.35901 18.2985 6.75239C13.9292 10.7228 10.0437 15.2519 6.72314 20.1401C7.07213 23.4924 7.64976 26.5237 8.38943 29.2604Z" fill="#A16AFA"/>
<path d="M11.7004 32.2378C13.9055 29.1412 16.2621 26.147 18.7876 23.3052C23.7733 17.6947 29.3791 12.6103 35.5083 8.2748C36.2411 7.75631 36.9781 7.24446 37.7167 6.7355C36.506 6.38839 35.2578 6.11327 33.9883 5.90039C31.1829 7.89055 28.5072 10.0963 25.9479 12.3827C20.242 17.4801 15.0641 23.2742 10.7699 29.6132C10.2443 30.389 9.71504 31.1714 9.20215 31.9648C9.4949 32.8466 9.80364 33.695 10.1269 34.5087C10.6458 33.7481 11.1662 32.9883 11.7004 32.2378Z" fill="#A16AFA"/>
<path d="M19.4411 48.4957C20.2708 47.5635 21.0524 46.5694 21.846 45.6523C24.2968 42.8211 26.7304 39.9856 29.322 37.2805C32.9015 33.5442 36.578 30.1197 40.6478 27.1442C41.0885 24.2349 41.2945 21.4165 41.3636 18.8711C35.823 22.3001 30.8059 26.5956 26.2749 31.2538C23.2465 34.3672 20.3756 37.7079 17.7858 41.1952C17.0393 42.2005 16.3003 43.2207 15.6058 44.2689C16.9225 45.9824 18.2363 47.3775 19.4411 48.4957Z" fill="#A16AFA"/>
<path d="M34.8489 14.5002C30.6102 15.0212 27.4729 19.6146 25.1508 22.7534C23.787 24.5967 22.5411 26.52 21.3647 28.482C20.998 28.2473 20.6242 28.0238 20.2395 27.8166C18.7043 26.9893 16.7088 25.9866 14.9298 26.5721C13.9609 26.891 13.4731 27.5935 13.3733 28.5469C13.1855 30.3381 14.7267 32.0199 15.8876 33.2648C17.0818 34.5454 18.4952 35.6098 19.8637 36.7076C21.7666 38.2336 24.6196 38.1892 25.9803 35.9463C27.8217 32.9109 29.5842 29.8279 31.6796 26.9449C32.6662 25.5874 33.4816 24.5931 34.7381 23.2931C35.3037 22.7078 35.9122 22.1685 36.4929 21.5988C37.6266 20.4867 38.1706 19.4974 38.3895 17.9203C38.6229 16.2372 36.5703 14.2886 34.8489 14.5002Z" fill="white"/>
</svg>
