<svg width="266" height="112" viewBox="0 0 266 112" fill="none" xmlns="http://www.w3.org/2000/svg">
<path d="M44.9588 11V2.27273H48.0696C48.7457 2.27273 49.3068 2.3892 49.7528 2.62216C50.2017 2.85511 50.5369 3.17756 50.7585 3.58949C50.9801 3.99858 51.0909 4.47159 51.0909 5.00852C51.0909 5.54261 50.9787 6.01278 50.7543 6.41903C50.5327 6.82244 50.1974 7.13636 49.7486 7.3608C49.3026 7.58523 48.7415 7.69744 48.0653 7.69744H45.7088V6.56392H47.946C48.3722 6.56392 48.7188 6.50284 48.9858 6.38068C49.2557 6.25852 49.4531 6.08097 49.5781 5.84801C49.7031 5.61506 49.7656 5.33523 49.7656 5.00852C49.7656 4.67898 49.7017 4.39347 49.5739 4.15199C49.4489 3.91051 49.2514 3.72585 48.9815 3.59801C48.7145 3.46733 48.3636 3.40199 47.929 3.40199H46.2756V11H44.9588ZM49.267 7.0625L51.4233 11H49.9233L47.8097 7.0625H49.267ZM52.5392 11V2.27273H58.0108V3.40625H53.8559V6.06534H57.7253V7.1946H53.8559V9.86648H58.0619V11H52.5392ZM64.3756 4.56534C64.3301 4.16193 64.1426 3.84943 63.8131 3.62784C63.4835 3.40341 63.0688 3.29119 62.5688 3.29119C62.2108 3.29119 61.9012 3.34801 61.6398 3.46165C61.3784 3.57244 61.1753 3.72585 61.0304 3.92188C60.8884 4.11506 60.8174 4.33523 60.8174 4.58239C60.8174 4.78977 60.8657 4.96875 60.9622 5.11932C61.0617 5.26989 61.1909 5.39631 61.35 5.49858C61.512 5.59801 61.6853 5.68182 61.8699 5.75C62.0546 5.81534 62.2321 5.86932 62.4026 5.91193L63.2549 6.13352C63.5333 6.2017 63.8188 6.29403 64.1114 6.41051C64.404 6.52699 64.6753 6.6804 64.9253 6.87074C65.1753 7.06108 65.377 7.29688 65.5304 7.57812C65.6867 7.85938 65.7648 8.19602 65.7648 8.58807C65.7648 9.08239 65.637 9.52131 65.3813 9.90483C65.1284 10.2884 64.7605 10.5909 64.2776 10.8125C63.7975 11.0341 63.2165 11.1449 62.5347 11.1449C61.8813 11.1449 61.3159 11.0412 60.8387 10.8338C60.3614 10.6264 59.9878 10.3324 59.7179 9.9517C59.448 9.56818 59.2989 9.11364 59.2705 8.58807H60.5915C60.6171 8.90341 60.7193 9.16619 60.8983 9.37642C61.0801 9.58381 61.3117 9.73864 61.5929 9.84091C61.877 9.94034 62.1881 9.99006 62.5262 9.99006C62.8983 9.99006 63.2293 9.93182 63.5191 9.81534C63.8117 9.69602 64.0418 9.53125 64.2094 9.32102C64.377 9.10795 64.4608 8.85937 64.4608 8.57528C64.4608 8.31676 64.387 8.10511 64.2392 7.94034C64.0943 7.77557 63.8969 7.6392 63.6469 7.53125C63.3997 7.4233 63.1199 7.32812 62.8074 7.24574L61.7762 6.96449C61.0773 6.77415 60.5233 6.49432 60.1142 6.125C59.708 5.75568 59.5049 5.26705 59.5049 4.65909C59.5049 4.15625 59.6412 3.71733 59.9139 3.34233C60.1867 2.96733 60.556 2.67614 61.0219 2.46875C61.4878 2.25852 62.0134 2.15341 62.5986 2.15341C63.1895 2.15341 63.7108 2.2571 64.1625 2.46449C64.6171 2.67188 64.975 2.95739 65.2364 3.32102C65.4978 3.68182 65.6341 4.09659 65.6455 4.56534H64.3756ZM74.7653 6.63636C74.7653 7.56818 74.5948 8.36932 74.2539 9.03977C73.913 9.70739 73.4457 10.2216 72.8519 10.5824C72.261 10.9403 71.5891 11.1193 70.8363 11.1193C70.0806 11.1193 69.4059 10.9403 68.8121 10.5824C68.2212 10.2216 67.7553 9.70597 67.4144 9.03551C67.0735 8.36506 66.9031 7.56534 66.9031 6.63636C66.9031 5.70455 67.0735 4.90483 67.4144 4.23722C67.7553 3.56676 68.2212 3.05256 68.8121 2.6946C69.4059 2.33381 70.0806 2.15341 70.8363 2.15341C71.5891 2.15341 72.261 2.33381 72.8519 2.6946C73.4457 3.05256 73.913 3.56676 74.2539 4.23722C74.5948 4.90483 74.7653 5.70455 74.7653 6.63636ZM73.4613 6.63636C73.4613 5.92614 73.3462 5.32812 73.1161 4.84233C72.8889 4.35369 72.5764 3.98438 72.1786 3.73438C71.7837 3.48153 71.3363 3.35511 70.8363 3.35511C70.3335 3.35511 69.8846 3.48153 69.4897 3.73438C69.0948 3.98438 68.7823 4.35369 68.5522 4.84233C68.3249 5.32812 68.2113 5.92614 68.2113 6.63636C68.2113 7.34659 68.3249 7.94602 68.5522 8.43466C68.7823 8.92045 69.0948 9.28977 69.4897 9.54261C69.8846 9.79261 70.3335 9.91761 70.8363 9.91761C71.3363 9.91761 71.7837 9.79261 72.1786 9.54261C72.5764 9.28977 72.8889 8.92045 73.1161 8.43466C73.3462 7.94602 73.4613 7.34659 73.4613 6.63636ZM81.8652 2.27273H83.1862V8.01278C83.1862 8.62358 83.0427 9.16477 82.7558 9.63636C82.4689 10.1051 82.0655 10.4744 81.5456 10.7443C81.0257 11.0114 80.4163 11.1449 79.7175 11.1449C79.0214 11.1449 78.4135 11.0114 77.8936 10.7443C77.3737 10.4744 76.9703 10.1051 76.6834 9.63636C76.3964 9.16477 76.253 8.62358 76.253 8.01278V2.27273H77.5697V7.90625C77.5697 8.30114 77.6564 8.65199 77.8297 8.95881C78.0058 9.26562 78.2544 9.5071 78.5754 9.68324C78.8964 9.85653 79.2771 9.94318 79.7175 9.94318C80.1606 9.94318 80.5427 9.85653 80.8638 9.68324C81.1876 9.5071 81.4348 9.26562 81.6052 8.95881C81.7785 8.65199 81.8652 8.30114 81.8652 7.90625V2.27273ZM84.9466 11V2.27273H88.0574C88.7336 2.27273 89.2946 2.3892 89.7407 2.62216C90.1895 2.85511 90.5247 3.17756 90.7463 3.58949C90.9679 3.99858 91.0787 4.47159 91.0787 5.00852C91.0787 5.54261 90.9665 6.01278 90.7421 6.41903C90.5205 6.82244 90.1853 7.13636 89.7364 7.3608C89.2904 7.58523 88.7293 7.69744 88.0532 7.69744H85.6966V6.56392H87.9338C88.36 6.56392 88.7066 6.50284 88.9736 6.38068C89.2435 6.25852 89.4409 6.08097 89.5659 5.84801C89.6909 5.61506 89.7534 5.33523 89.7534 5.00852C89.7534 4.67898 89.6895 4.39347 89.5617 4.15199C89.4367 3.91051 89.2392 3.72585 88.9693 3.59801C88.7023 3.46733 88.3514 3.40199 87.9168 3.40199H86.2634V11H84.9466ZM89.2549 7.0625L91.4111 11H89.9111L87.7975 7.0625H89.2549ZM99.7756 5.1108H98.446C98.3949 4.8267 98.2997 4.5767 98.1605 4.3608C98.0213 4.14489 97.8509 3.96165 97.6492 3.81108C97.4474 3.66051 97.2216 3.54687 96.9716 3.47017C96.7244 3.39347 96.4617 3.35511 96.1832 3.35511C95.6804 3.35511 95.2301 3.48153 94.8324 3.73438C94.4375 3.98722 94.125 4.35795 93.8949 4.84659C93.6676 5.33523 93.554 5.93182 93.554 6.63636C93.554 7.34659 93.6676 7.94602 93.8949 8.43466C94.125 8.9233 94.4389 9.29261 94.8367 9.54261C95.2344 9.79261 95.6818 9.91761 96.179 9.91761C96.4546 9.91761 96.7159 9.88068 96.9631 9.80682C97.2131 9.73011 97.4389 9.6179 97.6406 9.47017C97.8423 9.32244 98.0128 9.14205 98.152 8.92898C98.294 8.71307 98.3921 8.46591 98.446 8.1875L99.7756 8.19176C99.7046 8.62074 99.5668 9.01562 99.3622 9.37642C99.1605 9.73438 98.9006 10.044 98.5824 10.3054C98.2671 10.5639 97.9063 10.7642 97.5 10.9062C97.0938 11.0483 96.6506 11.1193 96.1705 11.1193C95.4148 11.1193 94.7415 10.9403 94.1506 10.5824C93.5597 10.2216 93.0938 9.70597 92.7528 9.03551C92.4148 8.36506 92.2457 7.56534 92.2457 6.63636C92.2457 5.70455 92.4162 4.90483 92.7571 4.23722C93.098 3.56676 93.5639 3.05256 94.1548 2.6946C94.7457 2.33381 95.4176 2.15341 96.1705 2.15341C96.6335 2.15341 97.0653 2.22017 97.4659 2.35369C97.8693 2.48437 98.2315 2.67756 98.5526 2.93324C98.8736 3.18608 99.1392 3.49574 99.3494 3.86222C99.5597 4.22585 99.7017 4.64205 99.7756 5.1108ZM101.197 11V2.27273H106.669V3.40625H102.514V6.06534H106.383V7.1946H102.514V9.86648H106.72V11H101.197ZM113.034 4.56534C112.988 4.16193 112.801 3.84943 112.471 3.62784C112.142 3.40341 111.727 3.29119 111.227 3.29119C110.869 3.29119 110.559 3.34801 110.298 3.46165C110.036 3.57244 109.833 3.72585 109.688 3.92188C109.546 4.11506 109.475 4.33523 109.475 4.58239C109.475 4.78977 109.524 4.96875 109.62 5.11932C109.72 5.26989 109.849 5.39631 110.008 5.49858C110.17 5.59801 110.343 5.68182 110.528 5.75C110.713 5.81534 110.89 5.86932 111.061 5.91193L111.913 6.13352C112.191 6.2017 112.477 6.29403 112.769 6.41051C113.062 6.52699 113.333 6.6804 113.583 6.87074C113.833 7.06108 114.035 7.29688 114.188 7.57812C114.345 7.85938 114.423 8.19602 114.423 8.58807C114.423 9.08239 114.295 9.52131 114.039 9.90483C113.786 10.2884 113.419 10.5909 112.936 10.8125C112.456 11.0341 111.875 11.1449 111.193 11.1449C110.539 11.1449 109.974 11.0412 109.497 10.8338C109.019 10.6264 108.646 10.3324 108.376 9.9517C108.106 9.56818 107.957 9.11364 107.929 8.58807H109.25C109.275 8.90341 109.377 9.16619 109.556 9.37642C109.738 9.58381 109.97 9.73864 110.251 9.84091C110.535 9.94034 110.846 9.99006 111.184 9.99006C111.556 9.99006 111.887 9.93182 112.177 9.81534C112.47 9.69602 112.7 9.53125 112.867 9.32102C113.035 9.10795 113.119 8.85937 113.119 8.57528C113.119 8.31676 113.045 8.10511 112.897 7.94034C112.752 7.77557 112.555 7.6392 112.305 7.53125C112.058 7.4233 111.778 7.32812 111.465 7.24574L110.434 6.96449C109.735 6.77415 109.181 6.49432 108.772 6.125C108.366 5.75568 108.163 5.26705 108.163 4.65909C108.163 4.15625 108.299 3.71733 108.572 3.34233C108.845 2.96733 109.214 2.67614 109.68 2.46875C110.146 2.25852 110.671 2.15341 111.257 2.15341C111.848 2.15341 112.369 2.2571 112.821 2.46449C113.275 2.67188 113.633 2.95739 113.894 3.32102C114.156 3.68182 114.292 4.09659 114.304 4.56534H113.034Z" fill="white"/>
<path d="M47.5682 48L44.3807 36.3636H45.4602L48.0966 46.3693H48.1875L50.8239 36.3636H52.0511L54.6875 46.3693H54.7784L57.4148 36.3636H58.5L55.3125 48H54.1761L51.4773 38.1307H51.4034L48.7045 48H47.5682ZM61.0676 42.5455V48H60.0562V36.3636H61.0676V40.642H61.1585C61.363 40.1913 61.6793 39.8314 62.1074 39.5625C62.5392 39.2936 63.0846 39.1591 63.7437 39.1591C64.3346 39.1591 64.8536 39.2803 65.3005 39.5227C65.7475 39.7652 66.096 40.1231 66.346 40.5966C66.596 41.0701 66.721 41.6534 66.721 42.3466V48H65.704V42.4091C65.704 41.6894 65.5032 41.1231 65.1017 40.7102C64.704 40.2936 64.1661 40.0852 63.488 40.0852C63.0221 40.0852 62.6074 40.1837 62.2437 40.3807C61.8801 40.5777 61.5922 40.8617 61.3801 41.233C61.1718 41.6004 61.0676 42.0379 61.0676 42.5455ZM71.6679 48.1989C71.1413 48.1989 70.6603 48.0966 70.2247 47.892C69.7891 47.6837 69.4425 47.3845 69.1849 46.9943C68.9273 46.6004 68.7985 46.1231 68.7985 45.5625C68.7985 45.1307 68.88 44.767 69.0429 44.4716C69.2057 44.1761 69.4368 43.9337 69.736 43.7443C70.0353 43.5549 70.3894 43.4053 70.7985 43.2955C71.2076 43.1856 71.6584 43.1004 72.1508 43.0398C72.6394 42.9792 73.0523 42.9261 73.3894 42.8807C73.7304 42.8352 73.9898 42.7633 74.1679 42.6648C74.3459 42.5663 74.4349 42.4072 74.4349 42.1875V41.983C74.4349 41.3883 74.2569 40.9205 73.9008 40.5795C73.5485 40.2348 73.041 40.0625 72.3781 40.0625C71.7493 40.0625 71.236 40.2008 70.8383 40.4773C70.4444 40.7538 70.1679 41.0795 70.0088 41.4545L69.0485 41.108C69.2455 40.6307 69.5182 40.25 69.8667 39.9659C70.2152 39.678 70.6054 39.4716 71.0372 39.3466C71.469 39.2178 71.9065 39.1534 72.3497 39.1534C72.683 39.1534 73.0296 39.197 73.3894 39.2841C73.7531 39.3712 74.0902 39.5227 74.4008 39.7386C74.7114 39.9508 74.9633 40.2481 75.1565 40.6307C75.3497 41.0095 75.4463 41.4905 75.4463 42.0739V48H74.4349V46.6193H74.3724C74.2512 46.8769 74.0713 47.1269 73.8326 47.3693C73.594 47.6117 73.2947 47.8106 72.9349 47.9659C72.575 48.1212 72.1527 48.1989 71.6679 48.1989ZM71.8042 47.2727C72.3421 47.2727 72.808 47.1534 73.2019 46.9148C73.5959 46.6761 73.8989 46.3598 74.111 45.9659C74.3269 45.5682 74.4349 45.1307 74.4349 44.6534V43.392C74.3591 43.464 74.2322 43.5284 74.0542 43.5852C73.88 43.642 73.6773 43.6932 73.4463 43.7386C73.219 43.7803 72.9917 43.8163 72.7644 43.8466C72.5372 43.8769 72.3326 43.9034 72.1508 43.9261C71.6584 43.9867 71.2379 44.0814 70.8894 44.2102C70.541 44.339 70.2739 44.517 70.0883 44.7443C69.9027 44.9678 69.8099 45.2557 69.8099 45.608C69.8099 46.1383 69.9993 46.5492 70.3781 46.8409C70.7569 47.1288 71.2322 47.2727 71.8042 47.2727ZM81.4201 39.2727V40.1534H77.2553V39.2727H81.4201ZM78.5565 37.1818H79.5735V45.7216C79.5735 46.0852 79.636 46.3712 79.761 46.5795C79.886 46.7841 80.0489 46.9299 80.2496 47.017C80.4504 47.1004 80.6644 47.142 80.8917 47.142C81.0243 47.142 81.1379 47.1345 81.2326 47.1193C81.3273 47.1004 81.4106 47.0814 81.4826 47.0625L81.6985 47.9773C81.6 48.0152 81.4788 48.0492 81.3349 48.0795C81.1909 48.1136 81.0129 48.1307 80.8008 48.1307C80.4296 48.1307 80.0716 48.0492 79.7269 47.8864C79.386 47.7235 79.1057 47.4811 78.886 47.1591C78.6663 46.8371 78.5565 46.4375 78.5565 45.9602V37.1818ZM84.8584 36.3636V37.3864C84.8584 37.697 84.8016 38.0284 84.688 38.3807C84.5781 38.7292 84.4152 39.0682 84.1993 39.3977C83.9872 39.7235 83.7296 40.0076 83.4266 40.25L82.8755 39.767C83.1596 39.4337 83.4001 39.0644 83.5971 38.6591C83.794 38.25 83.8925 37.8314 83.8925 37.4034V36.3636H84.8584ZM91.2414 41.1875L90.3152 41.4489C90.2243 41.1875 90.0955 40.9508 89.9289 40.7386C89.7622 40.5265 89.5444 40.358 89.2755 40.233C89.0103 40.108 88.6808 40.0455 88.2868 40.0455C87.6959 40.0455 87.2111 40.1856 86.8323 40.4659C86.4535 40.7462 86.2641 41.108 86.2641 41.5511C86.2641 41.9261 86.3929 42.2311 86.6505 42.4659C86.9118 42.697 87.3133 42.8807 87.855 43.017L89.1732 43.3409C89.9042 43.5189 90.4516 43.8011 90.8152 44.1875C91.1827 44.5739 91.3664 45.0587 91.3664 45.642C91.3664 46.1345 91.23 46.572 90.9573 46.9545C90.6845 47.3371 90.3039 47.6383 89.8152 47.858C89.3304 48.0739 88.7679 48.1818 88.1277 48.1818C87.2755 48.1818 86.5728 47.9905 86.0198 47.608C85.4667 47.2216 85.1126 46.6648 84.9573 45.9375L85.9289 45.6989C86.0539 46.2178 86.2982 46.6098 86.6618 46.875C87.0292 47.1402 87.5122 47.2727 88.1107 47.2727C88.7811 47.2727 89.3171 47.1231 89.7186 46.8239C90.1202 46.5208 90.3209 46.142 90.3209 45.6875C90.3209 45.3352 90.2035 45.0398 89.9686 44.8011C89.7338 44.5587 89.3777 44.3807 88.9005 44.267L87.4743 43.9261C86.7167 43.7443 86.1561 43.4564 85.7925 43.0625C85.4289 42.6686 85.247 42.1799 85.247 41.5966C85.247 41.1155 85.3777 40.6932 85.6391 40.3295C85.9005 39.9621 86.2603 39.6742 86.7186 39.4659C87.177 39.2576 87.6997 39.1534 88.2868 39.1534C89.0861 39.1534 89.7243 39.3352 90.2016 39.6989C90.6827 40.0587 91.0292 40.5549 91.2414 41.1875ZM98.7842 42.5455V48H97.7729V39.2727H98.7558V40.642H98.8467C99.0513 40.1951 99.3694 39.8371 99.8013 39.5682C100.237 39.2955 100.775 39.1591 101.415 39.1591C102.002 39.1591 102.517 39.2822 102.96 39.5284C103.407 39.7708 103.754 40.1288 104 40.6023C104.25 41.0758 104.375 41.6572 104.375 42.3466V48H103.364V42.4091C103.364 41.6932 103.163 41.1269 102.761 40.7102C102.364 40.2936 101.83 40.0852 101.159 40.0852C100.701 40.0852 100.294 40.1837 99.9376 40.3807C99.5816 40.5777 99.2994 40.8617 99.091 41.233C98.8865 41.6004 98.7842 42.0379 98.7842 42.5455ZM110.413 48.1818C109.598 48.1818 108.894 47.9924 108.299 47.6136C107.705 47.2311 107.244 46.7027 106.919 46.0284C106.597 45.3504 106.436 44.5701 106.436 43.6875C106.436 42.8087 106.597 42.0284 106.919 41.3466C107.244 40.661 107.693 40.125 108.265 39.7386C108.841 39.3485 109.506 39.1534 110.259 39.1534C110.733 39.1534 111.189 39.2405 111.629 39.4148C112.068 39.5852 112.462 39.8485 112.811 40.2045C113.163 40.5568 113.441 41.0019 113.646 41.5398C113.85 42.0739 113.953 42.7064 113.953 43.4375V43.9375H107.134V43.0455H112.919C112.919 42.4848 112.805 41.9811 112.578 41.5341C112.354 41.0833 112.042 40.7273 111.64 40.4659C111.242 40.2045 110.782 40.0739 110.259 40.0739C109.706 40.0739 109.22 40.2216 108.799 40.517C108.379 40.8125 108.049 41.2027 107.811 41.6875C107.576 42.1723 107.456 42.7027 107.453 43.2784V43.8125C107.453 44.5057 107.572 45.1117 107.811 45.6307C108.053 46.1458 108.396 46.5455 108.839 46.8295C109.282 47.1136 109.807 47.2557 110.413 47.2557C110.826 47.2557 111.188 47.1913 111.498 47.0625C111.813 46.9337 112.076 46.7614 112.288 46.5455C112.504 46.3258 112.667 46.0852 112.777 45.8239L113.737 46.1364C113.604 46.5038 113.386 46.8428 113.083 47.1534C112.784 47.464 112.409 47.714 111.958 47.9034C111.511 48.089 110.996 48.1818 110.413 48.1818ZM117.965 48L115.328 39.2727H116.397L118.465 46.4716H118.539L120.601 39.2727H121.675L123.721 46.4545H123.8L125.868 39.2727H126.936L124.3 48H123.255L121.186 40.8466H121.078L119.01 48H117.965ZM130.504 44.6648V44.358C130.508 43.7595 130.574 43.2727 130.703 42.8977C130.832 42.5227 131.021 42.2064 131.271 41.9489C131.525 41.6875 131.839 41.4375 132.214 41.1989C132.495 41.017 132.729 40.8258 132.919 40.625C133.112 40.4205 133.258 40.197 133.356 39.9545C133.459 39.7083 133.51 39.4413 133.51 39.1534C133.51 38.7443 133.413 38.3864 133.22 38.0795C133.031 37.7727 132.773 37.536 132.447 37.3693C132.121 37.1989 131.76 37.1136 131.362 37.1136C130.983 37.1136 130.629 37.197 130.299 37.3636C129.974 37.5265 129.707 37.7689 129.498 38.0909C129.294 38.4091 129.182 38.803 129.163 39.2727H128.089C128.108 38.6477 128.264 38.1061 128.555 37.6477C128.847 37.1894 129.237 36.8352 129.726 36.5852C130.214 36.3314 130.76 36.2045 131.362 36.2045C131.991 36.2045 132.544 36.3352 133.021 36.5966C133.498 36.8542 133.871 37.2083 134.14 37.6591C134.409 38.1061 134.544 38.6193 134.544 39.1989C134.544 39.5814 134.483 39.9299 134.362 40.2443C134.241 40.5587 134.059 40.8485 133.817 41.1136C133.578 41.3788 133.279 41.6288 132.919 41.8636C132.578 42.0909 132.307 42.3163 132.106 42.5398C131.906 42.7633 131.762 43.0189 131.674 43.3068C131.587 43.5909 131.54 43.9413 131.532 44.358V44.6648H130.504ZM131.049 48.0852C130.826 48.0852 130.633 48.0057 130.47 47.8466C130.311 47.6837 130.231 47.4905 130.231 47.267C130.231 47.0398 130.311 46.8466 130.47 46.6875C130.633 46.5284 130.826 46.4489 131.049 46.4489C131.273 46.4489 131.464 46.5284 131.623 46.6875C131.786 46.8466 131.868 47.0398 131.868 47.267C131.868 47.4148 131.83 47.5511 131.754 47.6761C131.682 47.8011 131.584 47.9015 131.459 47.9773C131.337 48.0492 131.201 48.0852 131.049 48.0852Z" fill="white"/>
<path d="M45.5455 78V66.3636H49.4716C50.2292 66.3636 50.8598 66.4962 51.3636 66.7614C51.8712 67.0265 52.2519 67.3883 52.5057 67.8466C52.7595 68.3049 52.8864 68.8258 52.8864 69.4091C52.8864 69.8939 52.8049 70.3087 52.642 70.6534C52.4792 70.9981 52.2576 71.2765 51.9773 71.4886C51.697 71.7008 51.3845 71.8542 51.0398 71.9489V72.0398C51.4148 72.0663 51.7784 72.1989 52.1307 72.4375C52.483 72.6723 52.7727 73.0019 53 73.4261C53.2273 73.8504 53.3409 74.358 53.3409 74.9489C53.3409 75.536 53.2102 76.0606 52.9489 76.5227C52.6875 76.9811 52.286 77.3428 51.7443 77.608C51.2064 77.8693 50.5208 78 49.6875 78H45.5455ZM46.608 77.0455H49.6875C50.5852 77.0455 51.2481 76.8466 51.6761 76.4489C52.108 76.0511 52.3239 75.5511 52.3239 74.9489C52.3239 74.5057 52.2159 74.1042 52 73.7443C51.7879 73.3807 51.4867 73.0928 51.0966 72.8807C50.7102 72.6686 50.2557 72.5625 49.733 72.5625H46.608V77.0455ZM46.608 71.6193H49.5682C50.0265 71.6193 50.428 71.5246 50.7727 71.3352C51.1174 71.1458 51.3864 70.8845 51.5795 70.5511C51.7727 70.2178 51.8693 69.8371 51.8693 69.4091C51.8693 68.7917 51.6686 68.2898 51.267 67.9034C50.8655 67.5133 50.267 67.3182 49.4716 67.3182H46.608V71.6193ZM56.552 66.3636V78H55.5406V66.3636H56.552ZM62.4661 78.1818C61.7124 78.1818 61.0457 77.9905 60.4661 77.608C59.8904 77.2254 59.4396 76.697 59.1139 76.0227C58.7881 75.3447 58.6252 74.5625 58.6252 73.6761C58.6252 72.7822 58.7881 71.9962 59.1139 71.3182C59.4396 70.6364 59.8904 70.1061 60.4661 69.7273C61.0457 69.3447 61.7124 69.1534 62.4661 69.1534C63.2199 69.1534 63.8847 69.3447 64.4605 69.7273C65.0362 70.1098 65.487 70.6402 65.8127 71.3182C66.1423 71.9962 66.3071 72.7822 66.3071 73.6761C66.3071 74.5625 66.1442 75.3447 65.8184 76.0227C65.4927 76.697 65.04 77.2254 64.4605 77.608C63.8847 77.9905 63.2199 78.1818 62.4661 78.1818ZM62.4661 77.2557C63.0722 77.2557 63.5855 77.0928 64.0059 76.767C64.4264 76.4413 64.7446 76.0076 64.9605 75.4659C65.1802 74.9242 65.29 74.3277 65.29 73.6761C65.29 73.0246 65.1802 72.4261 64.9605 71.8807C64.7446 71.3352 64.4264 70.8977 64.0059 70.5682C63.5855 70.2386 63.0722 70.0739 62.4661 70.0739C61.8639 70.0739 61.3506 70.2386 60.9264 70.5682C60.5059 70.8977 60.1858 71.3352 59.9661 71.8807C59.7502 72.4261 59.6423 73.0246 59.6423 73.6761C59.6423 74.3277 59.7502 74.9242 59.9661 75.4659C60.1858 76.0076 60.5059 76.4413 60.9264 76.767C61.3468 77.0928 61.8601 77.2557 62.4661 77.2557ZM71.7028 81.4545C71.1081 81.4545 70.5872 81.3769 70.1403 81.2216C69.6933 81.0701 69.3164 80.8617 69.0096 80.5966C68.7028 80.3314 68.4641 80.0341 68.2937 79.7045L69.1232 79.1591C69.2482 79.3788 69.4149 79.5947 69.6232 79.8068C69.8353 80.0189 70.11 80.1951 70.4471 80.3352C70.788 80.4754 71.2066 80.5455 71.7028 80.5455C72.4755 80.5455 73.0986 80.3523 73.5721 79.9659C74.0494 79.5795 74.288 78.9792 74.288 78.1648V76.1989H74.1971C74.0797 76.464 73.9111 76.7292 73.6914 76.9943C73.4717 77.2557 73.1838 77.4735 72.8278 77.6477C72.4755 77.822 72.038 77.9091 71.5153 77.9091C70.8183 77.9091 70.199 77.7367 69.6573 77.392C69.1194 77.0473 68.6952 76.5549 68.3846 75.9148C68.0778 75.2708 67.9244 74.5038 67.9244 73.6136C67.9244 72.7311 68.074 71.9545 68.3732 71.2841C68.6763 70.6136 69.0986 70.0909 69.6403 69.7159C70.1819 69.3409 70.8126 69.1534 71.5323 69.1534C72.0664 69.1534 72.5096 69.2481 72.8619 69.4375C73.2141 69.6231 73.4963 69.8542 73.7085 70.1307C73.9244 70.4072 74.0929 70.6761 74.2141 70.9375H74.3164V69.2727H75.305V78.2273C75.305 78.9659 75.1478 79.5739 74.8335 80.0511C74.5191 80.5284 74.091 80.8807 73.5494 81.108C73.0077 81.339 72.3922 81.4545 71.7028 81.4545ZM71.6346 76.983C72.1952 76.983 72.6744 76.8485 73.0721 76.5795C73.4698 76.3068 73.7747 75.9167 73.9869 75.4091C74.199 74.9015 74.305 74.2973 74.305 73.5966C74.305 72.9148 74.2009 72.3106 73.9925 71.7841C73.7842 71.2538 73.4812 70.8371 73.0835 70.5341C72.6895 70.2273 72.2066 70.0739 71.6346 70.0739C71.0513 70.0739 70.5588 70.2311 70.1573 70.5455C69.7558 70.8598 69.4528 71.2841 69.2482 71.8182C69.0437 72.3485 68.9414 72.9413 68.9414 73.5966C68.9414 74.2633 69.0456 74.8523 69.2539 75.3636C69.4622 75.8712 69.7672 76.2689 70.1687 76.5568C70.5702 76.8409 71.0588 76.983 71.6346 76.983ZM83.6922 71.1875L82.7661 71.4489C82.6752 71.1875 82.5464 70.9508 82.3797 70.7386C82.2131 70.5265 81.9953 70.358 81.7263 70.233C81.4612 70.108 81.1316 70.0455 80.7377 70.0455C80.1468 70.0455 79.6619 70.1856 79.2831 70.4659C78.9044 70.7462 78.715 71.108 78.715 71.5511C78.715 71.9261 78.8438 72.2311 79.1013 72.4659C79.3627 72.697 79.7642 72.8807 80.3059 73.017L81.6241 73.3409C82.3551 73.5189 82.9025 73.8011 83.2661 74.1875C83.6335 74.5739 83.8172 75.0587 83.8172 75.642C83.8172 76.1345 83.6809 76.572 83.4081 76.9545C83.1354 77.3371 82.7547 77.6383 82.2661 77.858C81.7813 78.0739 81.2188 78.1818 80.5786 78.1818C79.7263 78.1818 79.0237 77.9905 78.4706 77.608C77.9176 77.2216 77.5634 76.6648 77.4081 75.9375L78.3797 75.6989C78.5047 76.2178 78.7491 76.6098 79.1127 76.875C79.4801 77.1402 79.9631 77.2727 80.5616 77.2727C81.232 77.2727 81.768 77.1231 82.1695 76.8239C82.571 76.5208 82.7718 76.142 82.7718 75.6875C82.7718 75.3352 82.6544 75.0398 82.4195 74.8011C82.1847 74.5587 81.8286 74.3807 81.3513 74.267L79.9252 73.9261C79.1676 73.7443 78.607 73.4564 78.2434 73.0625C77.8797 72.6686 77.6979 72.1799 77.6979 71.5966C77.6979 71.1155 77.8286 70.6932 78.09 70.3295C78.3513 69.9621 78.7112 69.6742 79.1695 69.4659C79.6278 69.2576 80.1506 69.1534 80.7377 69.1534C81.5369 69.1534 82.1752 69.3352 82.6525 69.6989C83.1335 70.0587 83.4801 70.5549 83.6922 71.1875Z" fill="white"/>
</svg>
